<?xml version="1.0" encoding="utf-8"?>
<!-- Generator: Adobe Illustrator 23.0.2, SVG Export Plug-In . SVG Version: 6.00 Build 0)  -->
<svg version="1.1" id="Layer_1" xmlns="http://www.w3.org/2000/svg" xmlns:xlink="http://www.w3.org/1999/xlink" x="0px" y="0px"
	 viewBox="0 0 18 34.9" style="enable-background:new 0 0 18 34.9;" xml:space="preserve">
<style type="text/css">
	.st0{fill:#B2D0E1;}
	.st1{fill:#72AAC9;}
	.st2{fill:#3383B1;}
	.st3{fill:#00649E;}
</style>
<path class="st0" d="M7.3,7.3C7.2,7.6,6.8,7.8,6.5,7.7L1.7,6C1.4,5.9,1.2,5.5,1.3,5.2L3,0.4C3.1,0.1,3.5-0.1,3.8,0l4.8,1.7
	C8.9,1.8,9.1,2.2,9,2.5L7.3,7.3"/>
<path class="st1" d="M16.2,15.7c-0.1,0.3-0.5,0.5-0.8,0.4l-4.8-1.7c-0.3-0.1-0.5-0.5-0.4-0.8l1.7-4.8c0.1-0.3,0.5-0.5,0.8-0.4
	l4.8,1.7c0.3,0.1,0.5,0.5,0.4,0.8L16.2,15.7"/>
<path class="st1" d="M6.6,20.2c-0.1,0.3-0.5,0.5-0.8,0.4L1,18.9c-0.3-0.1-0.5-0.5-0.4-0.8l1.7-4.8c0.1-0.3,0.5-0.5,0.8-0.4l4.8,1.7
	c0.3,0.1,0.5,0.5,0.4,0.8L6.6,20.2"/>
<path class="st2" d="M15.5,27.4c-0.1,0.3-0.5,0.5-0.8,0.4l-4.8-1.7c-0.3-0.1-0.5-0.5-0.4-0.8l1.7-4.8c0.1-0.3,0.5-0.5,0.8-0.4
	l4.8,1.7c0.3,0.1,0.5,0.5,0.4,0.8L15.5,27.4"/>
<path class="st3" d="M13.1,34.4c-0.1,0.3-0.5,0.5-0.8,0.4l-4.8-1.7C7.2,33,7,32.6,7.1,32.3l1.7-4.8c0.1-0.3,0.5-0.5,0.8-0.4l4.8,1.7
	c0.3,0.1,0.5,0.5,0.4,0.8L13.1,34.4"/>
<path class="st2" d="M6,31.9c-0.1,0.3-0.5,0.5-0.8,0.4l-4.8-1.7c-0.3-0.1-0.5-0.5-0.4-0.8L1.7,25c0.1-0.3,0.5-0.5,0.8-0.4l4.8,1.7
	c0.3,0.1,0.5,0.5,0.4,0.8L6,31.9"/>
</svg>
