<?xml version="1.0" encoding="utf-8"?>
<!-- Generator: Adobe Illustrator 23.0.2, SVG Export Plug-In . SVG Version: 6.00 Build 0)  -->
<svg version="1.1" id="Layer_1" xmlns="http://www.w3.org/2000/svg" xmlns:xlink="http://www.w3.org/1999/xlink" x="0px" y="0px"
	 viewBox="0 0 932.8 342.7" style="enable-background:new 0 0 932.8 342.7;" xml:space="preserve">
<style type="text/css">
	.st0{fill-rule:evenodd;clip-rule:evenodd;}
</style>
<title>Amazon Web Services</title>
<polygon points="153.4,71.5 121.3,60.8 121.3,14.3 153.4,23.8 "/>
<polyline points="161.7,23.8 193.9,14.3 193.7,60.8 161.7,71.5 161.7,23.8 "/>
<polyline points="187.3,9.3 157.4,0 127.9,9.3 157.4,17.2 187.3,9.3 "/>
<polygon points="234.3,71.5 202.2,60.8 202.2,14.3 234.3,23.8 "/>
<polyline points="242.6,23.8 274.7,14.3 274.6,60.8 242.6,71.5 242.6,23.8 "/>
<polyline points="268.2,9.3 238.3,0 208.7,9.3 238.3,17.2 268.2,9.3 "/>
<polygon points="32.1,91.8 0,82.2 0,128.7 32.1,139.5 "/>
<polyline points="40.4,91.8 72.6,82.2 72.4,128.7 40.4,139.5 40.4,91.8 "/>
<polyline points="66,77.2 36.1,67.9 6.6,77.2 36.1,85.2 66,77.2 "/>
<polygon points="112.9,139.5 80.9,128.7 80.9,82.2 113,91.8 "/>
<polyline points="121.3,91.8 153.4,82.2 153.3,128.7 121.3,139.5 121.3,91.8 "/>
<polyline points="146.9,77.2 117,67.9 87.4,77.2 117,85.2 146.9,77.2 "/>
<polygon points="72.5,207.4 40.4,196.7 40.4,150.2 72.6,159.7 "/>
<polyline points="80.9,159.7 113,150.2 112.9,196.6 80.9,207.4 80.9,159.7 "/>
<polyline points="106.4,145.2 76.5,135.9 47,145.2 76.6,153.1 106.4,145.2 "/>
<path d="M214.5,166.3h-2.4c-0.9,0-2,0.6-2.2,1.5l-7.2,25.3l-7.1-25.2c-0.2-0.8-1-1.6-2-1.6h-2.7c-1,0-1.7,0.8-1.9,1.6l-6.6,25
	l-6.8-25c-0.3-0.9-1.4-1.5-2.3-1.5h-3.4c-0.7,0-1.4,0.3-1.8,0.8c-0.2,0.3-0.3,0.7-0.2,1.1l10.5,37.3c0.2,0.8,0.9,1.6,1.9,1.6h3.4
	c0.9,0,1.7-0.7,1.9-1.6l6.5-24.8l7,24.9c0.2,0.8,0.9,1.6,1.9,1.6h3.3c0.9,0,1.7-0.6,1.9-1.6l10.1-37.3c0.1-0.4,0-0.8-0.2-1.1
	C215.9,166.6,215.3,166.3,214.5,166.3L214.5,166.3z"/>
<path d="M235.1,166c-12.1,0-17.5,10.7-17.5,20.6c0,12.4,6.8,20.4,17.4,20.4c7.6,0,13.3-3.8,15.8-10.5c0.1-0.4,0.1-0.8-0.1-1.2
	s-0.7-0.8-1.3-0.9l-3.4-0.6c-0.9-0.1-1.9,0.4-2.3,1.2c-1.6,3.7-4.6,5.8-8.3,5.9c-3.6-0.1-6.9-2.2-8.4-5.4c-1.2-2.6-1.4-5.2-1.4-7.8
	h24.2c0.5,0,1-0.2,1.4-0.6c0.3-0.3,0.5-0.7,0.5-1.1C251.6,176.3,247.2,166,235.1,166L235.1,166z M243.7,182.1h-17.8
	c0.4-5,3.7-10.2,9.2-10.4C240.9,171.9,243.6,177,243.7,182.1L243.7,182.1z"/>
<path d="M274.2,165.7h-0.6c-4,0-7.1,1.7-9.6,5.1v-15.7c0-0.9-0.9-1.7-1.9-1.7h-3.5c-0.9,0-1.9,0.7-1.9,1.7v49.1
	c0,0.9,0.9,1.7,1.9,1.7h1c1,0,1.7-0.8,1.9-1.5l1.1-3.5c2.5,3.6,6.3,5.7,10.4,5.7h0.6c10.7,0,15.5-10.5,15.5-20.9
	c0-5.2-1.3-10.1-3.5-13.6C283.2,168.2,278.8,165.7,274.2,165.7L274.2,165.7z M281.5,186.7c0,2.3-0.4,13.7-8.5,14
	c-2.7-0.1-5.4-1.7-7-4.1c-1.1-1.8-1.8-4.3-1.9-7.3v-6.7c0.1-5.1,3.7-10.8,8.9-11C281.1,171.9,281.5,184.2,281.5,186.7z"/>
<path d="M327.4,185.6c-2.3-1.6-5-2.2-7.7-2.7l-5.2-1c-3.8-0.6-5.9-1.6-5.9-4.9c0-3.5,3.6-4.9,6.7-4.9c3.8,0.1,6.6,1.8,8,4.7
	c0.3,0.7,1,1.2,1.8,1.2h0.4l3.3-0.7c0.5-0.1,1-0.5,1.3-1c0.2-0.4,0.3-0.8,0.1-1.2c-2-5.8-7.1-8.9-14.7-8.9
	c-6.9,0-14.3,3.1-14.3,11.7c0,5.9,3.7,9.6,11,11.1l5.9,1.1c3.2,0.6,6.5,1.7,6.5,5.2c0,5.1-5.9,5.6-7.7,5.7c-4-0.1-8.6-1.9-9.7-5.7
	c-0.2-0.8-1.3-1.4-2.2-1.2l-3.4,0.7c-0.5,0.1-1,0.4-1.3,0.9c-0.2,0.4-0.3,0.8-0.2,1.2c1.8,6.3,7.9,10.2,16.3,10.2h0.2
	c7.6,0,15.6-3.2,15.6-12.3C331.9,191,330.2,187.7,327.4,185.6L327.4,185.6z"/>
<path d="M353.2,166.1c-12.1,0-17.5,10.7-17.5,20.6c0,12.4,6.8,20.4,17.4,20.4c7.6,0,13.3-3.8,15.8-10.5c0.1-0.4,0.1-0.8-0.1-1.2
	c-0.2-0.5-0.7-0.8-1.3-0.9l-3.3-0.6c-0.8-0.1-1.9,0.3-2.3,1.2c-1.6,3.7-4.6,5.8-8.3,5.9c-3.6-0.1-6.9-2.2-8.4-5.4
	c-1.2-2.6-1.4-5.2-1.4-7.8H368c0.5,0,1-0.2,1.4-0.6c0.3-0.3,0.5-0.7,0.5-1.1C369.7,176.4,365.4,166.1,353.2,166.1L353.2,166.1z
	 M361.9,182.2H344c0.4-5,3.7-10.2,9.2-10.4C359,172,361.7,177,361.9,182.2L361.9,182.2z"/>
<path d="M392.7,166.5c-0.5-0.1-0.9-0.1-1.4-0.1c-4.1,0-7.4,2.2-9.7,6.4v-3.7c0-0.9-0.9-1.7-1.9-1.7h-3c-1,0-1.9,0.8-1.9,1.7v36
	c0,0.9,0.9,1.7,1.9,1.7h3.5c0.9,0,2-0.7,2-1.7V187c0-3,0.3-5.2,1.7-7.9c2.1-3.8,4.9-5.7,8.7-5.7c0.9,0,1.8-0.8,1.8-1.8v-3.4
	C394.4,167.4,393.6,166.6,392.7,166.5z"/>
<path d="M429.7,165.8h-2.8c-0.9,0-2,0.6-2.3,1.5l-9,28.5l-9.2-28.4c-0.3-0.9-1.4-1.6-2.3-1.6h-4c-0.7,0-1.4,0.3-1.8,0.8
	c-0.2,0.3-0.3,0.7-0.2,1.1l12.6,37.5c0.2,0.7,0.9,1.6,1.9,1.6h4.8c0.9,0,1.6-0.6,1.9-1.6l12.2-37.5c0.1-0.4,0.1-0.7-0.2-1.1
	C431.2,166.2,430.4,165.8,429.7,165.8L429.7,165.8z"/>
<path d="M438.9,151.4c-2.6,0-4.7,2.1-4.7,4.7s2.1,4.7,4.7,4.7s4.7-2.1,4.7-4.7C443.5,153.5,441.4,151.4,438.9,151.4z"/>
<path d="M440.8,165.6H437c-1,0-2,0.8-2,1.8v38.2c0,0.5,0.2,0.9,0.6,1.3c0.4,0.3,0.9,0.5,1.3,0.5h3.8c1,0,2-0.8,2-1.7v-38.2
	C442.8,166.4,441.9,165.6,440.8,165.6L440.8,165.6z"/>
<path d="M476.5,191.5h-3.2c-0.9,0-1.6,0.5-2,1.5c-1.2,5-3.8,7.7-7.8,7.8c-7.8-0.2-8.4-11.1-8.4-14.5c0-6.6,2.3-13.8,8.7-14
	c3.9,0.1,6.7,2.9,7.5,7.4c0.2,0.9,0.9,1.6,1.8,1.7h3.4c1-0.1,1.8-0.9,1.8-1.9c-1.2-8.2-6.9-13.5-14.4-13.5h-0.3h-0.3
	c-11,0-15.9,10.3-15.9,20.5c0,9.4,4.2,20.3,15.9,20.3h0.5c7.4,0,13-5.2,14.5-13.6c0-0.4-0.1-0.8-0.4-1.1
	C477.7,191.8,477.1,191.5,476.5,191.5L476.5,191.5z"/>
<path d="M499.3,166.1c-12,0-17.5,10.7-17.5,20.6c0,12.4,6.8,20.4,17.4,20.4c7.6,0,13.3-3.8,15.8-10.5c0.1-0.4,0.1-0.8-0.1-1.2
	c-0.3-0.5-0.7-0.8-1.3-0.9l-3.4-0.6c-0.8-0.1-1.9,0.3-2.3,1.2c-1.6,3.7-4.6,5.8-8.3,5.9c-3.6-0.1-6.9-2.2-8.4-5.4
	c-1.2-2.6-1.4-5.2-1.4-7.8H514c0.5,0,1-0.2,1.4-0.6c0.3-0.3,0.5-0.7,0.5-1.1C515.9,176.4,511.5,166.1,499.3,166.1L499.3,166.1z
	 M508,182.2h-17.8c0.4-5,3.6-10.2,9.2-10.4C505.2,172,507.9,177,508,182.2z"/>
<path d="M546.3,185.6c-2.3-1.6-5-2.2-7.7-2.7l-5.2-1c-3.7-0.6-5.9-1.6-5.9-4.9c0-4.5,5.6-4.9,6.7-4.9c3.8,0.1,6.6,1.8,8,4.7
	c0.3,0.7,1,1.2,1.8,1.2h0.4l3.3-0.7c0.5-0.1,1-0.5,1.3-1c0.2-0.4,0.3-0.8,0.1-1.2c-2-5.8-7.1-8.9-14.7-8.9
	c-6.9,0-14.3,3.1-14.3,11.7c0,5.9,3.7,9.6,11,11.1l5.8,1.1c3.2,0.6,6.5,1.7,6.5,5.2c0,5.1-5.9,5.6-7.7,5.7c-3.7-0.1-8.5-1.6-9.7-5.7
	c-0.2-0.8-1.3-1.4-2.2-1.2l-3.4,0.7c-0.5,0.1-1,0.4-1.3,0.9c-0.2,0.4-0.3,0.8-0.2,1.2c1.8,6.3,7.9,10.2,16.3,10.2h0.2
	c7.5,0,15.6-3.2,15.6-12.3C550.8,191,549.2,187.7,546.3,185.6L546.3,185.6z"/>
<path class="st0" d="M390.9,92v-8.7c0-1.3,1-2.2,2.2-2.2h38.8c1.2,0,2.2,0.9,2.2,2.2v7.4c0,1.2-1.1,2.9-2.9,5.5L411.1,125
	c7.5-0.2,15.4,0.9,22.1,4.8c1.5,0.9,1.9,2.1,2.1,3.4v9.3c0,1.3-1.4,2.8-2.9,2c-11.9-6.3-27.8-7-41,0.1c-1.3,0.7-2.8-0.7-2.8-2v-8.8
	c0-1.4,0-3.8,1.5-6l23.3-33.5h-20.3C391.9,94.2,391,93.3,390.9,92"/>
<path class="st0" d="M249.5,146.2h-11.8c-1.1-0.1-2-0.9-2.1-2V83.5c0-1.2,1-2.2,2.3-2.2h11c1.1,0.1,2.1,0.9,2.1,2v7.9h0.2
	c2.9-7.7,8.3-11.2,15.5-11.2c7.4,0,12,3.6,15.3,11.2c2.9-7.7,9.4-11.2,16.3-11.2c5,0,10.3,2,13.6,6.6c3.7,5.1,3,12.5,3,19v38.3
	c0,1.2-1,2.2-2.3,2.2h-11.7c-1.2-0.1-2.1-1-2.1-2.2v-32.2c0-2.6,0.2-8.9-0.3-11.4c-0.9-4.1-3.5-5.2-6.9-5.2c-2.9,0-5.8,1.9-7.1,5
	c-1.2,3.1-1.1,8.2-1.1,11.6v32.2c0,1.2-1,2.2-2.3,2.2h-11.8c-1.2-0.1-2.1-1-2.1-2.2v-32.2c0-6.8,1.1-16.7-7.3-16.7
	c-8.5,0-8.1,9.7-8.1,16.7v32.2C251.7,145.2,250.7,146.2,249.5,146.2"/>
<path class="st0" d="M467.6,80c17.5,0,27,15.1,27,34.2c0,18.5-10.5,33.2-27,33.2c-17.2,0-26.5-15.1-26.5-33.9
	C441,94.7,450.5,80,467.6,80 M467.7,92.4c-8.7,0-9.3,11.9-9.3,19.3s-0.1,23.2,9.1,23.2c9.1,0,9.6-12.8,9.6-20.6
	c0-5.1-0.2-11.2-1.8-16.1C474.1,94.1,471.4,92.4,467.7,92.4L467.7,92.4z"/>
<path class="st0" d="M517.3,146.2h-11.7c-1.2-0.1-2.1-1-2.1-2.2V83.3c0.1-1.1,1.1-2,2.3-2h11c1,0.1,1.9,0.8,2.1,1.7v9.3h0.2
	C522.4,84,527,80,535.2,80c5.3,0,10.5,1.9,13.8,7.1c3.1,4.9,3.1,13,3.1,18.9v38.2c-0.1,1.1-1.1,1.9-2.3,1.9H538
	c-1.1-0.1-2-0.9-2.1-1.9v-33c0-6.6,0.8-16.4-7.4-16.4c-2.9,0-5.5,1.9-6.8,4.9c-1.7,3.7-1.9,7.4-1.9,11.5v32.7
	C519.5,145.2,518.5,146.2,517.3,146.2"/>
<path class="st0" d="M360,117.2c0,4.6,0.1,8.5-2.2,12.5c-1.9,3.3-4.9,5.4-8.2,5.4c-4.5,0-7.2-3.5-7.2-8.6c0-10.1,9-11.9,17.6-11.9
	L360,117.2 M371.9,146c-0.8,0.7-1.9,0.7-2.8,0.3c-3.9-3.3-4.6-4.8-6.8-7.9c-6.5,6.6-11.1,8.6-19.5,8.6c-9.9,0-17.7-6.1-17.7-18.4
	c0-9.6,5.2-16.1,12.6-19.3c6.4-2.8,15.4-3.3,22.2-4.1v-1.5c0-2.8,0.2-6.1-1.4-8.6c-1.4-2.2-4.2-3.1-6.6-3.1c-4.5,0-8.5,2.3-9.5,7.1
	c-0.2,1.1-1,2.1-2,2.2l-11.4-1.2c-1-0.2-2-1-1.8-2.5c2.6-13.9,15.2-18.1,26.4-18.1c5.7,0,13.2,1.5,17.8,5.9
	c5.7,5.4,5.2,12.5,5.2,20.4v18.4c0,5.5,2.3,8,4.5,11c0.7,1.1,0.9,2.3,0,3.1C378.6,140.2,374.3,144,371.9,146L371.9,146z"/>
<path class="st0" d="M205.3,117.2c0,4.6,0.1,8.5-2.2,12.5c-1.9,3.3-4.9,5.4-8.2,5.4c-4.5,0-7.2-3.5-7.2-8.6c0-10.1,9-11.9,17.6-11.9
	L205.3,117.2 M217.2,146c-0.8,0.7-1.9,0.7-2.8,0.3c-3.9-3.3-4.6-4.8-6.8-7.9c-6.5,6.6-11.1,8.6-19.4,8.6c-9.9,0-17.7-6.1-17.7-18.4
	c0-9.6,5.2-16.1,12.6-19.3c6.4-2.8,15.3-3.3,22.2-4.1v-1.5c0-2.8,0.2-6.1-1.4-8.6c-1.4-2.2-4.2-3.1-6.6-3.1c-4.5,0-8.5,2.3-9.5,7.1
	c-0.2,1.1-1,2.1-2,2.2l-11.4-1.2c-1-0.2-2-1-1.8-2.5c2.6-13.9,15.2-18.1,26.4-18.1c5.7,0,13.3,1.5,17.8,5.9
	c5.7,5.4,5.2,12.5,5.2,20.4v18.4c0,5.5,2.3,8,4.4,11c0.8,1.1,0.9,2.3,0,3.1C223.9,140.2,219.6,144,217.2,146L217.2,146z"/>
<path d="M646.9,156.1h4.7l38.4,52h0.2v-52h3.7v56.7h-4.4l-38.6-52.4h-0.2v52.4h-3.8V156.1z"/>
<path d="M704,192.8c-0.2,9.6,5.3,18.3,16.1,18.3c8.3,0,14.1-4.6,15.7-12.2h3.2c-1.7,9.5-8.5,14.8-18.9,14.8
	c-12.8,0-19.5-9.4-19.3-20.7c-0.2-11.2,6.1-22.1,19.3-22.1c13.7,0,19.8,10.1,19.2,21.8H704V192.8z M736.1,190.2
	c-0.2-8.6-6-16.5-16-16.5c-9.7,0-15.4,8.4-16.1,16.5H736.1z"/>
<path d="M762.6,174.6h-9.5v28.6c0,6.6,3.3,7.2,9.4,7.1v2.6c-6.6,0.4-13-0.5-12.7-9.7v-28.5h-8.1v-2.6h8.1v-12.7h3.2v12.7h9.5
	L762.6,174.6L762.6,174.6z"/>
<path d="M779.8,209.4h0.2l11.9-37.3h4.3l12,37.3h0.2l12.3-37.3h3.6l-14,40.8h-4l-12-37h-0.2l-12.1,37h-4.1l-14-40.9h3.5L779.8,209.4
	L779.8,209.4z"/>
<path d="M845.4,171.1c12.9,0,20.1,9.8,20.1,21.4s-7.2,21.4-20.1,21.4c-12.8,0-20.1-9.8-20.1-21.4
	C825.3,180.8,832.5,171.1,845.4,171.1z M845.4,211.2c11,0,16.8-9,16.8-18.7c0-9.8-5.9-18.7-16.8-18.7c-11,0-16.8,9-16.8,18.7
	C828.5,202.2,834.4,211.2,845.4,211.2z"/>
<path d="M875.9,181.1h0.3c1.7-5.3,8.9-9.6,16.8-9.3v3c-3.4-0.4-8.2,0.4-12.1,4c-3.2,3.1-4.6,5.6-4.9,11.8v22.3h-3.2v-40.8h3.2
	L875.9,181.1L875.9,181.1z"/>
<path d="M896.5,156.1h3.2v37.6l27-21.7h4.7l-19.1,15.3l20.5,25.6h-4.4l-18.6-23.3l-10,7.9v15.4h-3.2v-56.8L896.5,156.1z"/>
<path d="M647.4,82h25.5c6.8,0,17.4,2.3,17.4,15.6c0,9.8-6.9,15.3-18.8,15.3h-20.4v24.9h-3.7V82z M651,110h21
	c10.8,0,14.5-6.6,14.5-12.4c0-4.1-2-12.6-14-12.6H651V110z"/>
<path d="M728.2,130.4c0,2.3,0,4.8,2.8,4.8c0.6,0,1.3-0.1,2.3-0.2v2.5c-0.9,0.2-1.8,0.3-2.6,0.3c-5,0-5.8-2.6-5.8-5.9v-2.1h-0.2
	c-2,4.8-7.8,8.9-16,8.9c-8.1,0-14.4-2.9-14.4-11.3c0-9.4,8.7-11.3,15.8-11.9c14.2-0.9,14.8-1.8,14.8-8.4c0-1.8-2.2-7.9-12-7.9
	c-7.7,0-12.8,3.8-13.2,10.7h-3.2c0.4-8.8,6.3-13.3,16.4-13.3c7.5,0,15.1,2.2,15.1,10.5v23.3L728.2,130.4z M725,115
	c-2.5,2.7-9.4,2.3-15.6,3.1c-7.5,0.8-11.8,3.3-11.8,9.3c0,4.8,3.8,8.8,11.3,8.8c14.5,0,16.1-11.6,16.1-13.7V115L725,115z"/>
<path d="M741.7,106.6h0.3c1.7-5.2,8.7-9.5,16.5-9.1v3c-3.4-0.4-8,0.4-11.9,3.9c-3.2,3-4.5,5.6-4.9,11.6v22h-3.2V97.8h3.2
	L741.7,106.6L741.7,106.6z"/>
<path d="M779.9,100.3h-9.4v28.1c0,6.5,3.3,7.1,9.3,7v2.6c-6.5,0.4-12.8-0.5-12.5-9.5v-28.1h-8v-2.6h8V85.2h3.2v12.5h9.4V100.3z"/>
<path d="M785.9,97.7h3.2v8.6h0.2c2.2-6,8.7-9.5,15.4-9.5c15.2,0,15.3,11.3,15.3,16.3V138h-3.2v-25.4c0-4.1-0.5-13.1-12.2-13.1
	c-9.6,0-15.5,7-15.5,16.8V138h-3.2V97.7z"/>
<path d="M830.8,118.2c-0.2,9.5,5.2,18.1,15.8,18.1c8.1,0,13.9-4.5,15.4-12h3.2c-1.7,9.4-8.4,14.5-18.6,14.5
	c-12.6,0-19.2-9.2-19-20.3c-0.2-11,6-21.7,19-21.7c13.5,0,19.5,9.9,18.9,21.4H830.8L830.8,118.2z M862.4,115.6
	c-0.2-8.4-5.9-16.3-15.7-16.3c-9.5,0-15.2,8.3-15.8,16.3H862.4z"/>
<path d="M876.4,106.6h0.3c1.7-5.2,8.7-9.5,16.5-9.1v3c-3.4-0.4-8,0.4-11.9,3.9c-3.2,3-4.5,5.6-4.9,11.6v22h-3.2V97.8h3.2
	L876.4,106.6L876.4,106.6z"/>
<rect x="600.6" y="39.3" width="3.5" height="218.5"/>
<path d="M80.9,308.3L94,341.9h-4.9l-3.7-10.1H71.2l-3.8,10.1h-4.5L76,308.3H80.9L80.9,308.3z M84,328l-5.6-15.7h-0.1L72.6,328
	C72.6,328,84,328,84,328z"/>
<path d="M108.8,308.3c5.2,0,9.1,1.3,11.9,3.9s4.2,6.6,4.2,12c0,2.8-0.3,5.3-0.9,7.5s-1.6,4-2.9,5.5s-3,2.6-5,3.4s-4.4,1.2-7.2,1.2
	H97.4v-33.6h11.4V308.3z M109.1,338.1c0.5,0,1.1,0,1.9-0.1s1.6-0.3,2.4-0.6s1.7-0.7,2.5-1.3s1.6-1.3,2.2-2.3c0.7-1,1.2-2.2,1.6-3.6
	c0.4-1.5,0.6-3.2,0.6-5.3c0-2-0.2-3.8-0.6-5.4s-1-2.9-1.9-4s-2-2-3.5-2.5c-1.4-0.6-3.1-0.9-5.2-0.9h-7.5v26L109.1,338.1L109.1,338.1
	z"/>
<path d="M138.5,341.9l-11.8-33.6h4.8l9.6,29.1h0.1l9.7-29.1h4.7l-11.9,33.6H138.5L138.5,341.9z"/>
<path d="M171,308.3l13.1,33.6h-4.9l-3.7-10.1h-14.2l-3.8,10.1h-4.6l13.1-33.6H171L171,308.3z M174.1,328l-5.6-15.7h-0.1l-5.7,15.7
	H174.1L174.1,328z"/>
<path d="M192.1,308.3l17.7,27.2h0.1v-27.2h4.2v33.6h-4.9L191.7,315h-0.1v26.9h-4.2v-33.6H192.1L192.1,308.3z"/>
<path d="M241.6,313.1c-1.7-1.2-3.7-1.8-6.1-1.8c-2,0-3.7,0.4-5.1,1.1c-1.4,0.8-2.6,1.8-3.5,3c-0.9,1.3-1.6,2.7-2,4.3
	s-0.7,3.3-0.7,5.1c0,1.9,0.2,3.7,0.7,5.4c0.4,1.7,1.1,3.2,2,4.5s2.1,2.3,3.5,3c1.4,0.8,3.2,1.1,5.2,1.1c1.5,0,2.8-0.2,3.9-0.7
	s2.1-1.2,3-2c0.8-0.9,1.5-1.9,2-3.1s0.8-2.5,0.8-3.9h4.5c-0.4,4.2-1.9,7.5-4.4,9.9s-5.9,3.5-10.2,3.5c-2.6,0-4.9-0.4-6.8-1.3
	s-3.6-2.1-4.8-3.7c-1.3-1.6-2.2-3.4-2.9-5.5c-0.6-2.1-1-4.4-1-6.9c0-2.4,0.3-4.7,1-6.9c0.7-2.1,1.7-4,3-5.6s3-2.9,5-3.8
	s4.3-1.4,6.8-1.4c1.8,0,3.4,0.2,5,0.7s3,1.2,4.2,2.1s2.2,2,3.1,3.4c0.8,1.4,1.3,2.9,1.6,4.7h-4.5C244.4,316,243.3,314.3,241.6,313.1
	L241.6,313.1z"/>
<path d="M278.4,308.3v3.8h-18.7v10.7h17.4v3.8h-17.4v11.6h18.8v3.8h-23.3v-33.6L278.4,308.3L278.4,308.3z"/>
<path d="M295.5,308.3c5.2,0,9.1,1.3,11.9,3.9s4.2,6.6,4.2,12c0,2.8-0.3,5.3-0.9,7.5s-1.6,4-2.9,5.5s-3,2.6-5,3.4s-4.4,1.2-7.2,1.2
	h-11.7v-33.6h11.6V308.3z M295.8,338.1c0.5,0,1.1,0,1.9-0.1s1.6-0.3,2.4-0.6s1.7-0.7,2.5-1.3s1.6-1.3,2.2-2.3c0.7-1,1.2-2.2,1.6-3.6
	c0.4-1.5,0.6-3.2,0.6-5.3c0-2-0.2-3.8-0.6-5.4s-1-2.9-1.9-4s-2-2-3.5-2.5c-1.4-0.6-3.1-0.9-5.2-0.9h-7.5v26L295.8,338.1L295.8,338.1
	z"/>
<path d="M326.5,312.1v-3.8h26.8v3.8h-11.2v29.8h-4.5v-29.8H326.5L326.5,312.1z"/>
<path d="M380.2,308.3v3.8h-18.7v10.7h17.4v3.8h-17.4v11.6h18.8v3.8H357v-33.6L380.2,308.3L380.2,308.3z"/>
<path d="M406.1,313.1c-1.7-1.2-3.7-1.8-6.1-1.8c-2,0-3.7,0.4-5.1,1.1c-1.4,0.8-2.6,1.8-3.5,3c-0.9,1.3-1.6,2.7-2,4.3
	s-0.7,3.3-0.7,5.1c0,1.9,0.2,3.7,0.7,5.4c0.4,1.7,1.1,3.2,2,4.5s2.1,2.3,3.5,3c1.4,0.8,3.2,1.1,5.2,1.1c1.5,0,2.8-0.2,3.9-0.7
	s2.1-1.2,3-2c0.8-0.9,1.5-1.9,2-3.1s0.8-2.5,0.8-3.9h4.5c-0.4,4.2-1.9,7.5-4.4,9.9s-5.9,3.5-10.2,3.5c-2.6,0-4.9-0.4-6.8-1.3
	s-3.6-2.1-4.8-3.7c-1.3-1.6-2.2-3.4-2.9-5.5c-0.6-2.1-1-4.4-1-6.9c0-2.4,0.3-4.7,1-6.9c0.7-2.1,1.7-4,3-5.6s3-2.9,5-3.8
	s4.3-1.4,6.8-1.4c1.8,0,3.4,0.2,5,0.7s3,1.2,4.2,2.1s2.2,2,3.1,3.4c0.8,1.4,1.3,2.9,1.6,4.7h-4.5C408.9,316,407.8,314.3,406.1,313.1
	L406.1,313.1z"/>
<path d="M424.2,308.3v14.4h17.7v-14.4h4.5v33.6h-4.5v-15.4h-17.7v15.4h-4.5v-33.6H424.2z"/>
<path d="M458.4,308.3l17.7,27.2h0.1v-27.2h4.2v33.6h-4.9l-17.6-27h-0.1v26.9h-4.2v-33.6h4.8L458.4,308.3z"/>
<path d="M486.7,318.5c0.7-2.1,1.7-4,3-5.6s3-2.9,5-3.9s4.3-1.5,7-1.5s5,0.5,7,1.5s3.7,2.3,5,3.9s2.4,3.5,3,5.6c0.7,2.1,1,4.3,1,6.6
	s-0.3,4.5-1,6.6s-1.7,4-3,5.6s-3,2.9-5,3.9s-4.3,1.4-7,1.4s-5-0.5-7-1.4c-2-1-3.7-2.2-5-3.9c-1.3-1.6-2.4-3.5-3-5.6
	c-0.7-2.1-1-4.3-1-6.6S486,320.6,486.7,318.5z M490.8,330.1c0.4,1.6,1.1,3.1,2.1,4.4c0.9,1.3,2.1,2.4,3.6,3.2s3.2,1.2,5.3,1.2
	s3.8-0.4,5.3-1.2s2.7-1.9,3.6-3.2s1.6-2.8,2.1-4.4c0.4-1.6,0.7-3.3,0.7-5s-0.2-3.4-0.7-5c-0.4-1.6-1.1-3.1-2.1-4.4
	c-0.9-1.3-2.1-2.4-3.6-3.2s-3.2-1.2-5.3-1.2s-3.8,0.4-5.3,1.2s-2.7,1.9-3.6,3.2s-1.6,2.8-2.1,4.4c-0.4,1.6-0.7,3.3-0.7,5
	S490.4,328.5,490.8,330.1z"/>
<path d="M527.8,308.3v29.8h17.8v3.8h-22.2v-33.6L527.8,308.3L527.8,308.3z"/>
<path d="M548.6,318.5c0.7-2.1,1.7-4,3-5.6s3-2.9,5-3.9s4.3-1.5,7-1.5s5,0.5,7,1.5s3.7,2.3,5,3.9s2.4,3.5,3,5.6c0.7,2.1,1,4.3,1,6.6
	s-0.3,4.5-1,6.6s-1.7,4-3,5.6s-3,2.9-5,3.9s-4.3,1.4-7,1.4s-5-0.5-7-1.4c-2-1-3.7-2.2-5-3.9c-1.3-1.6-2.4-3.5-3-5.6
	c-0.7-2.1-1-4.3-1-6.6S547.9,320.6,548.6,318.5z M552.7,330.1c0.4,1.6,1.1,3.1,2.1,4.4c0.9,1.3,2.1,2.4,3.6,3.2s3.2,1.2,5.3,1.2
	c2,0,3.8-0.4,5.3-1.2s2.7-1.9,3.6-3.2s1.6-2.8,2.1-4.4c0.4-1.6,0.7-3.3,0.7-5s-0.2-3.4-0.7-5s-1.1-3.1-2.1-4.4
	c-0.9-1.3-2.1-2.4-3.6-3.2s-3.2-1.2-5.3-1.2c-2,0-3.8,0.4-5.3,1.2s-2.7,1.9-3.6,3.2s-1.6,2.8-2.1,4.4c-0.4,1.6-0.7,3.3-0.7,5
	S552.2,328.5,552.7,330.1z"/>
<path d="M605.4,341.5c-1.9,0.8-3.9,1.2-5.9,1.2c-2.5,0-4.7-0.5-6.7-1.4s-3.7-2.2-5-3.7c-1.4-1.6-2.4-3.4-3.1-5.4s-1.1-4.2-1.1-6.3
	c0-2.4,0.3-4.8,1-7s1.7-4.1,3-5.8s3-3,5-4s4.3-1.5,7-1.5c1.8,0,3.5,0.2,5.1,0.6s3.1,1.1,4.3,2c1.3,0.9,2.3,2.1,3.2,3.5
	s1.4,3.1,1.8,5.1h-4.5c-0.2-1.3-0.6-2.4-1.2-3.3s-1.3-1.7-2.2-2.3s-1.9-1-3-1.3s-2.3-0.4-3.5-0.4c-2,0-3.8,0.4-5.2,1.2
	c-1.5,0.8-2.6,1.9-3.6,3.2c-0.9,1.3-1.6,2.9-2,4.6s-0.7,3.5-0.7,5.2c0,1.8,0.3,3.4,0.8,5.1c0.5,1.6,1.2,3,2.2,4.3
	c1,1.2,2.2,2.2,3.6,3c1.4,0.7,3.1,1.1,5,1.1c1.8,0,3.3-0.3,4.7-0.8c1.3-0.6,2.5-1.3,3.4-2.3s1.6-2.1,2.1-3.5
	c0.5-1.3,0.7-2.8,0.6-4.3h-10.7v-4.1h14.7v17.7h-2.8l-1.2-4.2C608.9,339.4,607.3,340.7,605.4,341.5L605.4,341.5z"/>
<path d="M634.7,341.9h-4.5v-13.7l-13-19.8h5.3l10.1,16l9.8-16h5.1l-12.8,19.8V341.9z"/>
<path d="M679.1,308.3c3.4,0,5.9,0.9,7.7,2.6c1.7,1.7,2.6,4.2,2.6,7.3s-0.9,5.6-2.6,7.3c-1.7,1.8-4.3,2.6-7.7,2.6h-10.2v13.7h-4.5
	v-33.6h14.7V308.3z M677.6,324.4c2.5,0,4.4-0.5,5.6-1.6s1.8-2.6,1.8-4.6s-0.6-3.5-1.8-4.6s-3-1.6-5.6-1.6h-8.7v12.3h8.7V324.4z"/>
<path d="M705.4,308.3l13.1,33.6h-4.9l-3.7-10.1h-14.2l-3.8,10.1h-4.6l13.1-33.6H705.4L705.4,308.3z M708.5,328l-5.6-15.7h-0.1
	l-5.7,15.7H708.5L708.5,328z"/>
<path d="M737.6,308.3c3.2,0,5.7,0.8,7.5,2.4s2.7,3.7,2.7,6.4c0,2-0.5,3.8-1.4,5.4c-0.9,1.5-2.4,2.6-4.4,3.1v0.1
	c1,0.2,1.8,0.5,2.4,0.9s1.1,1,1.5,1.6s0.6,1.3,0.8,2c0.2,0.8,0.3,1.5,0.4,2.4c0.1,0.8,0.1,1.6,0.1,2.5c0,0.8,0.1,1.7,0.2,2.5
	s0.3,1.6,0.5,2.3s0.6,1.4,1.1,2h-5c-0.3-0.3-0.5-0.8-0.6-1.4s-0.2-1.3-0.2-2s-0.1-1.5-0.1-2.4c0-0.8-0.1-1.7-0.3-2.5
	c-0.1-0.8-0.3-1.6-0.5-2.3s-0.5-1.4-0.9-1.9s-0.9-1-1.6-1.3s-1.5-0.5-2.6-0.5h-10.9v14.3h-4.5v-33.6H737.6z M738.5,323.5
	c0.9-0.2,1.8-0.5,2.5-0.9c0.7-0.5,1.3-1.1,1.7-1.8c0.4-0.8,0.6-1.8,0.6-3c0-1.7-0.5-3.1-1.4-4.1c-0.9-1.1-2.5-1.6-4.6-1.6h-11.1
	v11.7h9.3C736.6,323.8,737.6,323.7,738.5,323.5L738.5,323.5z"/>
<path d="M749.6,312.1v-3.8h26.8v3.8h-11.2v29.8h-4.5v-29.8H749.6z"/>
<path d="M784.8,308.3l17.7,27.2h0.1v-27.2h4.2v33.6h-4.9L784.4,315h-0.1v26.9h-4.2v-33.6H784.8z"/>
<path d="M837.2,308.3v3.8h-18.7v10.7h17.4v3.8h-17.4v11.6h18.8v3.8H814v-33.6L837.2,308.3L837.2,308.3z"/>
<path d="M858.6,308.3c3.2,0,5.7,0.8,7.5,2.4s2.7,3.7,2.7,6.4c0,2-0.5,3.8-1.4,5.4c-0.9,1.5-2.4,2.6-4.4,3.1v0.1
	c1,0.2,1.8,0.5,2.4,0.9s1.1,1,1.5,1.6s0.6,1.3,0.8,2c0.2,0.8,0.3,1.5,0.4,2.4c0.1,0.8,0.1,1.6,0.1,2.5c0,0.8,0.1,1.7,0.2,2.5
	s0.3,1.6,0.5,2.3s0.6,1.4,1.1,2h-5c-0.3-0.3-0.5-0.8-0.6-1.4s-0.2-1.3-0.2-2s-0.1-1.5-0.1-2.4c0-0.8-0.1-1.7-0.3-2.5
	c-0.1-0.8-0.3-1.6-0.5-2.3s-0.5-1.4-0.9-1.9s-0.9-1-1.6-1.3s-1.5-0.5-2.6-0.5h-10.9v14.3h-4.5v-33.6H858.6z M859.5,323.5
	c0.9-0.2,1.8-0.5,2.5-0.9c0.7-0.5,1.3-1.1,1.7-1.8c0.4-0.8,0.6-1.8,0.6-3c0-1.7-0.5-3.1-1.4-4.1c-0.9-1.1-2.5-1.6-4.6-1.6h-11.1
	v11.7h9.3C857.6,323.8,858.6,323.7,859.5,323.5L859.5,323.5z"/>
</svg>
