<?xml version="1.0" encoding="utf-8"?>
<!-- Generator: Adobe Illustrator 23.0.2, SVG Export Plug-In . SVG Version: 6.00 Build 0)  -->
<svg version="1.1" id="Layer_1" xmlns="http://www.w3.org/2000/svg" xmlns:xlink="http://www.w3.org/1999/xlink" x="0px" y="0px"
	 viewBox="0 0 2000 404" style="enable-background:new 0 0 2000 404;" xml:space="preserve">
<g>
	<path d="M856.93,174.81c-4.94,3.79-43.73,2.65-48.05-0.11c0.44-3.59,1.37-6.74,1.11-9.8c-2.01-23.73-4.24-47.44-6.43-71.16
		c-1.17-12.77-2.37-25.54-3.57-38.31c-0.22-2.28-0.53-4.56-0.98-8.38c-1.44,2.94-2.24,4.51-2.99,6.1
		c-18.38,38.98-36.72,77.98-55.19,116.92c-1.21,2.53-3.4,4.59-5.13,6.88c-1.66-2.2-3.73-4.19-4.92-6.62
		c-18.67-38.28-37.23-76.61-55.81-114.93c-0.79-1.62-1.57-3.25-3.28-4.84c-0.46,4.51-0.99,9-1.37,13.51
		c-2.65,31.2-5.28,62.41-7.91,93.62c-0.05,0.66-0.08,1.33-0.1,1.99c-0.44,11.67,0.8,13.1,12.38,14.55c1.23,0.15,2.43,0.59,3.95,0.98
		c-3.02,2.66-44.47,2.8-48.33-0.06c2.68-0.42,4.67-0.92,6.67-1.01c5.65-0.27,9.21-3.18,10.06-8.62c1.53-9.86,2.76-19.77,3.88-29.69
		c4.3-38.4,8.51-76.8,12.75-115.2c0.48-4.31,0.76-8.64,1.49-12.9c0.24-1.38,1.62-2.55,2.48-3.82c1.06,0.94,2.52,1.68,3.11,2.85
		c4.49,8.92,8.81,17.92,13.18,26.9c17.99,36.95,35.97,73.91,53.96,110.87c0.57,1.15,1.23,2.26,2.21,4.04
		c1.16-2.26,2.07-3.92,2.88-5.64c20.9-44.59,41.76-89.21,62.75-133.76c0.94-2,2.99-3.49,4.52-5.21c0.84,2.04,2.2,4.03,2.44,6.14
		c3.52,31.61,6.87,63.24,10.32,94.86c1.83,16.72,3.34,33.49,5.81,50.11c2.11,14.19,7.27,18.17,21.71,19.12
		C852.37,174.32,854.2,174.55,856.93,174.81z"/>
	<path d="M91.22,86.89c-2.96-1.63-6.12-2.89-9.08-4.27c4.58-5.77,9.31-10.97,13.18-16.74c6.46-9.66,9.28-20.44,5.88-31.86
		c-4.81-16.13-17.35-23.7-32.91-24.78c-20.23-1.39-40.6-0.85-60.9-1.07C6.22,8.15,5.05,8.78,3.88,9.11
		c0.03,0.59,0.05,1.17,0.08,1.75c1.88,0.23,3.76,0.48,5.64,0.7c9.96,1.17,12.77,4.11,13.3,13.95C22.97,26.67,23,27.84,23,29
		c-0.02,41,0.03,82-0.15,122.99c-0.02,5.46-0.99,10.93-1.86,16.35c-0.65,4-3.06,6.49-7.39,6.88c-2.18,0.2-4.32,0.84-6.48,1.28
		c0.01,0.55,0.02,1.1,0.04,1.65c1.9,0.26,3.81,0.72,5.72,0.75c15.31,0.25,30.63,0.62,45.94,0.53c6.95-0.05,14.05-0.32,20.83-1.73
		c24.03-5,40.13-23.35,40.58-46.03C120.66,110.34,108.89,96.61,91.22,86.89z M41.19,75.28c0.37-8.97,0.11-17.97,0.11-26.95
		c0-8.99,0.22-17.98-0.09-26.95c-0.15-4.37,1.77-5.83,5.66-6.37c21.44-2.95,35.35,7.98,38.02,30.13
		c1.26,10.51,0.28,20.58-6.34,29.46c-3.05,4.1-6.88,6.9-12.03,7.09c-6.47,0.23-12.96,0.02-19.45,0C42.79,81.68,41,79.9,41.19,75.28z
		 M100.3,147.11c-1.95,13.64-10.93,22.95-24.51,24.45c-7.75,0.85-15.93-0.18-23.64-1.71c-7.43-1.48-9.89-5.28-10.07-12.86
		c-0.25-10.81-0.06-21.63-0.06-32.44h-0.69c0-10.65,0.1-21.31-0.06-31.96c-0.05-3.41,0.95-4.87,4.53-4.55
		c6.78,0.6,13.72,0.23,20.34,1.57c16.88,3.41,30.94,19.85,33.73,39.17C100.74,134.8,101.15,141.13,100.3,147.11z"/>
	<path d="M661.12,311.45c-2.1,0.51-3.55,0.96-5.03,1.2c-8.42,1.37-10.77,3.85-11.08,12.49c-0.35,9.49-0.49,18.99-0.61,28.49
		c-0.11,8.83-0.21,17.66-0.07,26.49c0.06,4.05-1.34,6.92-5.28,7.94c-11.23,2.9-22.35,6.78-33.77,8.18
		c-21.28,2.6-42.21-0.18-62.19-8.46c-39.16-16.24-51.18-52.51-50.62-81.21c0.51-25.96,9.17-48.61,29.17-66
		c13.96-12.13,30.77-17.43,48.82-19.59c19.26-2.31,38.22-0.34,57.13,3.31c4.72,0.91,9.56,1.26,14.36,1.69
		c2.56,0.23,4.01,0.98,3.83,3.94c-0.64,10.47-1.11,20.95-1.72,31.43c-0.06,1.17-0.61,2.31-0.94,3.47c-0.58-0.04-1.16-0.09-1.73-0.13
		c-0.33-1.54-0.79-3.07-0.95-4.63c-1.25-11.79-7.87-19.39-18.41-24.12c-14.66-6.57-30.12-8.4-45.89-7.32
		c-7.41,0.51-15.01,1.58-22.03,3.89c-20.59,6.77-33.37,21.31-38.74,42.19c-6.61,25.65-4.04,50.44,9.52,73.31
		c16,27.01,40.67,39.4,71.71,39.09c7.05-0.07,14.16-1.67,21.11-3.17c5.33-1.15,7.83-4.87,7.73-10.63c-0.26-15-0.02-30-0.32-44.99
		c-0.24-12.06-2.69-14.47-14.51-15.82c-1.53-0.17-3.04-0.48-5.07-0.81C608.7,308.91,657.13,308.69,661.12,311.45z"/>
	<path d="M1505.12,90.32c-4.22-29.2-21.61-47.75-50.07-55.11c-9.73-2.52-20.02-3.62-30.1-3.91c-20.47-0.6-40.98-0.21-61.46-0.18
		c-1.5,0-2.99,0.42-4.48,0.64c-0.01,0.42-0.02,0.83-0.03,1.24c0.99,0.32,1.96,0.8,2.97,0.91c11.11,1.21,13.09,2.89,13.18,13.85
		c0.27,32.33,0.32,64.66,0.26,96.99c-0.01,6.97-0.78,13.95-1.27,20.92c-0.38,5.35-2.86,8.74-8.65,8.99
		c-1.17,0.05-2.33,0.53-3.49,0.81c0,0.44,0,0.88,0.01,1.32c1.8,0.2,3.61,0.54,5.42,0.58c9.48,0.21,18.97,0.29,28.45,0.53
		c12.49,0.31,24.99,1.3,37.45,0.98c16.32-0.43,31.75-4.86,44.56-15.37C1501.03,144.51,1509.31,119.31,1505.12,90.32z
		 M1488.46,115.57c-0.34,4.62-1.29,9.22-2.25,13.77c-6.1,28.77-28.79,40.24-48.91,42.31c-11.07,1.14-22.56-0.17-33.68-1.71
		c-8.33-1.16-10.59-4.2-10.75-12.51c-0.37-19.65-0.12-39.3-0.12-58.96H1392c0-17.83,0.08-35.66-0.06-53.49
		c-0.03-3.78,1.08-6.25,5.04-6.54c22.06-1.61,43.92-1.18,62.86,12.28C1482.08,66.52,1490.43,88.92,1488.46,115.57z"/>
	<path d="M1334.09,32.96c-1.21,0.33-2.4,0.79-3.63,0.97c-7.11,1.03-9.15,3.09-9.58,10.33c-0.28,4.82-0.32,9.66-0.34,14.49
		c-0.18,37.32-0.32,74.64-0.51,111.96c-0.02,2.59-0.32,5.17-1.36,8.23c-21.03-18.14-39.75-38.28-58.55-58.3
		c-18.89-20.13-37.42-40.61-56.08-60.91c0,11.13-0.2,21.94,0.05,32.73c0.49,21.49,1.22,42.97,1.86,64.45
		c0.04,1.17,0.08,2.33,0.2,3.49c1.15,10.84,3.3,13,14.09,14.29c1.26,0.15,2.5,0.42,3.75,0.64c-0.03,0.41-0.05,0.83-0.08,1.25h-44.64
		c-0.09-0.35-0.17-0.69-0.25-1.04c1.88-0.4,3.75-1.01,5.65-1.17c5.38-0.46,8.09-3.41,8.48-8.66c0.31-4.32,0.8-8.63,0.81-12.95
		c0.13-37.82,0.14-75.64,0.26-113.46c0.01-3.53,0.53-7.06,0.81-10.59c0.63-0.27,1.26-0.53,1.89-0.8
		c37.77,40.78,75.53,81.57,114.13,123.26c0-2.58,0.03-3.99,0-5.4c-0.69-32.15-1.38-64.3-2.09-96.45c-0.04-1.66-0.18-3.33-0.46-4.97
		c-1.26-7.42-3.62-9.54-11.17-10.28c-1.97-0.19-3.93-0.43-5.89-0.71c-0.2-0.03-0.33-0.53-0.92-1.55h43.31
		C1333.92,32.2,1334,32.58,1334.09,32.96z"/>
	<path d="M809.56,391.06c-8.43,0.05-14.19-4.22-17.98-11.35c-2.41-4.54-4.69-9.19-6.55-13.98c-14.72-37.8-29.31-75.65-43.98-113.46
		c-1.03-2.65-2.39-5.16-3.6-7.73c-0.58,0.04-1.15,0.07-1.73,0.11c-1.27,2.97-2.67,5.89-3.78,8.92
		c-13.66,37.31-27.26,74.64-40.93,111.95c-1.88,5.14-3.84,10.28-6.17,15.24c-3.08,6.57-8.32,10.19-15.79,10.28
		c-1.32,0.01-2.65,0.4-3.97,0.61c0.04,0.5,0.08,0.99,0.13,1.48h42.73c-0.02-0.45-0.03-0.9-0.05-1.35c-0.56-0.22-1.11-0.58-1.7-0.65
		c-9.06-1.13-10.7-2.78-8.16-11.58c3.91-13.56,8.58-26.92,13.27-40.24c0.45-1.29,3.32-2.41,5.09-2.45
		c11.82-0.21,23.65,0.01,35.47-0.19c3.39-0.05,5.02,1.06,6.19,4.26c5.07,13.89,10.37,27.71,15.66,41.52
		c1.34,3.5,2.78,6.88-1.47,9.72c9.36,2.65,36.94,2.29,39.75-0.57C811.06,391.38,810.31,391.06,809.56,391.06z M714.69,329.37
		c6.07-18.6,12.07-36.97,18.06-55.34c0.47,0,0.93,0,1.4-0.01c6.43,18.24,12.86,36.48,19.51,55.35H714.69z"/>
	<path d="M1651.11,174.87c-10.4-0.01-16.48-6.03-20.59-14.76c-1.63-3.46-3.25-6.93-4.63-10.49c-14.66-37.83-29.27-75.68-43.93-113.5
		c-1.04-2.7-2.4-5.28-3.61-7.91c-0.56-0.02-1.11-0.04-1.67-0.05c-1.23,2.76-2.63,5.45-3.67,8.28c-13.04,35.6-26,71.22-39.05,106.81
		c-2.57,7.02-5.14,14.06-8.19,20.88c-2.84,6.37-7.83,10.24-15.15,10.46c-1.53,0.05-3.06,0.37-4.58,0.56
		c0.03,0.46,0.07,0.93,0.1,1.39h42.57c-0.38-1.18-0.8-1.58-1.23-1.59c-9.96-0.15-10.99-4.8-8.51-12.77
		c4.06-13.01,8.4-25.94,12.99-38.77c0.53-1.48,3.39-2.98,5.2-3.02c11.82-0.27,23.66,0,35.48-0.22c3.48-0.07,5.03,1.28,6.16,4.35
		c5.24,14.19,10.8,28.26,15.88,42.51c0.92,2.6,0.13,5.81,0.13,9.33c4.06,1.62,34.77,1.54,38.19-0.78
		C1652.27,175.3,1651.69,174.87,1651.11,174.87z M1555.49,113.05c6.12-18.7,12.09-36.97,18.05-55.23c0.51,0.02,1.02,0.04,1.53,0.06
		c6.41,18.23,12.82,36.45,19.4,55.17H1555.49z"/>
	<path d="M957.21,155.06c-0.63,5.62-1.45,11.21-2.14,16.83c-0.55,4.46-3.04,6.26-7.47,6.14c-13.49-0.35-26.98-0.64-40.47-0.79
		c-8.83-0.11-17.66,0.09-26.48,0.08c-1.87,0-3.74-0.26-5.6-0.41c-0.05-0.47-0.1-0.94-0.15-1.4c1.25-0.32,2.5-0.86,3.77-0.92
		c5.59-0.25,8.04-3.58,8.34-8.69c0.56-9.47,1.24-18.95,1.27-28.42c0.11-29.33,0.04-58.65-0.19-87.97
		c-0.09-12.92-1.32-14-13.99-15.64c-0.73-0.1-1.42-0.5-2.12-0.76c0.03-0.66,0.06-1.32,0.09-1.98h80.36
		c-0.8,7.25-1.69,15.46-2.59,23.67c-0.5,0.08-0.99,0.16-1.48,0.24c-0.42-1.5-1.05-2.98-1.23-4.52c-0.76-6.42-2.78-9.59-8.92-10.23
		c-10.86-1.13-21.8-1.38-33.09-2.02v58.04c14.75-2.13,29.96,3.51,44.25-5.57c-0.88,9.31-1.74,18.5-2.6,27.68
		c-0.48,0.05-0.97,0.1-1.46,0.16c-0.33-1.78-0.8-3.54-0.97-5.32c-0.5-5.24-3.44-8.56-8.47-8.98c-10.07-0.86-20.2-1.13-30.59-1.65
		c-0.2,2.02-0.44,3.3-0.44,4.57c-0.03,15.16-0.07,30.32,0.01,45.49c0.02,2.97,0.33,5.98,0.83,8.91c0.68,4.01,3.23,7.16,7.18,7.28
		c10.41,0.33,20.89,0.49,31.25-0.35c5.67-0.46,8.35-5.54,9.71-10.87c0.51-2.01,1.01-4.02,1.51-6.03c0.45,0.01,0.9,0.03,1.35,0.05
		C956.87,152.8,957.33,153.96,957.21,155.06z"/>
	<path d="M1021.84,367.63c0.02,8.65-0.55,16.64-3.5,24.18c-0.54,1.38-3.91,2.33-5.97,2.33c-13.82,0.02-27.65-0.34-41.47-0.44
		c-8.66-0.07-17.31,0.14-25.97,0.13c-1.81,0-3.62-0.43-5.46-1.77c0.83-0.35,1.63-0.88,2.49-1.02c7.83-1.26,9.55-2.54,9.98-10.36
		c0.71-12.96,1.05-25.96,1.12-38.94c0.14-24.33-0.02-48.65-0.06-72.98c0-1.83-0.03-3.67-0.11-5.49c-0.46-9.45-2.67-11.79-12.22-13
		c-1.34-0.17-2.67-0.42-4-0.63c0.02-0.67,0.05-1.35,0.08-2.02H1017c-0.72,7.05-1.57,15.37-2.42,23.69
		c-0.66,0.03-1.31,0.05-1.97,0.08c-0.22-1.35-0.51-2.7-0.66-4.05c-0.77-7.05-2.93-9.53-10.11-10.95c-2.92-0.58-5.94-0.9-8.93-0.95
		c-7.48-0.13-14.96-0.04-23-0.04v57.27c14.67-2.4,29.91,3.51,44.15-5.43c-0.88,9.3-1.76,18.48-2.63,27.66
		c-0.52,0.02-1.04,0.03-1.56,0.05c-0.28-1.83-0.6-3.64-0.82-5.48c-0.57-4.64-2.86-8.12-7.65-8.54c-9.78-0.84-19.59-1.26-29.4-1.57
		c-0.82-0.02-2.46,2.12-2.47,3.25c-0.02,17.32-0.05,34.65,0.4,51.96c0.21,7.87,3.59,11.02,11.61,11.44
		c7.46,0.39,14.98,0.39,22.43-0.07c8.85-0.54,12.7-4.23,14.8-12.88c0.35-1.45,0.71-2.9,1.18-4.3
		C1020.06,368.44,1020.68,368.3,1021.84,367.63z"/>
	<path d="M915.17,247.06v24.8c-0.49,0.05-0.99,0.11-1.48,0.16c-0.33-1.12-0.88-2.23-0.96-3.37c-0.46-6.28-4.05-10.06-9.98-10.65
		c-12.54-1.27-25.14-1.92-37.79-2.83c-0.43,1.68-0.79,2.44-0.79,3.2c0.25,39.47,0.52,78.94,0.82,118.42c0.01,1.49,0.14,3,0.39,4.47
		c1.14,6.81,2.78,8.43,9.55,9.38c2.56,0.36,5.13,0.57,8.16,0.89c-2.89,2.6-44.91,3.05-49.45,0.69c1.42-0.51,2.37-1.04,3.37-1.18
		c7.15-1.01,8.62-2.05,9.56-9.15c0.84-6.25,1.24-12.6,1.27-18.92c0.14-34.48,0.11-68.96,0.13-103.44c0.01-0.98-0.08-1.96-0.12-2.94
		c-12.32,0-24.11-0.06-35.9,0.02c-7.27,0.05-12.24,3.65-15.03,10.33c-0.39,0.91-0.93,1.76-1.48,2.59c-0.15,0.23-0.56,0.3-2.57,1.28
		c2.02-9.39,3.79-17.64,5.27-24.56C838.14,249.27,876.78,248.23,915.17,247.06z"/>
	<path d="M1128.39,363.99c-4.39,20.96-21.51,33.38-45.21,32.39c-7.85-0.33-15.64-2.61-23.41-4.23c-3.56-0.74-5.14-3.18-4.9-6.98
		c0.47-7.31,0.66-14.63,1.05-21.95c0.05-0.87,0.59-1.72,2.05-2.64c0.29,1.58,0.74,3.15,0.83,4.74c0.63,11.11,6.32,19.35,17.01,22
		c6.13,1.53,13.04,2.22,19.18,1.06c18.7-3.52,26.86-24.59,16-41.19c-3.75-5.74-9.12-10.54-14.17-15.31
		c-8.47-8-17.62-15.28-25.83-23.52c-7.94-7.97-11.8-18.01-11.5-29.44c0.49-19.22,14.35-32.74,34.92-33.87
		c4.48-0.25,9.03-0.33,13.48,0.13c5.94,0.63,11.82,1.86,17.26,2.76v25.68c-0.5,0.07-1.01,0.13-1.52,0.2
		c-0.45-1.28-1.16-2.52-1.3-3.83c-1.23-11.44-8.24-15.86-18.49-17.79c-3.24-0.61-6.65-0.63-9.96-0.47
		c-8.78,0.43-15.93,4.04-19.65,12.29c-3.85,8.54-3.29,17.23,2.83,24.45c5.13,6.06,11.23,11.32,17.11,16.71
		c7.72,7.08,16.08,13.53,23.37,21.02C1127.72,336.67,1131.39,349.65,1128.39,363.99z"/>
	<path d="M599.05,87.17c-1.1-1.68-4.39-2.92-6.51-2.71c-2.84,0.27-3.7,2.9-2.64,5.8c0.33,0.92,0.71,2.04,0.49,2.92
		c-0.48,1.98-0.82,4.79-2.17,5.53c-1.28,0.7-4.16-0.28-5.65-1.42c-4.1-3.12-7.5-7.25-11.82-9.96c-3.64-2.3-8.13-4.29-12.33-4.48
		c-11.04-0.5-25.18,11.4-26.93,22.37c-0.38,2.39,1.14,5.84,2.96,7.56c1.26,1.21,5.69,1.27,6.63,0.13c1.41-1.71,1.77-5.11,1.19-7.45
		c-1.12-4.6-2.11-8.77,1.98-12.4c3.57-3.18,7.49-4.73,12.37-3.48c3.41,0.87,4.88,2.37,4.64,6.24c-0.89,14.29-5.81,27-14.75,38.01
		c-8.17,10.06-18.6,16.59-31.87,17.64c-16.01,1.26-29.07-8.95-30.58-23.69c-0.37-3.57,0.4-5.99,3.68-8.29
		c20.35-14.24,40.54-28.78,57.78-46.8c5.67-5.93,10.48-12.93,14.53-20.09c2.01-3.57,2.1-8.67,1.69-12.95
		c-0.18-1.91-3.51-4.39-5.81-4.93c-1.8-0.43-5.25,1.18-6.1,2.84c-0.93,1.84,0.22,4.76,0.54,7.21c0.38,2.83,1.69,5.85,1.07,8.42
		c-0.84,3.45-2.59,7.02-4.92,9.69c-7.1,8.12-14.67,15.84-22.32,24.01c-6.77-7.3-11.66-8.46-20.52-4.33
		c-15.61,7.28-25.51,19.71-29.51,36.3c-4.46,18.51,3.16,34.17,19.3,39.24c6.63,2.08,14.22,3.02,21.07,2.12
		c27.82-3.64,48.86-27.19,50.64-55.46c0.21-3.21,0.51-6.43,0.88-11.15c4.04,4.31,7.21,7.43,10.04,10.82
		c1.76,2.11,3.28,2.72,5.95,1.52c3.31-1.49,6.84-2.58,10.37-3.47C599.56,100.67,603.07,93.32,599.05,87.17z M503.1,88.02
		c1.99-0.65,5.95,0.11,6.75,1.51c1.07,1.89,1.01,6.24-0.37,7.42c-7.62,6.5-15.78,12.36-24.28,18.83
		C485.35,105.13,494.62,90.82,503.1,88.02z"/>
	<path d="M1073.85,175.46c-0.67,1.5-4.29,2.34-6.57,2.38c-10.48,0.15-20.98-0.09-31.47-0.18c-13.65-0.11-27.3-0.2-40.94-0.35
		c-1.84-0.02-3.67-0.35-5.51-0.54c0-0.42-0.01-0.83-0.02-1.25c1.15-0.3,2.29-0.69,3.46-0.9c6.76-1.25,8.3-2.64,9.06-9.73
		c0.65-6.11,1.06-12.28,1.08-18.43c0.11-31.31,0.05-62.62,0.04-93.93c0-1.16-0.03-2.33-0.07-3.49c-0.39-12.15-1.9-13.77-14.08-15.18
		c-0.75-0.09-1.47-0.47-2.2-0.72c-0.03-0.46-0.06-0.93-0.08-1.4h48.33c0.05,0.51,0.1,1.01,0.14,1.51c-1.8,0.27-3.59,0.6-5.4,0.79
		c-6.71,0.72-9.59,3.11-9.61,9.75c-0.11,36.62,0.02,73.25,0.15,109.88c0.01,2.3,0.59,4.62,1.01,6.91c0.83,4.55,3.41,8.09,8.04,8.33
		c10.74,0.55,21.55,1.01,32.27,0.37c7.85-0.47,11.21-6.91,13.3-13.8c0.48-1.58,1.03-3.14,2.27-4.51
		C1078.17,159.5,1077.25,167.75,1073.85,175.46z"/>
	<path d="M329.07,155.56c-0.75,5.93-1.62,11.85-2.53,17.77c-0.63,4.11-3.09,5.93-7.27,5.87c-11.49-0.15-22.98-0.19-34.47-0.24
		c-12.98-0.05-25.96-0.04-38.94-0.14c-1.83-0.01-3.65-0.43-5.48-0.66c-0.01-0.5-0.02-1-0.03-1.49c1.65-0.28,3.31-0.62,4.97-0.83
		c3.74-0.46,6.25-2.35,6.81-6.16c0.7-4.77,1.64-9.57,1.67-14.35c0.16-35.14,0.12-70.28,0.13-105.43c0-1.49-0.07-3-0.26-4.48
		c-0.86-6.54-2.84-8.59-9.35-9.74c-2.2-0.38-4.42-0.68-6.64-1.02c0.02-0.46,0.04-0.92,0.06-1.38h48.11
		c0.04,0.45,0.08,0.89,0.12,1.33c-2.02,0.34-4.04,0.67-6.06,1c-6.5,1.06-8.71,3.19-8.9,9.85c-0.4,14.65-0.69,29.3-0.67,43.96
		c0.04,20.65,0.21,41.3,0.7,61.94c0.41,16.88,3.64,19.97,20.44,20.43c5.97,0.16,11.97-0.18,17.95-0.48
		c9.17-0.44,13.96-6.03,16.35-14.3c0.42-1.43,0.83-2.86,1.31-4.26c0.08-0.24,0.53-0.34,1.4-0.87
		C328.73,153.27,329.21,154.45,329.07,155.56z"/>
	<path d="M437.86,156.75c-0.74,5.43-1.72,10.84-2.52,16.26c-0.64,4.41-3.14,6.26-7.52,6.2c-13.65-0.21-27.31-0.35-40.96-0.42
		c-10.65-0.05-21.3,0.07-31.94,0.03c-1.94-0.01-3.87-0.44-5.8-0.67c0.01-0.43,0.02-0.86,0.03-1.29c0.7-0.27,1.37-0.67,2.09-0.78
		c8.36-1.31,9.65-2.53,10.61-10.94c0.47-4.13,0.78-8.31,0.79-12.46c0.1-33.81,0.1-67.61,0.12-101.42c0-1.33-0.13-2.66-0.25-3.99
		c-0.86-8.85-2.82-10.86-11.57-11.97c-1.55-0.19-3.09-0.4-4.64-0.59c0.03-0.46,0.05-0.92,0.08-1.38h48.31
		c0.05,0.45,0.1,0.9,0.15,1.34c-1.67,0.24-3.33,0.48-5,0.72c-7.7,1.08-9.33,2.73-10.15,10.34c-0.2,1.83-0.45,3.66-0.44,5.48
		c0.2,34.13,0.22,68.27,0.77,102.4c0.23,14.32,3.21,17.08,17.47,18c6.78,0.43,13.63,0.03,20.44-0.26
		c9.36-0.41,14.32-6.04,16.65-14.59c0.43-1.6,1.01-3.16,1.53-4.74c0.5,0.07,1,0.13,1.51,0.2
		C437.71,153.73,438.06,155.28,437.86,156.75z"/>
	<path d="M1151.33,176.69h-48.2c-0.08-0.4-0.16-0.8-0.25-1.2c1.26-0.32,2.5-0.86,3.77-0.92c5.57-0.25,7.99-3.51,8.4-8.65
		c0.46-5.64,1.1-11.28,1.11-16.93c0.1-33.33,0.15-66.66-0.04-99.98c-0.07-12.44-0.74-12.84-12.69-15.32
		c-0.42-0.08-0.76-0.51-1.14-0.79c0-0.4-0.01-0.79-0.01-1.19h43.97c0.06,0.47,0.12,0.95,0.18,1.43c-1.27,0.29-2.53,0.67-3.82,0.86
		c-6.37,0.9-8.45,2.81-9.3,9.09c-0.36,2.63-0.38,5.32-0.38,7.98c0.01,34,0.03,68,0.13,101.99c0.01,3.82,0.49,7.65,0.9,11.45
		c0.76,6.98,2.74,8.89,9.65,9.68c2.3,0.26,4.59,0.64,6.88,1.02C1150.68,175.24,1150.79,175.71,1151.33,176.69z"/>
	<path d="M206.13,177.06c-2.12,0.93-3.11,1.73-4.1,1.74c-14.32,0.08-28.64,0.07-42.96,0.01c-0.88-0.01-1.76-0.64-3.67-1.37
		c1.69-0.82,2.22-1.24,2.81-1.33c9-1.51,10.46-2.6,10.82-11.67c0.65-16.3,0.92-32.63,1.03-48.94c0.15-20.83-0.01-41.66-0.07-62.49
		c0-2.33,0-4.67-0.25-6.99c-0.8-7.43-2.75-9.45-10.06-10.71c-1.22-0.21-2.43-0.47-3.64-0.71c0.03-0.42,0.06-0.84,0.09-1.26h43.8
		c0.06,0.38,0.11,0.77,0.17,1.15c-1.64,0.38-3.27,0.92-4.93,1.1c-5.48,0.57-7.79,3.94-8.14,9.04c-0.26,3.65-0.5,7.32-0.49,10.98
		c0.09,33.82,0.23,67.64,0.36,101.47c0,0.66,0.05,1.33,0.08,1.99c0.8,16.54,3.53,16.6,15.93,17.02
		C203.52,176.11,204.11,176.44,206.13,177.06z"/>
	<path d="M1594.34,351.89c-0.62-0.51-1.25-1.01-1.87-1.51c9.84-35.51,23.31-69.86,35.81-106.2c-7.93,1.43-14.23,2.57-20.54,3.71
		c-0.22,0.74-0.45,1.48-0.67,2.22c1.01,0.55,2.03,1.07,3.02,1.64c2.78,1.58,3.33,3.89,2.33,6.82c-4.47,13.04-8.88,26.09-13.51,39.71
		c-6.33-6.95-13.21-4.82-19.59-1.82c-19.97,9.38-32.09,25.31-37.4,46.55c-0.59,2.39-0.88,4.97-0.71,7.41
		c0.51,7.48,5.06,10.94,12.47,9.91c7.45-1.03,13.45-4.89,18.49-10.11c5.72-5.93,10.98-12.3,16.94-19.03
		c-2.33,7.06-4.79,13.4-6.41,19.95c-0.63,2.54-0.31,6.71,1.3,8.02c1.68,1.36,6.21,1.25,8.13-0.12c6.56-4.69,12.64-10.07,18.6-15.52
		c1.42-1.3,1.66-3.9,2.44-5.91c-1.77,1.06-3.67,1.95-5.27,3.22C1603.31,344.43,1598.85,348.19,1594.34,351.89z M1591.71,317.16
		c-6.63,14-16.65,25.17-29.45,33.83c-1.9,1.29-4.09,2.26-6.26,3.01c-3.66,1.26-5.56-0.32-5.16-4.11c0.24-2.28,0.8-4.61,1.67-6.73
		c6.02-14.68,15.12-27.3,26.37-38.39c2.1-2.07,4.65-3.84,7.29-5.16c5.28-2.64,8.81-0.27,8.88,7.58
		C1594.34,309.35,1593.46,313.46,1591.71,317.16z"/>
	<path d="M1283.01,263.58c-2.31,2.02-4.52,2.69-5.23-1.4c-0.92-5.24-1.99-10.55-8.38-11.54c-6.4-1-10.09,3.39-13.4,7.91
		c-5.8,7.93-12.38,24.63-14.78,37.48h19.42c0.95,4.21-0.66,5.89-4.51,5.85c-4.17-0.04-8.36,0.28-12.49-0.09
		c-3.59-0.32-4.84,1.19-5.73,4.41c-5.5,19.87-10.95,39.76-16.95,59.49c-2.35,7.74-5.41,15.43-9.31,22.49
		c-4.63,8.38-12.41,12.86-22.25,12.78c-5.17-0.05-9.63-3.69-9.26-7.85c0.18-2.14,1.98-4.27,3.5-6.01c0.23-0.27,3.26,1.23,4.34,2.49
		c6.27,7.26,13.18,6.83,16.43-2.16c4.24-11.69,7.31-23.82,10.56-35.84c4.12-15.25,7.92-30.59,11.84-45.89
		c0.28-1.1,0.4-2.24,0.68-3.88c-3.4,0-6.57,0.25-9.66-0.12c-1.36-0.16-2.57-1.59-3.84-2.45c1.35-1.11,2.56-2.83,4.08-3.18
		c2.38-0.54,4.99-0.35,7.46-0.1c3.08,0.32,4.2-1.05,5.23-3.83c3.17-8.55,6.1-17.3,10.39-25.29c5.84-10.88,14.35-19.46,27.34-21.25
		c4.2-0.57,9.14-0.02,12.96,1.72C1288.09,250.34,1288.57,258.76,1283.01,263.58z"/>
	<path d="M1423.71,341.8c-6.27,8.47-13.89,15.33-24.23,18.33c-5.11,1.48-7.69-1.59-5.88-6.68c3.05-8.57,6.29-17.07,8.26-22.41
		c-6.43,5.82-14.94,13.68-23.66,21.3c-2.98,2.6-6.27,5.13-9.85,6.68c-2.41,1.04-6.28,1.34-8.21,0.05c-1.66-1.12-2.05-4.97-1.97-7.58
		c0.07-2.55,1.33-5.11,2.27-7.6c4.09-10.9,8.28-21.76,12.37-32.67c0.79-2.1,1.3-4.3,1.93-6.45c-0.43-0.42-0.87-0.84-1.3-1.25
		c-3.5,2.48-7.02,4.92-10.49,7.45c-1.07,0.78-1.87,1.95-2.99,2.63c-0.83,0.51-1.97,0.52-2.97,0.75c0.09-1.14-0.28-2.78,0.33-3.33
		c4.8-4.35,9.63-8.67,14.77-12.59c2.46-1.88,5.48-3.34,8.48-4.09c1.97-0.5,4.89-0.04,6.36,1.21c0.98,0.83,0.73,3.99,0.08,5.76
		c-5.07,13.73-10.4,27.37-15.57,41.06c-0.84,2.22-1.25,4.6-1.86,6.91c0.47,0.42,0.95,0.84,1.42,1.26c2.52-1.52,5.24-2.8,7.54-4.61
		c12.91-10.14,22.73-22.86,30.48-37.24c1.98-3.66,4.16-7.24,5.8-11.05c1.57-3.63,4.04-3.46,6.92-2.33c3.28,1.29,1.96,3.6,1.14,5.79
		c-5.48,14.47-10.95,28.94-16.39,43.42c-0.63,1.66-1.06,3.39-2.07,6.72c3.12-1.4,5.17-1.88,6.64-3.07c3.36-2.71,6.39-5.83,9.68-8.63
		c0.69-0.6,1.93-0.55,2.92-0.8C1423.7,339.77,1424.19,341.14,1423.71,341.8z"/>
	<path d="M1990.96,341.26c-0.36,1.45-0.31,3.21-1.14,4.29c-5.54,7.17-12.44,12.57-21.49,14.45c-2,0.41-5.13,0.15-6.23-1.12
		c-1.08-1.24-0.87-4.4-0.13-6.29c4.96-12.7,10.28-25.27,15.34-37.93c1.28-3.22,2.29-6.6,2.99-9.99c0.28-1.4-0.14-3.8-1.08-4.36
		c-1.03-0.63-3.34-0.16-4.53,0.66c-3.42,2.34-6.76,4.88-9.74,7.74c-11.57,11.12-19.48,24.82-27.01,38.77
		c-1.89,3.52-3.88,6.99-5.69,10.55c-1.48,2.9-3.94,3.37-6.18,1.79c-1.01-0.71-1.43-3.5-0.92-4.92
		c5.35-15.04,10.96-29.99,16.46-44.98c0.73-1.98,1.19-4.07,2.25-7.74c-3.84,1.52-6.55,2.33-8.99,3.64c-2.58,1.39-4.9,3.26-8.18,5.49
		c0-1.77-0.39-3.02,0.06-3.6c5.24-6.73,11.59-12.05,20.22-13.65c6.39-1.18,8.46,1.48,6.19,7.6c-2.5,6.7-5.14,13.34-7.7,20.02
		c-0.57,1.49-1.02,3.03-1.62,4.8c6.37-7.39,12.06-14.81,18.64-21.34c4.16-4.13,9.42-7.33,14.61-10.16
		c3.71-2.02,8.82-2.56,11.51,1.15c1.91,2.65,2.82,7.5,1.78,10.55c-4.11,12.1-9.15,23.89-13.86,35.78c-1.03,2.6-2.11,5.18-3.16,7.76
		c0.55,0.6,1.1,1.19,1.65,1.79c3.96-2.97,7.89-5.99,11.93-8.86C1988.12,342.3,1989.61,341.88,1990.96,341.26z"/>
	<path d="M1517.7,340.29c-1.07,9.25-19.39,22.32-27.08,20.16c-3.72-1.04-4.12-3.75-2.72-7.13c5.17-12.44,10.31-24.89,15.29-37.41
		c1.53-3.83,2.93-7.81,3.65-11.85c0.71-3.93-1.62-5.6-4.97-3.5c-4.06,2.53-7.87,5.6-11.29,8.95
		c-11.42,11.23-19.26,24.99-26.76,38.95c-1.58,2.93-3.28,5.8-4.73,8.8c-1.37,2.84-3.26,4.18-6.36,2.84
		c-3.32-1.42-1.72-3.8-0.96-5.89c5.53-15.15,11.11-30.29,16.65-45.44c0.6-1.64,1.03-3.34,1.7-5.5c-7.26-0.41-11.22,4.81-16.78,7.67
		c-0.14-1.37-0.64-2.54-0.26-3.04c5.29-6.94,11.71-12.39,20.59-13.87c6.13-1.02,8.2,1.64,6.05,7.4c-3.12,8.36-6.41,16.66-9.94,25.8
		c6.4-7.58,11.9-14.64,18.02-21.13c3.49-3.7,7.79-6.74,12.08-9.55c2.26-1.48,5.22-2.3,7.95-2.56c7.12-0.67,10.99,3.34,9.46,10.29
		c-1.36,6.12-3.53,12.11-5.81,17.97c-3.08,7.9-6.64,15.61-9.95,23.42c-0.68,1.6-1.16,3.28-1.74,4.92c0.46,0.47,0.92,0.94,1.38,1.41
		C1506.5,348.22,1511.83,344.45,1517.7,340.29z"/>
	<path d="M1697.94,295.7c0.95-2.43,1.54-4.51-1.65-5.52c-2.62-0.83-4.89-0.81-6.01,2.42c-0.76,2.18-1.84,4.25-3.12,7.16
		c-4.48-4.97-9.42-4.48-14.21-2.54c-3.97,1.61-8.06,3.46-11.38,6.1c-14.46,11.49-24.49,26.17-29.9,43.87
		c-0.62,2.01-0.82,4.3-0.59,6.39c0.57,5.33,4.39,8.03,9.52,6.46c3.45-1.05,7.03-2.46,9.86-4.62c7.66-5.81,14.95-12.1,21.98-17.88
		c-1.61,4.63-3.71,10.01-5.35,15.53c-1.7,5.75,0.84,8.53,6.65,7.11c10.2-2.48,17.55-9.07,23.48-17.44c0.17-0.24-0.22-0.88-0.54-2.02
		c-6.62,2.74-10.59,10.27-19.33,10.49c0.74-2.79,1.11-5.02,1.9-7.08C1685.43,327.96,1691.65,311.82,1697.94,295.7z M1650.42,350.52
		c-1.38,0.88-3.55,1.43-5,0.98c-0.95-0.3-1.25-2.67-1.76-3.93c4.06-17.34,10.64-32.63,25.06-43.38c3.31-2.47,7.2-3.5,10.59-0.83
		c1.66,1.31,3.35,4.65,2.81,6.37C1676.58,327.14,1665.83,340.71,1650.42,350.52z"/>
	<path d="M1308.83,294.74c-2.52,0.74-5.08,1.76-7.25,3.2c-15.59,10.38-23.98,25.24-25.21,43.69c-0.98,14.76,9.93,22.37,24.02,17.63
		c1.72-0.58,3.47-1.24,4.99-2.21c16.53-10.5,24.35-26.15,26.43-42.89C1331.78,298.04,1322.16,290.79,1308.83,294.74z
		 M1303.46,350.64c-0.93,1.14-2.07,2.54-3.36,2.89c-3.03,0.81-6.78,2.29-9.15,1.17c-2.07-0.98-3.95-5.24-3.7-7.84
		c1.66-16.97,8.03-32.12,19.44-44.92c2.67-2.99,6.79-4.98,10.28-2.61c2.43,1.65,3.34,5.54,4.45,7.58
		C1318.21,323.71,1313.5,338.28,1303.46,350.64z"/>
	<path d="M1899.86,309.75c-0.79-10.05-6.74-15.9-16.4-16.56c-3.64,1.04-7.64,1.42-10.84,3.21c-18.04,10.11-27.04,26.12-28.09,46.39
		c-0.52,9.97,4.65,16.58,12.88,17.33c4.57,0.42,9.73-0.35,13.96-2.16C1887.2,351.18,1901.21,326.92,1899.86,309.75z M1871.25,351.02
		c-0.84,1.01-1.87,2.24-3.03,2.53c-3.05,0.76-6.79,2.28-9.16,1.17c-2.09-0.98-3.26-5.01-3.8-7.89c-0.46-2.48,0.32-5.29,0.96-7.85
		c2.9-11.54,7.37-22.41,14.31-32.15c1.44-2.01,2.95-4.43,5.02-5.41c2.93-1.39,6.89-2.9,9.52-1.94c2.27,0.83,3.29,5.04,4.47,7.07
		C1886.36,323.56,1881.62,338.45,1871.25,351.02z"/>
	<path d="M1764.83,303.45c-3.82-0.09-7.67-0.25-11.47,0.11c-1.43,0.13-3.55,1.32-3.98,2.53c-4.6,12.81-8.95,25.72-13.29,38.63
		c-0.4,1.17-0.22,2.52-0.4,4.96c8.55-3.28,13.7-9.69,21.09-14.32c-0.28,1.41-0.13,3.14-0.9,4.18c-6.27,8.36-13.75,15.45-23.54,19.44
		c-2.41,0.98-6.27,1.21-8.09-0.1c-1.37-0.99-1.32-5.26-0.57-7.65c4.66-14.72,9.69-29.32,14.6-43.97c0.31-0.92,0.54-1.87,1.07-3.68
		h-11.89c-0.23-0.59-0.46-1.18-0.7-1.77c1.34-1.01,2.71-2.92,4-2.87c10.23,0.44,14.12-6.63,17.9-14.23c2.27-4.59,2.5-4.47,7.78-2.8
		c-1.35,5-2.71,10.04-4.26,15.77h17.42C1769.73,301.98,1768.19,303.52,1764.83,303.45z"/>
	<path d="M1797.71,344.54c-0.73,1.74-1.22,3.59-1.82,5.39c0.58,0.53,1.16,1.06,1.75,1.59c5.41-3.92,10.82-7.84,17.27-12.51
		c-0.08,1.69,0.39,3.5-0.3,4.28c-6.79,7.75-14.65,14.11-24.86,16.71c-1.81,0.47-4.76,0.14-5.76-1.03c-1-1.17-0.82-4.11-0.11-5.86
		c5.77-14.17,11.78-28.24,17.71-42.35c0.82-1.95,1.54-3.94,2.31-5.91c-0.38-0.47-0.76-0.93-1.14-1.4c-3.44,2.22-6.82,4.53-10.34,6.6
		c-1.21,0.71-2.77,0.82-4.17,1.21c0.59-1.38,0.8-3.31,1.84-4.06c5.92-4.22,11.89-8.42,18.18-12.02c1.94-1.11,4.97-0.3,7.5-0.37
		c-0.11,2.46,0.43,5.18-0.44,7.34C1809.62,316.34,1803.59,330.41,1797.71,344.54z"/>
	<path d="M1823.33,262.04c-0.05,4.03-2.39,7.57-5.48,8.93c-0.5,0.22-1.02,0.38-1.55,0.48c-0.39,0.08-0.8,0.12-1.21,0.12
		c-0.97-0.05-1.8-0.24-2.51-0.55c-2.13-0.91-3.14-2.88-3.2-5.59c-0.12-5.28,4.03-9.81,8.62-9.66
		C1822.07,255.9,1823.39,258.43,1823.33,262.04z"/>
</g>
</svg>
