<?xml version="1.0" standalone="no"?>
<!DOCTYPE svg PUBLIC "-//W3C//DTD SVG 20010904//EN"
 "http://www.w3.org/TR/2001/REC-SVG-20010904/DTD/svg10.dtd">
<svg version="1.0" xmlns="http://www.w3.org/2000/svg"
 width="4962.000000pt" height="1065.000000pt" viewBox="0 0 4962.000000 1065.000000"
 preserveAspectRatio="xMidYMid meet">
<metadata>
Created by potrace 1.15, written by Peter Selinger 2001-2017
</metadata>
<g transform="translate(0.000000,1065.000000) scale(0.100000,-0.100000)"
fill="#000000" stroke="none">
<path d="M12516 10535 c-30 -63 -58 -125 -62 -138 -4 -12 -10 -24 -15 -27 -19
-13 -194 -521 -230 -670 -2 -8 -7 -17 -10 -20 -16 -13 -104 -417 -148 -685
-30 -182 -62 -410 -87 -640 -52 -461 -52 -1200 -1 -1670 35 -309 84 -663 123
-880 38 -213 105 -518 116 -532 6 -7 7 -13 3 -13 -4 0 -3 -6 2 -12 6 -7 16
-38 23 -68 34 -153 197 -683 211 -688 5 -2 9 -8 9 -13 0 -28 208 -567 241
-623 9 -17 47 -98 84 -181 68 -154 88 -195 212 -432 100 -191 148 -276 221
-392 34 -55 62 -102 62 -105 0 -6 103 -168 120 -189 5 -7 44 -64 87 -127 106
-159 118 -174 206 -288 42 -55 77 -104 77 -109 0 -4 32 -44 71 -88 39 -44 91
-107 116 -139 129 -173 603 -661 824 -851 63 -53 127 -111 144 -127 16 -16 86
-73 155 -126 69 -52 126 -99 128 -104 2 -4 75 -58 163 -120 233 -165 271 -191
409 -275 69 -42 128 -81 131 -85 3 -5 50 -33 105 -63 l99 -55 100 0 100 0 100
56 c55 31 102 60 105 64 3 4 84 56 180 115 96 60 183 116 193 126 9 10 45 37
80 60 102 69 231 162 242 175 6 7 63 53 127 102 186 144 591 508 697 627 20
22 75 80 122 130 119 124 298 330 396 455 45 58 114 146 153 195 39 50 96 128
127 175 31 47 77 112 102 145 26 33 63 87 82 120 44 73 142 228 149 235 9 8
84 138 135 235 27 50 69 124 93 165 25 41 85 158 134 260 48 102 97 202 109
223 26 50 76 164 155 362 36 88 76 184 90 213 13 28 70 190 125 360 56 169
107 321 114 337 32 74 161 625 205 880 11 66 25 131 30 145 24 64 85 587 112
965 19 265 16 975 -5 1247 -41 534 -92 855 -221 1383 -46 188 -111 411 -126
430 -4 6 -24 59 -44 119 -64 188 -171 444 -191 458 -7 5 -7 8 0 8 6 0 5 3 -1
8 -6 4 -19 22 -28 40 -10 18 -20 32 -24 30 -4 -2 -29 -15 -57 -29 -27 -15
-129 -61 -225 -104 -96 -42 -215 -96 -265 -120 -89 -42 -373 -151 -510 -195
-38 -12 -74 -26 -80 -30 -34 -26 -493 -155 -745 -210 -52 -11 -104 -25 -115
-30 -28 -13 -256 -55 -465 -84 -749 -107 -1513 -111 -2256 -11 -207 28 -503
82 -519 94 -5 5 -37 14 -70 21 -225 45 -757 193 -791 221 -6 5 -71 29 -145 55
-157 53 -462 173 -469 184 -3 4 -45 24 -95 45 -49 21 -166 74 -260 117 -93 43
-173 78 -177 78 -5 0 -33 -52 -62 -115z m615 -1057 c35 -11 66 -24 69 -28 9
-14 522 -162 724 -209 49 -12 94 -25 100 -30 25 -21 584 -122 941 -171 189
-25 529 -60 593 -60 26 0 54 -6 61 -12 17 -18 1107 -19 1166 -1 22 6 130 19
240 28 332 27 760 89 1145 166 113 23 207 45 210 49 3 4 57 19 120 35 246 60
691 189 725 210 23 15 125 49 129 44 17 -20 87 -206 126 -334 48 -159 113
-427 126 -518 3 -26 10 -50 15 -53 5 -3 6 -10 3 -16 -4 -5 -2 -20 4 -31 12
-23 45 -255 61 -422 33 -333 37 -752 11 -1120 -12 -161 -46 -476 -60 -550 -5
-27 -23 -124 -39 -214 -66 -361 -174 -835 -208 -911 -3 -8 -7 -17 -8 -20 -1
-3 -7 -18 -13 -33 -7 -16 -12 -32 -12 -36 0 -31 -207 -641 -221 -651 -3 -3
-23 -50 -43 -105 -21 -55 -57 -148 -82 -207 -24 -59 -44 -111 -44 -114 0 -4
-22 -53 -50 -108 -27 -56 -87 -182 -133 -281 -46 -99 -96 -200 -112 -225 -16
-25 -37 -62 -47 -82 -9 -21 -34 -68 -56 -105 -22 -37 -56 -99 -77 -138 -20
-38 -50 -88 -66 -110 -15 -22 -40 -60 -55 -85 -46 -77 -168 -263 -182 -277 -7
-7 -10 -13 -5 -13 4 0 3 -4 -3 -8 -12 -7 -96 -121 -165 -222 -20 -30 -70 -94
-111 -142 -40 -48 -88 -106 -106 -130 -60 -78 -174 -199 -382 -407 -230 -231
-337 -331 -456 -424 -45 -35 -105 -84 -135 -110 -96 -83 -389 -288 -557 -392
l-64 -39 -46 24 c-50 27 -258 164 -307 203 -16 13 -83 61 -148 107 -65 46
-130 95 -145 109 -15 14 -72 61 -127 105 -398 317 -955 930 -1220 1341 -31 50
-60 92 -64 95 -16 13 -65 88 -146 225 -49 83 -104 173 -122 202 -61 95 -309
582 -378 743 -27 63 -67 153 -88 200 -51 111 -136 330 -194 500 -26 74 -51
138 -57 142 -6 4 -7 8 -2 8 5 0 4 6 -2 12 -16 21 -109 316 -168 538 -30 113
-59 216 -65 229 -32 76 -117 514 -158 811 -59 419 -75 696 -68 1163 6 437 30
697 97 1044 35 182 112 482 130 508 4 6 31 81 61 168 29 86 58 157 64 157 6 0
40 -10 76 -22z"/>
<path d="M13316 8998 c-53 -160 -126 -442 -142 -548 -4 -25 -10 -50 -15 -55
-10 -13 -44 -257 -61 -440 -17 -181 -17 -820 0 -1015 20 -228 52 -503 62 -525
4 -11 20 -94 35 -185 42 -261 92 -502 161 -775 20 -77 39 -144 43 -150 4 -5
18 -46 31 -90 67 -230 190 -595 208 -619 5 -6 28 -58 50 -116 73 -187 170
-409 186 -426 9 -8 16 -19 16 -24 0 -14 210 -434 219 -440 5 -3 33 -50 64
-105 67 -122 150 -258 241 -396 38 -57 85 -127 103 -156 19 -28 46 -64 59 -80
14 -15 41 -53 61 -83 86 -130 353 -458 493 -605 47 -50 101 -108 120 -130 110
-125 472 -447 639 -567 58 -43 143 -105 187 -138 120 -87 124 -88 177 -54 85
54 362 257 382 279 11 13 72 65 135 117 121 100 532 505 582 573 16 22 72 90
124 150 153 178 356 448 459 610 21 33 41 62 45 65 10 6 100 146 100 155 0 3
33 59 74 123 84 133 151 253 226 403 29 57 56 106 60 109 9 6 107 216 177 380
25 58 48 107 52 110 14 10 193 490 221 593 7 26 17 47 22 47 6 0 8 6 5 14 -3
8 -2 16 2 18 16 6 134 436 191 693 17 77 35 149 40 160 20 43 90 462 121 720
59 497 65 1112 13 1545 -27 233 -109 643 -134 675 -4 6 -20 51 -36 100 -16 50
-29 91 -29 92 -2 5 -91 -21 -101 -28 -23 -19 -570 -144 -885 -203 -101 -19
-202 -40 -225 -45 -96 -24 -638 -89 -959 -115 -495 -41 -896 -41 -1415 -1
-358 28 -955 102 -1005 124 -11 5 -87 21 -170 36 -275 48 -874 184 -900 204
-5 5 -23 11 -40 15 -16 4 -38 9 -48 12 -9 3 -19 -1 -21 -8z m2828 -858 c119
-59 323 -140 355 -140 21 -1 45 -19 62 -50 11 -20 13 -69 11 -234 -3 -224 0
-236 47 -236 26 0 87 31 106 54 8 9 193 153 300 233 66 50 106 66 152 59 107
-14 203 -112 203 -206 -1 -70 -29 -118 -106 -182 -274 -224 -474 -399 -594
-518 -25 -25 -58 -71 -73 -103 -21 -45 -31 -57 -45 -53 -25 7 -215 34 -297 41
-38 3 -79 10 -90 15 -11 5 -67 13 -125 19 -147 16 -150 17 -150 56 0 18 -3 60
-6 94 l-7 61 32 0 c17 0 39 4 49 9 9 5 40 17 67 27 28 9 67 34 88 54 51 51 52
97 3 146 -34 34 -34 34 -7 28 14 -4 31 -10 36 -14 6 -4 55 -22 110 -40 55 -18
136 -48 180 -67 79 -33 115 -41 115 -24 0 20 -25 77 -44 99 -56 67 -97 82
-299 111 l-122 18 80 5 c88 7 172 33 189 60 17 27 -10 86 -71 153 -30 33 -73
90 -95 128 -22 37 -62 87 -89 111 -44 39 -201 126 -228 126 -14 0 -15 129 -1
167 16 41 37 53 93 53 41 0 72 -11 171 -60z m-432 -249 c48 -11 120 -31 160
-45 65 -23 81 -34 143 -99 135 -143 197 -217 192 -231 -9 -23 -72 -28 -332
-27 -242 1 -355 -4 -355 -18 0 -9 216 -126 270 -147 25 -9 50 -20 55 -24 6 -4
26 -11 45 -15 58 -13 142 -54 138 -67 -10 -30 -109 -51 -238 -51 -110 -1 -134
3 -195 25 -38 14 -105 38 -148 54 l-77 28 -47 -20 c-70 -29 -88 -60 -87 -149
1 -43 8 -93 18 -119 18 -46 94 -127 141 -148 14 -6 25 -15 25 -19 0 -9 88 -43
198 -75 111 -32 276 -59 512 -84 240 -25 455 -57 495 -75 17 -7 71 -25 120
-39 50 -15 137 -50 195 -78 94 -47 116 -63 211 -157 155 -154 192 -241 193
-451 0 -200 -47 -316 -183 -450 -121 -119 -278 -196 -476 -233 l-76 -15 5 52
c5 51 14 236 18 396 l2 85 36 26 c47 35 64 75 58 144 -11 128 -105 162 -593
216 -462 51 -816 129 -995 219 -83 42 -237 146 -292 198 -91 85 -195 259 -219
369 -7 29 -16 53 -20 53 -4 0 -5 9 -2 21 3 12 1 24 -6 28 -15 9 -16 218 -2
264 5 18 22 71 36 118 46 151 138 292 243 370 31 24 62 48 67 54 37 42 194
106 323 130 104 20 326 13 444 -14z m389 -1981 c176 -13 264 -28 317 -52 l44
-19 -8 -357 c-5 -196 -8 -369 -9 -384 0 -16 -1 -28 -1 -28 -1 0 -26 5 -55 10
-49 10 -371 60 -382 60 -3 0 -8 19 -12 41 -25 145 -118 382 -199 504 -61 91
-50 122 50 151 52 15 54 17 54 50 0 40 -7 39 201 24z m-394 -447 c28 -60 57
-124 64 -143 7 -19 16 -37 19 -40 13 -9 41 -107 35 -121 -3 -8 -19 -22 -35
-31 -62 -35 -26 -124 60 -148 19 -5 136 -24 260 -41 124 -17 230 -34 235 -38
6 -5 44 -13 85 -20 137 -22 274 -61 366 -106 169 -82 290 -247 301 -411 11
-163 -40 -282 -167 -391 -84 -72 -166 -115 -261 -138 -109 -25 -99 -45 -93
193 5 175 9 209 23 219 71 53 79 108 26 171 -30 36 -23 34 -488 97 -186 25
-368 52 -403 60 -72 16 -199 67 -230 90 -10 8 -49 37 -85 64 -102 76 -150 147
-185 276 -18 66 -18 211 0 263 37 104 120 174 298 252 62 27 116 49 119 49 3
1 28 -47 56 -106z m561 -1130 l152 -16 0 -122 c0 -67 -3 -223 -7 -348 l-6
-226 -81 41 c-45 22 -83 44 -86 49 -3 5 -36 22 -72 38 l-67 31 -5 52 c-3 29
-10 143 -16 253 -6 110 -12 215 -15 233 -5 39 -10 39 203 15z m-350 -338 l10
-159 -24 -29 c-28 -33 -29 -43 -9 -90 13 -31 25 -39 117 -77 206 -86 372 -160
377 -169 4 -5 44 -28 91 -51 191 -96 293 -180 351 -290 20 -39 24 -59 24 -146
0 -98 -1 -103 -39 -178 -45 -88 -98 -140 -191 -185 -69 -33 -110 -47 -102 -34
3 5 7 70 8 146 2 98 7 141 16 149 7 6 13 24 13 41 0 63 -181 199 -360 272 -41
17 -84 36 -95 42 -11 6 -78 29 -150 53 -207 67 -259 99 -365 226 -43 51 -69
131 -70 210 0 147 60 264 180 347 54 38 192 99 201 89 3 -4 11 -79 17 -167z
m274 -942 c37 -14 79 -36 92 -48 14 -13 42 -36 61 -51 20 -15 40 -35 46 -45 9
-18 -2 -611 -17 -928 -6 -113 -8 -126 -30 -148 -20 -19 -33 -23 -89 -23 -78 0
-99 9 -113 50 -6 17 -16 210 -22 443 -6 226 -14 496 -18 600 -6 164 -5 186 8
181 8 -3 45 -17 82 -31z m-213 -589 c1 -88 -1 -103 -19 -119 -38 -34 -57 -139
-39 -222 15 -75 14 -112 -5 -131 -21 -22 -36 -6 -90 93 -114 210 -77 423 98
563 l41 34 6 -59 c4 -32 7 -103 8 -159z"/>
<path d="M15550 7816 c0 -3 5 -17 12 -31 8 -19 22 -27 50 -32 30 -4 46 -15 65
-42 15 -20 34 -42 42 -48 25 -22 75 -15 125 17 33 22 54 28 71 24 33 -8 32 10
-2 34 -52 36 -118 60 -183 67 -160 14 -180 16 -180 11z"/>
<path d="M2900 9070 l0 -1450 -1450 0 -1450 0 0 -2335 0 -2335 1450 0 1450 0
0 -1450 0 -1450 2315 0 2315 0 0 1450 0 1450 1450 0 1450 0 0 2335 0 2335
-1450 0 -1450 0 0 1450 0 1450 -2315 0 -2315 0 0 -1450z m2310 -990 c0 -33 4
-60 10 -60 6 0 10 27 10 60 l0 60 98 -5 c156 -9 301 -24 392 -41 113 -20 303
-65 315 -74 6 -4 71 -28 145 -53 153 -52 341 -134 415 -182 28 -17 73 -44 100
-60 76 -43 245 -155 268 -178 11 -11 59 -51 106 -89 90 -71 346 -334 399 -409
160 -225 332 -506 332 -543 0 -3 -483 -5 -1072 -4 l-1073 3 -62 23 c-76 29
-171 112 -204 180 -19 39 -23 63 -23 142 0 87 2 101 32 165 30 64 77 133 131
194 49 56 68 218 37 323 -27 95 -126 201 -214 229 -20 6 -41 15 -46 20 -13 11
-141 12 -164 1 -133 -65 -156 -79 -192 -119 -60 -69 -83 -139 -83 -253 0 -119
12 -152 99 -272 107 -150 109 -155 109 -288 0 -92 -4 -122 -18 -148 -24 -44
-112 -128 -159 -153 -95 -49 -92 -49 -1209 -49 l-1045 0 34 73 c151 320 430
670 725 909 143 116 191 149 312 221 66 39 122 74 125 78 20 25 300 145 465
199 55 18 105 36 110 40 13 10 161 46 260 64 147 27 239 38 375 46 74 4 141 8
148 8 8 2 12 -16 12 -58z m-2055 -1860 c297 -27 693 -63 880 -80 187 -17 348
-35 357 -40 10 -6 32 -10 50 -10 89 0 220 -60 269 -121 16 -20 43 -67 61 -105
28 -62 31 -78 32 -166 0 -64 -5 -102 -13 -112 -7 -8 -10 -20 -6 -26 3 -5 1
-10 -4 -10 -6 0 -11 -5 -11 -11 0 -17 -217 -450 -231 -459 -4 -3 -47 -84 -97
-180 -119 -233 -126 -244 -135 -248 -4 -2 -5 -8 -1 -13 3 -5 0 -9 -6 -9 -6 0
-9 -4 -6 -9 4 -5 2 -11 -3 -13 -5 -1 -50 -84 -101 -183 -51 -99 -100 -191
-110 -205 -9 -14 -66 -119 -125 -235 -59 -115 -115 -221 -125 -235 -9 -14 -65
-119 -124 -234 -59 -116 -115 -221 -125 -235 -10 -14 -42 -73 -71 -131 -29
-58 -54 -107 -56 -109 -8 -9 -142 107 -259 224 -115 115 -171 182 -315 373
-47 62 -132 207 -215 367 -107 206 -198 476 -240 710 -9 50 -19 97 -22 105 -3
8 -7 26 -9 40 -1 14 -8 57 -15 95 -16 96 -16 537 0 640 7 44 14 89 16 100 1
11 5 27 8 35 3 8 11 47 17 85 15 95 54 249 92 367 l31 98 36 -5 c20 -3 279
-28 576 -55z m4772 -16 c98 -289 145 -590 145 -929 1 -207 -9 -318 -43 -515
-17 -102 -30 -154 -84 -355 -8 -27 -21 -67 -29 -87 -9 -21 -16 -41 -15 -44 0
-4 -3 -10 -8 -13 -5 -3 -17 -28 -27 -56 -49 -134 -191 -411 -231 -451 -8 -8
-21 -29 -30 -47 -8 -18 -45 -72 -83 -121 -37 -49 -74 -100 -83 -113 -36 -53
-279 -300 -359 -364 l-85 -69 -14 30 c-8 16 -19 30 -23 30 -5 0 -6 5 -3 10 3
5 1 10 -5 10 -6 0 -8 5 -5 10 3 5 2 10 -3 10 -5 0 -56 91 -112 203 -57 111
-108 205 -114 209 -6 5 -7 8 -1 8 6 0 5 4 -2 8 -7 4 -60 102 -119 217 -59 116
-112 217 -119 225 -8 8 -62 110 -121 225 -59 116 -115 221 -124 235 -10 14
-66 120 -125 235 -59 116 -116 221 -125 235 -10 14 -62 111 -115 215 -54 105
-103 193 -109 197 -6 4 -7 8 -1 8 7 0 7 3 0 8 -20 14 -84 149 -100 207 -43
168 11 361 123 439 53 36 131 65 211 77 57 9 576 60 1641 162 140 13 259 23
264 22 5 0 20 -32 33 -71z m-2619 -1163 c20 -10 46 -29 57 -41 21 -23 29 -35
229 -336 65 -98 124 -182 130 -186 6 -4 8 -8 4 -8 -5 0 -1 -8 8 -17 19 -22
155 -227 182 -274 10 -19 44 -67 74 -107 31 -40 61 -85 69 -100 15 -30 123
-194 144 -220 8 -10 60 -87 117 -173 278 -421 342 -514 350 -517 4 -2 6 -8 2
-13 -3 -5 2 -12 10 -15 9 -3 14 -10 11 -14 -3 -4 2 -10 10 -14 8 -3 15 -10 15
-16 0 -5 15 -31 34 -58 l35 -48 -87 -48 c-48 -27 -100 -57 -117 -68 -122 -74
-357 -171 -540 -223 -55 -15 -105 -31 -110 -35 -12 -10 -236 -54 -365 -71
-144 -20 -573 -18 -731 4 -198 28 -434 90 -659 174 -106 39 -272 115 -292 133
-7 6 -61 38 -121 71 -71 40 -105 64 -100 72 15 25 172 264 196 297 57 80 187
280 187 287 0 5 13 22 29 40 26 30 57 77 172 257 24 38 60 90 81 115 21 25 38
49 38 54 0 9 161 253 184 280 9 9 13 17 9 17 -5 0 -3 4 3 8 10 6 67 90 352
521 56 86 109 164 117 174 8 9 15 21 15 25 0 12 51 58 85 75 42 22 127 21 173
-2z"/>
<path d="M4425 7624 c-115 -39 -208 -75 -215 -83 -3 -3 -52 -29 -110 -58 -58
-29 -144 -76 -193 -105 -85 -52 -316 -229 -380 -292 -59 -58 -187 -195 -187
-201 0 -3 294 -5 653 -5 661 0 677 1 677 35 0 6 -17 34 -39 62 -103 137 -151
269 -151 413 0 88 20 188 46 227 15 24 18 43 7 42 -5 0 -53 -16 -108 -35z"/>
<path d="M5900 7653 c0 -3 12 -36 26 -71 38 -95 44 -220 15 -332 -26 -102 -79
-218 -127 -277 -22 -27 -34 -51 -32 -66 l3 -22 658 -3 c413 -1 657 1 657 7 0
20 -249 259 -344 331 -55 41 -110 84 -122 95 -68 62 -446 254 -602 305 -133
43 -132 43 -132 33z"/>
<path d="M2817 5873 c-10 -16 -45 -219 -57 -330 -16 -145 -8 -523 14 -653 22
-133 77 -360 87 -360 5 0 6 -7 3 -15 -4 -8 -2 -15 4 -15 5 0 15 -21 22 -47 25
-92 185 -437 210 -453 4 -3 22 -30 40 -60 43 -73 198 -280 210 -280 6 0 60
100 121 223 61 122 117 229 124 237 7 8 59 107 115 220 57 113 111 216 120
230 10 14 64 117 120 230 57 113 112 219 124 235 12 17 66 120 120 230 54 110
108 214 121 230 37 49 65 112 71 158 5 38 3 45 -18 59 -13 8 -37 18 -53 22
-23 4 -714 68 -1225 112 -36 3 -85 9 -110 14 -78 15 -158 22 -163 13z"/>
<path d="M7525 5869 c-43 -8 -421 -44 -1212 -117 -229 -21 -253 -29 -253 -87
0 -22 25 -83 78 -184 42 -83 128 -251 191 -373 62 -123 119 -230 126 -238 7
-8 48 -85 91 -170 42 -85 117 -228 166 -317 49 -89 97 -183 108 -209 11 -26
67 -133 124 -238 58 -105 112 -210 121 -233 10 -24 21 -43 25 -43 5 0 18 12
30 28 11 15 54 69 94 119 40 51 79 105 87 120 8 15 43 77 78 138 116 201 203
427 250 655 12 58 26 112 30 121 35 63 49 580 22 769 -7 52 -16 100 -20 105
-3 6 -13 44 -21 85 -17 85 -19 86 -115 69z"/>
<path d="M5177 4506 c-13 -13 -29 -37 -37 -53 -8 -15 -42 -68 -75 -117 -116
-171 -244 -369 -264 -408 -8 -15 -22 -36 -31 -45 -24 -27 -72 -99 -125 -188
-26 -44 -69 -111 -96 -150 -66 -94 -209 -314 -209 -323 0 -4 -18 -31 -40 -60
-90 -118 -104 -152 -65 -152 7 0 20 -6 28 -14 17 -18 188 -76 322 -111 406
-105 885 -103 1291 5 119 32 286 88 294 99 3 4 19 13 36 20 l31 12 -65 97
c-35 53 -67 104 -70 112 -6 17 -82 132 -92 140 -9 7 -70 98 -70 104 0 3 -34
58 -76 123 -85 131 -79 122 -151 225 -28 41 -74 113 -102 159 -27 46 -70 111
-95 144 -25 33 -46 64 -46 68 0 4 -31 54 -68 110 -38 56 -76 116 -85 132 -24
47 -74 95 -97 95 -11 0 -31 -11 -43 -24z"/>
<path d="M35620 9504 c-14 -2 -77 -11 -140 -20 -63 -9 -119 -20 -125 -24 -5
-4 -53 -18 -105 -30 -52 -13 -97 -26 -100 -30 -3 -4 -23 -13 -45 -20 -45 -14
-162 -65 -185 -81 -8 -5 -35 -19 -59 -30 -25 -12 -54 -30 -65 -41 -11 -10 -31
-21 -43 -24 -13 -4 -23 -10 -23 -15 0 -5 -13 -15 -29 -24 -16 -8 -35 -20 -43
-27 -7 -7 -29 -25 -48 -39 -88 -66 -320 -318 -320 -347 0 -6 -6 -15 -13 -19
-15 -10 -82 -119 -91 -150 -4 -13 -11 -23 -15 -23 -4 0 -15 -22 -25 -50 -10
-27 -21 -50 -25 -50 -4 0 -18 -35 -31 -77 -14 -43 -27 -80 -31 -83 -3 -3 -14
-43 -24 -90 -10 -47 -21 -89 -25 -95 -35 -47 -49 -626 -21 -810 7 -49 17 -92
20 -95 4 -3 15 -43 25 -90 10 -47 21 -89 26 -95 4 -5 18 -44 31 -85 12 -41 26
-77 30 -80 4 -3 15 -25 25 -50 10 -25 26 -56 36 -69 10 -13 18 -30 18 -37 0
-7 6 -19 13 -26 7 -7 22 -29 33 -48 10 -19 27 -43 37 -54 9 -11 17 -23 17 -27
0 -5 10 -19 23 -33 12 -14 51 -60 87 -104 36 -43 102 -109 148 -147 46 -39 89
-75 95 -80 22 -20 122 -83 150 -96 15 -7 27 -15 27 -19 0 -4 19 -15 43 -25 23
-10 49 -24 57 -31 8 -6 39 -19 68 -29 28 -9 52 -20 52 -24 0 -4 34 -16 75 -26
41 -11 75 -22 75 -26 0 -4 55 -17 123 -29 67 -12 133 -27 146 -34 34 -16 639
-15 672 0 13 7 96 22 184 34 88 12 162 25 165 29 3 4 46 16 95 26 50 10 92 21
95 25 3 4 47 17 98 30 51 12 94 26 97 30 3 4 36 16 75 25 38 9 70 20 70 24 0
4 32 15 70 26 39 11 70 23 70 27 0 4 9 8 20 8 20 0 20 7 20 504 l0 504 -22 6
c-29 7 -126 8 -154 0 -18 -5 -22 -18 -32 -109 -6 -57 -16 -112 -22 -122 -5
-10 -19 -51 -30 -92 -11 -41 -23 -77 -28 -80 -4 -3 -16 -26 -27 -51 -11 -25
-23 -49 -27 -55 -31 -39 -80 -114 -88 -132 -5 -12 -18 -27 -30 -33 -11 -6 -20
-16 -20 -22 0 -23 -209 -216 -269 -248 -14 -7 -34 -21 -45 -31 -10 -10 -34
-23 -53 -30 -18 -6 -33 -14 -33 -18 0 -4 -17 -13 -37 -20 -21 -8 -57 -22 -80
-32 -23 -11 -66 -24 -95 -30 -29 -5 -64 -16 -77 -22 -32 -16 -369 -16 -402 -1
-13 7 -54 20 -91 29 -38 10 -68 21 -68 25 0 4 -18 12 -40 19 -21 6 -45 18 -53
25 -7 8 -32 23 -55 35 -45 23 -242 216 -242 237 0 3 -15 29 -34 57 -18 29 -39
70 -46 92 -7 22 -16 42 -19 45 -10 7 -41 108 -41 131 0 11 -4 19 -8 19 -9 0
-39 147 -48 241 -4 35 -10 69 -15 74 -38 50 -36 1199 2 1213 5 2 9 18 9 36 0
43 39 257 49 271 5 5 16 40 26 78 10 37 21 67 24 67 4 0 15 25 26 55 10 30 22
55 27 55 5 0 6 5 3 10 -3 6 -1 10 4 10 6 0 11 5 11 12 0 6 18 35 40 64 22 29
40 56 40 59 0 5 110 113 152 149 9 8 36 25 60 38 24 13 45 26 48 29 11 14 136
70 179 81 25 6 51 14 56 19 55 42 451 42 534 -1 9 -4 44 -16 79 -26 34 -9 62
-20 62 -24 0 -3 23 -14 50 -24 28 -10 50 -21 50 -25 0 -4 17 -15 38 -25 20
-10 44 -24 52 -32 8 -7 32 -28 53 -46 71 -60 123 -112 163 -163 21 -27 41 -52
45 -55 11 -10 65 -96 84 -135 11 -22 25 -45 31 -52 6 -6 18 -32 25 -57 7 -26
16 -46 20 -46 7 0 24 -57 39 -135 6 -33 15 -69 21 -80 5 -11 12 -51 17 -90 l7
-70 88 -3 87 -3 0 510 0 509 -30 7 c-16 4 -30 10 -30 14 0 4 -34 18 -75 31
-41 13 -75 26 -75 30 0 3 -31 14 -70 24 -38 10 -70 22 -70 26 0 4 -38 15 -85
25 -47 10 -85 21 -85 25 0 4 -53 18 -117 29 -65 12 -127 26 -138 31 -49 23
-269 43 -505 45 -135 2 -256 1 -270 -1z"/>
<path d="M26918 9443 l-478 -3 0 -80 0 -80 190 0 190 0 0 -1625 0 -1625 -190
0 -190 0 0 -75 0 -75 740 0 740 0 0 75 0 75 -170 0 -170 0 0 1710 0 1710 -92
-2 c-51 -2 -308 -4 -570 -5z"/>
<path d="M22990 9361 l0 -81 235 0 235 0 2 -1625 3 -1625 -237 0 -238 0 0 -75
0 -75 1067 0 c1005 0 1338 7 1353 29 3 5 47 16 98 26 50 9 92 21 92 25 0 4 19
13 43 19 37 12 164 76 177 90 3 3 34 29 70 56 36 28 77 64 91 80 59 67 100
122 110 148 6 15 14 27 18 27 4 0 15 23 25 50 10 28 21 50 26 50 4 0 17 44 29
98 12 53 26 111 32 128 12 41 12 291 -1 299 -5 3 -10 16 -10 29 0 27 -40 189
-49 196 -3 3 -16 25 -29 50 -53 104 -125 194 -217 271 -38 32 -78 65 -88 74
-10 9 -33 23 -52 32 -19 9 -35 20 -35 24 0 4 -26 17 -57 30 -32 12 -60 26 -63
30 -3 4 -34 15 -70 25 -36 9 -67 21 -70 25 -6 8 -181 39 -222 39 -15 0 -28 5
-28 10 0 6 -19 11 -42 11 -33 2 -36 3 -13 6 74 9 200 35 205 42 3 3 32 15 65
25 33 10 62 21 65 25 3 3 25 16 50 29 97 50 138 79 218 159 45 46 82 87 82 92
0 4 9 16 20 26 11 10 17 22 14 26 -3 5 -1 9 4 9 5 0 17 21 27 48 10 26 22 50
27 53 5 3 17 45 27 92 9 48 20 89 24 93 10 11 9 181 -2 202 -5 9 -15 49 -21
87 -11 59 -61 188 -80 205 -3 3 -17 23 -32 45 -29 45 -59 77 -109 118 -50 41
-137 94 -167 102 -15 4 -29 11 -33 16 -3 5 -41 17 -85 26 -43 9 -81 20 -84 24
-3 3 -48 12 -100 19 -71 10 -370 14 -1197 17 l-1103 4 0 -80z m1768 -102 c53
-6 99 -15 100 -20 2 -5 12 -9 23 -9 23 0 99 -30 99 -39 0 -3 15 -15 34 -25 18
-10 39 -29 45 -42 6 -13 15 -24 21 -24 6 0 9 -4 6 -9 -3 -5 1 -14 8 -20 8 -7
20 -34 27 -62 7 -27 16 -49 20 -49 17 0 34 -178 34 -355 0 -178 -17 -355 -34
-355 -4 0 -13 -22 -20 -49 -15 -57 -78 -147 -124 -175 -17 -11 -37 -26 -44
-32 -7 -7 -36 -17 -65 -24 -29 -7 -55 -16 -58 -21 -11 -16 -170 -29 -361 -29
l-200 0 6 308 c3 169 7 472 8 675 l2 367 188 0 c103 0 231 -5 285 -11z m7
-1520 c5 -5 22 -9 37 -9 53 0 177 -31 227 -55 27 -14 52 -25 57 -25 10 0 28
-16 104 -92 45 -44 71 -80 85 -116 11 -29 22 -52 25 -52 7 0 34 -105 52 -200
18 -97 15 -521 -5 -580 -2 -8 -12 -51 -22 -95 -10 -44 -21 -82 -24 -85 -4 -3
-15 -26 -25 -52 -10 -27 -22 -48 -27 -48 -6 0 -7 -4 -4 -10 3 -5 2 -10 -4 -10
-5 0 -12 -8 -15 -18 -5 -15 -33 -45 -104 -113 -30 -29 -150 -87 -194 -94 -24
-4 -45 -11 -48 -16 -9 -13 -233 -29 -420 -29 l-175 0 -2 468 c-1 257 -5 644
-8 861 l-6 394 243 -7 c134 -4 247 -12 253 -17z"/>
<path d="M47190 9319 c-24 -5 -58 -15 -75 -23 -16 -8 -50 -22 -75 -32 -25 -10
-47 -20 -50 -24 -3 -3 -18 -14 -33 -23 -31 -20 -71 -52 -96 -78 -45 -46 -79
-87 -91 -109 -7 -14 -18 -28 -25 -32 -6 -4 -17 -25 -25 -48 -7 -22 -17 -40
-21 -40 -12 0 -40 -139 -46 -230 -7 -107 17 -239 59 -329 17 -36 33 -68 37
-71 3 -3 18 -23 32 -46 27 -41 126 -144 138 -144 4 0 16 -8 27 -19 47 -43 221
-111 287 -111 15 0 27 -4 27 -10 0 -6 35 -10 85 -10 50 0 85 4 85 10 0 6 12
10 28 10 60 0 244 70 277 105 6 6 26 23 45 37 62 46 96 84 152 171 21 32 38
63 38 70 0 7 7 22 15 34 44 63 60 308 29 446 -9 40 -20 74 -24 77 -4 3 -15 26
-25 53 -10 26 -22 47 -27 47 -5 0 -11 8 -15 18 -8 22 -81 113 -107 131 -11 8
-28 23 -37 32 -10 10 -32 25 -48 34 -17 8 -31 19 -31 23 0 5 -17 14 -37 21
-21 7 -56 21 -78 31 -22 10 -64 23 -93 29 -62 13 -237 13 -302 0z m298 -129
c2 -5 12 -10 22 -10 28 0 130 -40 130 -51 0 -5 6 -9 14 -9 19 0 125 -98 155
-145 31 -48 61 -112 61 -130 0 -7 5 -15 10 -17 6 -2 16 -45 22 -96 9 -72 9
-111 -1 -179 -7 -48 -16 -90 -20 -93 -4 -3 -13 -24 -20 -48 -31 -106 -155
-240 -260 -279 -25 -9 -48 -20 -51 -24 -11 -14 -115 -29 -204 -29 -92 0 -206
16 -206 30 0 4 -19 13 -42 19 -81 24 -188 115 -225 191 -4 8 -12 20 -18 26 -6
6 -17 31 -25 55 -8 24 -18 46 -22 50 -36 25 -35 362 1 389 4 3 13 24 20 47 8
24 22 50 33 59 10 10 18 23 18 29 0 17 138 145 156 145 8 0 14 4 14 9 0 11
102 51 130 51 11 0 20 4 20 9 0 14 62 19 180 15 61 -2 106 -8 108 -14z"/>
<path d="M47080 8646 l0 -406 60 0 60 0 0 175 0 175 74 0 75 0 37 -57 c20 -32
50 -77 65 -100 16 -23 29 -46 29 -51 0 -5 6 -15 14 -21 8 -7 24 -31 36 -53 32
-62 42 -68 110 -68 59 0 61 1 54 23 -3 12 -13 29 -21 37 -14 16 -105 151 -136
204 -11 17 -27 40 -38 52 -24 26 -24 34 1 34 11 0 20 4 20 8 0 5 23 14 51 21
90 23 133 88 132 201 -1 113 -22 153 -108 198 -49 25 -56 26 -282 30 l-233 4
0 -406z m445 269 c17 -10 36 -25 43 -34 16 -19 15 -89 -1 -121 -19 -38 -67
-49 -224 -49 l-143 -1 0 116 0 116 148 -4 c123 -3 152 -7 177 -23z"/>
<path d="M32285 8394 c-33 -3 -69 -8 -80 -13 -11 -5 -63 -17 -115 -26 -52 -10
-97 -21 -100 -24 -3 -4 -40 -17 -82 -31 -43 -13 -78 -27 -78 -30 0 -4 -19 -15
-42 -26 -24 -10 -45 -21 -48 -24 -3 -3 -34 -25 -70 -49 -36 -24 -73 -52 -82
-62 -10 -9 -25 -23 -35 -31 -35 -26 -163 -170 -163 -184 0 -7 -6 -17 -14 -21
-20 -12 -119 -208 -140 -278 -10 -33 -23 -65 -28 -71 -30 -40 -76 -534 -49
-534 6 0 11 -15 11 -34 0 -60 30 -209 60 -296 27 -79 123 -278 139 -290 4 -3
16 -20 26 -37 11 -18 22 -33 26 -33 4 0 17 -16 30 -36 22 -37 127 -142 170
-172 13 -9 27 -21 31 -28 4 -6 21 -17 38 -24 16 -7 30 -16 30 -20 0 -3 23 -17
50 -30 28 -13 50 -26 50 -30 0 -3 25 -14 55 -25 30 -10 55 -21 55 -25 0 -4 44
-17 98 -30 53 -13 102 -27 107 -31 6 -4 72 -13 147 -19 104 -9 170 -9 274 -1
76 7 143 15 148 20 6 4 57 18 114 31 56 13 102 27 102 31 0 4 23 15 50 24 28
9 50 20 50 24 0 4 23 18 50 31 28 13 50 26 50 30 0 4 12 12 26 19 14 6 39 24
55 39 59 53 159 153 159 157 0 2 11 16 24 31 46 51 56 64 56 72 0 5 9 18 20
30 11 11 30 40 42 64 12 24 24 45 28 48 3 3 14 24 25 47 11 24 23 43 28 43 4
0 7 6 7 13 0 12 -36 30 -112 58 -21 7 -38 17 -38 21 0 4 -5 8 -11 8 -10 0 -64
-108 -61 -122 1 -5 -2 -8 -7 -8 -5 0 -13 -10 -17 -22 -14 -48 -102 -166 -176
-238 -92 -90 -125 -115 -175 -136 -21 -9 -40 -20 -43 -25 -3 -5 -37 -16 -75
-26 -39 -10 -73 -22 -77 -28 -11 -16 -360 -13 -365 3 -3 6 -12 12 -22 12 -26
0 -111 31 -111 40 0 4 -11 11 -25 14 -33 8 -146 121 -170 171 -11 22 -25 45
-31 51 -6 7 -19 38 -29 71 -10 32 -21 60 -25 63 -10 7 -40 175 -40 221 0 19
-5 40 -11 46 -6 6 -12 101 -16 242 l-6 231 838 0 838 0 -7 118 c-7 128 -21
236 -35 267 -5 11 -17 47 -27 80 -10 33 -24 66 -31 73 -7 7 -13 19 -13 26 0
12 -59 110 -82 135 -7 8 -20 25 -29 38 -25 37 -137 151 -167 170 -15 9 -34 23
-42 31 -26 23 -124 82 -136 82 -7 0 -19 6 -26 13 -7 8 -45 24 -83 37 -39 12
-75 26 -80 31 -6 4 -53 15 -105 24 -52 9 -102 20 -111 25 -19 10 -274 19 -364
14z m243 -174 c10 -4 38 -16 65 -25 26 -9 47 -20 47 -24 0 -4 14 -15 30 -24
17 -10 30 -24 30 -30 0 -7 9 -18 20 -25 11 -7 20 -17 20 -23 0 -6 11 -34 25
-61 27 -54 55 -190 55 -269 0 -27 5 -49 10 -49 6 0 10 -55 10 -145 l0 -145
-446 0 -445 0 6 123 c3 67 10 138 15 157 5 19 14 77 20 129 6 51 20 113 30
137 11 24 20 46 20 49 0 13 34 79 50 97 57 67 93 94 140 109 19 6 44 14 55 19
11 5 34 11 50 14 42 6 173 -3 193 -14z"/>
<path d="M43475 8393 c-22 -2 -42 -8 -45 -12 -3 -4 -36 -13 -75 -20 -38 -8
-92 -24 -120 -36 -27 -12 -67 -28 -87 -34 -21 -7 -38 -16 -38 -21 0 -4 -13
-13 -30 -20 -16 -7 -42 -23 -57 -37 -60 -53 -113 -104 -113 -108 0 -3 -16 -25
-35 -51 -19 -25 -35 -52 -35 -60 0 -8 -4 -14 -10 -14 -9 0 -50 -124 -50 -153
0 -8 -6 -17 -12 -19 -17 -6 -18 -368 -2 -389 6 -8 19 -44 28 -81 10 -38 22
-68 27 -68 5 0 8 -3 7 -7 -5 -16 109 -167 140 -187 8 -4 22 -16 31 -25 9 -9
35 -28 56 -41 22 -13 42 -27 45 -31 3 -4 24 -15 48 -24 23 -10 42 -20 42 -24
0 -4 24 -15 53 -26 28 -10 54 -21 57 -25 3 -4 30 -15 60 -25 30 -9 64 -23 76
-30 11 -7 48 -21 82 -30 34 -10 62 -21 62 -25 0 -4 21 -13 48 -19 26 -7 65
-20 87 -30 22 -10 64 -27 93 -37 28 -10 52 -21 52 -25 0 -3 20 -14 45 -23 25
-10 45 -21 45 -25 0 -4 15 -15 33 -25 96 -56 144 -181 118 -308 -14 -66 -77
-157 -128 -185 -18 -10 -33 -20 -33 -24 0 -3 -21 -14 -47 -23 -27 -10 -56 -22
-66 -27 -10 -6 -59 -15 -109 -21 -93 -12 -235 -1 -275 21 -10 5 -42 17 -70 26
-29 9 -53 20 -53 25 0 4 -11 11 -24 14 -13 3 -37 16 -52 28 -59 49 -174 163
-174 174 0 6 -9 19 -20 29 -10 9 -27 37 -36 61 -9 24 -21 44 -25 44 -5 0 -16
27 -26 60 -9 33 -20 60 -24 60 -6 0 -22 78 -47 240 l-7 45 -85 0 -85 0 -3
-390 c-1 -214 0 -399 2 -411 4 -15 22 -25 68 -39 35 -11 65 -22 68 -25 3 -4
34 -15 70 -24 36 -10 67 -22 70 -26 3 -3 55 -17 115 -30 61 -12 115 -26 120
-30 18 -13 212 -30 344 -30 131 0 280 14 316 30 11 5 56 19 100 31 44 12 82
25 85 29 3 4 26 15 53 25 26 10 47 21 47 25 0 3 17 14 38 24 41 20 38 17 145
118 42 40 77 78 77 85 0 7 6 16 13 20 23 15 97 158 97 188 0 8 4 15 8 15 31 0
54 324 32 458 -10 64 -59 194 -80 212 -3 3 -17 23 -31 45 -41 63 -108 126
-189 179 -41 28 -77 53 -80 56 -3 4 -25 14 -50 24 -25 10 -47 21 -50 25 -3 4
-34 18 -70 30 -36 13 -67 27 -70 30 -3 4 -33 15 -67 26 -35 10 -63 21 -63 25
0 3 -22 12 -48 19 -26 6 -61 18 -76 26 -15 8 -57 24 -94 35 -36 11 -70 24 -76
29 -6 5 -36 16 -66 26 -30 10 -57 21 -60 25 -3 3 -21 12 -40 20 -19 8 -56 36
-82 62 -37 38 -49 60 -58 101 -12 59 1 147 26 171 8 8 14 19 14 24 0 12 86 92
99 92 5 0 17 7 25 15 20 20 134 45 206 45 126 0 257 -41 350 -108 31 -23 128
-118 165 -162 24 -29 74 -141 87 -195 7 -30 16 -55 19 -55 4 0 5 -8 2 -19 -3
-10 0 -22 6 -25 6 -4 11 -19 11 -34 0 -48 10 -53 96 -50 l79 3 0 38 c-1 20 -2
171 -3 336 l-2 298 -47 13 c-27 8 -50 17 -53 20 -3 4 -45 18 -95 30 -49 13
-92 27 -95 30 -6 8 -165 40 -197 40 -12 0 -23 5 -25 11 -4 12 -343 22 -423 12z"/>
<path d="M45665 8393 c-22 -2 -42 -8 -45 -12 -3 -4 -36 -13 -75 -20 -38 -8
-92 -24 -120 -36 -27 -12 -67 -28 -87 -34 -21 -7 -38 -16 -38 -21 0 -4 -13
-13 -30 -20 -16 -7 -42 -24 -58 -39 -16 -14 -48 -42 -70 -61 -23 -19 -41 -40
-42 -47 0 -7 -8 -17 -19 -22 -10 -6 -21 -21 -25 -34 -3 -13 -15 -34 -26 -47
-11 -13 -26 -43 -32 -67 -5 -24 -14 -43 -18 -43 -16 0 -35 -153 -35 -280 0
-132 19 -270 36 -270 5 0 9 -7 9 -15 0 -18 31 -86 48 -103 6 -7 12 -17 12 -22
0 -16 154 -166 195 -190 22 -13 42 -27 45 -31 3 -4 24 -15 48 -24 23 -10 42
-20 42 -24 0 -4 24 -15 53 -26 28 -10 54 -21 57 -25 3 -4 30 -15 60 -25 30 -9
64 -23 76 -30 11 -7 48 -21 82 -30 34 -10 62 -21 62 -25 0 -4 21 -13 48 -19
26 -7 70 -23 99 -37 28 -13 56 -24 62 -24 10 0 153 -70 161 -79 3 -4 21 -17
40 -30 43 -28 99 -101 111 -144 20 -70 -2 -237 -32 -237 -5 0 -9 -6 -9 -14 0
-7 -22 -33 -49 -57 -72 -65 -76 -67 -123 -85 -24 -8 -51 -20 -61 -25 -10 -6
-59 -15 -109 -21 -93 -12 -235 -1 -275 21 -10 5 -42 17 -70 26 -29 9 -53 20
-53 25 0 4 -11 11 -25 14 -14 4 -33 14 -43 24 -10 9 -33 28 -52 41 -47 33
-170 176 -170 198 0 6 -7 19 -16 27 -8 9 -12 16 -8 16 4 0 0 8 -8 18 -9 9 -21
35 -28 57 -7 22 -19 49 -26 60 -7 11 -18 56 -25 100 -7 44 -16 84 -21 89 -4 6
-8 24 -8 40 0 74 -4 77 -94 74 l-81 -3 -3 -190 c-2 -104 0 -289 3 -411 l7
-221 57 -18 c31 -9 61 -21 66 -25 6 -5 39 -16 75 -25 36 -9 67 -20 70 -24 3
-4 55 -18 115 -31 61 -12 115 -26 120 -30 16 -12 222 -30 351 -30 125 0 274
15 309 30 11 5 56 19 100 31 44 12 82 25 85 29 3 4 26 15 53 25 26 10 47 21
47 25 0 4 15 14 32 21 30 12 164 119 180 144 7 10 37 47 68 83 8 9 24 36 34
60 10 23 22 42 26 42 3 0 14 26 24 58 10 31 22 62 26 67 38 48 39 486 1 515
-3 3 -15 30 -25 60 -11 30 -25 59 -33 63 -7 4 -13 13 -13 19 0 12 -50 75 -102
128 -19 19 -68 57 -109 84 -41 28 -76 53 -79 56 -3 4 -25 14 -50 24 -25 10
-47 21 -50 25 -3 4 -34 18 -70 31 -36 13 -67 26 -70 30 -3 3 -33 14 -67 25
-35 10 -63 21 -63 25 0 3 -22 12 -48 19 -26 6 -60 18 -74 25 -14 8 -57 24 -94
36 -38 13 -73 26 -79 30 -5 4 -35 15 -65 25 -30 10 -57 21 -60 24 -3 3 -23 14
-44 24 -53 25 -102 73 -121 119 -17 43 -20 127 -5 176 13 47 78 129 113 143
16 7 35 18 43 26 18 18 134 43 204 43 121 0 277 -48 351 -107 53 -42 149 -139
149 -149 0 -6 9 -19 19 -28 15 -14 58 -95 66 -126 1 -3 6 -17 12 -31 6 -14 17
-60 24 -102 7 -42 17 -77 21 -77 4 0 8 -7 8 -15 0 -12 16 -15 87 -15 l86 0 -6
167 c-4 91 -7 244 -7 338 l0 173 -47 12 c-26 6 -50 15 -53 19 -3 4 -45 18 -95
31 -49 13 -92 27 -95 30 -6 8 -165 40 -197 40 -12 0 -23 5 -25 11 -4 12 -343
22 -423 12z"/>
<path d="M40858 8382 c-1 -4 -52 -16 -113 -26 -60 -10 -112 -21 -115 -25 -3
-4 -40 -17 -82 -31 -43 -13 -78 -26 -78 -30 0 -3 -22 -14 -50 -25 -27 -11 -50
-22 -50 -26 0 -4 -14 -12 -30 -19 -28 -12 -55 -30 -134 -92 -52 -41 -166 -155
-166 -165 0 -6 -7 -13 -15 -17 -8 -3 -20 -16 -25 -28 -6 -13 -24 -41 -40 -63
-16 -22 -29 -46 -30 -52 0 -7 -4 -13 -9 -13 -5 0 -17 -22 -27 -50 -10 -27 -21
-50 -25 -50 -4 0 -15 -26 -24 -57 -9 -32 -20 -62 -25 -68 -23 -29 -62 -301
-62 -430 0 -127 39 -399 61 -430 4 -5 16 -37 26 -70 10 -33 21 -65 26 -70 4
-6 21 -35 37 -65 40 -77 55 -102 70 -118 6 -7 12 -17 12 -20 0 -4 10 -19 23
-32 12 -14 42 -50 67 -80 24 -30 51 -59 58 -64 8 -4 31 -24 50 -42 20 -19 44
-37 54 -40 10 -3 18 -9 18 -14 0 -5 15 -17 33 -26 17 -9 34 -20 37 -23 10 -14
140 -80 179 -92 23 -7 41 -16 41 -20 0 -4 44 -17 98 -29 53 -12 105 -25 114
-31 35 -18 279 -29 418 -18 74 6 139 14 145 18 5 5 56 19 113 31 56 13 102 26
102 30 0 4 27 15 60 25 33 10 60 21 60 25 0 4 21 17 48 29 58 27 130 69 152
90 9 9 34 30 56 46 111 85 281 295 308 383 4 12 11 22 15 22 4 0 14 19 20 43
7 23 21 60 31 82 9 22 23 72 30 110 7 39 18 76 24 84 15 19 15 489 1 499 -6 4
-19 50 -29 102 -10 52 -22 97 -26 100 -3 3 -14 31 -24 63 -10 31 -21 57 -25
57 -4 0 -15 21 -24 48 -10 26 -35 72 -57 102 -22 30 -44 65 -50 77 -17 40
-203 217 -280 268 -41 27 -77 52 -80 55 -3 4 -26 15 -52 25 -27 10 -48 21 -48
25 0 3 -35 17 -77 30 -43 14 -80 27 -83 31 -3 4 -54 15 -115 25 -60 10 -111
22 -113 26 -2 5 -93 8 -202 8 -109 0 -200 -3 -202 -8z m344 -158 c7 -6 34 -18
61 -28 26 -10 47 -21 47 -25 0 -4 10 -12 23 -18 31 -14 101 -107 123 -163 10
-25 21 -48 26 -51 10 -6 47 -173 48 -211 0 -14 4 -28 9 -30 39 -14 40 -1193 1
-1218 -4 -3 -10 -27 -14 -55 -11 -72 -37 -175 -46 -175 -4 0 -13 -17 -19 -38
-18 -54 -115 -154 -179 -186 -61 -30 -195 -50 -275 -41 -72 9 -147 26 -147 34
0 4 -15 12 -33 19 -67 24 -162 141 -188 232 -7 25 -16 47 -20 50 -9 6 -39 166
-39 206 0 17 -4 34 -10 40 -13 13 -30 349 -30 606 0 240 16 521 31 526 5 2 9
14 9 27 0 33 31 179 39 185 4 3 18 33 30 68 13 34 27 62 32 62 4 0 10 8 13 18
15 44 113 127 171 144 22 7 42 15 45 19 9 13 62 17 172 15 59 -1 113 -7 120
-12z"/>
<path d="M39140 8365 c-8 -2 -48 -9 -87 -15 -40 -7 -73 -15 -73 -19 0 -4 -23
-15 -50 -25 -28 -10 -56 -24 -63 -30 -7 -6 -29 -22 -49 -34 -43 -27 -178 -168
-178 -187 0 -7 -4 -15 -8 -17 -11 -4 -61 -96 -64 -117 -1 -9 -5 83 -8 203 l-5
219 -309 -2 c-170 -1 -334 -7 -365 -12 -31 -5 -138 -9 -238 -9 l-183 0 0 -70
0 -70 183 0 182 0 0 -1075 0 -1075 -182 0 -183 0 0 -75 0 -75 740 0 740 0 0
75 0 75 -185 0 -185 0 -2 458 c-2 533 2 825 12 832 4 3 10 50 14 105 4 55 13
129 21 165 16 78 61 228 73 244 5 6 15 27 22 46 31 77 152 220 186 220 7 0 14
5 16 11 7 21 77 15 101 -9 23 -24 23 -17 18 -222 -3 -110 11 -189 38 -224 52
-66 138 -125 184 -126 9 0 17 -4 17 -10 0 -12 142 -14 156 -2 5 5 30 16 55 25
80 30 143 102 160 186 6 31 15 64 20 73 12 23 12 113 -1 152 -5 17 -17 61 -26
99 -9 37 -25 77 -36 89 -10 11 -18 25 -18 30 0 16 -105 115 -140 133 -19 10
-37 21 -40 25 -14 19 -214 46 -260 35z"/>
<path d="M28800 8338 c-96 -5 -340 -11 -542 -14 l-368 -5 0 -69 0 -70 183 0
182 0 2 -382 c4 -733 20 -1471 32 -1518 16 -59 65 -162 85 -179 9 -7 16 -19
16 -25 1 -20 132 -126 180 -146 16 -7 30 -16 30 -20 0 -4 39 -18 88 -30 48
-13 92 -27 98 -31 6 -5 66 -13 133 -19 124 -11 392 1 415 19 6 4 55 18 109 31
53 13 97 26 97 29 0 4 23 15 50 25 28 10 50 22 50 26 0 4 14 13 30 20 28 12
51 27 134 92 16 13 58 52 93 87 l63 64 0 -105 c0 -58 3 -140 7 -182 l6 -78
101 7 c56 5 299 11 541 14 l440 6 3 54 c6 107 18 101 -188 101 l-180 0 0 1153
0 1152 -322 -3 c-178 -1 -353 -7 -390 -12 -37 -6 -144 -10 -237 -10 l-171 0 0
-70 0 -70 190 0 189 0 1 -757 c0 -722 -4 -852 -29 -908 -5 -11 -17 -46 -27
-77 -9 -32 -20 -58 -23 -58 -4 0 -15 -17 -24 -37 -33 -73 -152 -178 -228 -203
-24 -8 -47 -18 -50 -22 -3 -4 -40 -12 -82 -18 -79 -10 -225 2 -236 19 -3 4
-23 13 -43 20 -32 11 -74 49 -130 119 -25 30 -46 99 -53 173 -4 35 -11 73 -16
84 -8 17 -6 1212 3 1685 3 139 2 145 -17 146 -11 0 -99 -3 -195 -8z"/>
<path d="M48840 4832 c0 -4 -30 -13 -67 -20 -68 -13 -181 -62 -217 -94 -11
-10 -24 -18 -28 -18 -7 0 -125 -118 -160 -160 -7 -9 -22 -34 -33 -58 -11 -23
-23 -42 -26 -42 -4 0 -15 -30 -25 -67 -10 -38 -23 -71 -28 -75 -7 -5 -11 -63
-11 -158 0 -95 4 -153 11 -158 5 -4 18 -37 28 -74 10 -38 21 -68 25 -68 4 0
15 -18 25 -40 17 -40 42 -73 84 -115 12 -12 22 -27 22 -34 0 -6 5 -11 10 -11
6 0 22 -11 35 -24 12 -13 40 -34 62 -47 21 -12 40 -26 43 -30 3 -4 25 -15 50
-25 25 -10 47 -21 50 -25 11 -15 163 -39 250 -39 87 0 239 24 250 39 3 4 21
13 40 21 60 23 142 82 203 145 81 84 87 90 87 101 0 6 9 19 19 31 11 11 27 42
36 69 9 27 22 55 28 63 8 10 12 76 12 220 0 175 -2 210 -17 231 -9 14 -22 44
-29 68 -7 23 -16 42 -21 42 -5 0 -13 10 -17 23 -20 49 -139 175 -191 202 -17
9 -30 19 -30 23 0 4 -22 16 -50 27 -27 11 -50 22 -50 26 0 8 -121 39 -155 39
-14 0 -25 5 -25 10 0 6 -38 10 -95 10 -52 0 -95 -3 -95 -8z m253 -143 c31 -7
57 -15 57 -19 0 -4 17 -12 38 -18 20 -6 48 -19 60 -29 68 -52 108 -87 116
-102 5 -9 18 -22 28 -29 10 -7 18 -19 18 -26 0 -7 9 -21 19 -33 10 -11 27 -47
36 -79 10 -32 23 -70 29 -83 13 -29 13 -250 0 -260 -6 -3 -16 -31 -23 -61 -7
-30 -24 -72 -37 -92 -13 -21 -24 -42 -24 -47 0 -15 -127 -139 -149 -146 -12
-3 -21 -10 -21 -15 0 -5 -26 -17 -57 -27 -32 -9 -61 -21 -64 -25 -3 -5 -44
-13 -92 -19 -88 -12 -253 0 -266 19 -3 4 -25 14 -49 20 -89 27 -221 142 -264
231 -12 25 -25 48 -28 51 -4 3 -14 35 -23 72 -19 76 -22 227 -7 309 10 51 60
168 86 199 34 42 114 120 122 120 5 0 19 9 32 20 13 11 42 26 64 32 23 7 44
16 47 20 17 26 253 37 352 17z"/>
<path d="M48670 4140 l0 -400 60 0 60 0 0 175 0 175 76 0 c66 0 78 -3 95 -22
10 -13 18 -28 19 -34 0 -6 9 -19 20 -29 11 -10 20 -22 20 -27 0 -9 70 -122 89
-144 5 -7 7 -15 4 -18 -4 -3 -2 -6 4 -6 6 0 18 -16 27 -35 17 -35 18 -35 81
-35 66 0 84 9 62 32 -7 7 -22 28 -32 46 -11 17 -22 32 -26 32 -4 0 -9 8 -13
18 -6 18 -27 53 -37 62 -3 3 -29 41 -58 85 l-52 79 62 13 c35 7 65 16 68 21 3
4 21 18 39 31 17 12 32 28 32 36 0 7 6 15 13 18 8 2 12 33 12 108 l0 105 -47
47 c-33 33 -60 50 -90 57 -24 5 -143 10 -265 10 l-223 0 0 -400z m444 280 c37
-14 89 -130 58 -130 -4 0 -13 -14 -20 -30 -8 -17 -23 -35 -35 -41 -11 -7 -89
-14 -174 -17 l-153 -5 0 117 0 116 149 0 c82 0 161 -4 175 -10z"/>
<path d="M34955 4798 c-55 -5 -101 -13 -103 -19 -2 -5 -12 -9 -23 -9 -26 0
-151 -31 -164 -40 -5 -4 -40 -17 -77 -29 -38 -13 -68 -26 -68 -31 0 -4 -10
-10 -22 -14 -22 -5 -97 -50 -161 -97 -51 -37 -207 -198 -207 -214 0 -8 -6 -18
-13 -22 -7 -4 -21 -27 -32 -50 -11 -24 -23 -43 -27 -43 -3 0 -14 -24 -24 -52
-9 -29 -20 -55 -24 -58 -9 -6 -40 -141 -40 -174 0 -15 -4 -26 -10 -26 -6 0
-10 -60 -10 -160 0 -100 4 -160 10 -160 6 0 10 -12 10 -27 0 -32 30 -156 39
-163 4 -3 13 -25 21 -49 8 -24 20 -49 27 -56 6 -7 20 -31 30 -54 10 -22 21
-41 25 -41 4 0 14 -13 22 -29 15 -29 159 -177 212 -219 44 -34 132 -89 165
-102 16 -7 29 -16 29 -21 0 -5 5 -9 11 -9 6 0 43 -15 82 -34 40 -19 84 -38
100 -41 15 -4 27 -10 27 -14 0 -4 26 -15 58 -25 31 -10 66 -24 77 -30 11 -7
44 -21 73 -30 28 -10 52 -21 52 -26 0 -4 15 -11 34 -14 18 -4 55 -18 82 -31
27 -14 70 -32 97 -41 26 -8 47 -19 47 -23 0 -4 25 -15 55 -25 30 -9 55 -21 55
-27 0 -5 6 -9 13 -9 15 0 189 -88 197 -100 3 -4 16 -13 29 -20 69 -36 155
-117 198 -185 40 -64 56 -136 56 -249 0 -87 -24 -214 -42 -226 -5 -3 -18 -23
-29 -45 -42 -82 -174 -201 -252 -227 -19 -6 -40 -16 -46 -23 -7 -7 -41 -18
-76 -25 -35 -7 -66 -18 -70 -24 -10 -16 -367 -15 -399 1 -13 6 -57 19 -96 28
-40 10 -73 20 -73 24 0 4 -25 15 -55 25 -30 9 -57 21 -60 27 -4 5 -25 19 -48
30 -22 12 -46 26 -53 33 -6 6 -27 22 -45 36 -83 64 -200 194 -234 261 -10 18
-21 36 -25 39 -12 8 -100 198 -100 215 0 8 -4 15 -9 15 -4 0 -17 36 -27 80
-11 44 -22 80 -25 80 -4 0 -13 38 -20 85 l-12 85 -89 0 -89 0 5 -32 c3 -18 8
-179 11 -358 3 -179 8 -398 12 -487 6 -154 7 -163 27 -169 12 -4 23 -10 26
-13 3 -4 37 -15 75 -25 39 -10 79 -24 90 -31 11 -6 51 -19 90 -29 38 -10 74
-21 80 -26 5 -4 48 -16 95 -26 47 -9 87 -21 90 -25 3 -3 75 -16 160 -28 217
-29 526 -30 718 0 75 11 139 24 142 28 3 4 38 16 78 26 39 10 72 22 72 26 0 4
12 10 28 14 30 7 184 83 192 95 3 4 16 13 30 20 41 21 86 60 181 154 49 49 89
95 89 102 0 7 6 17 14 21 7 4 21 24 31 43 10 19 21 37 25 40 15 10 68 138 85
205 9 39 22 81 29 94 16 34 15 439 -1 472 -7 13 -19 52 -27 87 -14 55 -67 179
-88 207 -4 6 -28 37 -52 71 -49 67 -133 154 -192 199 -21 17 -46 38 -55 47
-10 9 -35 27 -56 38 -63 35 -117 68 -130 79 -6 6 -31 18 -55 28 -24 9 -45 20
-48 24 -3 4 -32 18 -65 30 -33 12 -62 25 -65 29 -3 4 -23 13 -45 20 -22 7 -49
18 -60 25 -11 6 -45 20 -75 30 -30 9 -64 23 -75 30 -11 6 -45 20 -75 30 -30
10 -57 21 -60 25 -3 3 -27 12 -53 20 -27 7 -54 18 -61 25 -6 6 -42 22 -79 34
-37 13 -67 26 -67 30 0 4 -17 13 -38 19 -21 7 -49 21 -62 32 -13 11 -28 20
-34 20 -6 0 -24 11 -40 25 -16 14 -33 25 -37 25 -13 0 -104 96 -119 127 -8 15
-18 30 -21 33 -11 8 -39 81 -39 100 0 10 -5 20 -10 22 -7 2 -11 43 -11 103 0
60 4 101 11 103 5 2 10 11 10 20 0 28 20 90 33 104 7 8 21 29 31 48 18 32 62
78 116 123 12 10 54 33 93 52 147 69 400 71 556 5 54 -24 184 -91 191 -99 3
-4 19 -15 35 -25 17 -11 59 -47 94 -80 54 -52 84 -86 172 -194 6 -7 20 -34 31
-60 12 -26 24 -49 27 -52 7 -6 25 -58 41 -120 7 -25 15 -47 19 -50 4 -3 14
-36 22 -75 l15 -70 94 -3 95 -3 -3 118 c-2 65 -7 120 -11 123 -4 3 -13 133
-20 290 -7 157 -14 295 -16 307 -3 14 -15 24 -35 28 -17 4 -36 12 -43 18 -6 7
-39 21 -72 31 -33 10 -62 22 -65 25 -3 4 -45 18 -95 31 -49 13 -97 27 -105 31
-18 10 -164 39 -195 39 -13 0 -25 4 -27 9 -4 11 -254 32 -359 30 -41 -1 -119
-6 -174 -11z"/>
<path d="M27390 4750 c-80 -4 -324 -8 -542 -9 l-398 -1 0 -75 0 -75 185 0 185
0 0 -1630 0 -1630 -185 0 -185 0 0 -80 0 -80 740 0 740 0 0 80 0 80 -172 0
-173 0 3 1692 c1 931 0 1703 -3 1716 -4 15 -12 21 -28 20 -12 -1 -87 -5 -167
-8z"/>
<path d="M37515 4750 c-66 -4 -306 -8 -532 -9 l-413 -1 0 -75 0 -75 180 0 180
0 0 -1630 0 -1630 -180 0 -180 0 0 -80 0 -80 740 0 740 0 0 80 0 80 -184 0
-183 0 -8 378 c-11 523 -10 957 3 1087 14 134 33 245 42 245 4 0 11 17 15 37
6 33 22 67 61 134 25 43 119 133 157 150 15 7 27 16 27 20 0 4 24 15 53 24 28
9 61 21 71 27 11 6 57 13 102 16 116 7 208 -23 276 -90 47 -46 88 -120 88
-158 0 -10 4 -20 10 -22 5 -1 14 -37 20 -78 11 -85 13 -1158 3 -1530 l-6 -245
-189 3 -188 3 0 -81 0 -80 740 0 740 0 0 80 0 81 -170 -3 -170 -3 -1 400 c-1
679 -13 1331 -25 1346 -6 8 -16 47 -23 87 -7 40 -19 79 -27 87 -8 7 -14 18
-14 23 0 13 -31 72 -47 90 -7 7 -13 17 -13 21 0 8 -103 114 -142 146 -13 11
-48 31 -76 44 -29 14 -52 28 -52 31 0 4 -29 16 -65 26 -36 10 -65 22 -65 25 0
15 -184 33 -325 33 -142 0 -288 -17 -310 -34 -6 -5 -33 -14 -60 -21 -56 -13
-192 -75 -213 -96 -7 -7 -18 -13 -23 -13 -18 0 -176 -166 -195 -205 l-19 -40
-3 300 c-2 165 2 375 8 467 5 91 10 290 10 442 l0 276 -22 -2 c-13 -1 -77 -5
-143 -8z"/>
<path d="M40402 4751 c-62 -16 -136 -63 -194 -123 -32 -33 -58 -65 -58 -73 0
-7 -5 -15 -10 -17 -16 -5 -40 -107 -40 -171 0 -61 27 -187 40 -187 4 0 13 -13
19 -29 11 -26 30 -47 99 -110 12 -12 52 -36 90 -54 61 -29 75 -32 162 -32 87
0 101 3 165 33 86 42 156 113 199 202 28 60 31 73 31 165 0 88 -3 107 -27 158
-16 32 -28 59 -28 62 0 17 -117 119 -168 145 -56 29 -75 33 -155 36 -51 2
-107 -1 -125 -5z"/>
<path d="M44935 4750 c-82 -4 -329 -8 -547 -9 l-398 -1 0 -75 0 -75 190 0 190
0 0 -1630 0 -1630 -190 0 -190 0 0 -80 0 -80 743 2 742 3 3 78 3 77 -176 0
-175 0 0 1715 0 1715 -22 -2 c-13 -1 -90 -5 -173 -8z"/>
<path d="M47950 4749 c-74 -3 -318 -7 -542 -8 l-408 -1 0 -75 0 -75 183 0 184
0 6 -272 c4 -149 7 -429 7 -622 -1 -289 -3 -347 -13 -328 -15 27 -125 142
-136 142 -4 0 -16 9 -28 19 -34 32 -155 89 -218 102 -33 7 -63 18 -67 23 -10
15 -436 15 -446 1 -4 -6 -43 -19 -87 -29 -44 -11 -89 -24 -100 -31 -11 -7 -41
-20 -67 -30 -27 -10 -48 -21 -48 -25 0 -4 -13 -13 -29 -20 -73 -30 -206 -145
-289 -250 -28 -36 -57 -72 -64 -80 -7 -9 -22 -34 -33 -58 -11 -23 -23 -42 -27
-42 -3 0 -14 -24 -24 -52 -9 -29 -20 -55 -24 -58 -9 -6 -50 -140 -50 -164 0
-9 -4 -16 -9 -16 -23 0 -73 -492 -52 -513 6 -6 11 -31 11 -55 0 -57 30 -266
40 -272 4 -3 17 -43 30 -90 12 -47 25 -87 29 -90 4 -3 15 -25 25 -50 10 -25
21 -47 25 -50 3 -3 15 -24 25 -47 11 -24 22 -43 26 -43 4 0 15 -16 24 -35 9
-19 21 -35 26 -35 6 0 9 -4 7 -9 -4 -17 157 -175 211 -206 17 -11 32 -22 32
-26 0 -3 18 -14 40 -24 22 -10 40 -21 40 -25 0 -3 26 -14 58 -24 31 -10 59
-22 62 -27 3 -4 55 -17 115 -29 95 -19 131 -22 280 -17 157 5 311 26 325 46 3
4 28 15 55 26 28 10 52 21 55 25 3 4 24 17 47 29 24 12 83 61 133 110 l90 89
0 -149 0 -150 543 6 c298 4 548 8 555 10 8 3 12 28 12 80 l0 75 -180 0 -180 0
0 1715 0 1715 -22 -2 c-13 -1 -84 -5 -158 -9z m-915 -1316 c11 -6 39 -19 62
-27 24 -9 52 -24 63 -33 85 -74 140 -156 162 -240 7 -27 16 -51 20 -54 21 -14
39 -221 45 -489 8 -400 -18 -850 -48 -850 -5 0 -9 -8 -9 -19 0 -45 -76 -176
-128 -219 -73 -60 -94 -74 -139 -89 -26 -9 -50 -20 -53 -24 -3 -4 -43 -12 -88
-18 -84 -11 -230 0 -241 18 -3 4 -22 13 -41 20 -29 10 -110 72 -110 85 0 2
-16 28 -35 57 -19 29 -40 77 -46 106 -7 29 -15 53 -19 53 -10 0 -30 134 -43
290 -28 331 3 1090 44 1090 5 0 9 9 9 20 0 27 34 124 52 146 16 21 100 105
122 122 9 7 33 20 54 28 20 8 46 19 57 24 11 5 27 11 35 14 26 10 254 0 275
-11z"/>
<path d="M22990 4665 l0 -75 245 0 245 0 0 -1630 0 -1630 -245 0 -245 0 0 -80
0 -80 1055 0 c580 0 1055 4 1055 8 0 5 55 12 123 15 128 6 265 24 282 37 6 4
32 13 59 19 27 7 77 25 110 40 34 16 71 32 84 35 12 4 22 11 22 14 0 4 17 16
37 27 45 24 58 35 150 128 85 84 92 92 117 138 11 19 22 36 26 39 16 13 71
144 85 206 9 38 22 80 28 93 15 29 16 349 2 371 -5 8 -19 54 -32 103 -12 48
-28 93 -35 101 -8 7 -20 32 -28 55 -7 22 -17 41 -21 41 -5 0 -15 12 -23 28
-24 46 -88 116 -209 225 -16 15 -33 27 -37 27 -3 0 -15 8 -26 18 -28 26 -146
89 -193 103 -23 7 -41 15 -41 19 0 4 -36 15 -80 25 -44 10 -80 21 -80 25 0 8
-164 29 -237 31 -48 2 -48 2 17 11 36 6 67 13 70 17 3 4 44 15 93 25 48 10 87
22 87 25 0 4 25 15 55 26 30 10 55 21 55 25 0 4 23 17 50 30 28 13 50 26 50
30 0 3 12 13 28 22 79 48 232 229 248 295 4 12 9 23 13 23 4 0 16 35 27 78 10
42 22 80 27 83 11 8 11 277 -1 292 -5 7 -14 38 -21 70 -13 58 -65 175 -86 189
-5 4 -6 8 -2 8 9 0 -92 122 -106 128 -4 2 -25 18 -46 36 -21 18 -53 39 -70 46
-17 7 -31 16 -31 20 0 4 -27 15 -60 25 -33 10 -60 21 -60 25 0 7 -138 33 -275
52 -52 7 -455 12 -1167 15 l-1088 3 0 -75z m1772 -104 c13 -5 56 -15 96 -21
40 -7 78 -18 85 -25 7 -7 24 -16 37 -20 53 -17 150 -146 150 -200 0 -7 4 -15
10 -17 19 -6 40 -201 40 -378 0 -169 -20 -357 -39 -370 -5 -3 -12 -16 -15 -30
-24 -84 -105 -179 -176 -206 -25 -10 -47 -21 -50 -25 -14 -20 -181 -40 -388
-47 l-222 -7 0 678 0 677 225 0 c123 0 234 -4 247 -9z m93 -1531 c72 -13 235
-69 235 -81 0 -4 10 -11 22 -15 34 -10 142 -127 163 -176 11 -24 22 -45 25
-48 8 -8 28 -72 36 -115 4 -22 9 -44 12 -50 27 -45 42 -423 22 -555 -11 -78
-58 -273 -67 -279 -5 -3 -21 -32 -37 -63 -24 -50 -116 -155 -169 -196 -26 -20
-100 -52 -119 -52 -10 0 -18 -4 -18 -9 0 -22 -128 -34 -392 -39 l-278 -4 -2
852 -3 853 255 -6 c140 -3 282 -10 315 -17z"/>
<path d="M32210 3685 c-8 -2 -57 -9 -107 -16 -51 -6 -93 -15 -93 -18 0 -4 -34
-15 -75 -26 -41 -10 -75 -21 -75 -25 0 -3 -29 -17 -65 -30 -36 -13 -65 -27
-65 -31 0 -3 -18 -14 -40 -24 -22 -10 -40 -21 -40 -24 0 -4 -13 -14 -29 -24
-17 -10 -42 -27 -56 -40 -37 -31 -166 -161 -188 -189 -45 -60 -87 -124 -87
-135 0 -7 -6 -16 -13 -20 -16 -10 -82 -164 -98 -228 -6 -28 -16 -55 -20 -61
-19 -24 -39 -215 -39 -368 0 -151 22 -364 39 -376 4 -3 16 -38 26 -77 10 -40
22 -73 27 -73 4 0 8 -7 8 -15 0 -23 61 -148 102 -209 7 -10 27 -37 43 -59 17
-22 35 -47 40 -55 23 -35 179 -181 210 -198 19 -10 35 -22 35 -26 0 -4 19 -17
43 -29 23 -12 44 -25 47 -29 3 -4 26 -15 53 -25 26 -10 47 -21 47 -25 0 -4 28
-15 63 -25 34 -9 64 -21 67 -25 13 -21 257 -50 414 -50 155 0 392 29 406 50 3
4 32 15 65 25 33 9 62 20 65 25 3 4 25 17 50 29 60 29 129 71 150 90 9 9 34
30 55 46 71 54 172 165 219 240 11 16 23 34 28 40 15 16 56 87 79 135 12 25
26 47 30 48 5 2 9 12 9 22 0 12 -12 22 -35 30 -19 6 -35 15 -35 19 0 11 -78
33 -89 26 -5 -3 -33 -53 -63 -111 -29 -59 -58 -109 -65 -111 -7 -3 -13 -10
-13 -15 0 -21 -117 -151 -186 -208 -50 -41 -119 -81 -166 -97 -29 -10 -55 -21
-58 -24 -36 -44 -474 -44 -510 0 -3 3 -27 16 -53 29 -59 27 -65 32 -138 105
-32 31 -68 79 -81 105 -13 26 -26 49 -29 52 -4 3 -14 32 -23 65 -9 33 -21 67
-25 76 -22 39 -39 167 -52 389 -6 91 -13 200 -15 243 l-6 77 842 0 c754 0 841
2 847 16 3 8 1 20 -6 27 -6 6 -11 43 -11 85 0 78 -27 273 -39 282 -4 3 -15 33
-26 68 -10 35 -22 65 -26 68 -5 3 -17 24 -27 47 -27 61 -63 112 -127 181 -16
18 -42 46 -56 62 -32 35 -86 82 -110 94 -10 6 -24 16 -31 24 -8 7 -30 21 -48
31 -19 10 -37 21 -40 25 -3 3 -32 17 -65 30 -33 13 -62 27 -65 30 -3 4 -36 15
-75 25 -38 10 -72 22 -75 25 -13 16 -162 32 -340 35 -107 2 -202 2 -210 0z
m318 -175 c17 -7 32 -16 32 -21 0 -5 7 -9 15 -9 27 0 102 -79 133 -139 17 -33
35 -85 42 -118 6 -32 17 -67 23 -78 7 -12 13 -101 15 -232 l4 -213 -438 0
-439 0 7 147 c10 207 24 304 60 408 33 96 96 188 146 214 15 8 29 18 32 22 3
5 30 15 60 24 64 17 254 15 308 -5z"/>
<path d="M42490 3685 c-8 -2 -57 -9 -107 -16 -51 -6 -93 -15 -93 -18 0 -4 -34
-15 -75 -26 -41 -10 -75 -21 -75 -25 0 -3 -29 -17 -65 -30 -36 -13 -65 -27
-65 -31 0 -3 -18 -14 -40 -24 -22 -10 -40 -21 -40 -24 0 -4 -15 -15 -32 -26
-18 -10 -46 -30 -62 -44 -55 -50 -166 -163 -166 -169 0 -4 -14 -23 -30 -42
-17 -19 -33 -43 -36 -52 -3 -10 -9 -18 -13 -18 -4 0 -16 -19 -27 -42 -10 -24
-21 -45 -25 -48 -10 -8 -49 -101 -49 -116 0 -8 -4 -14 -8 -14 -5 0 -17 -35
-28 -77 -10 -43 -21 -80 -25 -83 -14 -10 -31 -200 -31 -335 0 -138 17 -321 32
-340 4 -5 16 -45 26 -87 10 -43 21 -78 25 -78 4 0 14 -24 24 -52 9 -29 22 -59
28 -66 5 -7 21 -34 33 -60 30 -60 38 -73 100 -152 73 -92 169 -187 230 -226
16 -10 34 -24 39 -31 6 -6 46 -30 90 -52 44 -23 85 -45 91 -50 6 -5 37 -16 70
-26 32 -9 61 -21 64 -25 13 -21 256 -50 414 -50 155 0 392 29 406 50 3 4 32
15 65 25 33 9 62 20 65 25 3 4 25 17 50 29 53 25 116 63 148 88 109 87 150
126 215 208 31 39 62 77 69 85 8 9 22 32 31 53 10 20 21 37 25 37 4 0 18 24
31 52 13 29 30 59 38 66 24 25 15 50 -22 62 -19 6 -35 15 -35 19 0 9 -88 36
-94 30 -2 -2 -18 -35 -35 -72 -17 -38 -38 -75 -46 -83 -8 -9 -15 -21 -15 -29
0 -7 -18 -36 -40 -64 -22 -28 -40 -53 -40 -57 0 -8 -115 -120 -156 -152 -56
-44 -104 -71 -156 -89 -29 -10 -55 -21 -58 -25 -33 -43 -474 -42 -510 1 -3 3
-27 16 -53 29 -56 26 -64 32 -126 92 -58 58 -81 87 -74 94 4 3 1 6 -5 6 -5 0
-18 20 -28 45 -9 25 -20 45 -24 45 -4 0 -15 35 -26 78 -10 42 -21 79 -25 82
-18 14 -48 369 -49 583 l0 87 835 0 835 0 0 100 c0 55 -4 108 -9 118 -5 9 -16
61 -25 116 -9 54 -23 108 -31 119 -8 12 -15 29 -15 38 0 23 -79 172 -96 182
-8 4 -14 14 -14 21 0 13 -118 148 -150 172 -8 7 -28 24 -43 38 -15 14 -31 26
-36 26 -4 0 -16 9 -28 19 -11 10 -35 27 -54 36 -19 10 -36 21 -39 25 -3 3 -32
17 -65 30 -33 13 -62 27 -65 30 -3 4 -36 15 -75 25 -38 10 -72 22 -75 25 -13
16 -162 32 -340 35 -107 2 -202 2 -210 0z m336 -186 c58 -28 120 -82 141 -123
9 -17 19 -33 23 -36 9 -7 40 -99 40 -121 0 -10 4 -19 9 -21 15 -5 31 -176 31
-340 l0 -158 -437 0 -438 0 7 152 c7 160 24 316 37 333 4 5 14 33 21 60 22 83
102 208 141 220 11 4 25 13 33 21 49 49 301 58 392 13z"/>
<path d="M28625 3630 c-137 -4 -357 -8 -487 -9 l-238 -1 0 -75 0 -75 183 0
184 0 6 -892 c6 -843 12 -1021 36 -1038 4 -3 15 -27 26 -55 10 -27 21 -52 24
-55 3 -3 26 -31 50 -62 24 -32 46 -58 50 -58 3 0 19 -11 35 -25 16 -14 32 -25
36 -25 3 0 15 -8 26 -18 10 -10 42 -26 69 -36 28 -11 52 -23 55 -27 3 -4 54
-17 113 -28 148 -29 378 -29 543 -1 65 11 121 24 124 28 3 4 33 16 68 27 34
10 62 22 62 26 0 4 14 12 31 18 27 9 105 58 188 118 31 22 89 80 126 125 l30
36 4 -181 c2 -100 4 -183 5 -183 0 -1 244 1 541 5 l540 6 3 78 3 77 -181 0
-180 0 0 1154 0 1155 -527 -5 c-291 -3 -543 -7 -560 -10 l-33 -5 0 -74 0 -75
184 0 183 0 8 -692 c4 -381 4 -729 1 -773 -9 -111 -28 -215 -38 -215 -4 0 -8
-6 -8 -12 0 -25 -21 -88 -33 -100 -7 -7 -20 -29 -29 -48 -9 -19 -27 -45 -40
-57 -13 -12 -28 -28 -34 -35 -21 -25 -69 -60 -101 -74 -17 -7 -34 -18 -38 -23
-3 -5 -40 -17 -82 -27 -85 -19 -241 -15 -303 7 -102 37 -192 147 -215 264 -14
74 -27 279 -26 420 1 77 4 454 6 838 l5 697 -72 -2 c-40 -1 -185 -5 -323 -8z"/>
<path d="M40210 3630 c-239 -3 -436 -7 -437 -8 -2 -1 -3 -36 -3 -77 l0 -75
183 0 182 0 0 -1070 0 -1070 -182 0 -183 0 0 -80 0 -80 740 0 740 0 0 80 0 80
-170 0 -170 0 0 1155 0 1155 -132 -2 c-73 -1 -329 -5 -568 -8z"/>
<path d="M9214 1170 c-142 -37 -241 -107 -339 -239 -76 -103 -100 -183 -100
-336 1 -103 4 -130 26 -191 29 -80 83 -158 167 -240 146 -143 389 -192 591
-119 97 35 122 52 205 132 95 93 122 133 153 227 50 152 33 363 -39 486 -38
64 -179 200 -242 231 -129 67 -286 85 -422 49z m296 -117 c130 -36 218 -111
283 -242 l42 -86 0 -125 c0 -123 -1 -126 -37 -200 -46 -97 -86 -146 -155 -193
-88 -60 -173 -80 -306 -75 -90 4 -124 10 -175 30 -115 47 -186 118 -238 238
-26 60 -29 75 -29 195 0 122 2 135 30 204 63 156 190 248 377 269 77 10 135 5
208 -15z"/>
<path d="M9140 605 l0 -345 50 0 50 0 0 145 0 145 65 0 66 0 55 -87 c31 -49
70 -113 87 -143 l32 -55 58 -3 c37 -2 57 1 57 8 0 7 -42 73 -94 149 l-94 137
49 11 c104 25 155 98 146 210 -11 140 -82 172 -384 173 l-143 0 0 -345z m377
219 c29 -22 33 -30 33 -72 0 -81 -15 -88 -183 -96 l-127 -7 0 101 0 100 122 0
c114 0 123 -1 155 -26z"/>
<path d="M19415 1180 c-50 -10 -152 -48 -185 -69 -56 -34 -161 -135 -196 -188
-62 -93 -88 -188 -88 -323 0 -100 4 -125 27 -194 37 -106 85 -174 178 -255
146 -127 332 -170 521 -122 124 32 186 69 287 171 88 90 161 270 161 400 0 81
-33 199 -83 292 -43 82 -156 191 -242 234 -114 56 -264 77 -380 54z m240 -120
c130 -29 251 -123 303 -237 66 -144 66 -307 -2 -448 -77 -162 -221 -245 -426
-245 -120 0 -202 23 -289 81 -134 89 -199 236 -189 425 8 148 66 263 170 340
121 89 277 119 433 84z"/>
<path d="M19300 605 l0 -345 55 0 55 0 0 145 0 145 63 0 62 -1 61 -92 c34 -51
76 -116 94 -144 l32 -53 54 0 c30 0 54 3 54 6 0 3 -13 25 -30 49 -16 24 -30
46 -30 49 0 3 -29 47 -64 99 l-63 93 50 12 c92 22 137 84 137 189 0 158 -68
192 -387 193 l-143 0 0 -345z m396 210 c33 -31 36 -39 31 -72 -9 -56 -45 -83
-111 -83 -29 0 -87 -3 -129 -6 l-77 -7 0 102 0 101 124 0 125 0 37 -35z"/>
</g>
</svg>
