<?xml version="1.0" encoding="utf-8"?>
<!-- Generator: Adobe Illustrator 23.0.2, SVG Export Plug-In . SVG Version: 6.00 Build 0)  -->
<svg version="1.1" id="Layer_1" xmlns="http://www.w3.org/2000/svg" xmlns:xlink="http://www.w3.org/1999/xlink" x="0px" y="0px"
	 viewBox="0 0 212.04 116.32" style="enable-background:new 0 0 212.04 116.32;" xml:space="preserve">
<g>
	<path d="M142.72,45.73c-15.04-14.79-46.57-18.71-65.1,9.26c-0.36-0.33-0.79-0.6-1.06-0.98C62,33.73,41.99,28.83,19.73,40.32
		c-3.18,1.64-3.19,0.33-3.18-2.15c0.05-9.83,0.1-19.67-0.02-29.5C16.46,3.3,13.13-0.03,8.28,0C3.6,0.02,0.22,3.22,0.2,8.29
		C0.14,31.62-0.32,54.97,0.41,78.28c0.72,22.91,22.58,40.52,45.34,37.67c13.81-1.73,24.17-8.78,31.8-20.99
		c16.65,26.23,47.04,25.91,63.86,10.88C159.19,89.93,159.71,62.44,142.72,45.73z M41.37,99.63c-13.59,0.04-24.65-10.74-24.79-24.19
		c-0.15-13.54,11.2-24.9,24.8-24.81c13.5,0.08,24.45,11.07,24.49,24.56C65.9,88.69,54.98,99.59,41.37,99.63z M113.83,99.63
		c-13.63-0.09-24.49-10.95-24.46-24.47c0.03-13.43,11.05-24.46,24.52-24.54c13.62-0.07,24.81,11.19,24.69,24.86
		C138.45,88.99,127.46,99.72,113.83,99.63z"/>
	<path d="M209.01,114.42c-4.08,3.26-8.98,2.22-12.85-2.85c-5.64-7.38-11.2-14.81-17.02-22.54c-5.86,7.79-11.33,15.12-16.87,22.4
		c-3.93,5.18-8.68,6.29-12.81,3.11c-4.06-3.1-4.19-7.95-0.28-13.2c5.77-7.75,11.5-15.53,17.46-23.12c1.77-2.27,1.78-3.71,0-5.97
		c-5.86-7.46-11.48-15.12-17.16-22.72c-4.18-5.59-4.17-10.44-0.02-13.61c4.18-3.21,9-1.95,13.13,3.51
		c4.62,6.1,9.33,12.15,13.75,18.4c2.06,2.91,3.27,3.41,5.55,0.14c4.58-6.55,9.51-12.85,14.36-19.2c3.68-4.82,8.47-5.9,12.48-2.95
		c4.04,2.98,4.41,7.88,0.8,12.76c-5.74,7.76-11.42,15.58-17.46,23.11c-2.26,2.81-2.01,4.53,0.1,7.19
		c5.89,7.43,11.49,15.1,17.16,22.72C213.07,106.63,212.91,111.31,209.01,114.42z"/>
</g>
</svg>
