<?xml version="1.0" encoding="utf-8"?>
<!-- Generator: Adobe Illustrator 23.0.2, SVG Export Plug-In . SVG Version: 6.00 Build 0)  -->
<svg version="1.1" xmlns="http://www.w3.org/2000/svg" xmlns:xlink="http://www.w3.org/1999/xlink" x="0px" y="0px"
	 viewBox="0 0 145 173" style="enable-background:new 0 0 145 173;" xml:space="preserve">
<style type="text/css">
	.st0{display:none;}
	.st1{display:inline;}
</style>
<g id="Layer_4" class="st0">
	<g id="Layer_3" class="st1">
		
			<image style="overflow:visible;" width="171" height="204" xlink:href="../../../../../Users/lhoraine.marinas/OneDrive - Caspio, Inc/__Works/Healthcare/9/assets/Use Case/digital-transformation.png"  transform="matrix(0.848 0 0 0.848 0 0)">
		</image>
	</g>
</g>
<g id="Layer_1">
	<path d="M80,27.8c-3.7,0-6.8-3-6.8-6.8s3-6.8,6.8-6.8s6.8,3,6.8,6.8S83.7,27.8,80,27.8z M80,17.8c-1.8,0-3.3,1.5-3.3,3.3
		s1.5,3.3,3.3,3.3s3.3-1.5,3.3-3.3S81.8,17.8,80,17.8z"/>
	<rect x="78.8" y="26" width="2.5" height="12"/>
	<path d="M67.1,80.7C56.3,78.8,48,69.3,48,58c0-11.3,8.2-20.8,19-22.7l0.1,5.1C59.6,42.2,53,50,53,58c0,8,6.6,15.8,14.1,17.5
		L67.1,80.7z M74.7,75.6C82.3,73.9,89,66.1,89,58c0-8.1-6.7-15.9-14.2-17.6l-0.1-5.1C85.6,37,94,46.6,94,58c0,11.4-8.4,21-19.4,22.7
		L74.7,75.6z"/>
	<polygon points="106.5,52.5 92,52.5 92,49.5 103.5,49.5 103.5,40 106.5,40 	"/>
	<path d="M105,40.8c-3.7,0-6.8-3-6.8-6.8s3-6.8,6.8-6.8s6.8,3,6.8,6.8S108.7,40.8,105,40.8z M105,30.8c-1.8,0-3.3,1.5-3.3,3.3
		s1.5,3.3,3.3,3.3s3.3-1.5,3.3-3.3S106.8,30.8,105,30.8z"/>
	<rect x="93" y="59.5" width="41" height="3"/>
	<path d="M138,66.8c-3.7,0-6.8-3-6.8-6.8s3-6.8,6.8-6.8s6.8,3,6.8,6.8S141.7,66.8,138,66.8z M138,56.8c-1.8,0-3.3,1.5-3.3,3.3
		s1.5,3.3,3.3,3.3s3.3-1.5,3.3-3.3S139.8,56.8,138,56.8z"/>
	<path d="M103,89.8c-3.7,0-6.8-3-6.8-6.8s3-6.8,6.8-6.8s6.8,3,6.8,6.8S106.7,89.8,103,89.8z M103,79.8c-1.8,0-3.3,1.5-3.3,3.3
		s1.5,3.3,3.3,3.3s3.3-1.5,3.3-3.3S104.8,79.8,103,79.8z"/>
	<path d="M85,105.8c-3.7,0-6.8-3-6.8-6.8s3-6.8,6.8-6.8s6.8,3,6.8,6.8S88.7,105.8,85,105.8z M85,95.8c-1.8,0-3.3,1.5-3.3,3.3
		s1.5,3.3,3.3,3.3s3.3-1.5,3.3-3.3S86.8,95.8,85,95.8z"/>
	<polygon points="104.3,77 101.8,77 101.8,71.3 90,71.3 90,68.8 104.3,68.8 	"/>
	<polygon points="86.3,94 83.8,94 83.8,87.3 74.8,87.3 74.8,80 77.3,80 77.3,84.8 86.3,84.8 	"/>
	<g>
		<rect x="60.6" y="116.6" width="3.5" height="11.1"/>
		<rect x="77.3" y="116.6" width="3.5" height="11.1"/>
	</g>
	<path d="M94,129H47v-16.2c-18.6-8.1-30.3-22.4-34-41.4l3.9-0.8c3.4,18,14.8,31.5,32.8,39l1.2,0.5V125h39v-14.9l1.2-0.5
		c18-7.5,29.4-21,32.8-39l3.9,0.8c-3.6,19-15.4,33.3-34,41.4V129z"/>
	<rect x="41" y="125" width="58" height="4"/>
	<rect x="41" y="136" width="58" height="4"/>
	<rect x="41" y="147" width="58" height="4"/>
	<path d="M73.3,173h-5.7c-2,0-4-0.8-5.4-2.2c-1.5-1.4-2.3-3.3-2.3-5.4V160h4v5.4c0,0.9,0.4,1.8,1.1,2.5c0.7,0.7,1.6,1.1,2.6,1.1h5.7
		c1,0,1.9-0.4,2.6-1.1c0.7-0.7,1.1-1.6,1.1-2.5V160h4v5.4c0,2-0.8,3.9-2.3,5.4C77.3,172.2,75.4,173,73.3,173z"/>
	<rect x="22" y="58" width="4" height="3.7"/>
	<rect x="11" y="58" width="4" height="3.7"/>
	<rect y="58" width="4" height="3.7"/>
	<path d="M64.5,102.1l-2.5-0.7c-0.4-0.1-10.7-2.9-15.6-6.9l-1.7-1.3l1.1-1.9c0.1-0.2,2.7-4.9-0.5-8c-3-3-6.6,0-6.8,0.2l-2,1.7
		L34.9,83c-0.2-0.3-5.9-8-6.9-15.9l-0.3-2.2l2.1-0.5c0.2-0.1,5.5-1.5,5.5-5.9c0-4.1-4.7-4.8-5.2-4.9l-2.6-0.4l0.5-2.6
		c0.1-0.4,2-10.8,7-16.8l1.5-1.8l1.9,1.4c0,0,2.4,1.7,4.7,1.2c1.3-0.3,2.5-1.3,3.5-3c1.2-3.1-0.6-5.7-0.7-5.7l-1.8-2.4l2.8-1.3
		c0.4-0.2,9.1-4.3,15.2-5.7l2.3-0.5l0.7,2.3c0,0,0.8,2.7,3.1,4l-2.4,4.4c-2.3-1.3-3.7-3.2-4.6-4.7c-3.5,1-7.5,2.7-9.9,3.8
		c0.7,2,1.1,4.8-0.1,8l-0.1,0.3c-1.7,3.1-4.1,5-6.9,5.7c-2.6,0.5-4.9-0.1-6.5-0.8c-2.2,3.4-3.5,7.9-4.2,10.6
		c3.2,1.2,6.9,3.9,6.9,9.2c0,5.3-3.8,8.4-7,9.9c0.9,3.9,3,7.6,4.3,9.7c3-1.5,7.4-2.1,11.2,1.6c3.8,3.8,3.4,8.7,2.3,11.9
		c2.9,1.8,7.2,3.3,10,4.3c1.2-2.8,3.1-4.3,4.6-5.2l2.5,4.3c-1.5,0.9-2.6,2.5-3.1,4.6L64.5,102.1z"/>
	<rect x="70" y="1" width="2" height="124"/>
	<path d="M15,53.3L11,52.7c0.1-0.5,2.2-12.8,10.3-25.4C28.9,15.6,43.3,1.5,69,1L69,5C49.9,5.4,35,13.6,24.8,29.3
		C17,41.2,15,53.2,15,53.3z"/>
	<path d="M125,51.4c0-0.1-2.5-11.9-10.3-23.4C104.5,12.7,90.5,5,73,5V1c18.7,0,34.3,8.6,45.2,24.9c8.1,12.2,10.7,24.2,10.8,24.7
		L125,51.4z"/>
</g>
</svg>
