<?xml version="1.0" encoding="utf-8"?>
<!-- Generator: Adobe Illustrator 23.0.2, SVG Export Plug-In . SVG Version: 6.00 Build 0)  -->
<svg version="1.1" id="Layer_1" xmlns="http://www.w3.org/2000/svg" xmlns:xlink="http://www.w3.org/1999/xlink" x="0px" y="0px"
	 viewBox="0 0 126.8 119.4" style="enable-background:new 0 0 126.8 119.4;" xml:space="preserve">
<style type="text/css">
	.st0{fill:#3FCAEA;}
	.st1{fill:#1196BA;}
</style>
<g>
	<g>
		<g>
			<g>
				<path class="st0" d="M34.4,116.5c-15.8-8.3-27.2-22-32-38.7C-6.3,47.7,9.1,14.9,39,0l1.8,3.6C12.6,17.6-1.9,48.4,6.3,76.7
					c4.5,15.6,15.1,28.5,30,36.2L34.4,116.5z"/>
				<g>
					<polygon class="st0" points="31.3,119.4 43.2,118.2 36.3,108.5 					"/>
				</g>
			</g>
			<g>
				<path class="st0" d="M87.8,119.4l-1.8-3.6c28.1-14.1,42.6-44.8,34.5-73.2c-4.5-15.6-15.1-28.5-30-36.2l1.8-3.5
					c15.8,8.3,27.2,22,32,38.7C133.1,71.8,117.7,104.5,87.8,119.4z"/>
				<g>
					<polygon class="st0" points="95.5,0.1 83.6,1.2 90.5,11 					"/>
				</g>
			</g>
		</g>
		<g>
			<g>
				<path class="st1" d="M77,93.2H49.4V78.4c-12.4-5.5-20.3-17.5-20.3-31.1c0-18.8,15.3-34.1,34.1-34.1s34.1,15.3,34.1,34.1
					c0,13.6-7.9,25.7-20.3,31.1L77,93.2z M53.4,89.2H73l0-13.5l1.3-0.5c11.5-4.6,19-15.5,19-27.9c0-16.6-13.5-30.1-30.1-30.1
					S33.2,30.7,33.2,47.3c0,12.4,7.5,23.4,19,27.9l1.3,0.5V89.2z"/>
				<g>
					<rect x="51.4" y="89.7" class="st1" width="24.1" height="9.7"/>
					<path class="st1" d="M77.4,101.4H49.4V87.7h28.1V101.4z M53.4,97.4h20.1v-5.7H53.4V97.4z"/>
				</g>
				<path class="st1" d="M71.2,110.4H57l-2.8-13.3h19.7L71.2,110.4z M60.3,106.4h7.6l1.1-5.3h-9.8L60.3,106.4z"/>
			</g>
		</g>
	</g>
</g>
<polygon class="st1" points="62.1,43.6 64.7,28.9 62.1,28.9 54,49 54,51.7 64.7,51.7 62.1,66.4 64.7,66.4 72.8,46.3 72.8,43.6 "/>
</svg>
