<?xml version="1.0" encoding="utf-8"?>
<!-- Generator: Adobe Illustrator 23.0.2, SVG Export Plug-In . SVG Version: 6.00 Build 0)  -->
<svg version="1.1" id="Layer_1" xmlns="http://www.w3.org/2000/svg" xmlns:xlink="http://www.w3.org/1999/xlink" x="0px" y="0px"
	 viewBox="0 0 129.1 129.9" style="enable-background:new 0 0 129.1 129.9;" xml:space="preserve">
<g>
	<path style="fill:#3FCAEA;" d="M29.7,62.6H13.1V48.5h16.6V62.6z M15.1,60.6h12.6V50.5H15.1V60.6z"/>
	<path style="fill:#3FCAEA;" d="M51.6,62.6H35V48.5h16.6V62.6z M37,60.6h12.6V50.5H37V60.6z"/>
	<path style="fill:#3FCAEA;" d="M29.7,80.9H13.1V66.7h16.6V80.9z M15.1,78.9h12.6V68.7H15.1V78.9z"/>
	<path style="fill:#3FCAEA;" d="M51.6,80.9H35V66.7h16.6V80.9z M37,78.9h12.6V68.7H37V78.9z"/>
	<path style="fill:#3FCAEA;" d="M73.4,80.9 M60.08,80.9H56.9V66.7h5.75l-0.77,2H58.9v10.2h1.23L60.08,80.9z"/>
	<path style="fill:#3FCAEA;" d="M29.7,99.2H13.1V85h16.6V99.2z M15.1,97.2h12.6V87H15.1V97.2z"/>
	<path style="fill:#3FCAEA;" d="M51.6,99.2H35V85h16.6V99.2z M37,97.2h12.6V87H37V97.2z"/>
	<path style="fill:#3FCAEA;" d="M64.4,99.2h-7.5V85h3.25l0.17,2H58.9v10.2h4.41L64.4,99.2z"/>
	<path style="fill:#3FCAEA;" d="M29.7,117.4H13.1v-14.2h16.6V117.4z M15.1,115.4h12.6v-10.2H15.1V115.4z"/>
	<path style="fill:#3FCAEA;" d="M51.6,117.4H35v-14.2h16.6V117.4z M37,115.4h12.6v-10.2H37V115.4z"/>
	<path style="fill:#3FCAEA;" d="M73.46,109.84l-0.06,7.56l0,0H56.9v-14.2h9.83l1.58,2H58.9v10.2h12.6v-7.32L73.46,109.84z"/>
	<rect x="56.3" y="50.5" style="fill:#3FCAEA;" width="16.1" height="2"/>
	<path style="fill:#1196BA;" d="M89.4,41.6H16.6c-1,0-2-0.3-2.7-1c-0.8-0.7-1.2-1.6-1.2-2.6V17.6c0-1,0.4-1.9,1.3-2.6
		c0.7-0.6,1.7-0.9,2.7-0.9h72.9c1,0,2,0.3,2.7,0.9c0.8,0.7,1.2,1.6,1.2,2.6v20.5c0,1-0.4,1.9-1.2,2.6C91.4,41.3,90.4,41.6,89.4,41.6
		z M16.6,17.1c-0.3,0-0.6,0.1-0.7,0.3c-0.1,0.1-0.2,0.2-0.2,0.3v20.5c0,0.1,0.1,0.2,0.2,0.3c0.2,0.2,0.5,0.3,0.7,0.3h72.8
		c0.3,0,0.6-0.1,0.8-0.3c0.1-0.1,0.2-0.2,0.2-0.3V17.6c0-0.1-0.1-0.2-0.2-0.3C90,17.1,89.7,17,89.4,17
		C89.4,17.1,16.6,17.1,16.6,17.1z"/>
	<path style="fill:#1196BA;" d="M102,44.4V6.1c0-0.5-0.3-1-0.7-1.3C100.7,4.3,100,4,99.1,4H6.9C6,4,5.3,4.3,4.7,4.7
		C4.3,5.1,4,5.6,4,6.1v117.7c0,0.5,0.3,1,0.7,1.3c0.5,0.5,1.3,0.7,2.2,0.7h92.3c0.8,0,1.6-0.3,2.2-0.7c0.5-0.4,0.7-0.9,0.7-1.3v-5.9
		l4-0.02v5.92c0,1.7-0.8,3.3-2.1,4.4c-1.3,1.1-3,1.7-4.7,1.7H6.9c-1.8,0-3.4-0.6-4.7-1.6c-1.4-1.2-2.1-2.8-2.1-4.4V6.1
		c0-1.7,0.8-3.3,2.1-4.4C3.4,0.6,5.1,0,6.9,0h92.3c1.8,0,3.4,0.6,4.7,1.7c1.4,1.1,2.1,2.7,2.1,4.4v38.3H102z"/>
	<path style="fill:#3FCAEA;" d="M93.2,117.4H78.7v-5.03l2,0.96v2.07h4.01L93.2,117.4z"/>
	<path style="fill:#1196BA;" d="M98.11,54.45c-0.66,0-1.31-0.16-2.13-0.16c-1.48,0-2.95,0.16-4.43,0.33
		C78.42,56.74,68.42,67.9,68.42,81.35c0,7.22,2.79,13.62,7.38,18.54c1.48,1.48,2.95,2.79,4.59,3.94c3.28,2.13,7.06,3.61,10.99,4.27
		c1.48,0.16,2.95,0.33,4.43,0.33c0.66,0,1.48,0,2.13,0c14.27-1.15,25.43-12.8,25.43-27.07C123.54,67.24,112.39,55.59,98.11,54.45z
		 M94.96,73.44c0,1.08-0.2,2.07-0.59,2.96c-0.39,0.89-0.91,1.66-1.56,2.3s-1.4,1.14-2.26,1.49c-0.86,0.35-1.75,0.53-2.68,0.53
		c-1.03,0-1.97-0.18-2.83-0.53c-0.86-0.35-1.6-0.85-2.23-1.49s-1.12-1.41-1.47-2.3c-0.35-0.89-0.53-1.88-0.53-2.96
		c0-1.12,0.18-2.14,0.53-3.05c0.35-0.91,0.84-1.69,1.47-2.34s1.37-1.15,2.23-1.51c0.86-0.36,1.8-0.54,2.83-0.54
		c1.03,0,1.97,0.18,2.85,0.54c0.87,0.36,1.62,0.86,2.25,1.51c0.63,0.65,1.12,1.43,1.47,2.34C94.79,71.3,94.96,72.32,94.96,73.44z
		 M104.24,67.22c0.2-0.23,0.45-0.44,0.75-0.64c0.3-0.2,0.71-0.29,1.24-0.29h4.58L88.56,94.92c-0.2,0.26-0.46,0.47-0.76,0.64
		s-0.67,0.25-1.1,0.25H82L104.24,67.22z M90.14,73.44c0-0.69-0.06-1.26-0.17-1.71c-0.12-0.45-0.27-0.81-0.48-1.08
		c-0.2-0.27-0.44-0.46-0.72-0.57c-0.28-0.11-0.58-0.16-0.9-0.16c-0.32,0-0.62,0.05-0.89,0.16c-0.27,0.11-0.5,0.3-0.69,0.57
		c-0.19,0.27-0.34,0.63-0.45,1.08c-0.11,0.45-0.16,1.02-0.16,1.71c0,0.65,0.05,1.19,0.16,1.62c0.11,0.43,0.26,0.78,0.45,1.03
		s0.42,0.44,0.69,0.55c0.27,0.11,0.57,0.16,0.89,0.16c0.32,0,0.62-0.05,0.9-0.16c0.28-0.11,0.52-0.29,0.72-0.55
		c0.2-0.26,0.36-0.6,0.48-1.03C90.08,74.63,90.14,74.09,90.14,73.44z M111.94,88.88c0,1.08-0.2,2.07-0.59,2.97s-0.91,1.67-1.56,2.31
		s-1.4,1.14-2.26,1.49c-0.86,0.35-1.75,0.53-2.68,0.53c-1.03,0-1.97-0.17-2.83-0.53c-0.86-0.35-1.6-0.85-2.23-1.49
		c-0.63-0.64-1.12-1.41-1.47-2.31s-0.53-1.89-0.53-2.97c0-1.12,0.17-2.14,0.53-3.05c0.35-0.91,0.84-1.69,1.47-2.34
		c0.63-0.65,1.37-1.15,2.23-1.51c0.86-0.36,1.8-0.54,2.83-0.54s1.98,0.18,2.85,0.54c0.87,0.36,1.62,0.86,2.25,1.51
		c0.63,0.65,1.12,1.43,1.47,2.34C111.77,86.74,111.94,87.76,111.94,88.88z M107.12,88.88c0-0.67-0.06-1.24-0.17-1.69
		c-0.11-0.45-0.27-0.81-0.48-1.08c-0.2-0.27-0.44-0.46-0.72-0.57c-0.28-0.11-0.58-0.16-0.9-0.16s-0.62,0.05-0.89,0.16
		s-0.5,0.3-0.69,0.57c-0.19,0.27-0.34,0.63-0.45,1.08s-0.16,1.02-0.16,1.69c0,0.65,0.05,1.19,0.16,1.62
		c0.11,0.43,0.26,0.78,0.45,1.03c0.19,0.26,0.42,0.44,0.69,0.55c0.27,0.11,0.57,0.16,0.89,0.16s0.63-0.05,0.9-0.16
		c0.28-0.11,0.52-0.29,0.72-0.55c0.2-0.26,0.36-0.6,0.48-1.03C107.06,90.07,107.12,89.53,107.12,88.88z"/>
	<path style="fill:#1196BA;" d="M81.23,50.45v0.99H79.1C79.81,51.02,80.52,50.74,81.23,50.45z M70.46,100.35
		c-0.71-0.85-1.42-1.84-1.98-2.83h-3.26c0.57,0.99,1.13,1.98,1.7,2.83c3.26,4.82,7.65,8.79,12.76,11.34v-3.26
		C76.13,106.44,73.01,103.61,70.46,100.35z M79.67,108.43v3.26c0.99,0.43,1.84,0.99,2.98,1.42v-3.12
		C81.65,109.56,80.52,108.99,79.67,108.43z M82.65,109.99v3.12c2.98,1.28,6.24,1.98,9.5,2.41v-2.83
		C88.74,112.25,85.62,111.26,82.65,109.99z M92.14,112.68v2.83c2.27,0.28,5.1,0.14,5.67,0.14v-2.83
		C97.39,112.96,93.28,112.82,92.14,112.68z M97.81,47.34v2.83c7.94,0.43,15.02,3.83,20.41,8.93c5.81,5.53,9.35,13.32,9.5,21.83
		c0.14,8.36-2.98,16.3-8.93,22.39c-5.67,5.67-13.04,9.07-20.98,9.5v2.83c8.79-0.43,16.87-4.11,22.96-10.35
		c6.38-6.38,9.78-14.88,9.78-23.81v-0.57C130.27,62.79,115.81,48.33,97.81,47.34z M92,47.48v2.83c1.42-0.28,3.97-0.28,5.81-0.14
		v-2.83C96.25,47.19,94.98,47.19,92,47.48z M81.23,50.45v0.99H79.1c-2.98,1.56-5.81,3.69-8.22,6.24
		c-6.52,6.52-9.92,15.17-9.78,24.38c0.14,5.67,1.56,10.91,4.11,15.59h3.26c-2.83-4.54-4.39-9.92-4.54-15.59
		c-0.14-8.36,3.12-16.3,8.93-22.39c5.24-5.24,11.91-8.5,19.13-9.35v-2.83C88.32,47.76,84.63,48.75,81.23,50.45z"/>
</g>
</svg>
