<?xml version="1.0" encoding="utf-8"?>
<!-- Generator: Adobe Illustrator 23.0.2, SVG Export Plug-In . SVG Version: 6.00 Build 0)  -->
<svg version="1.1" id="Layer_1" xmlns="http://www.w3.org/2000/svg" xmlns:xlink="http://www.w3.org/1999/xlink" x="0px" y="0px"
	 viewBox="0 0 129.1 129.9" style="enable-background:new 0 0 129.1 129.9;" xml:space="preserve">
<g>
	<path d="M29.7,62.6H13.1V48.5h16.6V62.6z M15.1,60.6h12.6V50.5H15.1V60.6z"/>
	<path d="M51.6,62.6H35V48.5h16.6V62.6z M37,60.6h12.6V50.5H37V60.6z"/>
	<path d="M29.7,80.9H13.1V66.7h16.6V80.9z M15.1,78.9h12.6V68.7H15.1V78.9z"/>
	<path d="M51.6,80.9H35V66.7h16.6V80.9z M37,78.9h12.6V68.7H37V78.9z"/>
	<path d="M73.4,80.9H56.9V66.7h16.6V80.9z M58.9,78.9h12.6V68.7H58.9V78.9z"/>
	<path d="M29.7,99.2H13.1V85h16.6V99.2z M15.1,97.2h12.6V87H15.1V97.2z"/>
	<path d="M51.6,99.2H35V85h16.6V99.2z M37,97.2h12.6V87H37V97.2z"/>
	<path d="M73.4,99.2H56.9V85h16.6V99.2z M58.9,97.2h12.6V87H58.9V97.2z"/>
	<path d="M29.7,117.4H13.1v-14.2h16.6V117.4z M15.1,115.4h12.6v-10.2H15.1V115.4z"/>
	<path d="M51.6,117.4H35v-14.2h16.6V117.4z M37,115.4h12.6v-10.2H37V115.4z"/>
	<path d="M73.4,117.4H56.9v-14.2h16.6V117.4z M58.9,115.4h12.6v-10.2H58.9V115.4z"/>
	<rect x="56.3" y="50.5" width="16.1" height="2"/>
	<polygon points="77.2,50.5 89.3,50.5 87.3,52.5 77.2,52.5 	"/>
	<path d="M89.4,41.6H16.6c-1,0-2-0.3-2.7-1c-0.8-0.7-1.2-1.6-1.2-2.6V17.6c0-1,0.4-1.9,1.3-2.6c0.7-0.6,1.7-0.9,2.7-0.9h72.9
		c1,0,2,0.3,2.7,0.9c0.8,0.7,1.2,1.6,1.2,2.6v20.5c0,1-0.4,1.9-1.2,2.6C91.4,41.3,90.4,41.6,89.4,41.6z M16.6,17.1
		c-0.3,0-0.6,0.1-0.7,0.3c-0.1,0.1-0.2,0.2-0.2,0.3v20.5c0,0.1,0.1,0.2,0.2,0.3c0.2,0.2,0.5,0.3,0.7,0.3h72.8c0.3,0,0.6-0.1,0.8-0.3
		c0.1-0.1,0.2-0.2,0.2-0.3V17.6c0-0.1-0.1-0.2-0.2-0.3c-0.2-0.2-0.5-0.3-0.8-0.3C89.4,17.1,16.6,17.1,16.6,17.1z"/>
	<path d="M106,57.2c-0.4,0-0.8-0.1-1.3-0.1c-0.9,0-1.8,0.1-2.7,0.2c-8,1.3-14.1,8.1-14.1,16.3c0,4.4,1.7,8.3,4.5,11.3
		c0.9,0.9,1.8,1.7,2.8,2.4c2,1.3,4.3,2.2,6.7,2.6c0.9,0.1,1.8,0.2,2.7,0.2c0.4,0,0.9,0,1.3,0c8.7-0.7,15.5-7.8,15.5-16.5
		C121.5,65,114.7,57.9,106,57.2z M106,78.6l-3.4,3.3c-0.2,0.2-0.4,0.3-0.6,0.4c-0.1,0-0.3,0.1-0.4,0.1c-0.4,0-0.8-0.1-1.1-0.4
		l-6.4-6.3l2.1-2.1l5.4,5.3l0.4-0.4l4-3.9l7.4-7.3l2.1,2.1L106,78.6z"/>
	<path d="M102,46.4V6.1c0-0.5-0.3-1-0.7-1.3C100.7,4.3,100,4,99.1,4H6.9C6,4,5.3,4.3,4.7,4.7C4.3,5.1,4,5.6,4,6.1v117.7
		c0,0.5,0.3,1,0.7,1.3c0.5,0.5,1.3,0.7,2.2,0.7h92.3c0.8,0,1.6-0.3,2.2-0.7c0.5-0.4,0.7-0.9,0.7-1.3v-22.9c0.9,0.1,1.8,0.1,2.6,0.1
		c0.5,0,0.9,0,1.4,0v22.8c0,1.7-0.8,3.3-2.1,4.4c-1.3,1.1-3,1.7-4.7,1.7H6.9c-1.8,0-3.4-0.6-4.7-1.6c-1.4-1.2-2.1-2.8-2.1-4.4V6.1
		c0-1.7,0.8-3.3,2.1-4.4C3.4,0.6,5.1,0,6.9,0h92.3c1.8,0,3.4,0.6,4.7,1.7c1.4,1.1,2.1,2.7,2.1,4.4v40.3c-0.4,0-0.9,0-1.4,0
		C103.8,46.3,102.9,46.3,102,46.4z"/>
	<path d="M95.3,99.4v18H78.7V85h0.7c0.4,0.9,0.9,1.7,1.3,2.5v27.9h12.6V98.6C93.9,98.9,94.6,99.1,95.3,99.4z"/>
	<path d="M94.3,51.8v0.7h-1.5C93.3,52.2,93.8,52,94.3,51.8z M86.7,87c-0.5-0.6-1-1.3-1.4-2H83c0.4,0.7,0.8,1.4,1.2,2
		c2.3,3.4,5.4,6.2,9,8v-2.3C90.7,91.3,88.5,89.3,86.7,87z M93.3,92.7V95c0.7,0.3,1.3,0.6,2,0.9v-2.2C94.6,93.5,93.9,93.1,93.3,92.7z
		 M95.3,93.8V96c2.1,0.9,4.4,1.4,6.7,1.7v-2C99.6,95.4,97.4,94.7,95.3,93.8z M105,95.8h-0.4c-0.9,0-1.8-0.1-2.6-0.2v2
		c0.9,0.1,1.7,0.1,2.6,0.1c0.1,0,0.3,0,0.4,0c0.3,0,0.6,0,1,0v-2C105.7,95.8,105.3,95.8,105,95.8z M106,49.6v2
		c5.6,0.3,10.6,2.7,14.4,6.3c4.1,3.9,6.6,9.4,6.7,15.4c0.1,5.9-2.1,11.5-6.3,15.8c-4,4-9.2,6.4-14.8,6.7v2
		c6.2-0.3,11.9-2.9,16.2-7.3c4.5-4.5,6.9-10.5,6.9-16.8v-0.4C128.9,60.5,118.7,50.3,106,49.6z M104.2,49.5c-0.8,0-1.5,0.1-2.2,0.1v2
		c0.8-0.1,1.5-0.1,2.3-0.2h0.4c0.5,0,0.9,0,1.4,0v-2C105.4,49.5,104.8,49.5,104.2,49.5z M94.3,51.8v0.7h-1.5
		c-2.1,1.1-4.1,2.6-5.8,4.4c-4.6,4.6-7,10.7-6.9,17.2c0.1,4,1.1,7.7,2.9,11h2.3c-2-3.2-3.1-7-3.2-11c-0.1-5.9,2.2-11.5,6.3-15.8
		c3.7-3.7,8.4-6,13.5-6.6v-2C99.3,49.9,96.7,50.6,94.3,51.8z"/>
</g>
</svg>
