<?xml version="1.0" encoding="utf-8"?>
<!-- Generator: Adobe Illustrator 23.0.2, SVG Export Plug-In . SVG Version: 6.00 Build 0)  -->
<svg version="1.1" id="Layer_1" xmlns="http://www.w3.org/2000/svg" xmlns:xlink="http://www.w3.org/1999/xlink" x="0px" y="0px"
	 viewBox="0 0 108.58 116" style="enable-background:new 0 0 108.58 116;" xml:space="preserve">
<g>
	<g>
		<polygon points="87.36,116 0,116 0,0 71.57,0 87.36,15.79 87.36,25.77 82.36,25.77 82.36,17.86 69.5,5 5,5 5,111 82.36,111 
			82.36,108.13 87.36,108.13 		"/>
		<polygon points="84.86,19.32 68.03,19.32 68.03,2.5 73.03,2.5 73.03,14.32 84.86,14.32 		"/>
	</g>
	<g>
		<rect x="13.77" y="15.32" width="3.58" height="3"/>
		<rect x="20.94" y="15.32" width="3.58" height="3"/>
		<rect x="28.1" y="15.32" width="3.58" height="3"/>
	</g>
	<g>
		<rect x="13.77" y="76.61" width="12.53" height="3"/>
		<rect x="29.89" y="76.61" width="30.44" height="3"/>
	</g>
	<g>
		<rect x="13.77" y="53" width="23.27" height="3"/>
		<rect x="40.63" y="53" width="5.37" height="3"/>
		<rect x="13.77" y="62.29" width="34.02" height="3"/>
	</g>
	<g>
		<rect x="53.16" y="22.48" width="10.74" height="3"/>
		<rect x="13.77" y="22.48" width="35.81" height="3"/>
	</g>
	<g>
		<rect x="28.1" y="33.81" width="21.48" height="3"/>
		<rect x="13.77" y="33.81" width="10.74" height="3"/>
		<rect x="13.77" y="43.97" width="32.23" height="3"/>
	</g>
</g>
<g>
	<path d="M90.83,108.68l-10.33-8.26V80.7l14.08-7.04v31.27L90.83,108.68z M85.25,98.14l4.58,3.67V81.34l-4.58,2.29V98.14z"/>
	<path d="M74.92,108.68l-3.75-3.75V73.66l14.08,7.04v19.72L74.92,108.68z M75.92,81.34v20.46l4.58-3.67v-14.5L75.92,81.34z"/>
</g>
<circle cx="82.72" cy="55.26" r="11.98"/>
<path d="M82.88,80.81c-3.6,0-6.84-1.87-8.65-4.83c-3.37,0.81-6.97-0.16-9.53-2.69c-2.55-2.55-3.51-6.16-2.7-9.54
	c-2.96-1.81-4.83-5.05-4.83-8.65s1.87-6.84,4.83-8.65c-0.81-3.37,0.16-6.97,2.69-9.53c2.57-2.55,6.17-3.51,9.54-2.71
	c1.81-2.96,5.05-4.83,8.65-4.83c3.6,0,6.84,1.87,8.65,4.82c3.37-0.81,6.97,0.16,9.53,2.7c2.55,2.56,3.51,6.17,2.7,9.54
	c2.96,1.81,4.83,5.05,4.83,8.65c0,3.6-1.87,6.84-4.83,8.65c0.81,3.37-0.15,6.97-2.69,9.53c-2.57,2.55-6.17,3.52-9.54,2.71
	C89.71,78.94,86.48,80.81,82.88,80.81z M74.36,70.9l3.36,1.39c0.71,2.26,2.79,3.77,5.16,3.77c2.37,0,4.44-1.52,5.16-3.77l3.36-1.39
	c2.09,1.09,4.63,0.7,6.31-0.98c1.66-1.67,2.06-4.21,0.97-6.3l1.39-3.36c2.26-0.71,3.77-2.79,3.77-5.15s-1.52-4.44-3.77-5.16
	l-1.39-3.36c1.09-2.09,0.7-4.63-0.98-6.31c-1.67-1.66-4.21-2.06-6.3-0.97l-3.36-1.39c-0.71-2.26-2.79-3.77-5.16-3.77
	s-4.44,1.52-5.16,3.77l-3.36,1.39c-2.09-1.09-4.63-0.7-6.31,0.98c-1.66,1.67-2.06,4.21-0.97,6.3l-1.39,3.36
	c-2.26,0.71-3.77,2.79-3.77,5.16s1.52,4.44,3.77,5.15l1.39,3.36c-1.09,2.1-0.7,4.64,0.97,6.31C69.73,71.59,72.27,71.99,74.36,70.9z"
	/>
</svg>
