<?xml version="1.0" encoding="utf-8"?>
<!-- Generator: Adobe Illustrator 23.0.2, SVG Export Plug-In . SVG Version: 6.00 Build 0)  -->
<svg version="1.1" id="Layer_1" xmlns="http://www.w3.org/2000/svg" xmlns:xlink="http://www.w3.org/1999/xlink" x="0px" y="0px"
	 viewBox="0 0 192 157.6" style="enable-background:new 0 0 192 157.6;" xml:space="preserve">
<image style="display:none;overflow:visible;" width="178" height="149" xlink:href="../../../../../Users/lhoraine.marinas/OneDrive - Caspio, Inc/__Works/Healthcare/9/assets/Use Case/data-management.png"  transform="matrix(1.0738 0 0 1.0738 1 -0.371)">
</image>
<path d="M143.5,80.1h-91v-31h91V80.1z M57.5,75.1h81v-21h-81V75.1z"/>
<rect x="59.3" y="79.7" width="6" height="5.9"/>
<rect x="130" y="79.7" width="6" height="5.9"/>
<rect x="66.1" y="62" width="34.1" height="3"/>
<rect x="121.9" y="62" width="7.2" height="3"/>
<path d="M143.5,116.1h-91v-31h91V116.1z M57.5,111.1h81v-21h-81V111.1z"/>
<rect x="59.3" y="115.7" width="6" height="5.9"/>
<rect x="130" y="115.7" width="6" height="5.9"/>
<rect x="66.1" y="98" width="34.1" height="3"/>
<rect x="121.9" y="98" width="7.2" height="3"/>
<path d="M143.5,152.1h-91v-31h91V152.1z M57.5,147.1h81v-21h-81V147.1z"/>
<rect x="59.3" y="151.7" width="6" height="5.9"/>
<rect x="130" y="151.7" width="6" height="5.9"/>
<rect x="66.1" y="134" width="34.1" height="3"/>
<rect x="121.9" y="134" width="7.2" height="3"/>
<path d="M165,112h-17v-6h17c11.4,0,21-10.1,21-22c0-11.6-9.4-21-21-21c-0.1,0-0.2,0-0.3,0c-0.1,0-0.3,0-0.4,0l-4,0.1l1-3.9
	c0.5-1.8,0.7-3.6,0.7-5.3c0-11.6-9.4-21-21-21c-2.2,0-4.4,0.4-6.6,1.1l-3,1l-0.9-3C126.2,16.7,112,6,96,6C80,6,65.8,16.7,61.4,32.1
	l-0.9,3l-3-1C55.4,33.4,53.2,33,51,33c-11.6,0-21,9.4-21,21c0,1.7,0.2,3.5,0.7,5.3l1,3.9l-4-0.1c-0.1,0-0.3,0-0.4,0
	c-0.1,0-0.2,0-0.3,0C15.4,63,6,72.4,6,84c0,11.9,9.6,22,21,22h19v6H27C12.4,112,0,99.2,0,84c0-13.9,10.6-25.4,24.2-26.9
	C24.1,56.1,24,55,24,54c0-14.9,12.1-27,27-27c1.9,0,3.7,0.2,5.6,0.6C62.6,11.2,78.4,0,96,0c17.6,0,33.4,11.2,39.4,27.6
	c1.8-0.4,3.7-0.6,5.6-0.6c14.9,0,27,12.1,27,27c0,1-0.1,2.1-0.2,3.1C181.4,58.6,192,70.1,192,84C192,99.2,179.6,112,165,112z"/>
<rect x="148" y="150.1" width="7" height="7"/>
<rect x="148" y="135.6" width="7" height="7"/>
<rect x="148" y="121.1" width="7" height="7"/>
<rect x="41" y="150.1" width="7" height="7"/>
<rect x="41" y="135.6" width="7" height="7"/>
<rect x="41" y="121.1" width="7" height="7"/>
</svg>
