<?xml version="1.0" encoding="utf-8"?>
<!-- Generator: Adobe Illustrator 23.0.2, SVG Export Plug-In . SVG Version: 6.00 Build 0)  -->
<svg version="1.1" id="Layer_1" xmlns="http://www.w3.org/2000/svg" xmlns:xlink="http://www.w3.org/1999/xlink" x="0px" y="0px"
	 viewBox="0 0 361.1 101.9" style="enable-background:new 0 0 361.1 101.9;" xml:space="preserve">
<title>SIIA CODiE</title>
<path d="M100.8,0.6V19h-9.7V8.9H81C78.3,9,77,9,75.8,10.1c-1.4,1.2-1.4,2.3-1.6,6.7v30.1c0,0.5,0.1,3.1,0.1,3.7
	c0.4,3.7,2.6,4.2,6.6,4.2h10.9V43.6h9.6v19.5H78.2c-4.3-0.1-9.3-0.3-12.4-6c-1.6-3.1-1.6-6.4-1.6-9.5V17.7c0-5,0-10.6,4.5-14.4
	c2.9-2.4,5.8-2.5,9.5-2.7L100.8,0.6L100.8,0.6z"/>
<path d="M124.8,45.6c0,7.4,0,8.9,6.4,9.1h6.8c6,0,6.3-2.5,6.3-9.1V18.4c0.2-8.4-0.6-9.7-7.5-9.9H133c-7,0-8.1,0.6-8.1,10L124.8,45.6
	L124.8,45.6z M139.5,0.3c8.3-0.1,14.7,1.3,14.7,15.1v33.3c0,3.6,0,8.4-4.1,11.9c-3.3,2.8-6.6,2.8-10.6,2.8h-9.6
	c-4.9,0-10.8,0.1-13.7-6.1c-1.2-2.5-1.2-4.1-1.5-12V19.1c0.2-8.9,0.2-9.9,1.5-12.7c3-6.2,9.7-6.1,12.8-6.1L139.5,0.3L139.5,0.3z"/>
<path d="M181.9,54.8h12c6.5,0.1,6.6-1.9,6.8-8.1v-29c-0.1-6.7-0.2-8.5-7-8.7h-11.8V54.8z M166.9,0.6H196c2.9,0,6.9-0.1,10.1,2.4
	c4.6,3.6,4.6,9.3,4.6,13.9v30.7c0,6.6-1.1,10.1-4.2,12.6c-3.4,2.9-7.6,2.9-12.2,2.9h-27.4v-8.3h5.2V8.9h-5.2L166.9,0.6L166.9,0.6z"
	/>
<path d="M233.2,0c3,0,5.5,2.4,5.5,5.5c0,3-2.4,5.5-5.5,5.5c-3,0-5.5-2.4-5.5-5.5C227.8,2.4,230.2,0,233.2,0z M239.6,54.6h5.6v8.6
	h-20.8v-8.6h5.6V26.5h-5.6v-8.6h15.2L239.6,54.6L239.6,54.6z"/>
<polygon points="288.8,8.9 271.6,8.9 271.6,27 290.1,27 290.1,35.5 271.6,35.5 271.6,54.8 289.4,54.8 289.4,43.3 298.5,43.3 
	298.5,63.1 256.5,63.1 256.5,54.8 261.7,54.8 261.7,8.9 256.5,8.9 256.5,0.6 298,0.6 298,18.9 288.8,18.9 "/>
<polygon points="35.5,63.1 24.5,63.1 49.1,0.2 60.2,0.2 "/>
<polygon points="13.2,63.1 2.2,63.1 26.8,0.2 37.8,0.2 "/>
<polygon points="336.5,63.1 325.4,63.1 350.1,0.2 361.1,0.2 "/>
<polygon points="314.1,63.1 303.1,63.1 327.7,0.2 338.7,0.2 "/>
<path d="M0.1,86.2v-0.7c0-4.6,2.4-6.8,7.3-6.8c5.5,0,7,2.8,7,6.4c0,3.4-0.8,4.7-3.6,7.4c-2.2,2.1-3.9,3.5-4.4,4.8h8.1v4.2H0
	c0-5.4,3.2-8.5,5.1-10.2C9,87.8,9,86.9,9,85.2c0-1.8-0.4-3-1.9-3C5,82.2,5,84.6,5,86.4H0.1C0.1,86.4,0.1,86.2,0.1,86.2z"/>
<path d="M23.9,101.8c-6.8,0-7.5-4.3-7.5-11.6c0-6.5,0.7-11.6,7.5-11.6s7.5,4.3,7.5,11.6C31.4,96.8,30.7,101.8,23.9,101.8z
	 M23.9,98.4c1.8,0,2.1-1.7,2.1-8.2S25.7,82,23.9,82s-2.1,1.7-2.1,8.2C21.9,96.7,22.1,98.4,23.9,98.4z"/>
<path d="M38.6,85.6h-4.4v-3.4h0.7c4.1,0,5-2.1,5.3-3.6H44v22.7h-5.4C38.6,101.3,38.6,85.6,38.6,85.6z"/>
<path d="M57.4,84.5c0-0.6-0.1-1.3-0.3-1.7c-0.3-0.4-0.7-0.7-1.3-0.7c-1.8,0-2.3,1.4-2.3,6.4h0.1c0.7-1.4,2.1-2,4-2
	c3.5,0,5.5,2,5.5,7.1c0,4.5-1.4,8.3-7.4,8.3c-6.7,0-7.5-4.3-7.5-11.1c0-7.6,0.5-12.1,7.9-12.1c4.1,0,6.5,1.7,6.6,5.8L57.4,84.5
	L57.4,84.5z M57.6,94.5c0-2.8-0.3-4-2-4c-1.6,0-2,1.6-2,3.6c0,2.7,0.4,4.3,2,4.3S57.6,97,57.6,94.5L57.6,94.5z"/>
<path d="M76.6,94.4v0.8c0,1.7,0.5,3,2.3,3c1.9,0,2.4-1.4,2.4-2.7c0-4.9-9.9-2.2-9.9-10.8c0-3.7,2-6.7,7.5-6.7c5.4,0,7.3,2.7,7.3,6.3
	v0.5H81c0-1.1-0.1-1.9-0.4-2.4s-0.8-0.8-1.6-0.8c-1.3,0-2.2,0.8-2.2,2.5c0,4.8,9.9,2.4,9.9,10.5c0,5.2-2.9,7.3-7.8,7.3
	c-3.9,0-7.5-1.2-7.5-6v-1.5L76.6,94.4L76.6,94.4z"/>
<path d="M89.5,78.5h5.4v22.9h-5.4C89.5,101.4,89.5,78.5,89.5,78.5z"/>
<path d="M98.4,78.5h5.4v22.9h-5.4V78.5z"/>
<path d="M111.5,78.5h6.7l5.7,22.9h-5.6l-0.8-4.4H112l-0.8,4.4h-5.6L111.5,78.5L111.5,78.5z M114.7,82.6l-2,10.2h3.9
	C116.6,92.8,114.7,82.6,114.7,82.6z"/>
<path d="M143.6,86.4c0-3.3-0.4-4.8-2.2-4.8c-2.1,0-2.3,2.1-2.3,8.1c0,6.8,0.2,8.6,2.5,8.6c2,0,2.2-2.3,2.2-5.8h5.2v0.8
	c0,4.9-1.4,8.6-8.1,8.6c-6.9,0-7.4-5.2-7.4-12.1c0-5.9,0.3-11.7,8-11.7c4.7,0,7.3,2.1,7.3,7.4v1h-5.2
	C143.6,86.5,143.6,86.4,143.6,86.4z"/>
<path d="M158.8,101.8c-7.1,0-8.1-4.6-8.1-11.9s1-11.9,8.1-11.9c7.6,0,8.1,5.6,8.1,11.9S166.4,101.8,158.8,101.8z M158.7,98.2
	c2.2,0,2.5-2,2.5-8.3s-0.3-8.3-2.5-8.3c-2.1,0-2.4,2-2.4,8.3S156.6,98.2,158.7,98.2z"/>
<path d="M169.6,78.5h8c5.3,0,7.6,2.8,7.6,10.7c0,8.3-1.1,12.2-8.2,12.2h-7.4L169.6,78.5L169.6,78.5z M175,97.4h1.4
	c2.5,0,3.4-1,3.4-7.9c0-5.6-0.4-7.1-3.3-7.1H175L175,97.4L175,97.4z"/>
<path d="M188,78.2h5.2v4H188V78.2z M188,84h5.2v17.4H188C188,101.4,188,84,188,84z"/>
<path d="M196.4,78.5h13.3v4.4h-7.9v4.6h7.4v4.4h-7.4v5.2h8.2v4.4h-13.6V78.5z"/>
<path d="M220.8,78.5h13.3v4.4h-7.9v4.6h7.4v4.4h-7.4v9.6h-5.4V78.5z"/>
<path d="M236.3,78.5h5.4v22.9h-5.4V78.5z"/>
<path d="M245.1,78.5h6.2l4.4,14.9h0.1V78.5h5v22.9h-6.1L250,85.6h-0.1v15.8h-4.8V78.5z"/>
<path d="M268.4,78.5h6.7l5.7,22.9h-5.6l-0.8-4.4h-5.5l-0.8,4.4h-5.6L268.4,78.5L268.4,78.5z M271.7,82.6l-2,10.2h3.9
	C273.6,92.8,271.7,82.6,271.7,82.6z"/>
<path d="M282.6,78.5h5.4V97h7.8v4.4h-13.2V78.5L282.6,78.5z"/>
<path d="M297.5,78.5h5.4v22.9h-5.4V78.5z"/>
<path d="M310.8,94.4v0.8c0,1.7,0.5,3,2.3,3c1.9,0,2.4-1.4,2.4-2.7c0-4.9-9.9-2.2-9.9-10.8c0-3.7,2-6.7,7.5-6.7
	c5.4,0,7.3,2.7,7.3,6.3v0.5h-5.2c0-1.1-0.1-1.9-0.4-2.4s-0.8-0.8-1.6-0.8c-1.3,0-2.1,0.8-2.1,2.5c0,4.8,9.9,2.4,9.9,10.5
	c0,5.2-2.9,7.3-7.8,7.3c-3.9,0-7.5-1.2-7.5-6v-1.5L310.8,94.4L310.8,94.4z"/>
<path d="M326.9,82.8h-4.8v-4.3h15v4.4h-4.8v18.5h-5.4V82.8L326.9,82.8z"/>
</svg>
