<?xml version="1.0" encoding="utf-8"?>
<!-- Generator: Adobe Illustrator 23.0.2, SVG Export Plug-In . SVG Version: 6.00 Build 0)  -->
<svg version="1.1" id="Layer_1" xmlns="http://www.w3.org/2000/svg" xmlns:xlink="http://www.w3.org/1999/xlink" x="0px" y="0px"
	 viewBox="0 0 170 170" style="enable-background:new 0 0 170 170;" xml:space="preserve">
<style type="text/css">
	.st0{fill:#3FCAEA;}
	.st1{fill:#1196BA;}
</style>
<path class="st0" d="M98.9,97.5c-2-0.7-3.9-1.7-5.6-2.8c-0.5-0.3-0.8-0.8-0.9-1.3c-0.1-0.5,0-1.1,0.4-1.5c1.1-1.5,1-3.6-0.4-4.8
	c-0.3-0.3-0.7-0.6-1.2-0.7c-1.2-0.5-2.6-0.2-3.6,0.7c-0.4,0.4-0.9,0.5-1.5,0.5c-0.2,0-0.3-0.1-0.5-0.1c-0.4-0.1-0.7-0.4-0.9-0.7
	c-2.5-3.4-4.2-7.2-5.2-11.4c-0.1-0.5,0-1.1,0.3-1.5c0.3-0.4,0.8-0.7,1.3-0.8c1.9-0.2,3.2-1.8,3.1-3.7c-0.1-1.4-1-2.7-2.3-3.2
	c-0.3-0.1-0.7-0.2-1.1-0.2c-0.2,0-0.4-0.1-0.6-0.1c-0.3-0.1-0.6-0.3-0.8-0.6c-0.3-0.4-0.5-1-0.4-1.5c0.3-2.1,0.9-4.1,1.6-6.1
	c0.7-2,1.7-3.9,2.8-5.6c0.3-0.5,0.8-0.8,1.3-0.9c0.3-0.1,0.7,0,1,0.1c0.2,0.1,0.4,0.2,0.5,0.3c0.3,0.2,0.6,0.4,1,0.5
	c1.4,0.5,2.9,0.2,3.9-0.9c1.3-1.4,1.3-3.4,0-4.8c-0.4-0.4-0.5-0.9-0.5-1.5c0.1-0.5,0.3-1,0.8-1.4c3.4-2.5,7.2-4.2,11.4-5.2
	c0.4-0.1,0.8-0.1,1.1,0.1c0.1,0.1,0.3,0.1,0.4,0.2c0.5,0.3,0.7,0.8,0.8,1.3c0.2,1.3,1.1,2.4,2.3,2.9c0.4,0.2,0.9,0.2,1.4,0.2
	c1.9-0.1,3.3-1.5,3.4-3.4c0-0.5,0.3-1,0.7-1.4c0.4-0.3,1-0.5,1.5-0.4c2.1,0.3,4.1,0.9,6.1,1.6c2,0.7,3.9,1.7,5.6,2.8
	c0.5,0.3,0.8,0.8,0.9,1.3c0.1,0.5,0,1.1-0.4,1.5c-1.1,1.5-1,3.6,0.4,4.8c0.3,0.3,0.7,0.6,1.2,0.7c1.2,0.5,2.6,0.2,3.7-0.7
	c0.4-0.4,1-0.5,1.5-0.5c0.2,0,0.3,0.1,0.5,0.1c0.4,0.1,0.7,0.4,0.9,0.7c2.5,3.4,4.2,7.2,5.2,11.4c0.1,0.5,0,1.1-0.3,1.5
	c-0.3,0.4-0.8,0.7-1.3,0.8c-1.9,0.2-3.2,1.8-3.1,3.7c0.1,1.4,1,2.7,2.3,3.2c0.3,0.1,0.7,0.2,1.1,0.2c0.2,0,0.4,0,0.6,0.1
	c0.3,0.1,0.6,0.3,0.8,0.6c0.3,0.4,0.5,1,0.4,1.5c-0.3,2.1-0.9,4.1-1.6,6.1c-0.7,2-1.7,3.9-2.8,5.6c-0.3,0.5-0.8,0.8-1.3,0.9
	c-0.3,0.1-0.7,0-1-0.1c-0.2-0.1-0.3-0.2-0.5-0.3c-0.3-0.2-0.6-0.4-1-0.5c-1.4-0.5-2.9-0.1-3.9,0.9c-1.3,1.4-1.3,3.4,0,4.8
	c0.4,0.4,0.5,0.9,0.5,1.5c-0.1,0.5-0.3,1-0.8,1.3c-3.4,2.5-7.2,4.2-11.4,5.2c-0.4,0.1-0.8,0.1-1.1-0.1c-0.1-0.1-0.3-0.1-0.4-0.2
	c-0.4-0.3-0.7-0.8-0.8-1.3c-0.2-1.3-1.1-2.4-2.3-2.9c-0.4-0.2-0.9-0.2-1.4-0.2c-1.9,0.1-3.3,1.5-3.4,3.4c0,0.5-0.3,1-0.7,1.4
	c-0.4,0.3-1,0.5-1.5,0.4C103,98.8,100.9,98.2,98.9,97.5z M96.9,92.4c1.1,0.6,2.2,1.1,3.4,1.5c1.2,0.4,2.3,0.8,3.5,1.1
	c1-2.8,3.7-4.8,6.7-4.9c1,0,2,0.1,2.9,0.5c1.9,0.7,3.4,2.1,4.2,3.9c2.4-0.7,4.6-1.7,6.7-3.1c-1.3-2.7-0.8-6,1.3-8.2
	c2.1-2.2,5.2-3,8-1.9c0,0,0,0,0.1,0c0.6-1.1,1.1-2.2,1.5-3.4c0.4-1.2,0.8-2.3,1.1-3.5c0,0,0,0-0.1,0c-2.8-1.1-4.7-3.7-4.8-6.7
	c-0.1-3.1,1.7-5.8,4.4-7c-0.7-2.4-1.7-4.6-3.1-6.7c-1.8,0.8-3.9,0.9-5.7,0.2c-0.9-0.3-1.7-0.9-2.5-1.5c-2.2-2.1-3-5.3-1.9-8.1
	c-1.1-0.6-2.2-1.1-3.4-1.5c-1.2-0.4-2.3-0.8-3.5-1.1c-1,2.8-3.7,4.8-6.7,4.9c-1,0-2-0.1-2.9-0.5c-1.9-0.7-3.4-2.1-4.2-3.9
	c-2.4,0.7-4.6,1.7-6.7,3.1c1.3,2.7,0.8,6-1.3,8.2c-2.1,2.2-5.2,3-8,1.9c0,0,0,0-0.1,0c-0.6,1.1-1.1,2.2-1.5,3.4
	c-0.4,1.2-0.8,2.3-1.1,3.5c0,0,0,0,0.1,0c2.8,1.1,4.7,3.7,4.8,6.7c0.1,3-1.7,5.8-4.4,7c0.7,2.4,1.7,4.6,3.1,6.7
	c1.8-0.8,3.9-0.9,5.7-0.2c0.9,0.3,1.8,0.9,2.5,1.5C97.3,86.3,98,89.6,96.9,92.4z"/>
<path class="st1" d="M110.5,86.3c-9.7,0-17.7-7.9-17.7-17.7S100.8,51,110.5,51s17.7,7.9,17.7,17.7S120.2,86.3,110.5,86.3z
	 M110.5,53.8c-8.2,0-14.8,6.7-14.8,14.8c0,8.2,6.7,14.8,14.8,14.8c8.2,0,14.8-6.7,14.8-14.8C125.3,60.5,118.7,53.8,110.5,53.8z"/>
<path class="st1" d="M75.3,61.8c-2,1-6.6,0.3-8-0.2c-2.8-1-5-3.2-6.2-5.8c-3.5,1.1-6.9,2.6-10,4.5c1.9,4,1.2,8.9-1.9,12.2
	c-3.1,3.3-7.7,4.4-11.9,2.8c0,0-0.1,0-0.1,0c-0.9,1.6-1.6,3.3-2.3,5c-0.6,1.7-1.2,3.5-1.6,5.3c0,0,0.1,0,0.1,0c4.2,1.6,7,5.5,7.2,10
	c0.2,4.5-2.5,8.6-6.5,10.5c1.1,3.5,2.6,6.9,4.5,10c2.7-1.2,5.7-1.4,8.5-0.3c1.4,0.5,2.6,1.3,3.7,2.3c3.3,3.1,4.4,7.9,2.8,12
	c1.6,0.9,3.3,1.6,5,2.3c1.7,0.6,3.5,1.2,5.3,1.6c1.5-4.2,5.4-7.1,10-7.3c1.5-0.1,2.9,0.2,4.3,0.7c2.8,1,5,3.2,6.2,5.8
	c3.5-1.1,6.9-2.6,10-4.5c-1.9-4-1.2-8.9,1.9-12.2c3.1-3.3,7.7-4.4,11.9-2.8c0,0,0.1,0,0.1,0c0.9-1.6,1.6-3.3,2.3-5
	c0.6-1.7,1.6-5.2,1.6-5.2s0,0,0,0l6.2-1.7c-0.5,3-1.3,6.1-2.4,9c-1.1,2.9-2.5,5.7-4.1,8.4c-0.4,0.7-1.1,1.2-1.9,1.3
	c-0.5,0.1-1,0-1.5-0.1c-0.3-0.1-0.5-0.2-0.7-0.4c-0.4-0.3-0.9-0.6-1.4-0.8c-2-0.8-4.3-0.2-5.7,1.4c-1.9,2-1.9,5.1-0.1,7.2
	c0.5,0.6,0.8,1.4,0.7,2.2c-0.1,0.8-0.5,1.5-1.2,2c-5.1,3.7-10.8,6.3-16.9,7.7c-0.5,0.1-1.1,0.1-1.6-0.1c-0.2-0.1-0.4-0.2-0.6-0.3
	c-0.7-0.5-1.1-1.2-1.2-2c-0.3-2-1.6-3.6-3.4-4.3c-0.7-0.2-1.3-0.4-2-0.3c-2.8,0.1-5,2.3-5.1,5c0,0.8-0.4,1.6-1.1,2.1
	c-0.6,0.5-1.4,0.7-2.2,0.6c-3.1-0.5-6.1-1.3-9-2.4c-2.9-1.1-5.7-2.5-8.4-4.1c-0.7-0.4-1.2-1.1-1.3-1.9c-0.1-0.8,0.1-1.6,0.5-2.3
	c1.7-2.2,1.5-5.3-0.6-7.2c-0.5-0.5-1.1-0.9-1.8-1.1c-1.8-0.7-3.9-0.3-5.4,1c-0.6,0.5-1.4,0.8-2.2,0.7c-0.2,0-0.5-0.1-0.7-0.2
	c-0.5-0.2-1-0.5-1.3-1c-3.7-5.1-6.3-10.8-7.7-16.9c-0.2-0.8,0-1.6,0.4-2.3c0.5-0.7,1.2-1.1,2-1.2c2.8-0.4,4.8-2.7,4.7-5.5
	c-0.1-2.2-1.4-4-3.5-4.8c-0.5-0.2-1-0.3-1.6-0.3c-0.3,0-0.6-0.1-0.8-0.2c-0.5-0.2-0.9-0.5-1.2-0.9c-0.5-0.6-0.7-1.4-0.6-2.2
	c0.5-3.1,1.3-6.1,2.4-9c1.1-2.9,2.5-5.7,4.1-8.4c0.4-0.7,1.1-1.2,1.9-1.3c0.5-0.1,1,0,1.5,0.1c0.3,0.1,0.5,0.2,0.7,0.4
	c0.4,0.3,0.9,0.6,1.4,0.8c2,0.8,4.3,0.2,5.7-1.4c1.9-2,1.9-5.1,0.1-7.2c-0.5-0.6-0.8-1.4-0.7-2.2c0.1-0.8,0.5-1.5,1.2-2
	c5.1-3.7,10.8-6.3,16.9-7.7c0.5-0.1,1.1-0.1,1.6,0.1c0.2,0.1,0.4,0.2,0.6,0.3c0.7,0.5,1.1,1.2,1.2,2c0.3,2,1.6,3.6,3.4,4.3
	c0.7,0.2,1.3,0.4,2.1,0.3c1.4-0.1,3,0.2,3.9-0.7V61.8z"/>
<path class="st0" d="M99.6,99.4C97.4,111.7,86.6,121,73.8,121c-14.5,0-26.2-11.8-26.2-26.2s11.8-26.2,26.2-26.2
	c1.3,0,3.7,0.3,3.7,0.3L77.3,73c-1.2-0.2-2.3-0.3-3.5-0.3c-12.2,0-22,9.9-22,22c0,12.2,9.9,22,22,22c11,0,20.1-8.1,21.8-18.6
	L99.6,99.4z"/>
<path class="st1" d="M23.2,137.1c-6.8-8.2-19-25.2-19-52.1C4.2,40.4,40.4,4.1,85,4.1c26.3,0,45.7,12.9,60.3,27.7l2-4.5
	C132.3,13.8,115.3,0,85,0C38.1,0-0.5,38.1,0,85c0.3,31.8,12.3,44.8,19.3,54.8L23.2,137.1z"/>
<path class="st1" d="M158.2,42.6h-4.6c5.2,10.7,12.2,21.2,12.2,42.4c0,44.6-36.3,80.9-80.9,80.9c-19.7,0-37.1-4.5-51.6-18.3v5.6
	c14.9,13,33,16.7,51.6,16.8c46.9,0.4,85-38.1,85-85C170,63.8,163.2,53.4,158.2,42.6z"/>
<polygon class="st1" points="32.4,163.4 29.3,146.8 48.3,146.8 48.3,149.8 33.3,149.8 35.4,163.4 "/>
<polygon class="st1" points="150.7,31.8 129.3,31.7 129.4,28.7 146.8,28.8 143.4,14.4 146.2,13.6 "/>
</svg>
