<?xml version="1.0" encoding="utf-8"?>
<!-- Generator: Adobe Illustrator 23.0.2, SVG Export Plug-In . SVG Version: 6.00 Build 0)  -->
<svg version="1.1" id="Layer_1" xmlns="http://www.w3.org/2000/svg" xmlns:xlink="http://www.w3.org/1999/xlink" x="0px" y="0px"
	 viewBox="0 0 27.91 28.12" style="enable-background:new 0 0 27.91 28.12;" xml:space="preserve">
<path d="M19.46,22.56h-12v-3h12c1.08,0,3.49-0.82,4.16-2.17C24.52,15.57,25,13.71,25,13.7l2.91,0.73c-0.02,0.09-0.55,2.18-1.61,4.31
	C24.99,21.34,21.44,22.56,19.46,22.56z"/>
<polygon points="10.89,28.12 3.91,21.14 10.82,13.08 13.09,15.04 8,20.98 13.02,26 "/>
<path d="M2.91,14.43L0,13.7c0.02-0.09,0.55-2.18,1.61-4.31c1.31-2.61,4.85-3.83,6.84-3.83h12v3h-12c-1.08,0-3.49,0.82-4.16,2.17
	C3.39,12.55,2.92,14.41,2.91,14.43z"/>
<polygon points="17.09,15.04 14.82,13.08 19.91,7.14 14.89,2.12 17.02,0 24,6.98 "/>
</svg>
