<?xml version="1.0" encoding="utf-8"?>
<!-- Generator: Adobe Illustrator 23.0.2, SVG Export Plug-In . SVG Version: 6.00 Build 0)  -->
<svg version="1.1" id="Layer_1" xmlns="http://www.w3.org/2000/svg" xmlns:xlink="http://www.w3.org/1999/xlink" x="0px" y="0px"
	 viewBox="0 0 96.88 91" style="enable-background:new 0 0 96.88 91;" xml:space="preserve">
<path style="fill:#1196BA;" d="M61.4,91H4.6C2.06,91,0,88.94,0,86.4V4.6C0,2.06,2.06,0,4.6,0H61.4C63.94,0,66,2.06,66,4.6v12.56h-3
	V4.6C63,3.72,62.28,3,61.4,3H4.6C3.72,3,3,3.72,3,4.6V86.4C3,87.28,3.72,88,4.6,88H61.4c0.88,0,1.6-0.72,1.6-1.6v-8.08h3v8.08
	C66,88.94,63.94,91,61.4,91z"/>
<path style="fill:#3FCAEA;" d="M59,17H8V8h51V17z M10,15h47v-5H10V15z"/>
<polygon style="fill:#3FCAEA;" points="59,82 8,82 8,73 53.71,73 53.71,75 10,75 10,80 57,80 57,76.65 59,76.65 "/>
<polygon style="fill:#3FCAEA;" points="46.61,68 8,68 8,47 40.42,47 40.42,49 10,49 10,66 46.61,66 "/>
<path style="fill:#3FCAEA;" d="M31,41H7V20h24V41z M9,39h20V22H9V39z"/>
<polygon style="fill:#3FCAEA;" points="39.39,41 35,41 35,20 53.71,20 53.71,22 37,22 37,39 39.39,39 "/>
<path style="fill:#1196BA;" d="M66.02,74.57c-0.09,0-0.18-0.01-0.27-0.02c-3.8-0.53-7.37-1.81-10.62-3.8
	c-0.48-0.29-0.81-0.78-0.92-1.33s0.03-1.12,0.36-1.57c0.87-1.16,0.73-2.77-0.34-3.74c-1.06-0.96-2.68-0.95-3.75,0.02
	c-0.42,0.38-0.97,0.56-1.53,0.51c-0.56-0.05-1.07-0.34-1.41-0.79c-2.3-3.04-3.91-6.47-4.8-10.2c-0.13-0.55-0.02-1.12,0.29-1.59
	c0.32-0.46,0.81-0.78,1.37-0.86c1.43-0.21,2.46-1.45,2.4-2.88c-0.07-1.43-1.21-2.56-2.66-2.63c-0.56-0.03-1.08-0.29-1.44-0.72
	c-0.36-0.43-0.52-1-0.44-1.55c0.53-3.8,1.81-7.37,3.8-10.62c0.29-0.48,0.78-0.81,1.33-0.92c0.55-0.1,1.12,0.03,1.57,0.36
	c1.17,0.87,2.77,0.73,3.74-0.34c0.96-1.06,0.96-2.68-0.02-3.75c-0.38-0.42-0.56-0.97-0.51-1.53s0.34-1.07,0.79-1.41
	c3.04-2.3,6.47-3.91,10.2-4.8c0.54-0.13,1.12-0.03,1.59,0.29c0.46,0.32,0.78,0.81,0.86,1.37c0.21,1.44,1.44,2.46,2.88,2.4
	c1.43-0.07,2.57-1.21,2.63-2.66c0.03-0.56,0.29-1.08,0.72-1.44c0.43-0.36,1-0.52,1.55-0.44c3.8,0.53,7.37,1.81,10.62,3.8
	c0.48,0.29,0.81,0.78,0.92,1.33s-0.03,1.12-0.36,1.57c-0.87,1.16-0.72,2.77,0.34,3.74c1.06,0.97,2.67,0.95,3.75-0.02
	c0.42-0.38,0.97-0.56,1.53-0.51c0.56,0.05,1.07,0.34,1.41,0.79c2.3,3.04,3.91,6.47,4.8,10.2c0.13,0.55,0.03,1.12-0.29,1.59
	c-0.31,0.46-0.81,0.78-1.37,0.86c-1.43,0.21-2.47,1.45-2.4,2.88c0.07,1.43,1.22,2.56,2.67,2.63c0.56,0.03,1.08,0.29,1.44,0.72
	s0.52,1,0.44,1.55c-0.53,3.8-1.81,7.38-3.8,10.62c-0.29,0.48-0.78,0.81-1.33,0.92c-0.55,0.1-1.12-0.03-1.57-0.36
	c-1.16-0.87-2.77-0.73-3.74,0.34c-0.96,1.06-0.95,2.68,0.03,3.75c0.38,0.42,0.57,0.97,0.51,1.53c-0.05,0.56-0.34,1.07-0.79,1.41
	c-3.04,2.3-6.48,3.91-10.2,4.8c-0.55,0.13-1.12,0.03-1.59-0.29c-0.46-0.32-0.77-0.81-0.86-1.37c-0.21-1.43-1.45-2.45-2.88-2.4
	c-1.43,0.07-2.56,1.21-2.63,2.66c-0.03,0.56-0.29,1.08-0.72,1.44C66.93,74.4,66.48,74.57,66.02,74.57z M58.82,68.24
	c1.8,0.92,3.7,1.6,5.68,2.03c0.96-2.41,3.24-4.13,5.96-4.26c2.73-0.12,5.17,1.36,6.35,3.67c1.93-0.62,3.75-1.48,5.46-2.56
	c-1.04-2.38-0.64-5.21,1.2-7.24c1.84-2.02,4.62-2.69,7.09-1.89c0.92-1.79,1.6-3.69,2.03-5.68c-2.41-0.96-4.13-3.24-4.26-5.96
	c0,0,0,0,0,0c-0.13-2.72,1.36-5.16,3.67-6.35c-0.62-1.93-1.48-3.76-2.57-5.46c-2.38,1.03-5.21,0.64-7.24-1.2
	c-2.02-1.84-2.69-4.62-1.89-7.09c-1.8-0.92-3.7-1.6-5.68-2.03c-0.96,2.41-3.24,4.13-5.97,4.26c-2.73,0.13-5.16-1.36-6.35-3.67
	c-1.93,0.62-3.76,1.48-5.46,2.57c1.03,2.38,0.63,5.21-1.2,7.24c-1.84,2.03-4.62,2.69-7.09,1.89c-0.92,1.8-1.6,3.7-2.03,5.68
	c2.41,0.96,4.13,3.24,4.26,5.96c0.13,2.73-1.36,5.17-3.67,6.35c0.62,1.93,1.48,3.76,2.56,5.46c2.39-1.03,5.21-0.63,7.24,1.2
	C58.95,62.98,59.62,65.76,58.82,68.24z"/>
<path style="fill:#3FCAEA;" d="M69.47,63.03c-3.92,0-7.64-1.43-10.56-4.08c-3.11-2.82-4.93-6.69-5.13-10.89
	c-0.42-8.66,6.29-16.05,14.95-16.46c4.2-0.21,8.22,1.24,11.33,4.07c3.11,2.82,4.93,6.69,5.13,10.89c0.2,4.2-1.24,8.22-4.07,11.33
	c-2.82,3.11-6.69,4.93-10.89,5.13C69.99,63.03,69.73,63.03,69.47,63.03z M69.51,34.58c-0.21,0-0.42,0-0.63,0.01
	c-7.01,0.34-12.44,6.31-12.1,13.32c0.16,3.4,1.64,6.52,4.16,8.81c2.52,2.29,5.78,3.45,9.17,3.29c3.4-0.16,6.52-1.64,8.81-4.16
	c2.29-2.52,3.45-5.77,3.29-9.17l0,0c-0.16-3.4-1.64-6.52-4.16-8.81C75.69,35.74,72.67,34.58,69.51,34.58z"/>
<circle style="fill:#1196BA;" cx="69.5" cy="47.5" r="8.5"/>
</svg>
