<?xml version="1.0" encoding="utf-8"?>
<!-- Generator: Adobe Illustrator 23.0.2, SVG Export Plug-In . SVG Version: 6.00 Build 0)  -->
<svg version="1.1" id="Layer_1" xmlns="http://www.w3.org/2000/svg" xmlns:xlink="http://www.w3.org/1999/xlink" x="0px" y="0px"
	 viewBox="0 0 58 64" style="enable-background:new 0 0 58 64;" xml:space="preserve">
<path d="M22.9,44.9C15.8,44.9,10,39.1,10,32s5.8-12.9,12.9-12.9v2C16.9,21.1,12,26,12,32s4.9,10.9,10.9,10.9V44.9z"/>
<rect x="24.6" y="24.4" transform="matrix(0.9305 -0.3662 0.3662 0.9305 -6.6666 15.595)" width="26.3" height="2"/>
<rect x="36.8" y="25.5" transform="matrix(0.3663 -0.9305 0.9305 0.3663 -12.0037 59.6303)" width="2" height="26.3"/>
<path d="M53.8,23.2c-2.3,0-4.2-1.9-4.2-4.2c0-2.3,1.9-4.2,4.2-4.2s4.2,1.9,4.2,4.2C58,21.4,56.1,23.2,53.8,23.2z M53.8,16.9
	c-1.2,0-2.2,1-2.2,2.2s1,2.2,2.2,2.2s2.2-1,2.2-2.2S55,16.9,53.8,16.9z"/>
<path d="M22.9,36.2c-2.3,0-4.2-1.9-4.2-4.2s1.9-4.2,4.2-4.2s4.2,1.9,4.2,4.2S25.2,36.2,22.9,36.2z M22.9,29.8c-1.2,0-2.2,1-2.2,2.2
	s1,2.2,2.2,2.2s2.2-1,2.2-2.2S24.1,29.8,22.9,29.8z"/>
<path d="M53.8,49.1c-2.3,0-4.2-1.9-4.2-4.2s1.9-4.2,4.2-4.2s4.2,1.9,4.2,4.2S56.1,49.1,53.8,49.1z M53.8,42.8c-1.2,0-2.2,1-2.2,2.2
	s1,2.2,2.2,2.2s2.2-1,2.2-2.2S55,42.8,53.8,42.8z"/>
<path d="M23.1,41.2c-5,0-9.1-4.1-9.1-9.1s4.1-9.1,9.1-9.1c2.5,0,4.8,1,6.5,2.8L28,27c-1.3-1.4-3-1.9-4.9-1.9c-3.9,0-7.1,3.2-7.1,7.1
	s3.2,7.1,7.1,7.1c2.1,0,4-0.9,5.3-2.4l1.5,1.3C28.2,40,25.7,41.2,23.1,41.2z"/>
<path d="M31.9,34.3l-1.9-0.5c0.1-0.5,0.2-1.1,0.2-1.7c0-0.6-0.1-1.2-0.2-1.8l1.9-0.5c0.2,0.7,0.3,1.5,0.3,2.3
	C32.1,32.9,32,33.6,31.9,34.3z"/>
<rect x="53" y="18.1" width="1.6" height="2"/>
<rect x="53" y="43.9" width="1.6" height="2"/>
<rect x="22.1" y="31" width="1.6" height="2"/>
<g>
	<polygon points="46,64 0,64 0,0 37.4,0 46,8.6 46,16 44,16 44,9.4 36.6,2 2,2 2,62 44,62 44,48 46,48 	"/>
	<polygon points="45,10 36,10 36,1 38,1 38,8 45,8 	"/>
</g>
<g>
	<rect x="4" y="6" width="30" height="2"/>
	<rect x="4" y="13" width="30" height="2"/>
</g>
<g>
	<rect x="4" y="50" width="38" height="2"/>
	<rect x="4" y="56" width="7" height="2"/>
	<rect x="13" y="56" width="29" height="2"/>
</g>
</svg>
