<?xml version="1.0" encoding="utf-8"?>
<!-- Generator: Adobe Illustrator 23.0.2, SVG Export Plug-In . SVG Version: 6.00 Build 0)  -->
<svg version="1.1" id="Layer_1" xmlns="http://www.w3.org/2000/svg" xmlns:xlink="http://www.w3.org/1999/xlink" x="0px" y="0px"
	 viewBox="0 0 159.2 132.9" style="enable-background:new 0 0 159.2 132.9;" xml:space="preserve">
<title>deploy</title>
<path d="M51.5,133L8,132.9c-4.4,0-8-3.6-8-8l0.1-37.4c0-1.1,0.9-2,2-2c0,0,0,0,0,0c1.1,0,2,0.9,2,2L4,124.9c0,2.2,1.8,4,4,4
	l43.5,0.1c2.2,0,4-1.8,4-4l0.1-60c0-2.2-1.8-4-4-4L8.1,60.9c-2.2,0-4,1.8-4,4v14.2c0,1.1-0.9,2-2,2s-2-0.9-2-2V64.9c0-4.4,3.6-8,8-8
	L51.6,57c4.4,0,8,3.6,8,8l-0.1,60C59.5,129.4,55.9,133,51.5,133z"/>
<path d="M149,18h-25.2c-1.1,0-2-0.9-2-2s0.9-2,2-2H149c1.1,0,2,0.9,2,2S150.1,18,149,18z"/>
<path d="M148.9,60.6C148.9,60.6,148.9,60.6,148.9,60.6l-25.2-0.1c-1.1,0-2-0.9-2-2c0-1.1,0.9-2,2-2c0,0,0,0,0,0l25.2,0.1
	c1.1,0,2,0.9,2,2C150.9,59.7,150,60.6,148.9,60.6z"/>
<path d="M49.4,72.4C49.4,72.4,49.4,72.4,49.4,72.4l-39.1-0.1c-1.1,0-2-0.9-2-2c0-1.1,0.9-2,2-2c0,0,0,0,0,0l39.1,0.1
	c1.1,0,2,0.9,2,2C51.4,71.5,50.5,72.4,49.4,72.4z"/>
<path d="M49.3,116.8h-39c-1.1,0-2-0.9-2-2s0.9-2,2-2h39c1.1,0,2,0.9,2,2S50.4,116.8,49.3,116.8z"/>
<circle cx="29.8" cy="124" r="2.5"/>
<circle cx="136.3" cy="67.5" r="2.5"/>
<path d="M152,76.1L120.6,76c-3.9,0-7-3.1-7-7l0.1-62c0-3.9,3.1-7,7-7l31.4,0.1c3.9,0,7,3.1,7,7L159,46.9c0,1.1-0.9,2-2,2
	c0,0,0,0,0,0c-1.1,0-2-0.9-2-2l0.1-39.8c0-1.7-1.3-3-3-3L120.7,4c-1.7,0-3,1.3-3,3l-0.1,62c0,1.7,1.3,3,3,3l31.4,0.1
	c1.7,0,3-1.3,3-3V55.8c0-1.1,0.9-2,2-2s2,0.9,2,2v13.3C159,73,155.9,76.1,152,76.1z"/>
<path d="M129.3,110.4l-63.4-0.1c-1.7,0-3-1.3-3-3c0-1.7,1.3-3,3-3c0,0,0,0,0,0l63.4,0.1c2.2,0,4-1.8,4-4V82c0-1.7,1.3-3,3-3
	s3,1.3,3,3v18.4C139.3,105.9,134.8,110.4,129.3,110.4z"/>
<path d="M15.6,53.2c-1.7,0-3-1.3-3-3V24.9c0-5.5,4.5-10,10-10L108,15c1.7,0,3,1.3,3,3c0,1.7-1.3,3-3,3c0,0,0,0,0,0l-85.4-0.1
	c-2.2,0-4,1.8-4,4v25.3C18.6,51.9,17.3,53.2,15.6,53.2z"/>
<path d="M65.8,125c-0.2,0-0.5,0-0.7-0.1c-1.6-0.4-2.6-2-2.2-3.6l3.2-12.7c0.4-1.6,2-2.6,3.6-2.2c1.6,0.4,2.6,2,2.2,3.6l-3.2,12.7
	C68.4,124.1,67.1,125,65.8,125z"/>
<path d="M88.1,124.9c-1.3,0-2.5-0.9-2.9-2.2L82,110.4c-0.4-1.6,0.5-3.2,2.1-3.7c1.6-0.4,3.2,0.5,3.7,2.1l3.2,12.3
	c0.4,1.6-0.5,3.2-2.1,3.7C88.6,124.9,88.3,124.9,88.1,124.9z"/>
<path d="M100.3,126.3H65.8c-1.7,0-3-1.3-3-3s1.3-3,3-3h34.5c1.7,0,3,1.3,3,3S102,126.3,100.3,126.3z"/>
<path d="M101,52.6C101,52.6,101,52.6,101,52.6l-25.9-0.1c-1.4,0-2.5-1.1-2.5-2.5c0-1.4,1.1-2.5,2.5-2.5c0,0,0,0,0,0l25.9,0.1
	c1.4,0,2.5,1.1,2.5,2.5C103.5,51.5,102.4,52.6,101,52.6z"/>
<path d="M97.3,59.5c-0.6,0-1.2-0.2-1.7-0.7c-1-0.9-1.1-2.5-0.2-3.5l4.9-5.4L95.6,45c-1-1-0.9-2.6,0.1-3.5c1-1,2.6-0.9,3.5,0.1
	l6.4,6.6c0.9,0.9,0.9,2.5,0,3.4l-6.5,7.1C98.7,59.2,98,59.5,97.3,59.5z"/>
<path d="M93.8,79.6C93.8,79.6,93.8,79.6,93.8,79.6l-25.9-0.1c-1.4,0-2.5-1.1-2.5-2.5c0-1.4,1.1-2.5,2.5-2.5c0,0,0,0,0,0l25.9,0.1
	c1.4,0,2.5,1.1,2.5,2.5C96.3,78.5,95.2,79.6,93.8,79.6z"/>
<path d="M72.4,86.3c-0.6,0-1.2-0.2-1.7-0.6l-7.4-6.6c-0.5-0.5-0.8-1.1-0.8-1.8c0-0.7,0.3-1.4,0.8-1.9l7.6-7.1c1-0.9,2.6-0.9,3.5,0.1
	c0.9,1,0.9,2.6-0.1,3.5l-5.6,5.2l5.4,4.8c1,0.9,1.1,2.5,0.2,3.5C73.8,86,73.1,86.3,72.4,86.3z"/>
</svg>
