<?xml version="1.0" encoding="utf-8"?>
<!-- Generator: Adobe Illustrator 23.0.2, SVG Export Plug-In . SVG Version: 6.00 Build 0)  -->
<svg version="1.1" id="Layer_1" xmlns="http://www.w3.org/2000/svg" xmlns:xlink="http://www.w3.org/1999/xlink" x="0px" y="0px"
	 viewBox="0 0 600 206.53" style="enable-background:new 0 0 600 206.53;" xml:space="preserve">
<g>
	<path d="M385.33,61.78c-0.62-30.6-17.52-52.53-45.75-59.32C335.75,1.54,331.86,0.82,328,0h-11c-7.48,2.03-15.35,3.18-22.38,6.25
		c-29.56,12.88-43.75,47.41-33.75,80.22c10.08,33.07,42.44,47.45,75.25,39.83C367.27,119.07,385.98,93.75,385.33,61.78z
		 M354.52,105.35c-15.88,18.14-43.59,18.64-60.4,1.35c-17.02-17.52-23.06-49.21-13.58-71.28c12.88-30,51.54-35.27,72.08-9.83
		c10.07,12.47,14.01,26.99,14.37,41.05C367.01,82.08,363.74,94.82,354.52,105.35z"/>
	<path d="M87.58,99.23c-1.91,7.51-3.52,15.31-6.08,22.78c-0.65,1.9-4.27,3.78-6.63,3.91c-7.96,0.45-15.98,0.09-23.97,0.08
		c-16.97-0.01-33.93,0-50.9,0v-4c8.37-0.09,12.19-3.11,13.9-11.16c0.48-2.27,0.94-4.6,0.95-6.9c0.14-26.26,0.48-52.53,0.14-78.78
		C14.82,12.4,11.82,9.36,0,6V3h81.45v25.6c-2.56,0.96-4.29,0.89-4.95-2.68c-1.59-8.61-7.64-12.96-15.73-13.57
		c-9.22-0.7-18.53-0.16-28.28-0.16v46.3c9.39-0.61,18.96-0.86,28.41-1.99c5.02-0.61,7.08-4.91,8.1-9.67c0.28-1.29,1.9-2.28,2.9-3.41
		c0.42,0.28,0.85,0.56,1.27,0.84v34.7c-0.31,0.38-0.61,0.75-0.92,1.13c-1.13-1.08-2.88-1.96-3.29-3.27
		c-2.35-7.36-5.88-10.48-13.71-10.74c-7.47-0.24-14.97-0.05-22.77-0.05c-0.17,1.19-0.45,2.28-0.46,3.37
		c-0.03,11.33-0.09,22.66,0.01,33.99c0.09,9.29,4.14,13.44,13.5,13.52c5.63,0.06,11.3-0.22,16.9-0.88
		c9.42-1.09,15.96-6.3,19.33-15.17C82.88,97.9,84.3,97.27,87.58,99.23z"/>
	<path d="M600,3v3c-3.92,2.58-9.22,4.28-11.54,7.89c-11.43,17.75-22.1,35.98-32.92,54.12c-0.78,1.31-0.85,3.2-0.84,4.81
		c0.05,10.33,0.12,20.66,0.36,30.98c0.27,11.36,3.36,15.17,14.16,18.29c0.77,0.22,1.25,1.45,1.86,2.21
		c-1.02,0.47-2.05,1.35-3.08,1.35c-12.16-0.05-24.31-0.26-36.47-0.37c-2.5-0.02-5,0.28-7.49,0.18c-0.71-0.03-1.38-0.93-2.07-1.44
		c0.54-0.66,0.95-1.71,1.63-1.93c11.1-3.48,13.68-6.18,14.21-17.04c0.54-10.98,0.52-21.98,0.63-32.97c0.02-1.42-0.36-3.03-1.07-4.25
		c-9.9-16.95-19.81-33.89-29.92-50.71c-2.82-4.69-6.06-9.23-11.88-10.85c-0.63-0.18-0.98-1.36-1.46-2.08c0.8-0.4,1.6-1.14,2.39-1.13
		c3.82,0.1,7.64,0.55,11.46,0.59c8.14,0.1,16.28,0.03,25.5,0.03c-1.05,1.2-1.68,2.55-2.7,2.97c-4.98,2.07-6.21,3.77-3.84,8.66
		c4.77,9.87,10.03,19.5,15.26,29.14c2.45,4.52,5.3,8.82,7.94,13.17c0.51-0.1,0.96-0.07,1.06-0.24
		c7.79-13.73,15.73-27.38,23.24-41.27c3.05-5.64,1.87-7.5-4.03-9.45c-0.89-0.3-1.54-1.3-2.31-1.97c1-0.54,1.99-1.52,3-1.54
		C580.72,3.01,590.36,3.03,600,3z"/>
	<path d="M251.68,125.05c-9.13,0-18.25-0.05-27.38,0.02c-4.66,0.04-9.32,0.39-13.98,0.35c-0.97-0.01-1.92-1.09-2.88-1.68
		c0.81-0.58,1.57-1.57,2.45-1.69c5.86-0.8,8.59-4.73,9.84-9.9c0.74-3.05,1.21-6.26,1.17-9.39c-0.35-26.49-0.84-52.97-1.31-79.46
		c-0.01-0.94-0.2-1.88-1.29-3.08c-1.78,3.96-3.71,7.86-5.3,11.9c-11.72,29.67-23.38,59.37-35.06,89.06
		c-0.95,2.42-1.43,5.85-5.06,4.65c-1.9-0.63-3.93-2.66-4.73-4.55c-13.48-32.01-26.78-64.1-40.14-96.16
		c-0.71-1.72-1.61-3.37-2.43-5.06c-0.35,0.1-0.7,0.2-1.05,0.3c-0.09,0.91-0.25,1.82-0.26,2.73c-0.4,24.82-0.9,49.64-1.06,74.46
		c-0.04,5.27,0.8,10.62,1.87,15.79c0.99,4.74,4.17,7.78,9.21,8.69c1.1,0.2,2.04,1.34,3.05,2.05c-0.22,0.39-0.43,0.78-0.65,1.18
		H97.25c1.2-1.5,1.74-2.9,2.62-3.17c9.45-2.9,12.54-6.3,13.06-16.11c0.63-11.8,0.89-23.62,1.18-35.43
		c0.36-14.66,0.67-29.32,0.81-43.98c0.03-3.29-0.44-6.66-1.19-9.87c-1.22-5.18-3.99-9.09-9.76-10.09c-1.04-0.18-1.92-1.28-2.88-1.96
		c1.18-0.53,2.34-1.52,3.53-1.54c8.64-0.14,17.29,0.08,25.93-0.2c3.55-0.12,5.16,0.98,6.53,4.34c11.86,29.08,23.96,58.07,36,87.07
		c0.68,1.62,1.53,3.15,2.81,5.77c2.01-4.63,3.66-8.17,5.08-11.8c10.63-27.07,21.29-54.13,31.72-81.27c1.25-3.24,2.64-4.09,6.06-3.97
		c9.62,0.34,19.26,0.12,29.75,1.25c-1.01,0.82-1.94,2.2-3.05,2.37c-5.75,0.85-8.22,4.73-9.24,9.77c-0.68,3.41-1.06,6.96-0.98,10.43
		c0.55,25.31,1.2,50.63,1.97,75.94c0.1,3.11,0.87,6.26,1.67,9.3c1.44,5.43,4.73,9,10.57,9.94
		C250.51,122.22,251.4,123.46,251.68,125.05z"/>
	<path d="M509.43,122.12c-8.86-0.66-14.55-6.55-19.45-12.78C478.97,95.36,468.55,80.92,457.39,66c2.26-1.03,3.65-1.53,4.91-2.27
		c12.18-7.12,17.29-18.12,16.61-31.81c-0.67-13.58-7.79-22.71-20.44-26.56c-4.41-1.34-9.11-2.37-13.68-2.42
		c-17.63-0.19-35.26,0.07-52.89,0.19c-0.25,0-0.5,0.36-1.68,1.23c1.53,0.88,2.56,1.82,3.76,2.1c8.98,2.13,12.8,5.82,12.89,15.12
		c0.28,28.15,0.28,56.3-0.08,84.45c-0.13,10.05-4.2,13.97-13.65,16.06c-0.95,0.21-1.64,1.59-3.4,3.41c17.11,0,32.41,0.04,47.71-0.09
		c1.01-0.01,2-1.34,3-2.06c-10.36-2.19-13.89-5.08-15.85-13.59c-0.48-2.09-0.7-4.28-0.71-6.42c-0.07-11.6-0.03-23.2-0.03-34.44
		c5.1,0,9.75,0.32,14.34-0.11c3.29-0.31,5.08,0.68,6.87,3.41c9.39,14.33,18.91,28.59,28.58,42.74
		c7.17,10.48,24.06,15.43,35.66,10.68c0.74-0.3,1.39-1.25,1.66-2.04C511.07,123.28,510.01,122.16,509.43,122.12z M448.25,60.34
		c-7.88,1.35-15.99,1.38-24.27,2.01V9.34c7.05,0.65,13.87,0.63,20.39,2.02c7.88,1.69,13.39,7.2,15.36,14.91
		c1.54,6.01,2.15,12.49,1.81,18.68C461.11,53.02,456.39,58.94,448.25,60.34z"/>
	<path d="M47.88,197.48c0.11,2.55,1.91,5.02,2.9,7.43H37.43c6.89-5.94,3.27-13.89,4.56-21.43H18.2c0.88,7.3-2.93,15.29,4.19,21.44
		H9.2c1.01-2.38,2.87-4.84,3-7.39c0.48-9.13,0.69-18.31,0.33-27.44c-0.13-3.09-2.25-6.11-3.37-8.92h14.38
		c-7.9,4.78-4.25,12.12-5.68,18.78h24.07c-0.98-6.57,2.82-13.97-5.54-18.78H52.6c-4.41,1.5-4.9,5.11-4.92,8.86
		C47.65,179.18,47.5,188.35,47.88,197.48z"/>
	<path d="M331.85,197.92c0.09,2.39,1.93,4.71,2.92,6.95h-13.11c6.46-5.91,3.13-13.8,4.35-21.36h-23.75
		c0.83,7.18-3.03,15.14,4.18,21.43h-13.28c1.02-2.38,2.9-4.83,3.03-7.37c0.48-9.3,0.67-18.63,0.3-27.92
		c-0.11-2.93-2.31-5.77-3.48-8.48h14.43c-7.86,4.71-4.07,12.09-5.57,18.76h24.08c-0.88-6.56,2.52-13.86-5.39-18.77h14.82
		c-1.19,2.63-3.45,5.44-3.59,8.34C331.35,178.96,331.48,188.46,331.85,197.92z"/>
	<path d="M506.54,195.91c-2.65-3.82-5.39-7.57-8.36-11.73c0.66-0.59,0.99-0.93,1.37-1.21c5.48-3.92,7.31-8.76,5.51-14.65
		c-1.43-4.67-5.24-7.23-11.72-7.41c-6.11-0.17-12.22-0.04-18.96-0.04c4.81,3.13,5.5,4.26,5.54,9.59c0.07,8.49,0.28,17-0.13,25.47
		c-0.15,3.08-1.89,6.08-2.86,8.97h12.72c-6.6-5.83-3.38-13.26-4-19.93c5.07-1.28,8.1,0.02,10.3,4.31c2.12,4.11,5.03,7.82,7.64,11.68
		c3.13,4.59,7.4,5.63,11.02,5.46C511.51,203.28,509.08,199.56,506.54,195.91z M485.97,181.94V163.7c4.61-1.3,8.76-0.74,11.63,3.07
		c2.75,3.67,3.37,8.2,0.9,12.16C495.61,183.58,490.74,182.07,485.97,181.94z"/>
	<path d="M95.95,205.69c-6.12-0.48-12.3-0.1-19.76-0.1c6.84-6.23,6.46-39.08,0.21-44.31h28.22v8.91c-4.97-6.62-6.77-7.18-17.72-5.63
		v15.64c8,1.99,11.14,1.14,14.69-4.4v13.59c-3.35-7.3-8.93-5.36-14.62-5.37c0,5.07-0.39,10.03,0.22,14.87
		c0.2,1.51,2.95,3.59,4.75,3.85c5.9,0.84,11.29-0.35,14.14-7.48C106.43,204.61,104.27,206.34,95.95,205.69z"/>
	<path d="M566.59,194.77c-0.08,10.02-1.86,11.45-9.68,10.93c-6.46-0.42-12.96-0.08-18.85-0.08c1.1-3.08,2.78-5.7,2.87-8.38
		c0.34-9.47,0.35-18.97-0.01-28.44c-0.1-2.57-1.95-5.06-2.97-7.52h26.79v9.49c-3.87-9.24-10.87-6.26-17.34-6.77v16.2
		c7.25,1.99,10.87,1.13,14.46-3.73v12.28c-3.59-6.66-9.11-4.8-14.8-4.58c0,4.76-0.5,9.3,0.24,13.63c0.32,1.92,2.98,4.57,4.91,4.88
		C558.03,203.61,563.59,202.6,566.59,194.77z"/>
	<path d="M166.29,204.93c-1.65-3-3.69-5.96-4.96-9.21c-3.99-10.2-7.63-20.53-11.55-30.76c-0.57-1.48-1.96-2.64-2.96-3.95
		c-0.94,1.38-2.16,2.65-2.75,4.16c-4,10.2-7.74,20.51-11.82,30.67c-1.3,3.23-3.37,6.15-5.07,9.17h9.77
		c-2.3-3.2-1.27-14.09,1.64-14.54c4.68-0.72,10.35-1.19,14.24,0.84c4.08,2.12,3.67,10.67,0.59,13.62H166.29z M139.64,186.57
		c1.96-5.18,3.81-10.09,6.11-16.19c2.13,6,3.86,10.86,5.75,16.19H139.64z"/>
	<path d="M452.3,204.96c-1.75-3.3-3.89-6.56-5.29-10.11c-4.01-10.2-7.67-20.53-11.6-30.76c-0.45-1.19-1.7-2.06-2.58-3.08
		c-0.84,1.06-2.01,1.98-2.48,3.19c-3.64,9.45-7.01,19-10.76,28.41c-1.72,4.32-4.1,8.37-6.06,12.29h9.34
		c-2.2-2.92-1.58-13.35,1.4-14.04c4.65-1.06,10.63-1.55,14.47,0.58c4.23,2.34,3.7,10.52,0.58,13.52H452.3z M425.71,186.45
		c1.97-5.29,3.75-10.04,6.02-16.1c2.11,5.93,3.82,10.75,5.73,16.1H425.71z"/>
	<path d="M385.98,205.87c-18.95,3.95-33.37-10.48-29.07-29.1c2.69-11.69,14.33-18.72,27.38-16.55c0.49,0.08,0.96,0.28,1.45,0.37
		c7.1,1.35,7.1,1.34,6.19,8.14c-2.75-1.76-5.55-4.67-8.82-5.35c-3.5-0.72-7.66,0.02-11.13,1.27c-6.69,2.41-10.3,9.96-9.51,18.06
		c0.59,5.91,2.07,11.43,6.45,15.8c7.13,7.11,16.52,6.25,22.29-2.03c0.24-0.34,0.76-0.48,1.21-0.75
		C393.23,203.33,392.46,204.53,385.98,205.87z"/>
	<path d="M270.2,169.51c-3.54-6.38-9.09-5.6-15.02-5.27c0,11.89-0.16,23.48,0.16,35.06c0.05,1.96,2.15,3.88,3.2,5.65h-13.37
		c1.21-2.15,3.5-4.37,3.57-6.68c0.39-11.1,0.18-22.22,0.18-33.26c-7.42-1.9-10.57-0.77-15.33,4.91c0.42-2.93,0.83-5.86,1.25-8.86
		h34.17C269.41,163.93,269.81,166.72,270.2,169.51z"/>
	<path d="M219.38,195.43c-0.7,9.92-1,10.11-9.7,9.91c-6.45-0.14-12.91-0.03-18.36-0.03c0.92-3.09,2.44-5.99,2.55-8.95
		c0.33-8.81,0.4-17.66-0.05-26.46c-0.15-2.97-2.17-5.86-3.25-8.57h14.9c-4.94,1.84-5.66,5.3-5.53,9.5
		c0.23,7.65,0.05,15.32,0.07,22.97c0.01,3.47-0.63,7.57,3.97,8.57c4.66,1,9.32,0.56,12.9-3.24
		C217.74,198.22,218.3,197.05,219.38,195.43z"/>
</g>
</svg>
