<?xml version="1.0" encoding="utf-8"?>
<!-- Generator: Adobe Illustrator 23.0.2, SVG Export Plug-In . SVG Version: 6.00 Build 0)  -->
<svg version="1.1" id="Capa_1" xmlns="http://www.w3.org/2000/svg" xmlns:xlink="http://www.w3.org/1999/xlink" x="0px" y="0px"
	 viewBox="0 0 556.8 512" style="enable-background:new 0 0 556.8 512;" xml:space="preserve">
<g>
	<path d="M60.8,87h-0.2C27.2,87,0,114.2,0,147.7V477c0,19.3,15.7,35,35,35h51.6c19.3,0,35-15.7,35-35V147.7
		C121.5,114.2,94.3,87,60.8,87z"/>
	<path d="M541.8,147h-15v121.6H226.3V147h-30v121.6V286v211c0,8.3,6.7,15,15,15h330.5c8.3,0,15-6.7,15-15V278.9v-10.3V162
		C556.8,153.7,550.1,147,541.8,147z M282,444.5c-2.8,2.8-6.7,4.4-10.6,4.4c-4,0-7.8-1.6-10.6-4.4c-2.8-2.8-4.4-6.7-4.4-10.6
		c0-3.9,1.6-7.8,4.4-10.6c2.8-2.8,6.7-4.4,10.6-4.4c3.9,0,7.8,1.6,10.6,4.4c2.8,2.8,4.4,6.7,4.4,10.6
		C286.4,437.9,284.8,441.8,282,444.5z M282,384.5c-2.8,2.8-6.7,4.4-10.6,4.4c-4,0-7.8-1.6-10.6-4.4c-2.8-2.8-4.4-6.6-4.4-10.6
		c0-3.9,1.6-7.8,4.4-10.6c2.8-2.8,6.7-4.4,10.6-4.4c3.9,0,7.8,1.6,10.6,4.4c2.8,2.8,4.4,6.7,4.4,10.6
		C286.4,377.9,284.8,381.8,282,384.5z M282,324.5c-2.8,2.8-6.7,4.4-10.6,4.4c-4,0-7.8-1.6-10.6-4.4c-2.8-2.8-4.4-6.7-4.4-10.6
		c0-3.9,1.6-7.8,4.4-10.6c2.8-2.8,6.7-4.4,10.6-4.4c3.9,0,7.8,1.6,10.6,4.4c2.8,2.8,4.4,6.7,4.4,10.6
		C286.4,317.9,284.8,321.8,282,324.5z M342.1,444.5c-2.8,2.8-6.7,4.4-10.6,4.4c-4,0-7.8-1.6-10.6-4.4c-2.8-2.8-4.4-6.7-4.4-10.6
		c0-3.9,1.6-7.8,4.4-10.6s6.7-4.4,10.6-4.4c4,0,7.8,1.6,10.6,4.4c2.8,2.8,4.4,6.7,4.4,10.6C346.5,437.9,344.9,441.8,342.1,444.5z
		 M342.1,384.5c-2.8,2.8-6.7,4.4-10.6,4.4c-4,0-7.8-1.6-10.6-4.4c-2.8-2.8-4.4-6.6-4.4-10.6c0-3.9,1.6-7.8,4.4-10.6
		s6.7-4.4,10.6-4.4c3.9,0,7.8,1.6,10.6,4.4c2.8,2.8,4.4,6.7,4.4,10.6C346.5,377.9,344.8,381.8,342.1,384.5z M342.1,324.5
		c-2.8,2.8-6.7,4.4-10.6,4.4c-4,0-7.8-1.6-10.6-4.4c-2.8-2.8-4.4-6.7-4.4-10.6c0-3.9,1.6-7.8,4.4-10.6s6.7-4.4,10.6-4.4
		c4,0,7.8,1.6,10.6,4.4c2.8,2.8,4.4,6.7,4.4,10.6C346.5,317.9,344.9,321.8,342.1,324.5z M402.1,444.5c-2.8,2.8-6.7,4.4-10.6,4.4
		c-4,0-7.8-1.6-10.6-4.4c-2.8-2.8-4.4-6.7-4.4-10.6c0-3.9,1.6-7.8,4.4-10.6s6.7-4.4,10.6-4.4c3.9,0,7.8,1.6,10.6,4.4
		c2.8,2.8,4.4,6.7,4.4,10.6C406.5,437.9,404.8,441.8,402.1,444.5z M402.1,384.5c-2.8,2.8-6.7,4.4-10.6,4.4c-4,0-7.8-1.6-10.6-4.4
		c-2.8-2.8-4.4-6.6-4.4-10.6c0-3.9,1.6-7.8,4.4-10.6s6.7-4.4,10.6-4.4c3.9,0,7.8,1.6,10.6,4.4c2.8,2.8,4.4,6.7,4.4,10.6
		C406.5,377.9,404.8,381.8,402.1,384.5z M402.1,324.5c-2.8,2.8-6.7,4.4-10.6,4.4c-4,0-7.8-1.6-10.6-4.4c-2.8-2.8-4.4-6.7-4.4-10.6
		c0-3.9,1.6-7.8,4.4-10.6s6.7-4.4,10.6-4.4c3.9,0,7.8,1.6,10.6,4.4c2.8,2.8,4.4,6.7,4.4,10.6C406.5,317.9,404.8,321.8,402.1,324.5z
		 M481.8,388.9h-30.3c-8.3,0-15-6.7-15-15s6.7-15,15-15h30.3c8.3,0,15,6.7,15,15C496.8,382.2,490.1,388.9,481.8,388.9z M481.8,328.9
		h-30.3c-8.3,0-15-6.7-15-15s6.7-15,15-15h30.3c8.3,0,15,6.7,15,15C496.8,322.2,490.1,328.9,481.8,328.9z"/>
	<path d="M496.8,15c0-8.3-6.7-15-15-15H271.3c-8.3,0-15,6.7-15,15v223.6h240.5L496.8,15L496.8,15z M421.8,210h-94.4
		c-8.3,0-15-6.7-15-15s6.7-15,15-15h94.4c8.3,0,15,6.7,15,15C436.8,203.3,430.1,210,421.8,210z M421.8,150h-94.4
		c-8.3,0-15-6.7-15-15s6.7-15,15-15h94.4c8.3,0,15,6.7,15,15C436.8,143.3,430.1,150,421.8,150z M421.8,90h-94.4c-8.3,0-15-6.7-15-15
		s6.7-15,15-15h94.4c8.3,0,15,6.7,15,15C436.8,83.3,430.1,90,421.8,90z"/>
</g>
</svg>
