<!-- Generated by IcoMoon.io -->
<svg version="1.1" xmlns="http://www.w3.org/2000/svg" width="1024" height="1024" viewBox="0 0 1024 1024">
<title></title>
<g id="icomoon-ignore">
</g>
<path fill="#000" d="M768 426.667h-426.667c-9.421 0-17.067 7.629-17.067 17.067s7.646 17.067 17.067 17.067h426.667c9.421 0 17.067-7.629 17.067-17.067s-7.646-17.067-17.067-17.067z"></path>
<path fill="#000" d="M341.333 324.267h170.667c9.421 0 17.067-7.629 17.067-17.067s-7.646-17.067-17.067-17.067h-170.667c-9.421 0-17.067 7.629-17.067 17.067s7.646 17.067 17.067 17.067z"></path>
<path fill="#000" d="M768 563.2h-426.667c-9.421 0-17.067 7.629-17.067 17.067s7.646 17.067 17.067 17.067h426.667c9.421 0 17.067-7.629 17.067-17.067s-7.646-17.067-17.067-17.067z"></path>
<path fill="#000" d="M768 699.733h-426.667c-9.421 0-17.067 7.629-17.067 17.067s7.646 17.067 17.067 17.067h426.667c9.421 0 17.067-7.629 17.067-17.067s-7.646-17.067-17.067-17.067z"></path>
<path fill="#000" d="M768 836.267h-426.667c-9.421 0-17.067 7.629-17.067 17.067s7.646 17.067 17.067 17.067h426.667c9.421 0 17.067-7.629 17.067-17.067s-7.646-17.067-17.067-17.067z"></path>
<path fill="#000" d="M836.267 248.934v-248.934h-733.867v938.667h85.333v85.333h733.867v-689.732l-85.333-85.333zM682.667 143.599l180.668 180.668h-180.668v-180.668zM136.533 904.533v-870.4h665.6v180.668l-129.468-129.468h-484.932v819.2h-51.2zM221.867 989.867v-870.4h426.667v238.933h238.933v631.467h-665.6z"></path>
</svg>
