<?xml version="1.0" encoding="utf-8"?>
<!-- Generator: Adobe Illustrator 23.0.2, SVG Export Plug-In . SVG Version: 6.00 Build 0)  -->
<svg version="1.1" id="Layer_1" xmlns="http://www.w3.org/2000/svg" xmlns:xlink="http://www.w3.org/1999/xlink" x="0px" y="0px"
	 viewBox="0 0 685.6 34.1" style="enable-background:new 0 0 685.6 34.1;" xml:space="preserve">
<style type="text/css">
	.st0{fill-rule:evenodd;clip-rule:evenodd;}
</style>
<image style="display:none;overflow:visible;" width="476" height="82" xlink:href="5C7DBF37.jpg"  transform="matrix(1.7576 0 0 1.7576 -91.351 -58.7603)">
</image>
<path class="st0" d="M235.5,28.6c0,2.1,0,3.5-2.6,3.7c-1.1,0-1.9,0.2-1.9,0.8c0,0.8,0.6,0.8,1.1,0.8c1.8,0,4.5-0.2,6.2-0.2
	c1.8,0,4.5,0.2,6.2,0.2c0.5,0,1.1,0,1.1-0.8c0-0.6-0.8-0.8-2.2-0.8c-2.4-0.2-2.4-1.8-2.4-3.7v-8.9c0-2.4,0-2.4,3.8-2.4
	c1.3,0,4.6,0,5.3,2.9c0.2,0.2,0.5,1.6,0.6,1.9c0,0.3,0.3,0.8,0.8,0.8c0.6,0,0.6-0.6,0.6-1l-0.2-2.4v-2.6c0-0.8,0.2-4.3,0.2-5.1
	c0-0.5-0.2-0.8-0.6-0.8c-0.5,0-0.6,0.5-0.8,0.8c-0.8,2.7-1.4,3.8-5.6,3.8c-0.8,0-2.4,0-3.2-0.2c-0.6,0-0.8-0.2-0.8-2.9V5.8
	c0-2.4,0.8-2.6,2.6-2.6c7.7,0,8.5,1.8,9.7,4.5c0.1,0.3,0.4,1.1,1.1,1.1c0.5,0,0.5-0.8,0.5-1V2.3c0-0.6,0-0.8-0.8-0.8h-1.6
	c-1.3,0.2-4,0.2-9.4,0.2h-0.6c-5.1,0-7.7,0-8.9-0.2h-1.4c-0.5,0-1.1,0-1.1,0.6c0,0.8,0.8,0.8,1.9,1c2.6,0.2,2.6,1.4,2.6,3.7v21.8
	C235.7,28.6,235.5,28.6,235.5,28.6z"/>
<path class="st0" d="M270.8,5.8c-8.6,0-15.3,6.2-15.3,14c0,2.6,0.6,4.8,1.8,6.9c2.6,4.6,8,7.3,13.4,7.3c5.1,0,10.4-2.9,13.1-7.3
	c1.3-2.1,1.9-4.5,1.9-7.2C285.6,11.8,278.9,5.8,270.8,5.8z M270.9,32.9c-3.7,0-6.7-2.6-8.5-6.2c-1.1-2.4-1.8-4.9-1.8-7.7
	c0-6.4,3.2-12,9.4-12c7,0,10.2,7.3,10.2,12.6c0,2.4-0.5,4.8-1.3,7C277.5,30.2,274.7,32.9,270.9,32.9z"/>
<path class="st0" d="M309.8,32.4c-1.1-0.2-1.8-1.3-2.7-2.7l-1.8-3.3l-2.6-4.3c-1-1.9-1.4-2.1-2.1-2.4c1.4-0.3,6.1-1.4,6.1-6.5
	c0-1.6-0.6-7-8.5-7c-1.4,0-7.2,0.2-8.5,0.2c-0.5,0-2.7-0.2-3.2-0.2c-1.4,0-1.6,0-1.6,0.6s0.6,0.6,1.6,0.6c2.4,0.1,2.4,1.4,2.4,3.2
	v18.8c0,1.8,0,2.9-2.2,3c-1,0.2-1.6,0.2-1.6,0.8s0.6,0.6,1,0.6c0.8,0,4.3-0.2,5.1-0.2c0.2,0,4.5,0.2,5.3,0.2c0.5,0,1,0,1-0.6
	s-0.6-0.6-1.6-0.8c-2.2,0-2.2-1.3-2.2-3v-7.9c0-0.8,0.2-1.1,1-1.1c1.9,0,2.2,0.2,3.2,2.1l2.1,4l3.2,6.1c0.5,1,0.6,1.4,1.4,1.4
	c0.5,0,2.1-0.2,2.4-0.2c0.8,0,3.7,0.2,4.1,0.2c0.3,0,0.8,0,0.8-0.6C311.7,32.7,311.4,32.7,309.8,32.4z M295.8,19.2
	c-2.2,0-2.2-0.2-2.2-1.6v-7.5c0-1.8,0.2-2.7,2.1-2.7c5.6,0,6.2,4.6,6.2,6.2C301.9,19.2,297.4,19.2,295.8,19.2z"/>
<path class="st0" d="M338.4,32.4c-1.3-0.2-1.9-1.3-2.7-2.7l-1.9-3.3l-2.4-4.3c-1.1-1.9-1.6-2.1-2.2-2.4c1.6-0.3,6.2-1.4,6.2-6.5
	c0-1.6-0.8-7-8.6-7c-1.3,0-7.2,0.2-8.5,0.2c-0.5,0-2.6-0.2-3-0.2c-1.4,0-1.6,0-1.6,0.6s0.5,0.6,1.6,0.6c2.1,0.2,2.1,1.4,2.1,3.2
	v18.8c0,1.8,0,2.9-2.1,3c-1,0.2-1.6,0.2-1.6,0.8s0.5,0.6,0.8,0.6c0.8,0,4.5-0.2,5.3-0.2c0.2,0,4.5,0.2,5.3,0.2c0.3,0,1,0,1-0.6
	s-0.6-0.6-1.6-0.8c-2.2,0-2.2-1.3-2.2-3v-7.9c0-0.8,0-1.1,0.8-1.1c2.1,0,2.2,0.2,3.2,2.1l2.1,4l3.3,6.1c0.5,1,0.6,1.4,1.4,1.4
	c0.3,0,2.1-0.2,2.4-0.2c0.6,0,3.5,0.2,4.1,0.2c0.3,0,0.6,0,0.6-0.6C340.1,32.7,339.8,32.7,338.4,32.4L338.4,32.4z M324.3,19.2
	c-2.2,0-2.2-0.2-2.2-1.6v-7.5c0-1.8,0-2.7,2.1-2.7c5.4,0,6.1,4.6,6.1,6.2C330.3,19.2,325.9,19.2,324.3,19.2z"/>
<path class="st0" d="M345.1,29.2c0,1.9,0,3-2.1,3.2c-1,0-1.6,0.2-1.6,0.8s0.5,0.6,0.8,0.6c0.3,0,0.8,0,1.4-0.2h3.7h0.5h4.9
	c2.6,0.2,5.6,0.2,7.8,0.2c1.3,0,1.8-0.5,1.8-1.4c0.2-1.6,0.6-4.5,0.6-4.9c0-0.3-0.2-0.6-0.5-0.6c-0.5,0-0.5,0.2-1.3,1.8
	c-1.9,3.7-4.8,3.7-6.7,3.7c-3.7,0-4.6-0.5-4.6-3.7v-7.5c0-1.4,0.3-1.4,2.6-1.4c3.5,0,4.8,0.2,5.7,3.5c0.2,0.8,0.5,1.1,0.8,1.1
	c0.6,0,0.6-0.6,0.6-1c0-0.3-0.2-1.9-0.2-2.2c0-1,0.3-5.4,0.3-6.1c0-0.5-0.3-0.6-0.5-0.6c-0.3,0-0.5,0-0.6,0.6
	c-0.8,2.4-1.3,3.3-6.2,3.3c-2.6,0-2.6-0.3-2.6-1.8v-6.5c0-2.1,0.2-2.4,2.4-2.4c6.4,0,7.3,1.6,8,2.7c0.8,1.8,0.8,1.9,1.3,1.9
	s0.5-0.6,0.5-0.8v-4c0-1.1,0-1.4-0.5-1.4c-0.2,0-0.3,0-1.4,0.2h-8h-2.1h-6.7c-1-0.2-1-0.2-1.1-0.2c-0.3,0-0.8,0-0.8,0.6
	s0.5,0.6,1.6,0.8c2.1,0,2.1,1.3,2.1,3L345.1,29.2L345.1,29.2L345.1,29.2z"/>
<path class="st0" d="M383,25.1c0-4.9-4.6-7.2-7.2-8.3c-3.5-1.4-6.1-2.6-6.1-5.6c0-1.8,1.1-4.3,4.8-4.3s4.5,2.6,5.1,4.3
	c0.3,1.3,0.5,1.6,1,1.6c0.6,0,0.6-0.3,0.6-1.3c0-4,0-4.3-0.5-4.6c-0.5-0.3-3.1-1.1-5.8-1.1c-5.6,0-8.6,3.5-8.6,7.7
	c0,4.6,3.5,6.4,7,8c3.2,1.4,6.2,3.2,6.2,6.5c0,3.7-3.3,4.9-5.3,4.9c-3.2,0-6.2-2.7-7-6.7c0-0.3-0.2-0.8-0.6-0.8
	c-0.5,0-0.5,0.6-0.5,0.8c-0.2,1.6-0.2,3.8-0.2,4c0,1.1,0,1.8,0.5,2.1c0.8,0.6,3.7,1.8,7,1.8C379.4,34,383,30,383,25.1z"/>
<path class="st0" d="M399.3,9.1c0-1.4,0.3-1.4,2.9-1.4c2.9,0,4.9,0,5.7,4.1c0.2,1,0.5,1,0.6,1c0.6,0,0.8-0.5,0.8-1.3l0.3-5.4
	c0-1.1,0-1.8-0.6-1.8c-0.3,0-0.5,0.2-0.6,0.6c-0.3,0.6-0.5,1.3-5.1,1.3h-14.2c-1,0-1.8,0-2.1-1.3c0-0.3-0.2-0.6-0.5-0.6
	c-0.3,0-0.5,0.3-0.6,0.8l-1.8,6.4c-0.2,0.2-0.2,0.5-0.2,0.6c0,0.3,0.2,0.6,0.5,0.6c0.5,0,0.6-0.3,1.1-1c2.2-4.1,5.1-4.1,7.8-4.1
	c0.8,0,1.3,0,1.3,1.1v20.6c0,1.8,0,2.9-2.2,3c-1,0-1.6,0.2-1.6,0.8s0.6,0.6,1,0.6c0.8,0,4.5-0.2,5.1-0.2c1.6,0,3.8,0.2,5.3,0.2
	c0.3,0,1,0,1-0.6c0-0.8-0.6-0.8-1.6-0.8c-2.2-0.2-2.2-1.3-2.2-3.2v-20L399.3,9.1L399.3,9.1z"/>
<path class="st0" d="M416.2,29.2c0,1.9,0,3-2.2,3.2c-1,0-1.6,0.2-1.6,0.8s0.6,0.6,1,0.6c0.3,0,0.6,0,1.3-0.2h3.7h0.6h4.8
	c2.6,0.2,5.7,0.2,8,0.2c1.3,0,1.8-0.5,1.8-1.4c0.2-1.6,0.6-4.5,0.6-4.9c0-0.3-0.2-0.6-0.6-0.6c-0.3,0-0.5,0.2-1.3,1.8
	c-1.9,3.7-4.6,3.7-6.5,3.7c-3.8,0-4.6-0.5-4.6-3.7v-7.5c0-1.4,0.3-1.4,2.4-1.4c3.7,0,4.9,0.2,5.9,3.5c0.2,0.8,0.5,1.1,0.8,1.1
	c0.5,0,0.5-0.6,0.5-1c0-0.3-0.2-1.9-0.2-2.2c0-1,0.3-5.4,0.3-6.1c0-0.5-0.2-0.6-0.5-0.6c-0.2,0-0.5,0-0.6,0.6
	c-0.8,2.4-1.1,3.3-6.1,3.3c-2.6,0-2.6-0.3-2.6-1.8v-6.5c0-2.1,0.2-2.4,2.4-2.4c6.2,0,7.3,1.6,7.8,2.7c0.8,1.8,1,1.9,1.4,1.9
	c0.3,0,0.3-0.6,0.3-0.8v-4c0-1.1,0-1.4-0.5-1.4c-0.2,0-0.2,0-1.3,0.2h-8H421h-6.5l-1.1-0.2c-0.3,0-1,0-1,0.6s0.6,0.6,1.6,0.8
	c2.2,0,2.2,1.3,2.2,3V29.2L416.2,29.2z"/>
<path class="st0" d="M461.7,32.4c-1.1-0.2-1.8-1.3-2.7-2.7l-1.8-3.3l-2.6-4.3c-1-1.9-1.4-2.1-2.1-2.4c1.4-0.3,6.1-1.4,6.1-6.5
	c0-1.6-0.6-7-8.5-7c-1.4,0-7.3,0.2-8.5,0.2c-0.5,0-2.7-0.2-3.2-0.2c-1.4,0-1.6,0-1.6,0.6s0.6,0.6,1.6,0.6c2.2,0.2,2.2,1.4,2.2,3.2
	v18.8c0,1.8,0,2.9-2.2,3c-1,0.2-1.6,0.2-1.6,0.8s0.6,0.6,1,0.6c0.8,0,4.3-0.2,5.1-0.2c0.2,0,4.5,0.2,5.3,0.2c0.5,0,1,0,1-0.6
	s-0.6-0.6-1.6-0.8c-2.2,0-2.2-1.3-2.2-3v-7.9c0-0.8,0.2-1.1,1-1.1c1.9,0,2.1,0.2,3.2,2.1l2.1,4l3.2,6.1c0.5,1,0.6,1.4,1.4,1.4
	c0.5,0,2.1-0.2,2.4-0.2c0.6,0,3.5,0.2,4.1,0.2c0.3,0,0.8,0,0.8-0.6C463.6,32.7,463.3,32.7,461.7,32.4z M447.6,19.2
	c-2.2,0-2.2-0.2-2.2-1.6v-7.5c0-1.8,0.2-2.7,2.1-2.7c5.6,0,6.2,4.6,6.2,6.2C453.7,19.2,449.2,19.2,447.6,19.2z"/>
<path class="st0" d="M465.5,4.7c0-0.2-0.2-0.2,0-0.3c0.3,0,0.8-0.5,0.8-1.1c0-1-1-1.1-1.9-1.1h-1.8v0.3h0.2c0.3,0,0.3,0.2,0.3,0.8
	v2.2c0,1,0,1-0.3,1h-0.3c0,0.2,0,0.3,0.2,0.3h1h1.1V6.5h-0.2c-0.5,0-0.5-0.2-0.5-1V4.8c0-0.2,0-0.2,0.2-0.2c0.2,0,0.3,0,0.5,0.2
	c0.2,0.3,0.3,0.8,0.5,1c0.5,0.8,0.8,1,1.4,1h0.6V6.6c-0.2,0-0.3,0-0.5-0.2C466.3,6.1,466,5.5,465.5,4.7z M465.2,4.2
	c-0.2,0.2-0.5,0.2-0.6,0.2c-0.5,0-0.5,0-0.5-0.2V2.7c0-0.3,0-0.3,0.3-0.3c0.6,0,1,0.5,1,1C465.4,3.7,465.4,4,465.2,4.2z"/>
<path class="st0" d="M467.9,1.3C467.1,0.5,466,0,464.7,0c-1.3,0-2.4,0.5-3.2,1.3s-1.3,1.9-1.3,3c0,2.4,1.9,4.5,4.5,4.5
	c2.6,0,4.3-2.1,4.3-4.5C469,3.2,468.7,2.1,467.9,1.3z M464.7,8.2c-2.1,0-3.7-1.6-3.7-3.8c0-1.3,0.5-2.4,1.4-3
	c0.6-0.5,1.3-0.8,2.2-0.8c0.8,0,1.6,0.3,2.1,0.8c1,0.6,1.6,1.8,1.6,3C468.4,6.6,466.6,8.2,464.7,8.2z"/>
<rect y="19.6" width="202.8" height="1"/>
<rect x="482.8" y="19.6" width="202.8" height="1"/>
</svg>
