<?xml version="1.0" encoding="utf-8"?>
<!-- Generator: Adobe Illustrator 23.0.2, SVG Export Plug-In . SVG Version: 6.00 Build 0)  -->
<svg version="1.1" id="Layer_1" xmlns="http://www.w3.org/2000/svg" xmlns:xlink="http://www.w3.org/1999/xlink" x="0px" y="0px"
	 viewBox="0 0 238 34.1" style="enable-background:new 0 0 238 34.1;" xml:space="preserve">
<path style="fill-rule:evenodd;clip-rule:evenodd;" d="M4.5,28.6c0,2.1,0,3.5-2.6,3.7c-1.1,0-1.9,0.2-1.9,0.8c0,0.8,0.6,0.8,1.1,0.8
	c1.8,0,4.5-0.2,6.2-0.2c1.8,0,4.5,0.2,6.2,0.2c0.5,0,1.1,0,1.1-0.8c0-0.6-0.8-0.8-2.2-0.8C10,32.1,10,30.5,10,28.6v-8.9
	c0-2.4,0-2.4,3.8-2.4c1.3,0,4.6,0,5.3,2.9c0.2,0.2,0.5,1.6,0.6,1.9c0,0.3,0.3,0.8,0.8,0.8c0.6,0,0.6-0.6,0.6-1l-0.2-2.4v-2.6
	c0-0.8,0.2-4.3,0.2-5.1c0-0.5-0.2-0.8-0.6-0.8c-0.5,0-0.6,0.5-0.8,0.8c-0.8,2.7-1.4,3.8-5.6,3.8c-0.8,0-2.4,0-3.2-0.2
	c-0.6,0-0.8-0.2-0.8-2.9V5.8c0-2.4,0.8-2.6,2.6-2.6c7.7,0,8.5,1.8,9.7,4.5c0.1,0.3,0.4,1.1,1.1,1.1C24,8.8,24,8,24,7.8V2.3
	c0-0.6,0-0.8-0.8-0.8h-1.6c-1.3,0.2-4,0.2-9.4,0.2h-0.6c-5.1,0-7.7,0-8.9-0.2H1.3c-0.5,0-1.1,0-1.1,0.6c0,0.8,0.8,0.8,1.9,1
	c2.6,0.2,2.6,1.4,2.6,3.7v21.8C4.7,28.6,4.5,28.6,4.5,28.6z"/>
<path style="fill-rule:evenodd;clip-rule:evenodd;" d="M39.8,5.8c-8.6,0-15.3,6.2-15.3,14c0,2.6,0.6,4.8,1.8,6.9
	c2.6,4.6,8,7.3,13.4,7.3c5.1,0,10.4-2.9,13.1-7.3c1.3-2.1,1.9-4.5,1.9-7.2C54.6,11.8,47.9,5.8,39.8,5.8z M39.9,32.9
	c-3.7,0-6.7-2.6-8.5-6.2c-1.1-2.4-1.8-4.9-1.8-7.7c0-6.4,3.2-12,9.4-12c7,0,10.2,7.3,10.2,12.6c0,2.4-0.5,4.8-1.3,7
	C46.5,30.2,43.7,32.9,39.9,32.9z"/>
<path style="fill-rule:evenodd;clip-rule:evenodd;" d="M78.8,32.4c-1.1-0.2-1.8-1.3-2.7-2.7l-1.8-3.3l-2.6-4.3
	c-1-1.9-1.4-2.1-2.1-2.4c1.4-0.3,6.1-1.4,6.1-6.5c0-1.6-0.6-7-8.5-7c-1.4,0-7.2,0.2-8.5,0.2c-0.5,0-2.7-0.2-3.2-0.2
	c-1.4,0-1.6,0-1.6,0.6c0,0.6,0.6,0.6,1.6,0.6c2.4,0.1,2.4,1.4,2.4,3.2v18.8c0,1.8,0,2.9-2.2,3c-1,0.2-1.6,0.2-1.6,0.8s0.6,0.6,1,0.6
	c0.8,0,4.3-0.2,5.1-0.2c0.2,0,4.5,0.2,5.3,0.2c0.5,0,1,0,1-0.6s-0.6-0.6-1.6-0.8c-2.2,0-2.2-1.3-2.2-3v-7.9c0-0.8,0.2-1.1,1-1.1
	c1.9,0,2.2,0.2,3.2,2.1l2.1,4l3.2,6.1c0.5,1,0.6,1.4,1.4,1.4c0.5,0,2.1-0.2,2.4-0.2c0.8,0,3.7,0.2,4.1,0.2c0.3,0,0.8,0,0.8-0.6
	C80.7,32.7,80.4,32.7,78.8,32.4z M64.8,19.2c-2.2,0-2.2-0.2-2.2-1.6v-7.5c0-1.8,0.2-2.7,2.1-2.7c5.6,0,6.2,4.6,6.2,6.2
	C70.9,19.2,66.4,19.2,64.8,19.2z"/>
<path style="fill-rule:evenodd;clip-rule:evenodd;" d="M107.4,32.4c-1.3-0.2-1.9-1.3-2.7-2.7l-1.9-3.3l-2.4-4.3
	c-1.1-1.9-1.6-2.1-2.2-2.4c1.6-0.3,6.2-1.4,6.2-6.5c0-1.6-0.8-7-8.6-7c-1.3,0-7.2,0.2-8.5,0.2c-0.5,0-2.6-0.2-3-0.2
	c-1.4,0-1.6,0-1.6,0.6c0,0.6,0.5,0.6,1.6,0.6c2.1,0.2,2.1,1.4,2.1,3.2v18.8c0,1.8,0,2.9-2.1,3c-1,0.2-1.6,0.2-1.6,0.8
	s0.5,0.6,0.8,0.6c0.8,0,4.5-0.2,5.3-0.2c0.2,0,4.5,0.2,5.3,0.2c0.3,0,1,0,1-0.6s-0.6-0.6-1.6-0.8c-2.2,0-2.2-1.3-2.2-3v-7.9
	c0-0.8,0-1.1,0.8-1.1c2.1,0,2.2,0.2,3.2,2.1l2.1,4l3.3,6.1c0.5,1,0.6,1.4,1.4,1.4c0.3,0,2.1-0.2,2.4-0.2c0.6,0,3.5,0.2,4.1,0.2
	c0.3,0,0.6,0,0.6-0.6C109.1,32.7,108.8,32.7,107.4,32.4L107.4,32.4z M93.3,19.2c-2.2,0-2.2-0.2-2.2-1.6v-7.5c0-1.8,0-2.7,2.1-2.7
	c5.4,0,6.1,4.6,6.1,6.2C99.3,19.2,94.9,19.2,93.3,19.2z"/>
<path style="fill-rule:evenodd;clip-rule:evenodd;" d="M114.1,29.2c0,1.9,0,3-2.1,3.2c-1,0-1.6,0.2-1.6,0.8s0.5,0.6,0.8,0.6
	s0.8,0,1.4-0.2h3.7h0.5h4.9c2.6,0.2,5.6,0.2,7.8,0.2c1.3,0,1.8-0.5,1.8-1.4c0.2-1.6,0.6-4.5,0.6-4.9c0-0.3-0.2-0.6-0.5-0.6
	c-0.5,0-0.5,0.2-1.3,1.8c-1.9,3.7-4.8,3.7-6.7,3.7c-3.7,0-4.6-0.5-4.6-3.7v-7.5c0-1.4,0.3-1.4,2.6-1.4c3.5,0,4.8,0.2,5.7,3.5
	c0.2,0.8,0.5,1.1,0.8,1.1c0.6,0,0.6-0.6,0.6-1c0-0.3-0.2-1.9-0.2-2.2c0-1,0.3-5.4,0.3-6.1c0-0.5-0.3-0.6-0.5-0.6
	c-0.3,0-0.5,0-0.6,0.6c-0.8,2.4-1.3,3.3-6.2,3.3c-2.6,0-2.6-0.3-2.6-1.8v-6.5c0-2.1,0.2-2.4,2.4-2.4c6.4,0,7.3,1.6,8,2.7
	c0.8,1.8,0.8,1.9,1.3,1.9s0.5-0.6,0.5-0.8v-4c0-1.1,0-1.4-0.5-1.4c-0.2,0-0.3,0-1.4,0.2h-8h-2.1h-6.7c-1-0.2-1-0.2-1.1-0.2
	c-0.3,0-0.8,0-0.8,0.6c0,0.6,0.5,0.6,1.6,0.8c2.1,0,2.1,1.3,2.1,3v18.7L114.1,29.2L114.1,29.2z"/>
<path style="fill-rule:evenodd;clip-rule:evenodd;" d="M152,25.1c0-4.9-4.6-7.2-7.2-8.3c-3.5-1.4-6.1-2.6-6.1-5.6
	c0-1.8,1.1-4.3,4.8-4.3s4.5,2.6,5.1,4.3c0.3,1.3,0.5,1.6,1,1.6c0.6,0,0.6-0.3,0.6-1.3c0-4,0-4.3-0.5-4.6c-0.5-0.3-3.1-1.1-5.8-1.1
	c-5.6,0-8.6,3.5-8.6,7.7c0,4.6,3.5,6.4,7,8c3.2,1.4,6.2,3.2,6.2,6.5c0,3.7-3.3,4.9-5.3,4.9c-3.2,0-6.2-2.7-7-6.7
	c0-0.3-0.2-0.8-0.6-0.8c-0.5,0-0.5,0.6-0.5,0.8c-0.2,1.6-0.2,3.8-0.2,4c0,1.1,0,1.8,0.5,2.1c0.8,0.6,3.7,1.8,7,1.8
	C148.4,34,152,30,152,25.1z"/>
<path style="fill-rule:evenodd;clip-rule:evenodd;" d="M168.3,9.1c0-1.4,0.3-1.4,2.9-1.4c2.9,0,4.9,0,5.7,4.1c0.2,1,0.5,1,0.6,1
	c0.6,0,0.8-0.5,0.8-1.3l0.3-5.4c0-1.1,0-1.8-0.6-1.8c-0.3,0-0.5,0.2-0.6,0.6c-0.3,0.6-0.5,1.3-5.1,1.3h-14.2c-1,0-1.8,0-2.1-1.3
	c0-0.3-0.2-0.6-0.5-0.6s-0.5,0.3-0.6,0.8l-1.8,6.4c-0.2,0.2-0.2,0.5-0.2,0.6c0,0.3,0.2,0.6,0.5,0.6c0.5,0,0.6-0.3,1.1-1
	c2.2-4.1,5.1-4.1,7.8-4.1c0.8,0,1.3,0,1.3,1.1v20.6c0,1.8,0,2.9-2.2,3c-1,0-1.6,0.2-1.6,0.8s0.6,0.6,1,0.6c0.8,0,4.5-0.2,5.1-0.2
	c1.6,0,3.8,0.2,5.3,0.2c0.3,0,1,0,1-0.6c0-0.8-0.6-0.8-1.6-0.8c-2.2-0.2-2.2-1.3-2.2-3.2v-20L168.3,9.1L168.3,9.1z"/>
<path style="fill-rule:evenodd;clip-rule:evenodd;" d="M185.2,29.2c0,1.9,0,3-2.2,3.2c-1,0-1.6,0.2-1.6,0.8s0.6,0.6,1,0.6
	c0.3,0,0.6,0,1.3-0.2h3.7h0.6h4.8c2.6,0.2,5.7,0.2,8,0.2c1.3,0,1.8-0.5,1.8-1.4c0.2-1.6,0.6-4.5,0.6-4.9c0-0.3-0.2-0.6-0.6-0.6
	c-0.3,0-0.5,0.2-1.3,1.8c-1.9,3.7-4.6,3.7-6.5,3.7c-3.8,0-4.6-0.5-4.6-3.7v-7.5c0-1.4,0.3-1.4,2.4-1.4c3.7,0,4.9,0.2,5.9,3.5
	c0.2,0.8,0.5,1.1,0.8,1.1c0.5,0,0.5-0.6,0.5-1c0-0.3-0.2-1.9-0.2-2.2c0-1,0.3-5.4,0.3-6.1c0-0.5-0.2-0.6-0.5-0.6
	c-0.2,0-0.5,0-0.6,0.6c-0.8,2.4-1.1,3.3-6.1,3.3c-2.6,0-2.6-0.3-2.6-1.8v-6.5c0-2.1,0.2-2.4,2.4-2.4c6.2,0,7.3,1.6,7.8,2.7
	c0.8,1.8,1,1.9,1.4,1.9c0.3,0,0.3-0.6,0.3-0.8v-4c0-1.1,0-1.4-0.5-1.4c-0.2,0-0.2,0-1.3,0.2h-8H190h-6.5l-1.1-0.2c-0.3,0-1,0-1,0.6
	c0,0.6,0.6,0.6,1.6,0.8c2.2,0,2.2,1.3,2.2,3L185.2,29.2L185.2,29.2z"/>
<path style="fill-rule:evenodd;clip-rule:evenodd;" d="M230.7,32.4c-1.1-0.2-1.8-1.3-2.7-2.7l-1.8-3.3l-2.6-4.3
	c-1-1.9-1.4-2.1-2.1-2.4c1.4-0.3,6.1-1.4,6.1-6.5c0-1.6-0.6-7-8.5-7c-1.4,0-7.3,0.2-8.5,0.2c-0.5,0-2.7-0.2-3.2-0.2
	c-1.4,0-1.6,0-1.6,0.6c0,0.6,0.6,0.6,1.6,0.6c2.2,0.2,2.2,1.4,2.2,3.2v18.8c0,1.8,0,2.9-2.2,3c-1,0.2-1.6,0.2-1.6,0.8s0.6,0.6,1,0.6
	c0.8,0,4.3-0.2,5.1-0.2c0.2,0,4.5,0.2,5.3,0.2c0.5,0,1,0,1-0.6s-0.6-0.6-1.6-0.8c-2.2,0-2.2-1.3-2.2-3v-7.9c0-0.8,0.2-1.1,1-1.1
	c1.9,0,2.1,0.2,3.2,2.1l2.1,4l3.2,6.1c0.5,1,0.6,1.4,1.4,1.4c0.5,0,2.1-0.2,2.4-0.2c0.6,0,3.5,0.2,4.1,0.2c0.3,0,0.8,0,0.8-0.6
	C232.6,32.7,232.3,32.7,230.7,32.4z M216.6,19.2c-2.2,0-2.2-0.2-2.2-1.6v-7.5c0-1.8,0.2-2.7,2.1-2.7c5.6,0,6.2,4.6,6.2,6.2
	C222.7,19.2,218.2,19.2,216.6,19.2z"/>
<path style="fill-rule:evenodd;clip-rule:evenodd;" d="M234.5,4.7c0-0.2-0.2-0.2,0-0.3c0.3,0,0.8-0.5,0.8-1.1c0-1-1-1.1-1.9-1.1
	h-1.8v0.3h0.2c0.3,0,0.3,0.2,0.3,0.8v2.2c0,1,0,1-0.3,1h-0.3c0,0.2,0,0.3,0.2,0.3h1h1.1V6.5h-0.2c-0.5,0-0.5-0.2-0.5-1V4.8
	c0-0.2,0-0.2,0.2-0.2s0.3,0,0.5,0.2c0.2,0.3,0.3,0.8,0.5,1c0.5,0.8,0.8,1,1.4,1h0.6V6.6c-0.2,0-0.3,0-0.5-0.2
	C235.3,6.1,235,5.5,234.5,4.7z M234.2,4.2c-0.2,0.2-0.5,0.2-0.6,0.2c-0.5,0-0.5,0-0.5-0.2V2.7c0-0.3,0-0.3,0.3-0.3c0.6,0,1,0.5,1,1
	C234.4,3.7,234.4,4,234.2,4.2z"/>
<path style="fill-rule:evenodd;clip-rule:evenodd;" d="M236.9,1.3C236.1,0.5,235,0,233.7,0s-2.4,0.5-3.2,1.3s-1.3,1.9-1.3,3
	c0,2.4,1.9,4.5,4.5,4.5s4.3-2.1,4.3-4.5C238,3.2,237.7,2.1,236.9,1.3z M233.7,8.2c-2.1,0-3.7-1.6-3.7-3.8c0-1.3,0.5-2.4,1.4-3
	c0.6-0.5,1.3-0.8,2.2-0.8c0.8,0,1.6,0.3,2.1,0.8c1,0.6,1.6,1.8,1.6,3C237.4,6.6,235.6,8.2,233.7,8.2z"/>
</svg>
