<?xml version="1.0" encoding="UTF-8"?>
<svg viewBox="0 0 238.4 69.8" xmlns="http://www.w3.org/2000/svg">
<style type="text/css">.st0{fill-rule:evenodd;clip-rule:evenodd;fill:#000;}
                  .st1{fill:#000;}
                    *{fill:#000;}
                    ellipse,g,path,polygon,rect{fill:#000}</style>
<title>Forrester</title>
<path class="st0" d="m4.6 28.8c0 2.1 0 3.5-2.6 3.7-1.1 0-1.9 0.2-1.9 0.8 0 0.8 0.6 0.8 1.1 0.8 1.8 0 4.5-0.2 6.2-0.2 1.8 0 4.5 0.2 6.2 0.2 0.5 0 1.1 0 1.1-0.8 0-0.6-0.8-0.8-2.2-0.8-2.4-0.2-2.4-1.8-2.4-3.7v-8.9c0-2.4 0-2.4 3.8-2.4 1.3 0 4.6 0 5.3 2.9 0.2 0.2 0.5 1.6 0.6 1.9 0 0.3 0.3 0.8 0.8 0.8 0.6 0 0.6-0.6 0.6-1l-0.2-2.4v-2.6c0-0.8 0.2-4.3 0.2-5.1 0-0.5-0.2-0.8-0.6-0.8-0.5 0-0.6 0.5-0.8 0.8-0.8 2.7-1.4 3.8-5.6 3.8-0.8 0-2.4 0-3.2-0.2-0.6 0-0.8-0.2-0.8-2.9v-6.7c0-2.4 0.8-2.6 2.6-2.6 7.7 0 8.5 1.8 9.7 4.5 0.1 0.3 0.4 1.1 1.1 1.1 0.5 0 0.5-0.8 0.5-1v-5.5c0-0.6 0-0.8-0.8-0.8h-1.6c-1.3 0.2-4 0.2-9.4 0.2h-0.6c-5.1 0-7.7 0-8.9-0.2h-1.4c-0.5 0-1.1 0-1.1 0.6 0 0.8 0.8 0.8 1.9 1 2.6 0.2 2.6 1.4 2.6 3.7v21.8h-0.2z"/>
<path class="st0" d="M39.9 6c-8.6 0-15.3 6.2-15.3 14 0 2.6 0.6 4.8 1.8 6.9 2.6 4.6 8 7.3 13.4 7.3 5.1 0 10.4-2.9 13.1-7.3 1.3-2.1 1.9-4.5 1.9-7.2C54.7 12 48 6 39.9 6zM40 33.1c-3.7 0-6.7-2.6-8.5-6.2 -1.1-2.4-1.8-4.9-1.8-7.7 0-6.4 3.2-12 9.4-12 7 0 10.2 7.3 10.2 12.6 0 2.4-0.5 4.8-1.3 7C46.6 30.4 43.8 33.1 40 33.1z"/>
<path class="st0" d="m78.9 32.6c-1.1-0.2-1.8-1.3-2.7-2.7l-1.8-3.3-2.6-4.3c-1-1.9-1.4-2.1-2.1-2.4 1.4-0.3 6.1-1.4 6.1-6.5 0-1.6-0.6-7-8.5-7-1.4 0-7.2 0.2-8.5 0.2-0.5 0-2.7-0.2-3.2-0.2-1.4 0-1.6 0-1.6 0.6s0.6 0.6 1.6 0.6c2.4 0.1 2.4 1.4 2.4 3.2v18.8c0 1.8 0 2.9-2.2 3-1 0.2-1.6 0.2-1.6 0.8s0.6 0.6 1 0.6c0.8 0 4.3-0.2 5.1-0.2 0.2 0 4.5 0.2 5.3 0.2 0.5 0 1 0 1-0.6s-0.6-0.6-1.6-0.8c-2.2 0-2.2-1.3-2.2-3v-7.9c0-0.8 0.2-1.1 1-1.1 1.9 0 2.2 0.2 3.2 2.1l2.1 4 3.2 6.1c0.5 1 0.6 1.4 1.4 1.4 0.5 0 2.1-0.2 2.4-0.2 0.8 0 3.7 0.2 4.1 0.2 0.3 0 0.8 0 0.8-0.6-0.2-0.7-0.5-0.7-2.1-1zm-14-13.2c-2.2 0-2.2-0.2-2.2-1.6v-7.5c0-1.8 0.2-2.7 2.1-2.7 5.6 0 6.2 4.6 6.2 6.2 0 5.6-4.5 5.6-6.1 5.6z"/>
<path class="st0" d="m107.5 32.6c-1.3-0.2-1.9-1.3-2.7-2.7l-1.9-3.3-2.4-4.3c-1.1-1.9-1.6-2.1-2.2-2.4 1.6-0.3 6.2-1.4 6.2-6.5 0-1.6-0.8-7-8.6-7-1.3 0-7.2 0.2-8.5 0.2-0.5 0-2.6-0.2-3-0.2-1.4 0-1.6 0-1.6 0.6s0.5 0.6 1.6 0.6c2.1 0.2 2.1 1.4 2.1 3.2v18.8c0 1.8 0 2.9-2.1 3-1 0.2-1.6 0.2-1.6 0.8s0.5 0.6 0.8 0.6c0.8 0 4.5-0.2 5.3-0.2 0.2 0 4.5 0.2 5.3 0.2 0.3 0 1 0 1-0.6s-0.6-0.6-1.6-0.8c-2.2 0-2.2-1.3-2.2-3v-7.9c0-0.8 0-1.1 0.8-1.1 2.1 0 2.2 0.2 3.2 2.1l2.1 4 3.3 6.1c0.5 1 0.6 1.4 1.4 1.4 0.3 0 2.1-0.2 2.4-0.2 0.6 0 3.5 0.2 4.1 0.2 0.3 0 0.6 0 0.6-0.6-0.1-0.7-0.4-0.7-1.8-1zm-14.1-13.2c-2.2 0-2.2-0.2-2.2-1.6v-7.5c0-1.8 0-2.7 2.1-2.7 5.4 0 6.1 4.6 6.1 6.2 0 5.6-4.4 5.6-6 5.6z"/>
<path class="st0" d="m114.2 29.4c0 1.9 0 3-2.1 3.2-1 0-1.6 0.2-1.6 0.8s0.5 0.6 0.8 0.6 0.8 0 1.4-0.2h3.7 0.5 4.9c2.6 0.2 5.6 0.2 7.8 0.2 1.3 0 1.8-0.5 1.8-1.4 0.2-1.6 0.6-4.5 0.6-4.9 0-0.3-0.2-0.6-0.5-0.6-0.5 0-0.5 0.2-1.3 1.8-1.9 3.7-4.8 3.7-6.7 3.7-3.7 0-4.6-0.5-4.6-3.7v-7.5c0-1.4 0.3-1.4 2.6-1.4 3.5 0 4.8 0.2 5.7 3.5 0.2 0.8 0.5 1.1 0.8 1.1 0.6 0 0.6-0.6 0.6-1 0-0.3-0.2-1.9-0.2-2.2 0-1 0.3-5.4 0.3-6.1 0-0.5-0.3-0.6-0.5-0.6-0.3 0-0.5 0-0.6 0.6-0.8 2.4-1.3 3.3-6.2 3.3-2.6 0-2.6-0.3-2.6-1.8v-6.5c0-2.1 0.2-2.4 2.4-2.4 6.4 0 7.3 1.6 8 2.7 0.8 1.8 0.8 1.9 1.3 1.9s0.5-0.6 0.5-0.8v-4c0-1.1 0-1.4-0.5-1.4-0.2 0-0.3 0-1.4 0.2h-8-2.1-6.7c-1-0.2-1-0.2-1.1-0.2-0.3 0-0.8 0-0.8 0.6s0.5 0.6 1.6 0.8c2.1 0 2.1 1.3 2.1 3v18.7h0.1z"/>
<path class="st0" d="m152.1 25.3c0-4.9-4.6-7.2-7.2-8.3-3.5-1.4-6.1-2.6-6.1-5.6 0-1.8 1.1-4.3 4.8-4.3s4.5 2.6 5.1 4.3c0.3 1.3 0.5 1.6 1 1.6 0.6 0 0.6-0.3 0.6-1.3 0-4 0-4.3-0.5-4.6s-3.1-1.1-5.8-1.1c-5.6 0-8.6 3.5-8.6 7.7 0 4.6 3.5 6.4 7 8 3.2 1.4 6.2 3.2 6.2 6.5 0 3.7-3.3 4.9-5.3 4.9-3.2 0-6.2-2.7-7-6.7 0-0.3-0.2-0.8-0.6-0.8-0.5 0-0.5 0.6-0.5 0.8-0.2 1.6-0.2 3.8-0.2 4 0 1.1 0 1.8 0.5 2.1 0.8 0.6 3.7 1.8 7 1.8 6-0.1 9.6-4.1 9.6-9z"/>
<path class="st0" d="m168.4 9.3c0-1.4 0.3-1.4 2.9-1.4 2.9 0 4.9 0 5.7 4.1 0.2 1 0.5 1 0.6 1 0.6 0 0.8-0.5 0.8-1.3l0.3-5.4c0-1.1 0-1.8-0.6-1.8-0.3 0-0.5 0.2-0.6 0.6-0.3 0.6-0.5 1.3-5.1 1.3h-14.2c-1 0-1.8 0-2.1-1.3 0-0.3-0.2-0.6-0.5-0.6s-0.5 0.3-0.6 0.8l-1.8 6.4c-0.2 0.2-0.2 0.5-0.2 0.6 0 0.3 0.2 0.6 0.5 0.6 0.5 0 0.6-0.3 1.1-1 2.2-4.1 5.1-4.1 7.8-4.1 0.8 0 1.3 0 1.3 1.1v20.6c0 1.8 0 2.9-2.2 3-1 0-1.6 0.2-1.6 0.8s0.6 0.6 1 0.6c0.8 0 4.5-0.2 5.1-0.2 1.6 0 3.8 0.2 5.3 0.2 0.3 0 1 0 1-0.6 0-0.8-0.6-0.8-1.6-0.8-2.2-0.2-2.2-1.3-2.2-3.2v-20h-0.1z"/>
<path class="st0" d="m185.3 29.4c0 1.9 0 3-2.2 3.2-1 0-1.6 0.2-1.6 0.8s0.6 0.6 1 0.6c0.3 0 0.6 0 1.3-0.2h3.7 0.6 4.8c2.6 0.2 5.7 0.2 8 0.2 1.3 0 1.8-0.5 1.8-1.4 0.2-1.6 0.6-4.5 0.6-4.9 0-0.3-0.2-0.6-0.6-0.6-0.3 0-0.5 0.2-1.3 1.8-1.9 3.7-4.6 3.7-6.5 3.7-3.8 0-4.6-0.5-4.6-3.7v-7.5c0-1.4 0.3-1.4 2.4-1.4 3.7 0 4.9 0.2 5.9 3.5 0.2 0.8 0.5 1.1 0.8 1.1 0.5 0 0.5-0.6 0.5-1 0-0.3-0.2-1.9-0.2-2.2 0-1 0.3-5.4 0.3-6.1 0-0.5-0.2-0.6-0.5-0.6-0.2 0-0.5 0-0.6 0.6-0.8 2.4-1.1 3.3-6.1 3.3-2.6 0-2.6-0.3-2.6-1.8v-6.5c0-2.1 0.2-2.4 2.4-2.4 6.2 0 7.3 1.6 7.8 2.7 0.8 1.8 1 1.9 1.4 1.9 0.3 0 0.3-0.6 0.3-0.8v-4c0-1.1 0-1.4-0.5-1.4-0.2 0-0.2 0-1.3 0.2h-8-2.2-6.5l-1.1-0.2c-0.3 0-1 0-1 0.6s0.6 0.6 1.6 0.8c2.2 0 2.2 1.3 2.2 3v18.7z"/>
<path class="st0" d="m230.8 32.6c-1.1-0.2-1.8-1.3-2.7-2.7l-1.8-3.3-2.6-4.3c-1-1.9-1.4-2.1-2.1-2.4 1.4-0.3 6.1-1.4 6.1-6.5 0-1.6-0.6-7-8.5-7-1.4 0-7.3 0.2-8.5 0.2-0.5 0-2.7-0.2-3.2-0.2-1.4 0-1.6 0-1.6 0.6s0.6 0.6 1.6 0.6c2.2 0.2 2.2 1.4 2.2 3.2v18.8c0 1.8 0 2.9-2.2 3-1 0.2-1.6 0.2-1.6 0.8s0.6 0.6 1 0.6c0.8 0 4.3-0.2 5.1-0.2 0.2 0 4.5 0.2 5.3 0.2 0.5 0 1 0 1-0.6s-0.6-0.6-1.6-0.8c-2.2 0-2.2-1.3-2.2-3v-7.9c0-0.8 0.2-1.1 1-1.1 1.9 0 2.1 0.2 3.2 2.1l2.1 4 3.2 6.1c0.5 1 0.6 1.4 1.4 1.4 0.5 0 2.1-0.2 2.4-0.2 0.6 0 3.5 0.2 4.1 0.2 0.3 0 0.8 0 0.8-0.6 0-0.7-0.3-0.7-1.9-1zm-14.1-13.2c-2.2 0-2.2-0.2-2.2-1.6v-7.5c0-1.8 0.2-2.7 2.1-2.7 5.6 0 6.2 4.6 6.2 6.2 0 5.6-4.5 5.6-6.1 5.6z"/>
<path class="st0" d="m234.6 4.9c0-0.2-0.2-0.2 0-0.3 0.3 0 0.8-0.5 0.8-1.1 0-1-1-1.1-1.9-1.1h-1.8v0.3h0.2c0.3 0 0.3 0.2 0.3 0.8v2.2c0 1 0 1-0.3 1h-0.3c0 0.2 0 0.3 0.2 0.3h1 1.1v-0.3h-0.2c-0.5 0-0.5-0.2-0.5-1v-0.7c0-0.2 0-0.2 0.2-0.2s0.3 0 0.5 0.2c0.2 0.3 0.3 0.8 0.5 1 0.5 0.8 0.8 1 1.4 1h0.6v-0.2c-0.2 0-0.3 0-0.5-0.2-0.5-0.3-0.8-0.9-1.3-1.7zm-0.3-0.5c-0.2 0.2-0.5 0.2-0.6 0.2-0.5 0-0.5 0-0.5-0.2v-1.5c0-0.3 0-0.3 0.3-0.3 0.6 0 1 0.5 1 1 0 0.3 0 0.6-0.2 0.8z"/>
<path class="st0" d="m237 1.5c-0.8-0.8-1.9-1.3-3.2-1.3s-2.4 0.5-3.2 1.3-1.3 1.9-1.3 3c0 2.4 1.9 4.5 4.5 4.5s4.3-2.1 4.3-4.5c0-1.1-0.3-2.2-1.1-3zm-3.2 6.9c-2.1 0-3.7-1.6-3.7-3.8 0-1.3 0.5-2.4 1.4-3 0.6-0.5 1.3-0.8 2.2-0.8 0.8 0 1.6 0.3 2.1 0.8 1 0.6 1.6 1.8 1.6 3 0.1 2.2-1.7 3.8-3.6 3.8z"/>
<path class="st1" d="m5.9 52.1c0.1 0 0.1 0 0.2 0.1l0.5 0.6c-0.3 0.4-0.7 0.7-1.1 0.9s-1 0.3-1.6 0.3-1.1-0.1-1.5-0.3-0.8-0.5-1.1-0.8-0.6-0.7-0.7-1.2-0.3-1-0.3-1.5c0-0.6 0.1-1.1 0.3-1.5 0.2-0.5 0.4-0.9 0.8-1.2 0.3-0.3 0.7-0.6 1.2-0.8 0.4-0.2 0.9-0.3 1.5-0.3 0.5 0 1 0.1 1.4 0.3s0.8 0.4 1.1 0.7l-0.5 0.6-0.1 0.1h-0.2-0.2s0-0.1-0.1-0.2-0.1-0.1-0.2-0.1-0.2-0.1-0.3-0.1-0.2-0.1-0.4-0.1h-0.5c-0.3 0-0.6 0.1-0.9 0.2s-0.5 0.3-0.7 0.5-0.4 0.4-0.5 0.7-0.2 0.7-0.2 1.1 0.1 0.8 0.2 1.1 0.3 0.6 0.5 0.8 0.4 0.4 0.7 0.5 0.6 0.2 0.9 0.2h0.5c0.2 0 0.3-0.1 0.4-0.1s0.3-0.1 0.4-0.2 0.2-0.2 0.3-0.3l0.1-0.1 0.1 0.1z"/>
<path class="st1" d="m7.3 49.3c0.6-0.6 1.3-0.8 2.2-0.8 0.3 0 0.6 0.1 0.8 0.2s0.5 0.2 0.6 0.4c0.2 0.2 0.3 0.4 0.4 0.6 0.1 0.3 0.1 0.5 0.1 0.8v3.3h-0.6c-0.1 0-0.2 0-0.3-0.1-0.1 0-0.1-0.1-0.2-0.2l-0.1-0.4c-0.1 0.1-0.3 0.2-0.4 0.3s-0.3 0.2-0.4 0.2c-0.1 0.1-0.3 0.1-0.4 0.1s-0.3 0-0.5 0-0.4 0-0.6-0.1-0.4-0.2-0.5-0.3-0.2-0.3-0.3-0.4c-0.1-0.2-0.1-0.4-0.1-0.6 0-0.1 0-0.3 0.1-0.4 0-0.1 0.1-0.3 0.2-0.4s0.2-0.2 0.4-0.3l0.6-0.3c0.3 0.1 0.5 0.1 0.9 0 0.3-0.1 0.7-0.1 1.1-0.1v-0.3c0-0.4-0.1-0.6-0.2-0.8s-0.4-0.3-0.7-0.3c-0.2 0-0.4 0-0.5 0.1-0.1 0-0.3 0.1-0.4 0.2s-0.2 0.1-0.3 0.2c-0.1 0-0.2 0.1-0.3 0.1s-0.2 0-0.2-0.1-0.1-0.1-0.2-0.2l-0.2-0.4zm2.9 2.3c-0.4 0-0.7 0-0.9 0.1-0.3 0-0.5 0.1-0.6 0.2-0.2 0.1-0.3 0.1-0.3 0.2-0.1 0.1-0.1 0.2-0.1 0.3 0 0.2 0.1 0.4 0.2 0.5s0.3 0.1 0.5 0.1c0.3 0 0.5 0 0.7-0.1s0.4-0.2 0.6-0.4v-0.9z"/>
<path class="st1" d="m15.9 49.6c0 0.1-0.1 0.1-0.1 0.1h-0.1c-0.1 0-0.1 0-0.2-0.1s-0.2-0.1-0.2-0.1c-0.1 0-0.2-0.1-0.3-0.1s-0.3-0.1-0.4-0.1c-0.3 0-0.4 0.1-0.6 0.2-0.1 0.1-0.2 0.2-0.2 0.4 0 0.1 0 0.2 0.1 0.3s0.2 0.1 0.3 0.2 0.3 0.1 0.4 0.2 0.3 0.1 0.5 0.2 0.3 0.1 0.5 0.2 0.3 0.2 0.4 0.3 0.2 0.2 0.3 0.4 0.1 0.3 0.1 0.5c0 0.3 0 0.5-0.1 0.7s-0.2 0.4-0.4 0.6-0.4 0.3-0.7 0.4-0.6 0.1-0.9 0.1h-0.5s-0.3-0.1-0.5-0.1c-0.2-0.1-0.3-0.1-0.4-0.2s-0.3-0.2-0.4-0.3l0.3-0.5c0-0.1 0.1-0.1 0.1-0.1h0.2c0.1 0 0.2 0 0.2 0.1s0.2 0.1 0.2 0.1c0.1 0.1 0.2 0.1 0.3 0.1s0.3 0.1 0.5 0.1 0.3 0 0.4-0.1c0.1 0 0.2-0.1 0.3-0.1s0.1-0.1 0.2-0.2v-0.2c0-0.1 0-0.2-0.1-0.3s-0.2-0.1-0.3-0.2-0.3-0.1-0.4-0.2c-0.2 0-0.3-0.1-0.5-0.2s-0.3-0.1-0.5-0.2-0.3-0.2-0.4-0.3-0.2-0.3-0.3-0.4c-0.1-0.2-0.1-0.4-0.1-0.6s0-0.4 0.1-0.6 0.2-0.4 0.4-0.5 0.4-0.3 0.6-0.3c0.3-0.1 0.5-0.1 0.9-0.1s0.7 0.1 1 0.2 0.5 0.3 0.7 0.5l-0.4 0.2z"/>
<path class="st1" d="m18.4 49.3c0.2-0.2 0.5-0.4 0.7-0.6 0.3-0.2 0.6-0.2 1-0.2 0.3 0 0.6 0.1 0.8 0.2s0.4 0.3 0.6 0.5 0.3 0.5 0.4 0.8 0.1 0.7 0.1 1.2c0 0.4-0.1 0.8-0.2 1.1s-0.3 0.6-0.5 0.9c-0.2 0.2-0.4 0.4-0.7 0.6-0.3 0.1-0.6 0.2-0.9 0.2s-0.5 0-0.8-0.1c-0.2-0.1-0.4-0.2-0.6-0.4v2.2h-1.3v-7h1c0.2 0 0.3 0.1 0.3 0.2l0.1 0.4zm0.1 3.2c0.1 0.2 0.3 0.3 0.5 0.4s0.4 0.1 0.6 0.1 0.4 0 0.5-0.1c0.2-0.1 0.3-0.2 0.4-0.3s0.2-0.3 0.3-0.6c0.1-0.2 0.1-0.5 0.1-0.8s0-0.6-0.1-0.8c0-0.2-0.1-0.4-0.2-0.5l-0.3-0.3s-0.3-0.1-0.5-0.1c-0.3 0-0.5 0.1-0.7 0.2s-0.4 0.3-0.5 0.5v2.3z"/>
<path class="st1" d="m24.5 47c0 0.1 0 0.2-0.1 0.3s-0.1 0.2-0.2 0.3-0.2 0.1-0.3 0.2-0.2 0.1-0.3 0.1-0.2 0-0.3-0.1-0.2-0.1-0.3-0.2-0.1-0.2-0.2-0.3-0.1-0.2-0.1-0.3 0-0.2 0.1-0.3 0.1-0.2 0.2-0.3 0.2-0.1 0.3-0.2 0.2-0.1 0.3-0.1 0.2 0 0.3 0.1 0.2 0.1 0.3 0.2 0.1 0.2 0.2 0.3 0.1 0.2 0.1 0.3zm-0.1 1.6v5.3h-1.3v-5.3h1.3z"/>
<path class="st1" d="m28 48.5c0.4 0 0.7 0.1 1.1 0.2s0.6 0.3 0.8 0.5 0.4 0.5 0.5 0.9c0.1 0.3 0.2 0.7 0.2 1.1s-0.1 0.8-0.2 1.1-0.3 0.6-0.5 0.9c-0.2 0.2-0.5 0.4-0.8 0.5s-0.7 0.2-1.1 0.2-0.8-0.1-1.1-0.2-0.6-0.3-0.8-0.5-0.4-0.5-0.5-0.9-0.2-0.7-0.2-1.1 0.1-0.8 0.2-1.1 0.3-0.6 0.5-0.9c0.2-0.2 0.5-0.4 0.8-0.5s0.7-0.2 1.1-0.2zm0 4.5c0.4 0 0.8-0.1 1-0.4s0.3-0.7 0.3-1.3-0.1-1-0.3-1.3-0.5-0.4-1-0.4c-0.4 0-0.8 0.2-1 0.4-0.2 0.3-0.3 0.7-0.3 1.3s0.1 1 0.3 1.3c0.2 0.2 0.6 0.4 1 0.4z"/>
<path class="st1" d="m40.6 46.4v7.4h-0.7c-0.1 0-0.2 0-0.3-0.1-0.1 0-0.1-0.1-0.2-0.2l-3.9-5v0.6 4.6h-1.2v-7.4h0.7 0.2s0.1 0 0.1 0 0.1 0 0.1 0.1 0.1 0.1 0.1 0.1l3.9 5v-0.4-0.3-4.5h1.2z"/>
<path class="st1" d="m41.8 49.3c0.6-0.6 1.3-0.8 2.2-0.8 0.3 0 0.6 0.1 0.8 0.2s0.5 0.2 0.6 0.4c0.2 0.2 0.3 0.4 0.4 0.6 0.1 0.3 0.1 0.5 0.1 0.8v3.3h-0.6c-0.1 0-0.2 0-0.3-0.1-0.1 0-0.1-0.1-0.2-0.2l-0.1-0.4c-0.1 0.1-0.3 0.2-0.4 0.3s-0.3 0.2-0.4 0.2c-0.1 0.1-0.3 0.1-0.4 0.1s-0.3 0-0.5 0-0.4 0-0.6-0.1-0.4-0.2-0.5-0.3-0.2-0.3-0.3-0.4c-0.1-0.2-0.1-0.4-0.1-0.6 0-0.1 0-0.3 0.1-0.4 0-0.1 0.1-0.3 0.2-0.4s0.2-0.2 0.4-0.3l0.6-0.3c0.2-0.1 0.5-0.1 0.8-0.2s0.7-0.1 1.1-0.1v-0.3c0-0.4-0.1-0.6-0.2-0.8s-0.4-0.3-0.7-0.3c-0.2 0-0.4 0-0.5 0.1-0.1 0-0.3 0.1-0.4 0.2s-0.2 0.1-0.3 0.2c-0.1 0-0.2 0.1-0.3 0.1s-0.2 0-0.2-0.1-0.1 0.1-0.1 0l-0.2-0.4zm2.9 2.3c-0.4 0-0.7 0-0.9 0.1-0.3 0-0.5 0.1-0.6 0.2-0.2 0.1-0.3 0.1-0.4 0.2s-0.1 0.2-0.1 0.3c0 0.2 0.1 0.4 0.2 0.5s0.3 0.1 0.5 0.1c0.3 0 0.5 0 0.7-0.1s0.4-0.2 0.6-0.4v-0.9z"/>
<path class="st1" d="m47.1 53.9v-5.3h0.8c0.2 0 0.3 0.1 0.3 0.2l0.1 0.4 0.3-0.3c0.1-0.1 0.2-0.2 0.3-0.2s0.2-0.1 0.4-0.1c0.1 0 0.3-0.1 0.4-0.1 0.3 0 0.6 0.1 0.8 0.3s0.4 0.4 0.5 0.7c0.1-0.2 0.2-0.3 0.3-0.5 0.1-0.1 0.3-0.2 0.4-0.3s0.3-0.1 0.5-0.2c0.2 0 0.3-0.1 0.5-0.1 0.3 0 0.6 0 0.8 0.1s0.4 0.2 0.6 0.4 0.3 0.4 0.4 0.6 0.1 0.5 0.1 0.8v3.4h-1.3v-3.4c0-0.3-0.1-0.6-0.2-0.8s-0.4-0.3-0.6-0.3c-0.1 0-0.3 0-0.4 0.1s-0.2 0.1-0.3 0.2-0.2 0.2-0.2 0.3-0.1 0.3-0.1 0.4v3.4h-1.3v-3.4c0-0.4-0.1-0.6-0.2-0.8s-0.4-0.2-0.6-0.2-0.4 0-0.5 0.1c-0.2 0.1-0.3 0.2-0.4 0.4v3.9h-1.4z"/>
<path class="st1" d="m56.7 51.4c0 0.3 0.1 0.5 0.1 0.7 0.1 0.2 0.2 0.4 0.3 0.5s0.3 0.2 0.4 0.3c0.2 0.1 0.4 0.1 0.6 0.1s0.4 0 0.5-0.1c0.1 0 0.3-0.1 0.4-0.2s0.2-0.1 0.3-0.2c0.1 0 0.2-0.1 0.2-0.1 0.1 0 0.2 0 0.2 0.1l0.4 0.5c-0.1 0.2-0.3 0.3-0.5 0.4s-0.4 0.2-0.5 0.3c-0.2 0.1-0.4 0.1-0.6 0.1h-0.6c-0.4 0-0.7-0.1-1-0.2s-0.6-0.3-0.8-0.5-0.4-0.5-0.6-0.9c-0.1-0.4-0.2-0.8-0.2-1.2s0.1-0.7 0.2-1 0.3-0.6 0.5-0.8 0.5-0.4 0.8-0.6c0.3-0.1 0.7-0.2 1.1-0.2 0.3 0 0.6 0.1 0.9 0.2s0.5 0.3 0.7 0.5 0.4 0.5 0.5 0.8 0.2 0.6 0.2 1c0 0.2 0 0.3-0.1 0.4 0 0.1-0.1 0.1-0.2 0.1h-3.2zm2.4-0.8c0-0.2 0-0.3-0.1-0.5 0-0.1-0.1-0.3-0.2-0.4s-0.2-0.2-0.4-0.3c-0.1-0.1-0.3-0.1-0.5-0.1-0.4 0-0.7 0.1-0.9 0.3s-0.3 0.5-0.4 0.9h2.5z"/>
<path class="st1" d="m65.8 46.2v7.7h-0.8c-0.2 0-0.3-0.1-0.3-0.2l-0.1-0.5c-0.2 0.2-0.5 0.4-0.7 0.6-0.3 0.2-0.6 0.2-1 0.2-0.3 0-0.6-0.1-0.8-0.2s-0.4-0.3-0.6-0.5-0.3-0.5-0.4-0.8c-0.1-0.4-0.1-0.8-0.1-1.3 0-0.4 0.1-0.8 0.2-1.1s0.3-0.6 0.5-0.9c0.2-0.2 0.4-0.4 0.7-0.6s0.6-0.2 0.9-0.2 0.5 0 0.8 0.1c0.2 0.1 0.4 0.2 0.6 0.4v-2.8h1.1zm-1.2 3.7c-0.1-0.2-0.3-0.3-0.5-0.4s-0.4-0.1-0.5-0.1c-0.2 0-0.4 0-0.5 0.1-0.2 0.1-0.3 0.2-0.4 0.3s-0.2 0.3-0.3 0.6-0.1 0.5-0.1 0.8 0 0.6 0.1 0.8c0 0.2 0.1 0.4 0.2 0.5l0.3 0.3c0.1 0.1 0.3 0.1 0.4 0.1 0.3 0 0.5-0.1 0.7-0.2s0.4-0.3 0.5-0.5v-2.3z"/>
<path class="st1" d="m69.8 49.1c-0.2-0.3-0.3-0.6-0.3-0.8s-0.1-0.6 0-0.9c0-0.3 0.1-0.6 0.3-0.8 0.2-0.3 0.4-0.5 0.6-0.7l0.4 0.2c0.1 0 0.1 0.1 0.1 0.2s0 0.1-0.1 0.2-0.1 0.2-0.2 0.3-0.1 0.3-0.1 0.5v0.6c0 0.2 0.1 0.4 0.2 0.6 0.1 0.1 0.1 0.2 0.1 0.3s-0.1 0.1-0.2 0.2l-0.8 0.1zm1.7 0c-0.2-0.3-0.3-0.6-0.3-0.8s-0.1-0.6 0-0.9c0-0.3 0.1-0.6 0.3-0.8 0.2-0.3 0.4-0.5 0.6-0.7l0.4 0.2c0.1 0 0.1 0.1 0.1 0.2s0 0.1-0.1 0.2-0.1 0.2-0.2 0.3-0.1 0.3-0.1 0.5v0.6s0.1 0.4 0.2 0.6c0.1 0.1 0.1 0.2 0.1 0.3s-0.1 0.1-0.2 0.2l-0.8 0.1z"/>
<path class="st1" d="m78.1 52.7v1.1h-4.4v-7.4h1.4v6.3h3z"/>
<path class="st1" d="m79.6 51.4c0 0.3 0.1 0.5 0.1 0.7 0.1 0.2 0.2 0.4 0.3 0.5s0.3 0.2 0.4 0.3c0.2 0.1 0.4 0.1 0.6 0.1s0.4 0 0.5-0.1c0.1 0 0.3-0.1 0.4-0.2s0.2-0.1 0.3-0.2c0.1 0 0.2-0.1 0.2-0.1 0.1 0 0.2 0 0.2 0.1l0.4 0.5c-0.1 0.2-0.3 0.3-0.5 0.4s-0.4 0.2-0.5 0.3c-0.2 0.1-0.4 0.1-0.6 0.1h-0.6c-0.4 0-0.7-0.1-1-0.2s-0.6-0.3-0.8-0.5-0.4-0.5-0.6-0.9c-0.1-0.4-0.2-0.8-0.2-1.2s0.1-0.7 0.2-1 0.3-0.6 0.5-0.8 0.5-0.4 0.8-0.6c0.3-0.1 0.7-0.2 1.1-0.2 0.3 0 0.6 0.1 0.9 0.2s0.5 0.3 0.7 0.5 0.4 0.5 0.5 0.8 0.2 0.6 0.2 1c0 0.2 0 0.3-0.1 0.4 0 0.1-0.1 0.1-0.2 0.1h-3.2zm2.5-0.8c0-0.2 0-0.3-0.1-0.5 0-0.1-0.1-0.3-0.2-0.4s-0.2-0.2-0.4-0.3c-0.1-0.1-0.3-0.1-0.5-0.1-0.4 0-0.7 0.1-0.9 0.3s-0.3 0.5-0.4 0.9h2.5z"/>
<path class="st1" d="m84 49.3c0.6-0.6 1.3-0.8 2.2-0.8 0.3 0 0.6 0.1 0.8 0.2s0.5 0.2 0.6 0.4c0.2 0.2 0.3 0.4 0.4 0.6 0.1 0.3 0.1 0.5 0.1 0.8v3.3h-0.6c-0.1 0-0.2 0-0.3-0.1-0.1 0-0.1-0.1-0.2-0.2l-0.1-0.4c-0.1 0.1-0.3 0.2-0.4 0.3s-0.3 0.2-0.4 0.2c-0.1 0.1-0.3 0.1-0.4 0.1s-0.3 0-0.5 0-0.4 0-0.6-0.1-0.4-0.2-0.5-0.3-0.2-0.3-0.3-0.4c-0.1-0.2-0.1-0.4-0.1-0.6 0-0.1 0-0.3 0.1-0.4 0-0.1 0.1-0.3 0.2-0.4s0.2-0.2 0.4-0.3l0.6-0.3c0.2-0.1 0.5-0.1 0.8-0.2s0.7-0.1 1.1-0.1v-0.3c0-0.4-0.1-0.6-0.2-0.8s-0.4-0.3-0.7-0.3c-0.2 0-0.4 0-0.5 0.1-0.1 0-0.3 0.1-0.4 0.2s-0.2 0.1-0.3 0.2c-0.1 0-0.2 0.1-0.3 0.1s-0.2 0-0.2-0.1-0.1-0.1-0.2-0.2l-0.1-0.2zm2.9 2.3c-0.4 0-0.7 0-0.9 0.1-0.3 0-0.5 0.1-0.6 0.2-0.2 0.1-0.3 0.2-0.3 0.3-0.1 0-0.1 0.1-0.1 0.2 0 0.2 0.1 0.4 0.2 0.5s0.3 0.1 0.5 0.1c0.3 0 0.5 0 0.7-0.1s0.4-0.2 0.6-0.4v-0.9z"/>
<path class="st1" d="m94 46.2v7.7h-0.8c-0.2 0-0.3-0.1-0.3-0.2l-0.1-0.5c-0.2 0.2-0.5 0.4-0.7 0.6-0.3 0.2-0.6 0.2-1 0.2-0.3 0-0.6-0.1-0.8-0.2s-0.4-0.3-0.6-0.5-0.3-0.5-0.4-0.8-0.1-0.7-0.1-1.2c0-0.4 0.1-0.8 0.2-1.1s0.3-0.6 0.5-0.9c0.2-0.2 0.4-0.4 0.7-0.6s0.6-0.2 0.9-0.2 0.5 0 0.8 0.1c0.2 0.1 0.4 0.2 0.6 0.4v-2.8h1.1zm-1.3 3.7c-0.1-0.2-0.3-0.3-0.5-0.4s-0.4-0.1-0.5-0.1c-0.2 0-0.4 0-0.5 0.1-0.2 0.1-0.3 0.2-0.4 0.3s-0.2 0.3-0.3 0.6-0.1 0.5-0.1 0.8 0 0.6 0.1 0.8c0 0.2 0.1 0.4 0.2 0.5l0.3 0.3c0.1 0.1 0.3 0.1 0.4 0.1 0.3 0 0.5-0.1 0.7-0.2s0.4-0.3 0.5-0.5v-2.3z"/>
<path class="st1" d="m96.2 51.4c0 0.3 0.1 0.5 0.1 0.7 0.1 0.2 0.2 0.4 0.3 0.5s0.3 0.2 0.4 0.3c0.2 0.1 0.4 0.1 0.6 0.1s0.4 0 0.5-0.1c0.1 0 0.3-0.1 0.4-0.2s0.2-0.1 0.3-0.2c0.1 0 0.2-0.1 0.2-0.1 0.1 0 0.2 0 0.2 0.1l0.4 0.5c-0.1 0.2-0.3 0.3-0.5 0.4s-0.4 0.2-0.5 0.3c-0.2 0.1-0.4 0.1-0.6 0.1h-0.6c-0.4 0-0.7-0.1-1-0.2s-0.6-0.3-0.8-0.5-0.4-0.5-0.6-0.9c-0.1-0.4-0.2-0.8-0.2-1.2s0.1-0.7 0.2-1 0.3-0.6 0.5-0.8 0.5-0.4 0.8-0.6c0.3-0.1 0.7-0.2 1.1-0.2 0.3 0 0.6 0.1 0.9 0.2s0.5 0.3 0.7 0.5 0.4 0.5 0.5 0.8 0.2 0.6 0.2 1c0 0.2 0 0.3-0.1 0.4 0 0.1-0.1 0.1-0.2 0.1h-3.2zm2.4-0.8c0-0.2 0-0.3-0.1-0.5 0-0.1-0.1-0.3-0.2-0.4s-0.2-0.2-0.4-0.3c-0.1-0.1-0.3-0.1-0.5-0.1-0.4 0-0.7 0.1-0.9 0.3s-0.3 0.5-0.4 0.9h2.5z"/>
<path class="st1" d="m101.9 49.5c0.2-0.3 0.4-0.6 0.6-0.7s0.5-0.3 0.8-0.3c0.2 0 0.4 0.1 0.6 0.2l-0.1 1c0 0.1 0 0.1-0.1 0.1h-0.1-0.2s-0.2 0-0.3 0-0.3 0-0.4 0.1c-0.1 0-0.2 0.1-0.3 0.2s-0.2 0.2-0.2 0.3c-0.1 0.1-0.1 0.2-0.2 0.4v3.3h-1.3v-5.3h0.7c0.1 0 0.2 0 0.3 0.1 0.1 0 0.1 0.1 0.1 0.3l0.1 0.3z"/>
<path class="st1" d="m105.4 45.9c0.2 0.3 0.3 0.6 0.3 0.8s0.1 0.6 0 0.9c0 0.3-0.1 0.6-0.3 0.8-0.2 0.3-0.4 0.5-0.6 0.7l-0.4-0.2s-0.1 0-0.1-0.1 0-0.1 0-0.1 0-0.1 0-0.1v-0.1c0.1-0.1 0.1-0.2 0.2-0.3s0.1-0.3 0.1-0.5 0-0.4 0-0.6-0.1-0.4-0.2-0.6c-0.1-0.1-0.1-0.2-0.1-0.3s0.1-0.1 0.2-0.2l0.9-0.1zm1.7 0c0.2 0.3 0.3 0.6 0.3 0.8 0.1 0.3 0.1 0.6 0 0.9 0 0.3-0.2 0.6-0.3 0.8-0.2 0.3-0.4 0.5-0.6 0.7l-0.4-0.2s-0.1 0-0.1-0.1v-0.1s0-0.1 0-0.1 0-0.1 0-0.1c0.1-0.1 0.1-0.2 0.2-0.3s0.1-0.3 0.1-0.5 0-0.4 0-0.6-0.1-0.4-0.2-0.6c-0.1-0.1-0.1-0.2 0-0.3 0-0.1 0.1-0.1 0.2-0.2l0.8-0.1z"/>
<path class="st1" d="m112.5 47c0 0.1 0 0.2-0.1 0.3s-0.1 0.2-0.2 0.3-0.2 0.1-0.3 0.2-0.2 0.1-0.3 0.1-0.2 0-0.3-0.1-0.2-0.1-0.3-0.2-0.1-0.2-0.2-0.3-0.1-0.2-0.1-0.3 0-0.2 0.1-0.3 0.1-0.2 0.2-0.3 0.2-0.1 0.3-0.2 0.2-0.1 0.3-0.1 0.2 0 0.3 0.1 0.2 0.1 0.3 0.2 0.1 0.2 0.2 0.3 0.1 0.2 0.1 0.3zm-0.2 1.6v5.3h-1.3v-5.3h1.3z"/>
<path class="st1" d="m114.8 49.2 0.3-0.3c0.1-0.1 0.2-0.2 0.4-0.2 0.1-0.1 0.3-0.1 0.4-0.1 0.2 0 0.3-0.1 0.5-0.1 0.3 0 0.5 0 0.8 0.1 0.2 0.1 0.4 0.2 0.6 0.4 0.1 0.2 0.3 0.4 0.3 0.6 0.1 0.2 0.1 0.5 0.1 0.8v3.4h-1.2v-3.4c0-0.3-0.1-0.6-0.2-0.8s-0.4-0.3-0.7-0.3c-0.2 0-0.4 0-0.6 0.1s-0.4 0.2-0.5 0.4v3.8h-1.3v-5.3h0.8c0.2 0 0.3 0.1 0.3 0.2v0.7z"/>
<path class="st1" d="m126.5 52.7v1.1h-4.4v-7.4h1.4v6.3h3z"/>
<path class="st1" d="m129.4 48.5c0.4 0 0.7 0.1 1.1 0.2s0.6 0.3 0.8 0.5 0.4 0.5 0.5 0.9c0.1 0.3 0.2 0.7 0.2 1.1s-0.1 0.8-0.2 1.1-0.3 0.6-0.5 0.9c-0.2 0.2-0.5 0.4-0.8 0.5s-0.7 0.2-1.1 0.2-0.8-0.1-1.1-0.2-0.6-0.3-0.8-0.5-0.4-0.5-0.5-0.9-0.2-0.7-0.2-1.1 0.1-0.8 0.2-1.1 0.3-0.6 0.5-0.9c0.2-0.2 0.5-0.4 0.8-0.5s0.7-0.2 1.1-0.2zm0 4.5c0.4 0 0.8-0.1 1-0.4s0.3-0.7 0.3-1.3-0.1-1-0.3-1.3-0.5-0.4-1-0.4c-0.4 0-0.8 0.2-1 0.4-0.2 0.3-0.3 0.7-0.3 1.3s0.1 1 0.3 1.3c0.2 0.2 0.5 0.4 1 0.4z"/>
<path class="st1" d="m140.4 48.6-1.7 5.3h-1c-0.1 0-0.2-0.1-0.2-0.2l-0.9-3.1c0-0.1-0.1-0.2-0.1-0.3s0-0.2-0.1-0.3c0 0.1 0 0.2-0.1 0.3s-0.1 0.2-0.1 0.3l-1 3c0 0.2-0.1 0.2-0.3 0.2h-1l-1.7-5.3h1c0.1 0 0.2 0 0.2 0.1 0.1 0 0.1 0.1 0.1 0.2l0.8 2.8c0 0.2 0.1 0.3 0.1 0.5 0 0.1 0.1 0.3 0.1 0.4 0-0.1 0.1-0.3 0.1-0.4s0.1-0.3 0.1-0.5l0.9-2.8c0-0.1 0.1-0.1 0.1-0.2 0.1 0 0.1-0.1 0.2-0.1h0.6c0.1 0 0.2 0 0.2 0.1 0.1 0 0.1 0.1 0.1 0.2l0.8 2.8c0 0.2 0.1 0.3 0.1 0.5s0.1 0.3 0.1 0.4c0-0.3 0.1-0.6 0.2-0.9l0.8-2.8c0-0.1 0.1-0.1 0.1-0.2 0.1 0 0.1-0.1 0.2-0.1h1.3z"/>
<path class="st1" d="m141.1 50.2h2.7v1.1h-2.7v-1.1z"/>
<path class="st1" d="m150.3 52.1c0.1 0 0.1 0 0.2 0.1l0.5 0.6c-0.3 0.4-0.7 0.7-1.1 0.9s-1 0.3-1.6 0.3-1.1-0.1-1.5-0.3-0.8-0.5-1.1-0.8-0.6-0.7-0.7-1.2-0.3-1-0.3-1.5c0-0.6 0.1-1.1 0.3-1.5 0.2-0.5 0.4-0.9 0.8-1.2 0.3-0.3 0.7-0.6 1.2-0.8 0.4-0.2 0.9-0.3 1.5-0.3 0.5 0 1 0.1 1.4 0.3s0.8 0.4 1.1 0.7l-0.5 0.6-0.1 0.1h-0.2-0.2s-0.1-0.1-0.2-0.1-0.1-0.1-0.2-0.1-0.2-0.1-0.3-0.1-0.2-0.1-0.4-0.1h-0.5c-0.3 0-0.6 0.1-0.9 0.2s-0.5 0.3-0.7 0.5-0.4 0.5-0.5 0.8-0.2 0.7-0.2 1.1 0.1 0.8 0.2 1.1 0.3 0.6 0.5 0.8 0.4 0.4 0.7 0.5 0.6 0.2 0.9 0.2h0.5c0.2 0 0.3-0.1 0.4-0.1s0.3-0.1 0.4-0.2 0.2-0.2 0.3-0.3l0.1-0.1c0.1-0.1 0.1-0.1 0.2-0.1z"/>
<path class="st1" d="m154 48.5c0.4 0 0.7 0.1 1.1 0.2s0.6 0.3 0.8 0.5 0.4 0.5 0.5 0.9c0.1 0.3 0.2 0.7 0.2 1.1s-0.1 0.8-0.2 1.1-0.3 0.6-0.5 0.9c-0.2 0.2-0.5 0.4-0.8 0.5s-0.7 0.2-1.1 0.2-0.8-0.1-1.1-0.2-0.6-0.3-0.8-0.5-0.4-0.5-0.5-0.9-0.2-0.7-0.2-1.1 0.1-0.8 0.2-1.1 0.3-0.6 0.5-0.9c0.2-0.2 0.5-0.4 0.8-0.5s0.7-0.2 1.1-0.2zm0 4.5c0.4 0 0.8-0.1 1-0.4s0.3-0.7 0.3-1.3-0.1-1-0.3-1.3-0.5-0.4-1-0.4c-0.4 0-0.8 0.2-1 0.4-0.2 0.3-0.3 0.7-0.3 1.3s0.1 1 0.3 1.3c0.2 0.2 0.6 0.4 1 0.4z"/>
<path class="st1" d="m162.2 46.2v7.7h-0.8c-0.2 0-0.3-0.1-0.3-0.2l-0.1-0.5c-0.2 0.2-0.5 0.4-0.7 0.6-0.3 0.2-0.6 0.2-1 0.2-0.3 0-0.6-0.1-0.8-0.2s-0.4-0.3-0.6-0.5-0.3-0.5-0.4-0.8-0.1-0.7-0.1-1.2c0-0.4 0.1-0.8 0.2-1.1s0.3-0.6 0.5-0.9c0.2-0.2 0.4-0.4 0.7-0.6s0.6-0.2 0.9-0.2 0.5 0 0.8 0.1c0.2 0.1 0.4 0.2 0.6 0.4v-2.8h1.1zm-1.3 3.7c-0.1-0.2-0.3-0.3-0.5-0.4s-0.4-0.1-0.5-0.1c-0.2 0-0.4 0-0.5 0.1-0.2 0.1-0.3 0.2-0.4 0.3s-0.2 0.3-0.3 0.6-0.1 0.5-0.1 0.8 0 0.6 0.1 0.8c0 0.2 0.1 0.4 0.2 0.5l0.3 0.3c0.1 0.1 0.3 0.1 0.4 0.1 0.3 0 0.5-0.1 0.7-0.2s0.4-0.3 0.5-0.5v-2.3z"/>
<path class="st1" d="m164.4 51.4c0 0.3 0.1 0.5 0.1 0.7 0.1 0.2 0.2 0.4 0.3 0.5s0.3 0.2 0.4 0.3c0.2 0.1 0.4 0.1 0.6 0.1s0.4 0 0.5-0.1c0.1 0 0.3-0.1 0.4-0.2s0.2-0.1 0.3-0.2c0.1 0 0.2-0.1 0.2-0.1 0.1 0 0.2 0 0.2 0.1l0.4 0.5c-0.1 0.2-0.3 0.3-0.5 0.4s-0.4 0.2-0.5 0.3c-0.2 0.1-0.4 0.1-0.6 0.1h-0.6c-0.4 0-0.7-0.1-1-0.2s-0.6-0.3-0.8-0.5-0.4-0.5-0.6-0.9c-0.1-0.4-0.2-0.8-0.2-1.2s0.1-0.7 0.2-1 0.3-0.6 0.5-0.8 0.5-0.4 0.8-0.6c0.3-0.1 0.7-0.2 1.1-0.2 0.3 0 0.6 0.1 0.9 0.2s0.5 0.3 0.7 0.5 0.4 0.5 0.5 0.8 0.2 0.6 0.2 1c0 0.2 0 0.3-0.1 0.4 0 0.1-0.1 0.1-0.2 0.1h-3.2zm2.4-0.8c0-0.2 0-0.3-0.1-0.5 0-0.1-0.1-0.3-0.2-0.4s-0.2-0.2-0.4-0.3c-0.1-0.1-0.3-0.1-0.5-0.1-0.4 0-0.7 0.1-0.9 0.3s-0.3 0.5-0.4 0.9h2.5z"/>
<path class="st1" d="m174.1 46.4c0.5 0 0.9 0.1 1.3 0.2s0.7 0.3 0.9 0.5 0.4 0.5 0.5 0.8 0.2 0.6 0.2 1-0.1 0.7-0.2 1-0.3 0.6-0.5 0.8-0.5 0.4-0.9 0.5-0.8 0.2-1.3 0.2h-1v2.6h-1.4v-7.4h2.4zm0 3.8c0.3 0 0.5 0 0.7-0.1s0.3-0.2 0.5-0.3c0.1-0.1 0.2-0.3 0.3-0.4s0.1-0.4 0.1-0.6 0-0.4-0.1-0.5c-0.1-0.2-0.2-0.3-0.3-0.4s-0.3-0.2-0.5-0.3-0.4-0.1-0.7-0.1h-1v2.7h1z"/>
<path class="st1" d="m179.1 46.2v7.7h-1.3v-7.7h1.3z"/>
<path class="st1" d="m180.2 49.3c0.6-0.6 1.3-0.8 2.2-0.8 0.3 0 0.6 0.1 0.8 0.2s0.5 0.2 0.6 0.4c0.2 0.2 0.3 0.4 0.4 0.6 0.1 0.3 0.1 0.5 0.1 0.8v3.3h-0.6c-0.1 0-0.2 0-0.3-0.1-0.1 0-0.1-0.1-0.2-0.2l-0.1-0.4c-0.1 0.1-0.3 0.2-0.4 0.3s-0.3 0.2-0.4 0.2c-0.1 0.1-0.3 0.1-0.4 0.1s-0.3 0-0.5 0-0.4 0-0.6-0.1-0.4-0.2-0.5-0.3-0.2-0.3-0.3-0.4c-0.1-0.2-0.1-0.4-0.1-0.6 0-0.1 0-0.3 0.1-0.4 0-0.1 0.1-0.3 0.2-0.4s0.2-0.2 0.4-0.3l0.6-0.3c0.2-0.1 0.5-0.1 0.8-0.2s0.7-0.1 1.1-0.1v-0.3c0-0.4-0.1-0.6-0.2-0.8s-0.4-0.3-0.7-0.3c-0.2 0-0.4 0-0.5 0.1-0.1 0-0.3 0.1-0.4 0.2s-0.2 0.1-0.3 0.2c-0.1 0-0.2 0.1-0.3 0.1s-0.2 0-0.2-0.1-0.1-0.1-0.2-0.2l-0.1-0.2zm2.9 2.3c-0.4 0-0.7 0-0.9 0.1-0.3 0-0.5 0.1-0.6 0.2-0.2 0.1-0.3 0.2-0.3 0.3-0.1 0.1-0.1 0.2-0.1 0.3 0 0.2 0.1 0.4 0.2 0.5s0.3 0.1 0.5 0.1c0.3 0 0.5 0 0.7-0.1s0.4-0.2 0.6-0.4v-1z"/>
<path class="st1" d="m189.4 53.9v-4.3h-2.3v2.9c0 0.2 0 0.3 0.1 0.4s0.2 0.1 0.3 0.1h0.2s0.1 0 0.1-0.1c0 0 0.1 0 0.1-0.1h0.1 0.1s0.1 0 0.1 0.1l0.4 0.6c-0.2 0.2-0.4 0.3-0.6 0.4s-0.5 0.1-0.7 0.1c-0.5 0-0.8-0.1-1.1-0.4-0.2-0.3-0.4-0.6-0.4-1.1v-3h-0.5c-0.1 0-0.1 0-0.2-0.1 0 0-0.1-0.1-0.1-0.2v-0.5l0.8-0.1 0.3-1.4c0-0.1 0-0.1 0.1-0.2 0 0 0.1-0.1 0.2-0.1h0.7v1.7h2.3v-0.4c0-0.3 0-0.6 0.1-0.8s0.2-0.4 0.4-0.6 0.4-0.3 0.6-0.4 0.5-0.1 0.8-0.1c0.2 0 0.5 0 0.7 0.1v0.6 0.1l-0.1 0.1s-0.1 0-0.1 0h-0.2c-0.2 0-0.3 0-0.4 0.1-0.1 0-0.2 0.1-0.3 0.2s-0.1 0.2-0.2 0.3-0.1 0.3-0.1 0.5v0.3h1.4v0.9h-1.3v4.3h-1.3z"/>
<path class="st1" d="m194.9 48.5c0.4 0 0.7 0.1 1.1 0.2s0.6 0.3 0.8 0.5 0.4 0.5 0.5 0.9c0.1 0.3 0.2 0.7 0.2 1.1s-0.1 0.8-0.2 1.1-0.3 0.6-0.5 0.9c-0.2 0.2-0.5 0.4-0.8 0.5s-0.7 0.2-1.1 0.2-0.8-0.1-1.1-0.2-0.6-0.3-0.8-0.5-0.4-0.5-0.5-0.9-0.2-0.7-0.2-1.1 0.1-0.8 0.2-1.1 0.3-0.6 0.5-0.9c0.2-0.2 0.5-0.4 0.8-0.5s0.8-0.2 1.1-0.2zm0 4.5c0.4 0 0.8-0.1 1-0.4s0.3-0.7 0.3-1.3-0.1-1-0.3-1.3-0.5-0.4-1-0.4c-0.4 0-0.8 0.2-1 0.4-0.2 0.3-0.3 0.7-0.3 1.3s0.1 1 0.3 1.3c0.3 0.2 0.6 0.4 1 0.4z"/>
<path class="st1" d="m199.7 49.5c0.2-0.3 0.4-0.6 0.6-0.7s0.5-0.3 0.8-0.3c0.2 0 0.4 0.1 0.6 0.2l-0.1 1c0 0.1 0 0.1-0.1 0.1h-0.1-0.2s-0.2 0-0.3 0-0.3 0-0.4 0.1c-0.1 0-0.2 0.1-0.3 0.2s-0.2 0.2-0.2 0.3c-0.1 0.1-0.1 0.2-0.2 0.4v3.3h-1.3v-5.3h0.7c0.1 0 0.2 0 0.3 0.1 0.1 0 0.1 0.1 0.1 0.3l0.1 0.3z"/>
<path class="st1" d="m202.4 53.9v-5.3h0.8c0.2 0 0.3 0.1 0.3 0.2l0.1 0.4 0.3-0.3c0.1-0.1 0.2-0.2 0.3-0.2s0.2-0.1 0.4-0.1c0.1 0 0.3-0.1 0.4-0.1 0.3 0 0.6 0.1 0.8 0.3s0.4 0.4 0.5 0.7c0.1-0.2 0.2-0.3 0.3-0.5 0.1-0.1 0.3-0.2 0.4-0.3s0.3-0.1 0.5-0.2c0.2 0 0.3-0.1 0.5-0.1 0.3 0 0.6 0 0.8 0.1s0.4 0.2 0.6 0.4 0.3 0.4 0.4 0.6 0.1 0.5 0.1 0.8v3.4h-1.3v-3.4c0-0.3-0.1-0.6-0.2-0.8s-0.4-0.3-0.6-0.3c-0.1 0-0.3 0-0.4 0.1s-0.2 0.1-0.3 0.2-0.2 0.2-0.2 0.3-0.1 0.3-0.1 0.4v3.4h-1.3v-3.4c0-0.4-0.1-0.6-0.2-0.8s-0.4-0.2-0.6-0.2-0.4 0-0.5 0.1c-0.2 0.1-0.3 0.2-0.4 0.4v3.9h-1.4z"/>
<path class="st1" d="m214.2 49.6c0 0.1-0.1 0.1-0.1 0.1h-0.1c-0.1 0-0.1 0-0.2-0.1s-0.2-0.1-0.2-0.1c-0.1 0-0.2-0.1-0.3-0.1s-0.3-0.1-0.4-0.1c-0.3 0-0.4 0.1-0.6 0.2-0.1 0.1-0.2 0.2-0.2 0.4 0 0.1 0 0.2 0.1 0.3s0.2 0.1 0.3 0.2 0.3 0.1 0.4 0.2 0.3 0.1 0.5 0.2 0.3 0.1 0.5 0.2 0.3 0.2 0.4 0.3 0.2 0.2 0.3 0.4 0.1 0.3 0.1 0.5c0 0.3 0 0.5-0.1 0.7s-0.2 0.4-0.4 0.6-0.4 0.3-0.7 0.4-0.6 0.1-0.9 0.1h-0.5s-0.3-0.1-0.5-0.1c-0.2-0.1-0.3-0.1-0.4-0.2s-0.3-0.2-0.4-0.3l0.3-0.5c0-0.1 0.1-0.1 0.1-0.1h0.2c0.1 0 0.2 0 0.2 0.1s0.2 0.1 0.2 0.1c0.1 0.1 0.2 0.1 0.3 0.1s0.3 0.1 0.5 0.1 0.3 0 0.4-0.1c0.1 0 0.2-0.1 0.3-0.1s0.1-0.1 0.2-0.2v-0.2c0-0.1 0-0.2-0.1-0.3s-0.2-0.1-0.3-0.2-0.3-0.1-0.4-0.2c-0.2 0-0.3-0.1-0.5-0.2s-0.3-0.1-0.5-0.2-0.3-0.2-0.4-0.3-0.2-0.3-0.3-0.4c-0.1-0.2-0.1-0.4-0.1-0.6s0-0.4 0.1-0.6 0.2-0.4 0.4-0.5 0.4-0.3 0.6-0.3c0.3-0.1 0.5-0.1 0.9-0.1s0.7 0.1 1 0.2 0.5 0.3 0.7 0.5l-0.4 0.2z"/>
<path class="st1" d="m1 67.9v-4.3l-0.5-0.1c-0.1 0-0.2-0.1-0.2-0.1-0.1-0.1-0.1-0.1-0.1-0.2v-0.5h0.8v-0.4c0-0.3 0-0.6 0.1-0.8s0.2-0.4 0.4-0.6 0.4-0.3 0.6-0.4 0.5-0.1 0.8-0.1c0.2 0 0.5 0 0.7 0.1v0.6 0.1l-0.1 0.1h-0.1-0.2c-0.2 0-0.3 0-0.4 0.1-0.1 0-0.2 0.1-0.3 0.2s-0.1 0.2-0.2 0.3-0.1 0.3-0.1 0.5v0.3h1.4v0.9h-1.3v4.3h-1.3z"/>
<path class="st1" d="m6.5 62.5c0.4 0 0.7 0.1 1.1 0.2s0.6 0.3 0.8 0.5 0.4 0.5 0.5 0.9c0.1 0.3 0.2 0.7 0.2 1.1s-0.1 0.8-0.2 1.1-0.3 0.6-0.5 0.9c-0.2 0.2-0.5 0.4-0.8 0.5s-0.7 0.2-1.1 0.2-0.8-0.1-1.1-0.2-0.6-0.3-0.8-0.5-0.4-0.5-0.5-0.9-0.2-0.7-0.2-1.1 0.1-0.8 0.2-1.1 0.3-0.6 0.5-0.9c0.2-0.2 0.5-0.4 0.8-0.5s0.7-0.2 1.1-0.2zm0 4.5c0.4 0 0.8-0.1 1-0.4s0.3-0.7 0.3-1.3-0.1-1-0.3-1.3-0.5-0.4-1-0.4c-0.4 0-0.8 0.2-1 0.4-0.2 0.3-0.3 0.7-0.3 1.3s0.1 1 0.3 1.3c0.2 0.2 0.6 0.4 1 0.4z"/>
<path class="st1" d="m11.3 63.5c0.2-0.3 0.4-0.6 0.6-0.7s0.5-0.3 0.8-0.3c0.2 0 0.4 0.1 0.6 0.2l-0.1 1c0 0.1 0 0.1-0.1 0.1h-0.1-0.2s-0.2 0-0.3 0-0.3 0-0.4 0.1c-0.1 0-0.2 0.1-0.3 0.2s-0.2 0.2-0.2 0.3c-0.1 0.1-0.1 0.2-0.2 0.4v3.3h-1.3v-5.3h0.7c0.1 0 0.2 0 0.3 0.1 0.1 0 0.1 0.1 0.1 0.3l0.1 0.3z"/>
<path class="st1" d="m19 60.4c0.5 0 0.9 0 1.3 0.1 0.3 0.1 0.6 0.2 0.9 0.4s0.4 0.4 0.5 0.6 0.2 0.5 0.2 0.8c0 0.2 0 0.3-0.1 0.5s-0.1 0.3-0.2 0.4-0.2 0.3-0.4 0.4l-0.6 0.3c1 0.2 1.5 0.8 1.5 1.7 0 0.3-0.1 0.6-0.2 0.9s-0.3 0.5-0.5 0.7-0.5 0.3-0.8 0.5c-0.3 0.1-0.7 0.2-1.2 0.2h-2.8v-7.4h2.4zm-1.2 1.1v2.2h1.1c0.5 0 0.8-0.1 1.1-0.3s0.4-0.4 0.4-0.8-0.1-0.7-0.3-0.8c-0.2-0.2-0.6-0.2-1-0.2h-1.3zm1.4 5.3c0.3 0 0.5 0 0.6-0.1 0.2-0.1 0.3-0.1 0.4-0.2s0.2-0.2 0.2-0.4c0-0.1 0.1-0.3 0.1-0.4 0-0.2 0-0.3-0.1-0.4s-0.1-0.2-0.2-0.3-0.3-0.2-0.4-0.2-0.4-0.1-0.6-0.1h-1.4v2.2h1.4z"/>
<path class="st1" d="m27.5 62.6v5.3h-0.8c-0.2 0-0.3-0.1-0.3-0.2l-0.1-0.4c-0.2 0.2-0.5 0.4-0.7 0.5-0.3 0.1-0.6 0.2-0.9 0.2s-0.5 0-0.8-0.1c-0.2-0.1-0.4-0.2-0.6-0.4s-0.3-0.4-0.3-0.6c-0.1-0.2-0.1-0.5-0.1-0.8v-3.4h1.3v3.4c0 0.3 0.1 0.6 0.2 0.7 0.2 0.2 0.4 0.3 0.7 0.3 0.2 0 0.4 0 0.6-0.1s0.4-0.2 0.5-0.4v-3.8h1.3z"/>
<path class="st1" d="m31.9 63.6c0 0.1-0.1 0.1-0.1 0.1h-0.1c-0.1 0-0.1 0-0.2-0.1s-0.2-0.1-0.2-0.1c-0.1 0-0.2-0.1-0.3-0.1s-0.3-0.1-0.4-0.1c-0.3 0-0.4 0.1-0.6 0.2-0.1 0.1-0.2 0.2-0.2 0.4 0 0.1 0 0.2 0.1 0.3s0.2 0.1 0.3 0.2 0.3 0.1 0.4 0.2 0.3 0.1 0.5 0.2 0.3 0.1 0.5 0.2 0.3 0.2 0.4 0.3 0.2 0.2 0.3 0.4 0.1 0.3 0.1 0.5c0 0.3 0 0.5-0.1 0.7s-0.2 0.4-0.4 0.6-0.4 0.3-0.7 0.4-0.6 0.1-0.9 0.1h-0.5s-0.3-0.1-0.5-0.1c-0.2-0.1-0.3-0.1-0.4-0.2s-0.3-0.2-0.4-0.3l0.3-0.5c0-0.1 0.1-0.1 0.1-0.1h0.2c0.1 0 0.2 0 0.2 0.1s0.2 0.1 0.2 0.1c0.1 0.1 0.2 0.1 0.3 0.1s0.3 0.1 0.5 0.1 0.3 0 0.4-0.1c0.1 0 0.2-0.1 0.3-0.1s0.1-0.1 0.2-0.2v-0.2c0-0.1 0-0.2-0.1-0.3s-0.2-0.1-0.3-0.2-0.3-0.1-0.4-0.2c-0.2 0-0.3-0.1-0.5-0.2s-0.3-0.1-0.5-0.2-0.3-0.2-0.4-0.3-0.2-0.3-0.3-0.4c-0.1-0.2-0.1-0.4-0.1-0.6s0-0.4 0.1-0.6 0.2-0.4 0.4-0.5 0.4-0.3 0.6-0.3c0.3-0.1 0.5-0.1 0.9-0.1s0.7 0.1 1 0.2 0.5 0.3 0.7 0.5l-0.4 0.2z"/>
<path class="st1" d="m34.7 61c0 0.1 0 0.2-0.1 0.3s-0.1 0.2-0.2 0.3-0.2 0.1-0.3 0.2-0.2 0.1-0.3 0.1-0.2 0-0.3-0.1-0.2-0.1-0.3-0.2-0.1-0.2-0.2-0.3-0.1-0.2-0.1-0.3 0-0.2 0.1-0.3 0.1-0.2 0.2-0.3 0.2-0.1 0.3-0.2 0.2-0.1 0.3-0.1 0.2 0 0.3 0.1 0.2 0.1 0.3 0.2 0.1 0.2 0.2 0.3 0.1 0.2 0.1 0.3zm-0.1 1.6v5.3h-1.3v-5.3h1.3z"/>
<path class="st1" d="m37.1 63.2 0.3-0.3c0.1-0.1 0.2-0.2 0.4-0.2 0.1-0.1 0.3-0.1 0.4-0.1 0.2 0 0.3-0.1 0.5-0.1 0.3 0 0.5 0 0.8 0.1 0.2 0.1 0.4 0.2 0.6 0.4 0.1 0.2 0.3 0.4 0.3 0.6 0.1 0.2 0.1 0.5 0.1 0.8v3.4h-1.3v-3.4c0-0.3-0.1-0.6-0.2-0.8s-0.4-0.3-0.7-0.3c-0.2 0-0.4 0-0.6 0.1s-0.4 0.2-0.5 0.4v3.8h-1.3v-5.3h0.8c0.2 0 0.3 0.1 0.3 0.2l0.1 0.7z"/>
<path class="st1" d="m42.7 65.4c0 0.3 0.1 0.5 0.1 0.7 0.1 0.2 0.2 0.4 0.3 0.5s0.3 0.2 0.4 0.3c0.2 0.1 0.4 0.1 0.6 0.1s0.4 0 0.5-0.1c0.1 0 0.3-0.1 0.4-0.2s0.2-0.1 0.3-0.2c0.1 0 0.2-0.1 0.2-0.1 0.1 0 0.2 0 0.2 0.1l0.4 0.5c-0.1 0.2-0.3 0.3-0.5 0.4s-0.4 0.2-0.5 0.3c-0.2 0.1-0.4 0.1-0.6 0.1h-0.6c-0.4 0-0.7-0.1-1-0.2s-0.6-0.3-0.8-0.5-0.4-0.5-0.6-0.9c-0.1-0.4-0.2-0.8-0.2-1.2s0.1-0.7 0.2-1 0.3-0.6 0.5-0.8 0.5-0.4 0.8-0.6c0.3-0.1 0.7-0.2 1.1-0.2 0.3 0 0.6 0.1 0.9 0.2s0.5 0.3 0.7 0.5 0.4 0.5 0.5 0.8 0.2 0.6 0.2 1c0 0.2 0 0.3-0.1 0.4 0 0.1-0.1 0.1-0.2 0.1h-3.2zm2.4-0.8c0-0.2 0-0.3-0.1-0.5 0-0.1-0.1-0.3-0.2-0.4s-0.2-0.2-0.4-0.3c-0.1-0.1-0.3-0.1-0.5-0.1-0.4 0-0.7 0.1-0.9 0.3s-0.3 0.5-0.4 0.9h2.5z"/>
<path class="st1" d="m50.4 63.6c0 0.1-0.1 0.1-0.1 0.1h-0.1c-0.1 0-0.1 0-0.2-0.1s-0.2-0.1-0.2-0.1c-0.1 0-0.2-0.1-0.3-0.1s-0.3-0.1-0.4-0.1c-0.3 0-0.4 0.1-0.6 0.2-0.1 0.1-0.2 0.2-0.2 0.4 0 0.1 0 0.2 0.1 0.3s0.2 0.1 0.3 0.2 0.3 0.1 0.4 0.2 0.3 0.1 0.5 0.2 0.3 0.1 0.5 0.2 0.3 0.2 0.4 0.3 0.2 0.2 0.3 0.4 0.1 0.3 0.1 0.5c0 0.3 0 0.5-0.1 0.7s-0.2 0.4-0.4 0.6-0.4 0.3-0.7 0.4-0.6 0.1-0.9 0.1h-0.5s-0.3-0.1-0.5-0.1c-0.2-0.1-0.3-0.1-0.4-0.2s-0.3-0.2-0.4-0.3l0.3-0.5c0-0.1 0.1-0.1 0.1-0.1h0.2c0.1 0 0.2 0 0.2 0.1s0.2 0.1 0.2 0.1c0.1 0.1 0.2 0.1 0.3 0.1s0.3 0.1 0.5 0.1 0.3 0 0.4-0.1c0.1 0 0.2-0.1 0.3-0.1s0.1-0.1 0.2-0.2v-0.2c0-0.1 0-0.2-0.1-0.3s-0.2-0.1-0.3-0.2-0.3-0.1-0.4-0.2c-0.2 0-0.3-0.1-0.5-0.2s-0.3-0.1-0.5-0.2-0.3-0.2-0.4-0.3-0.2-0.3-0.3-0.4c-0.2-0.3-0.2-0.5-0.2-0.7s0-0.4 0.1-0.6 0.2-0.4 0.4-0.5 0.4-0.3 0.6-0.3c0.3-0.1 0.5-0.1 0.9-0.1s0.7 0.1 1 0.2 0.5 0.3 0.7 0.5l-0.3 0.3z"/>
<path class="st1" d="m54.9 63.6c0 0.1-0.1 0.1-0.1 0.1h-0.1c-0.1 0-0.1 0-0.2-0.1s-0.2-0.1-0.2-0.1c-0.1 0-0.2-0.1-0.3-0.1s-0.3-0.1-0.4-0.1c-0.3 0-0.4 0.1-0.6 0.2-0.1 0.1-0.2 0.2-0.2 0.4 0 0.1 0 0.2 0.1 0.3s0.2 0.1 0.3 0.2 0.3 0.1 0.4 0.2 0.3 0.1 0.5 0.2 0.3 0.1 0.5 0.2 0.3 0.2 0.4 0.3 0.2 0.2 0.3 0.4 0.1 0.3 0.1 0.5c0 0.3 0 0.5-0.1 0.7s-0.2 0.4-0.4 0.6-0.4 0.3-0.7 0.4-0.6 0.1-0.9 0.1h-0.5s-0.3-0.1-0.5-0.1c-0.2-0.1-0.3-0.1-0.4-0.2s-0.3-0.2-0.4-0.3l0.3-0.5c0-0.1 0.1-0.1 0.1-0.1h0.2c0.1 0 0.2 0 0.2 0.1s0.2 0.1 0.2 0.1c0.1 0.1 0.2 0.1 0.3 0.1s0.3 0.1 0.5 0.1 0.3 0 0.4-0.1c0.1 0 0.2-0.1 0.3-0.1s0.1-0.1 0.2-0.2v-0.2c0-0.1 0-0.2-0.1-0.3s-0.2-0.1-0.3-0.2-0.3-0.1-0.4-0.2c-0.2 0-0.3-0.1-0.5-0.2s-0.3-0.1-0.5-0.2-0.3-0.2-0.4-0.3-0.2-0.3-0.3-0.4c-0.1-0.2-0.1-0.4-0.1-0.6s0-0.4 0.1-0.6 0.2-0.4 0.4-0.5 0.4-0.3 0.6-0.3c0.3-0.1 0.5-0.1 0.9-0.1s0.7 0.1 1 0.2 0.5 0.3 0.7 0.5l-0.4 0.2z"/>
<path class="st1" d="m65.5 64.1c0 0.5-0.1 1-0.3 1.5s-0.4 0.9-0.8 1.2c-0.3 0.3-0.7 0.6-1.2 0.8s-1 0.3-1.5 0.3h-2.8v-7.4h2.8c0.6 0 1.1 0.1 1.5 0.3 0.5 0.2 0.9 0.4 1.2 0.8s0.6 0.7 0.8 1.2c0.3 0.3 0.3 0.8 0.3 1.3zm-1.4 0c0-0.4-0.1-0.8-0.2-1.1s-0.3-0.6-0.5-0.8-0.5-0.4-0.7-0.5c-0.3-0.1-0.6-0.2-1-0.2h-1.4v5.2h1.4c0.4 0 0.7-0.1 1-0.2s0.5-0.3 0.7-0.5 0.4-0.5 0.5-0.8c0.2-0.3 0.2-0.6 0.2-1.1z"/>
<path class="st1" d="m67.5 65.4c0 0.3 0.1 0.5 0.1 0.7 0.1 0.2 0.2 0.4 0.3 0.5s0.3 0.2 0.4 0.3c0.2 0.1 0.4 0.1 0.6 0.1s0.4 0 0.5-0.1c0.1 0 0.3-0.1 0.4-0.2s0.2-0.1 0.3-0.2c0.1 0 0.2-0.1 0.2-0.1 0.1 0 0.2 0 0.2 0.1l0.4 0.5c-0.1 0.2-0.3 0.3-0.5 0.4s-0.4 0.2-0.5 0.3c-0.2 0.1-0.4 0.1-0.6 0.1h-0.6c-0.4 0-0.7-0.1-1-0.2s-0.6-0.3-0.8-0.5-0.4-0.5-0.6-0.9c-0.1-0.4-0.2-0.8-0.2-1.2s0.1-0.7 0.2-1 0.3-0.6 0.5-0.8 0.5-0.4 0.8-0.6c0.3-0.1 0.7-0.2 1.1-0.2 0.3 0 0.6 0.1 0.9 0.2s0.5 0.3 0.7 0.5 0.4 0.5 0.5 0.8 0.2 0.6 0.2 1c0 0.2 0 0.3-0.1 0.4 0 0.1-0.1 0.1-0.2 0.1h-3.2zm2.4-0.8c0-0.2 0-0.3-0.1-0.5 0-0.1-0.1-0.3-0.2-0.4s-0.2-0.2-0.4-0.3c-0.1-0.1-0.3-0.1-0.5-0.1-0.4 0-0.7 0.1-0.9 0.3s-0.3 0.5-0.4 0.9h2.5z"/>
<path class="st1" d="m76.6 62.6-2.1 5.3h-1.2l-2.1-5.3h1.1c0.1 0 0.2 0 0.2 0.1 0.1 0 0.1 0.1 0.1 0.2l1 2.8c0.1 0.2 0.1 0.3 0.1 0.5s0.1 0.3 0.1 0.5c0-0.2 0.1-0.3 0.1-0.5s0.1-0.3 0.2-0.5l1-2.8c0-0.1 0.1-0.1 0.1-0.2 0.1 0 0.1-0.1 0.2-0.1h1.2z"/>
<path class="st1" d="m78.1 65.4c0 0.3 0.1 0.5 0.1 0.7 0.1 0.2 0.2 0.4 0.3 0.5s0.3 0.2 0.4 0.3c0.2 0.1 0.4 0.1 0.6 0.1s0.4 0 0.5-0.1c0.1 0 0.3-0.1 0.4-0.2s0.2-0.1 0.3-0.2c0.1 0 0.2-0.1 0.2-0.1 0.1 0 0.2 0 0.2 0.1l0.4 0.5c-0.1 0.2-0.3 0.3-0.5 0.4s-0.4 0.2-0.5 0.3c-0.2 0.1-0.4 0.1-0.6 0.1h-0.6c-0.4 0-0.7-0.1-1-0.2s-0.6-0.3-0.8-0.5-0.4-0.5-0.6-0.9c-0.1-0.4-0.2-0.8-0.2-1.2s0.1-0.7 0.2-1 0.3-0.6 0.5-0.8 0.5-0.4 0.8-0.6c0.3-0.1 0.7-0.2 1.1-0.2 0.3 0 0.6 0.1 0.9 0.2s0.5 0.3 0.7 0.5 0.4 0.5 0.5 0.8 0.2 0.6 0.2 1c0 0.2 0 0.3-0.1 0.4 0 0.1-0.1 0.1-0.2 0.1h-3.2zm2.4-0.8c0-0.2 0-0.3-0.1-0.5 0-0.1-0.1-0.3-0.2-0.4s-0.2-0.2-0.4-0.3c-0.1-0.1-0.3-0.1-0.5-0.1-0.4 0-0.7 0.1-0.9 0.3s-0.3 0.5-0.4 0.9h2.5z"/>
<path class="st1" d="m83.9 60.2v7.7h-1.3v-7.7h1.3z"/>
<path class="st1" d="m87.5 62.5c0.4 0 0.7 0.1 1.1 0.2s0.6 0.3 0.8 0.5 0.4 0.5 0.5 0.9c0.1 0.3 0.2 0.7 0.2 1.1s-0.1 0.8-0.2 1.1-0.3 0.6-0.5 0.9c-0.2 0.2-0.5 0.4-0.8 0.5s-0.7 0.2-1.1 0.2-0.8-0.1-1.1-0.2-0.6-0.3-0.8-0.5-0.4-0.5-0.5-0.9-0.2-0.7-0.2-1.1 0.1-0.8 0.2-1.1 0.3-0.6 0.5-0.9c0.2-0.2 0.5-0.4 0.8-0.5s0.7-0.2 1.1-0.2zm0 4.5c0.4 0 0.8-0.1 1-0.4s0.3-0.7 0.3-1.3-0.1-1-0.3-1.3-0.5-0.4-1-0.4c-0.4 0-0.8 0.2-1 0.4-0.2 0.3-0.3 0.7-0.3 1.3s0.1 1 0.3 1.3c0.3 0.2 0.6 0.4 1 0.4z"/>
<path class="st1" d="m92.3 63.3c0.2-0.2 0.5-0.4 0.7-0.6 0.3-0.2 0.6-0.2 1-0.2 0.3 0 0.6 0.1 0.8 0.2s0.4 0.3 0.6 0.5 0.3 0.5 0.4 0.8 0.1 0.7 0.1 1.2c0 0.4-0.1 0.8-0.2 1.1s-0.3 0.6-0.5 0.9c-0.2 0.2-0.4 0.4-0.7 0.6-0.3 0.1-0.6 0.2-0.9 0.2s-0.5 0-0.8-0.1c-0.2-0.1-0.4-0.2-0.6-0.4v2.2h-1.3v-7h0.8c0.2 0 0.3 0.1 0.3 0.2l0.3 0.4zm0.1 3.2c0.1 0.2 0.3 0.3 0.5 0.4s0.4 0.1 0.6 0.1 0.4 0 0.5-0.1c0.2-0.1 0.3-0.2 0.4-0.3s0.2-0.3 0.3-0.6c0.1-0.2 0.1-0.5 0.1-0.8s0-0.6-0.1-0.8c0-0.2-0.1-0.4-0.2-0.5l-0.3-0.3s-0.3-0.1-0.5-0.1c-0.3 0-0.5 0.1-0.7 0.2s-0.4 0.3-0.5 0.5v2.3z"/>
<path class="st1" d="m98 65.4c0 0.3 0.1 0.5 0.1 0.7 0.1 0.2 0.2 0.4 0.3 0.5s0.3 0.2 0.4 0.3c0.2 0.1 0.4 0.1 0.6 0.1s0.4 0 0.5-0.1c0.1 0 0.3-0.1 0.4-0.2s0.2-0.1 0.3-0.2c0.1 0 0.2-0.1 0.2-0.1 0.1 0 0.2 0 0.2 0.1l0.4 0.5c-0.1 0.2-0.3 0.3-0.5 0.4s-0.4 0.2-0.5 0.3c-0.2 0.1-0.4 0.1-0.6 0.1h-0.6c-0.4 0-0.7-0.1-1-0.2s-0.6-0.3-0.8-0.5-0.4-0.5-0.6-0.9c-0.1-0.4-0.2-0.8-0.2-1.2s0.1-0.7 0.2-1 0.3-0.6 0.5-0.8 0.5-0.4 0.8-0.6c0.3-0.1 0.7-0.2 1.1-0.2 0.3 0 0.6 0.1 0.9 0.2s0.5 0.3 0.7 0.5 0.4 0.5 0.5 0.8 0.2 0.6 0.2 1c0 0.2 0 0.3-0.1 0.4 0 0.1-0.1 0.1-0.2 0.1h-3.2zm2.4-0.8c0-0.2 0-0.3-0.1-0.5 0-0.1-0.1-0.3-0.2-0.4s-0.2-0.2-0.4-0.3c-0.1-0.1-0.3-0.1-0.5-0.1-0.4 0-0.7 0.1-0.9 0.3s-0.3 0.6-0.3 1h2.4z"/>
<path class="st1" d="m103.7 63.5c0.2-0.3 0.4-0.6 0.6-0.7s0.5-0.3 0.8-0.3c0.2 0 0.4 0.1 0.6 0.2l-0.1 1c0 0.1 0 0.1-0.1 0.1h-0.1-0.2s-0.2 0-0.3 0-0.3 0-0.4 0.1c-0.1 0-0.2 0.1-0.3 0.2s-0.2 0.2-0.2 0.3c-0.1 0.1-0.1 0.2-0.2 0.4v3.3h-1.3v-5.3h0.7c0.1 0 0.2 0 0.3 0.1 0.1 0 0.1 0.1 0.1 0.3l0.1 0.3z"/>
<path class="st1" d="m109.5 63.6c0 0.1-0.1 0.1-0.1 0.1h-0.1c-0.1 0-0.1 0-0.2-0.1s-0.2-0.1-0.2-0.1c-0.1 0-0.2-0.1-0.3-0.1s-0.3-0.1-0.4-0.1c-0.3 0-0.4 0.1-0.6 0.2-0.1 0.1-0.2 0.2-0.2 0.4 0 0.1 0 0.2 0.1 0.3s0.2 0.1 0.3 0.2 0.3 0.1 0.4 0.2 0.3 0.1 0.5 0.2 0.3 0.1 0.5 0.2 0.3 0.2 0.4 0.3 0.2 0.2 0.3 0.4 0.1 0.3 0.1 0.5c0 0.3 0 0.5-0.1 0.7s-0.2 0.4-0.4 0.6-0.4 0.3-0.7 0.4-0.6 0.1-0.9 0.1h-0.5s-0.3-0.1-0.5-0.1c-0.2-0.1-0.3-0.1-0.4-0.2s-0.3-0.2-0.4-0.3l0.3-0.5c0-0.1 0.1-0.1 0.1-0.1h0.2c0.1 0 0.2 0 0.2 0.1s0.2 0.1 0.2 0.1c0.1 0.1 0.2 0.1 0.3 0.1s0.3 0.1 0.5 0.1 0.3 0 0.4-0.1c0.1 0 0.2-0.1 0.3-0.1s0.1-0.1 0.2-0.2v-0.2c0-0.1 0-0.2-0.1-0.3s-0.2-0.1-0.3-0.2-0.3-0.1-0.4-0.2c-0.2 0-0.3-0.1-0.5-0.2s-0.3-0.1-0.5-0.2-0.3-0.2-0.4-0.3-0.2-0.3-0.3-0.4c-0.1-0.2-0.1-0.4-0.1-0.6s0-0.4 0.1-0.6 0.2-0.4 0.4-0.5 0.4-0.3 0.6-0.3c0.3-0.1 0.5-0.1 0.9-0.1s0.7 0.1 1 0.2 0.5 0.3 0.7 0.5l-0.4 0.2z"/>
</svg>
