<?xml version="1.0" encoding="utf-8"?>
<!-- Generator: Adobe Illustrator 23.0.2, SVG Export Plug-In . SVG Version: 6.00 Build 0)  -->
<svg version="1.1" id="Layer_1" xmlns="http://www.w3.org/2000/svg" xmlns:xlink="http://www.w3.org/1999/xlink" x="0px" y="0px"
	 viewBox="0 0 179.62 169.62" style="enable-background:new 0 0 179.62 169.62;" xml:space="preserve">
<g>
	<rect x="32.07" y="113.78" style="fill:#34303D;" width="5" height="25.91"/>
	<rect x="56.09" y="86.81" style="fill:#34303D;" width="7" height="52.88"/>
	<rect x="81.1" y="73.84" style="fill:#34303D;" width="5" height="65.85"/>
	<rect x="104.12" y="52.88" style="fill:#34303D;" width="7" height="86.82"/>
	<rect x="129.14" y="51.89" style="fill:#34303D;" width="5" height="87.8"/>
	<rect x="153.14" y="39.89" style="fill:#34303D;" width="7" height="99.8"/>
	<rect x="7.07" y="9" style="fill:#34303D;" width="5" height="160.62"/>
	<rect x="0" y="156.15" style="fill:#34303D;" width="179.62" height="5"/>
	<polygon style="fill:#34303D;" points="28.29,81.2 25.47,78.36 48.06,55.92 74.99,55.92 101.93,28.98 130.9,28.98 158.32,2.53 
		161.1,5.41 132.51,32.98 103.59,32.98 76.65,59.92 49.71,59.92 	"/>
	<polygon style="fill:#34303D;" points="163.57,21.01 159.57,20.99 159.63,4.04 141.56,4 141.57,0 163.64,0.04 	"/>
</g>
</svg>
