<?xml version="1.0" encoding="utf-8"?>
<!-- Generator: Adobe Illustrator 23.0.2, SVG Export Plug-In . SVG Version: 6.00 Build 0)  -->
<svg version="1.1" id="Layer_1" xmlns="http://www.w3.org/2000/svg" xmlns:xlink="http://www.w3.org/1999/xlink" x="0px" y="0px"
	 viewBox="0 0 179.6 169.6" style="enable-background:new 0 0 179.6 169.6;" xml:space="preserve">
<style type="text/css">
	.st0{fill:#3FCAEA;}
	.st1{fill:#1196BA;}
</style>
<g>
	<rect x="32.1" y="113.8" class="st0" width="5" height="25.9"/>
	<rect x="56.1" y="86.8" class="st1" width="7" height="52.9"/>
	<rect x="81.1" y="73.8" class="st0" width="5" height="65.9"/>
	<rect x="104.1" y="52.9" class="st1" width="7" height="86.8"/>
	<rect x="129.1" y="51.9" class="st0" width="5" height="87.8"/>
	<rect x="153.1" y="39.9" class="st1" width="7" height="99.8"/>
	<rect x="7.1" y="9" class="st1" width="5" height="160.6"/>
	<rect x="0" y="156.1" class="st1" width="179.6" height="5"/>
	<polygon class="st0" points="28.3,81.2 25.5,78.4 48.1,55.9 75,55.9 101.9,29 130.9,29 158.3,2.5 161.1,5.4 132.5,33 103.6,33 
		76.6,59.9 49.7,59.9 	"/>
	<polygon class="st0" points="163.6,21 159.6,21 159.6,4 141.6,4 141.6,0 163.6,0 	"/>
</g>
</svg>
