<?xml version="1.0" encoding="utf-8"?>
<!-- Generator: Adobe Illustrator 23.0.2, SVG Export Plug-In . SVG Version: 6.00 Build 0)  -->
<svg version="1.1" id="Layer_1" xmlns="http://www.w3.org/2000/svg" xmlns:xlink="http://www.w3.org/1999/xlink" x="0px" y="0px"
	 viewBox="0 0 142.76 129.29" style="enable-background:new 0 0 142.76 129.29;" xml:space="preserve">
<g>
	<g>
		<path d="M125.06,76.37L83.93,35.24l17.7-17.7l41.13,41.13L125.06,76.37z M91,35.24l34.06,34.06l10.63-10.63l-34.06-34.06L91,35.24
			z"/>
		<g>
			<path d="M16.96,73.74c-1.32,0-2.56-0.51-3.49-1.45L1.9,60.72l3.89-3.89L16.96,68l33.27-33.27L25.95,10.44l3.89-3.89l24.69,24.69
				c0.93,0.93,1.45,2.17,1.45,3.49c0,1.32-0.51,2.56-1.45,3.49L20.45,72.29C19.52,73.22,18.28,73.74,16.96,73.74z"/>
			<rect x="19.9" y="27.61" transform="matrix(0.7071 -0.7071 0.7071 0.7071 -12.0171 31.707)" width="24.73" height="5.5"/>
			<polygon points="67.48,51.98 63.92,48.41 55.17,48.41 47.81,41.05 51.7,37.16 57.45,42.91 66.19,42.91 71.37,48.09 			"/>
			<g>
				<path d="M104.78,103.06L104.78,103.06c-2.39,0-4.63-0.93-6.32-2.62l-11.3-11.3l3.89-3.89l11.3,11.3
					c0.65,0.65,1.51,1.01,2.43,1.01l0,0c0.92,0,1.78-0.36,2.42-1c0.65-0.65,1.01-1.51,1.01-2.43s-0.36-1.78-1.01-2.43l-11.3-11.3
					l3.89-3.89l11.3,11.3c1.69,1.69,2.62,3.93,2.62,6.32c0,2.39-0.93,4.63-2.62,6.32C109.4,102.13,107.16,103.06,104.78,103.06z"/>
				<path d="M96.03,111.8c-2.29,0-4.58-0.87-6.32-2.61l-11.3-11.3l3.89-3.89l11.3,11.3c1.34,1.34,3.52,1.34,4.85,0
					c0.65-0.65,1.01-1.51,1.01-2.43s-0.36-1.78-1.01-2.43l-11.3-11.3l3.89-3.89l11.3,11.3c1.69,1.69,2.62,3.93,2.62,6.32
					c0,2.39-0.93,4.63-2.62,6.32C100.61,110.93,98.32,111.8,96.03,111.8z"/>
				<path d="M87.29,120.55C87.29,120.55,87.29,120.55,87.29,120.55c-2.39,0-4.63-0.93-6.32-2.62l-11.3-11.3l3.89-3.89l11.3,11.3
					c0.65,0.65,1.51,1.01,2.43,1.01c0,0,0,0,0,0c0.92,0,1.78-0.36,2.42-1.01c0.65-0.65,1.01-1.51,1.01-2.43s-0.36-1.78-1.01-2.43
					l-11.3-11.3l3.89-3.89l11.3,11.3c1.69,1.69,2.62,3.93,2.62,6.32c0,2.39-0.93,4.63-2.62,6.32
					C91.92,119.62,89.67,120.55,87.29,120.55z"/>
				<path d="M78.54,129.28c-2.29,0-4.57-0.87-6.32-2.61L25.14,79.59v-4.37l-5.75-5.75l3.89-3.89l7.36,7.36v4.37l45.47,45.47
					c1.34,1.34,3.52,1.34,4.85,0c0.65-0.65,1.01-1.51,1.01-2.43s-0.36-1.78-1.01-2.43l-11.3-11.3l3.89-3.89l11.3,11.3
					c1.69,1.69,2.62,3.93,2.62,6.32s-0.93,4.63-2.62,6.32C83.12,128.41,80.83,129.28,78.54,129.28z"/>
			</g>
			<rect x="14.78" y="53.84" width="4.37" height="5.5"/>
		</g>
		<g>
			<path d="M126.26,73.74c-1.32,0-2.56-0.51-3.49-1.45L88.7,38.22c-0.93-0.93-1.45-2.17-1.45-3.49c0-1.32,0.51-2.56,1.45-3.49
				l24.68-24.68l3.89,3.89L92.99,34.73L126.26,68l11.17-11.17l3.89,3.89l-11.57,11.57C128.82,73.22,127.58,73.74,126.26,73.74z"/>
			<polygon points="108.53,89.14 104.64,85.25 112.58,77.31 112.58,72.94 119.94,65.58 123.83,69.46 118.08,75.22 118.08,79.59 			
				"/>
			<g>
				<path d="M64.68,129.29c-2.39,0-4.63-0.93-6.32-2.62c-3.48-3.48-3.48-9.15,0-12.63l2.57-2.56l3.89,3.89l-2.56,2.56
					c-1.34,1.34-1.34,3.52,0,4.85c1.3,1.3,3.56,1.3,4.85,0l2.56-2.56l3.89,3.89l-2.56,2.56C69.31,128.36,67.07,129.29,64.68,129.29z
					"/>
				<path d="M55.93,120.55c-2.39,0-4.63-0.93-6.32-2.62c-3.48-3.48-3.48-9.14,0-12.63l2.56-2.56l3.89,3.89l-2.56,2.56
					c-1.34,1.34-1.34,3.52,0,4.85c1.3,1.3,3.56,1.3,4.85,0l2.56-2.56l3.89,3.89l-2.56,2.56C60.56,119.62,58.32,120.55,55.93,120.55z
					"/>
				<path d="M47.19,111.8c-2.39,0-4.63-0.93-6.32-2.62c-3.48-3.48-3.48-9.15,0-12.63l2.57-2.56l3.89,3.89l-2.56,2.56
					c-1.34,1.34-1.34,3.52,0,4.85c1.3,1.3,3.56,1.3,4.86,0l2.56-2.56l3.89,3.89l-2.56,2.56C51.82,110.87,49.58,111.8,47.19,111.8z"
					/>
				<path d="M38.45,103.06c-2.39,0-4.63-0.93-6.32-2.62c-3.48-3.48-3.48-9.14,0-12.63l2.56-2.56l3.89,3.89l-2.56,2.56
					c-1.34,1.34-1.34,3.52,0,4.85c1.3,1.3,3.56,1.3,4.85,0l2.56-2.56l3.89,3.89l-2.56,2.56C43.08,102.13,40.83,103.06,38.45,103.06z
					"/>
			</g>
			<path d="M60.31,76.83c-2.39,0-4.63-0.93-6.32-2.62c-3.48-3.48-3.48-9.14,0-12.63l18.67-18.67h13.12l5.75-5.75l3.89,3.89
				l-7.36,7.36H74.94L57.88,65.47c-1.34,1.34-1.34,3.52,0,4.85c1.3,1.3,3.56,1.3,4.85,0l14.3-14.3h8.26v2.75
				c0,2.77,1.08,5.37,3.04,7.33c1.96,1.96,4.56,3.04,7.33,3.04h4.37c2.1,0,3.81-1.71,3.81-3.81h5.5c0,5.13-4.18,9.31-9.31,9.31
				h-4.37c-4.24,0-8.22-1.65-11.22-4.65c-2.34-2.34-3.86-5.27-4.41-8.47h-0.72L66.62,74.21C64.94,75.9,62.69,76.83,60.31,76.83z"/>
			<rect x="124.07" y="53.84" width="4.37" height="5.5"/>
		</g>
		<path d="M16.13,75.17L0,58.48l41.83-40.43l16.13,16.68L16.13,75.17z M7.07,58.6l9.18,9.49l34.64-33.48l-9.18-9.49L7.07,58.6z"/>
	</g>
	<path d="M72.22,19.44c-1.49,0-2.7-1.21-2.7-2.7V2.7c0-1.49,1.21-2.7,2.7-2.7s2.7,1.21,2.7,2.7v14.04
		C74.93,18.23,73.71,19.44,72.22,19.44z"/>
	<path d="M61.14,23c-0.72,0-1.4-0.28-1.91-0.79l-9.92-9.92c-0.51-0.51-0.79-1.19-0.79-1.91c0-0.72,0.28-1.4,0.79-1.91
		c1.05-1.05,2.77-1.05,3.82,0l9.92,9.93c1.05,1.05,1.05,2.77,0,3.82l0,0l0,0l0,0C62.54,22.72,61.87,23,61.14,23z"/>
	<path d="M83.3,23c-0.72,0-1.4-0.28-1.91-0.79v0c-1.05-1.05-1.05-2.77,0-3.82l9.93-9.93c1.05-1.05,2.77-1.05,3.82,0
		c1.05,1.05,1.05,2.77,0,3.82l-9.93,9.93C84.7,22.72,84.03,23,83.3,23z"/>
</g>
</svg>
