<?xml version="1.0" encoding="utf-8"?>
<!-- Generator: Adobe Illustrator 23.0.2, SVG Export Plug-In . SVG Version: 6.00 Build 0)  -->
<svg version="1.1" id="Layer_1" xmlns="http://www.w3.org/2000/svg" xmlns:xlink="http://www.w3.org/1999/xlink" x="0px" y="0px"
	 viewBox="0 0 270 161.9" style="enable-background:new 0 0 270 161.9;" xml:space="preserve">
<style type="text/css">
	.st0{fill:#1196BA;}
	.st1{fill:#3FCAEA;}
</style>
<path class="st0" d="M63.7,95.8C63.7,95.8,63.7,95.8,63.7,95.8c-10.8-0.2-16.4-8.7-16.3-17c0.1-8.1,5.7-16.4,16.3-16.4
	c11.3,0,15,9.7,15.1,10.2l-5.6,2.1c-0.1-0.3-2.5-6.2-9.5-6.2c-7,0-10.3,5.2-10.3,10.4c0,5.3,3.1,10.7,10.3,10.9c7-0.3,9.4-6,9.5-6.3
	l5.6,2.2c-0.2,0.4-3.8,9.7-15,10.1C63.8,95.8,63.7,95.8,63.7,95.8z"/>
<polygon class="st1" points="192.4,161.9 179.2,40.4 163.1,124.1 149.2,57.7 140.1,82.3 62,82.3 62,76.3 135.9,76.3 150.8,36.2 
	162.9,93.6 180.8,0 193.6,117.8 207.6,33.6 217.4,79.7 270,79.7 270,85.7 212.6,85.7 208.4,65.9 "/>
<path class="st0" d="M123.1,84.3c-3.7,9.4-9.8,17.5-18,26.4C88.8,128.3,65,139.3,64,139.7l-0.8,0.4c-0.4,0.2-0.9,0.2-1.3,0l-0.8-0.4
	c-1-0.5-24.9-11.3-40.2-29.2C7,94.4,0,82.5,0,62c0-20.7,11-43,35.3-43c13.4,0,21.9,6.4,26.6,11.7c0.6,0.7,1.8,0.7,2.4,0
	C68.5,25.3,76.7,19,91.8,19C116,19,127,41.3,127,62c0,4.4-0.4,8.4-1.1,12.2l-7.1,0c0.8-3.7,1.2-7.8,1.2-12.2c0-12.5-5.9-36-28.2-36
	c-20.5,0-24.9,13.9-24.9,14.1L65,45.5c-0.4,1.4-1.9,1-2.5-0.4l-2.2-4.6C60,39.9,53.1,26,35.3,26C13,26,7,48.7,7,62
	c0,18.3,6.2,28.8,19.2,44c11.7,13.7,29.5,23.3,35.6,26.3c0.4,0.2,0.9,0.2,1.4,0c6.1-3.1,24.1-12.7,36.7-26.4
	c6.9-7.5,12.1-14.2,15.5-21.6L123.1,84.3z"/>
<path class="st1" d="M61.5,120.5c-0.8-0.2-18.8-5.4-32.1-22.7C16.2,80.4,16,61.3,16,60.5h4h-2l2,0c0,0.2,0.2,18.6,12.6,34.8
	c12.4,16.3,29.8,21.2,29.9,21.3L61.5,120.5z"/>
</svg>
