<?xml version="1.0" encoding="utf-8"?>
<!-- Generator: Adobe Illustrator 23.0.2, SVG Export Plug-In . SVG Version: 6.00 Build 0)  -->
<svg version="1.1" id="Layer_1" xmlns="http://www.w3.org/2000/svg" xmlns:xlink="http://www.w3.org/1999/xlink" x="0px" y="0px"
	 viewBox="0 0 167.1 148.1" style="enable-background:new 0 0 167.1 148.1;" xml:space="preserve">
<style type="text/css">
	.st0{fill:#1196BA;}
	.st1{fill:#3FCAEA;}
</style>
<path class="st0" d="M84.5,148.1l-0.6-0.2c-21.3-7-35.6-26.5-35.6-48.5V58.5h19.8l9.3-9.3h14.1l9.3,9.3h19.8v40.9
	c0,22-14.3,41.5-35.6,48.5L84.5,148.1z M52.3,62.5v36.9c0,20.1,12.9,37.9,32.2,44.5c19.3-6.7,32.2-24.5,32.2-44.5V62.5H99.2
	l-9.3-9.3H79.1l-9.3,9.3H52.3z"/>
<path class="st1" d="M84.5,139l-0.3-0.1c-16.7-5.7-28-21.3-28-39V67.1h15.5l7.5-7.7H90l7.5,7.7H113v32.7c0,17.7-11.2,33.4-28,39
	L84.5,139z M58.2,69.1v30.7c0,16.7,10.6,31.6,26.4,37c15.8-5.5,26.4-20.3,26.4-37V69.1H96.8l-7.5-7.7h-9.1l-7.6,7.7H58.2z"/>
<g>
	<path class="st0" d="M99.4,99.2H86.9v12.3h-4.2V99.2H70.2V95h12.5V82.7h4.2V95h12.5C99.4,95,99.4,99.2,99.4,99.2z"/>
	<path class="st0" d="M88.4,113h-7.2v-12.3H68.7v-7.1h12.5V81.2h7.2v12.3h12.5v7.1H88.4V113z M84.2,110h1.2V97.7h12.5v-1.1H85.4
		V84.2h-1.2v12.3H71.7v1.1h12.5V110z"/>
</g>
<path class="st0" d="M143.6,100h-14.8v-5.4h14.8c9.9,0,18.3-9,18.3-19.6c0-10.3-8.2-18.8-18.3-18.8c-0.1,0-0.1,0-0.2,0
	c-0.1,0-0.3,0-0.4,0l-3.5,0.1l0.9-3.5c0.4-1.6,0.6-3.2,0.6-4.7c0-10.3-8.2-18.8-18.3-18.8c-1.9,0-3.9,0.3-5.7,1l-2.6,0.9l-0.8-2.7
	C109.8,14.9,97.4,5.4,83.5,5.4c-13.9,0-26.3,9.6-30.1,23.3l-0.7,2.7l-2.6-0.9c-1.9-0.6-3.8-1-5.7-1c-10.1,0-18.3,8.4-18.3,18.8
	c0,1.5,0.2,3.1,0.6,4.7l0.9,3.5l-3.5-0.1c-0.1,0-0.3,0-0.4,0c-0.1,0-0.1,0-0.2,0C13.4,56.3,5.2,64.7,5.2,75
	c0,10.6,8.4,19.6,18.3,19.6H40v5.4H23.5C10.8,100,0,88.6,0,75c0-12.4,9.2-22.7,21.1-24c-0.1-0.9-0.2-1.9-0.2-2.8
	c0-13.3,10.5-24.1,23.5-24.1c1.6,0,3.3,0.2,4.9,0.5C54.4,10,68.2,0,83.5,0c15.3,0,29.1,10,34.3,24.6c1.6-0.3,3.2-0.5,4.9-0.5
	c13,0,23.5,10.8,23.5,24.1c0,0.9-0.1,1.9-0.2,2.8c11.8,1.3,21.1,11.5,21.1,24C167.1,88.6,156.3,100,143.6,100z"/>
</svg>
