<?xml version="1.0" encoding="utf-8"?>
<!-- Generator: Adobe Illustrator 23.0.2, SVG Export Plug-In . SVG Version: 6.00 Build 0)  -->
<svg version="1.1" id="Layer_1" xmlns="http://www.w3.org/2000/svg" xmlns:xlink="http://www.w3.org/1999/xlink" x="0px" y="0px"
	 viewBox="0 0 479.5 479" style="enable-background:new 0 0 479.5 479;" xml:space="preserve">
<path d="M231.8,351.1v32h-16c-4.4,0-8,3.6-8,8v24h-32c-4.4,0-8,3.6-8,8v16H8c-4.4,0-8,3.6-8,8c0,4.4,3.6,8,8,8h159.8v16
	c0,4.4,3.6,8,8,8h127.9c4.4,0,8-3.6,8-8v-16h159.8c4.4,0,8-3.6,8-8c0-4.4-3.6-8-8-8H311.7v-16c0-4.4-3.6-8-8-8h-32v-24
	c0-4.4-3.6-8-8-8h-16v-32 M295.7,463H183.8v-32h32c4.4,0,8-3.6,8-8v-24h32v24c0,4.4,3.6,8,8,8h32V463z"/>
<path d="M437.3,158h-20.4v-36.7c0-8.8-7.2-16-16-16h-7.4V0H99.3v11.7H81.8v11.7H64.2v41h-7.4c-8.8,0-16,7.2-16,16V336h0
	c0,3.3,1,6.5,3.1,9.2c2.9,3.7,7.2,5.9,11.9,5.9h321.9c6.8,0,12.7-4.6,14.3-10.6L452,176.4v-1C452,165.3,445.8,158,437.3,158z
	 M400.9,117c2.4,0,4.3,1.9,4.3,4.3V158h-11.7v-41H400.9z M381.7,11.7v93.6V158H115.3c-1.4,0-2.7,0.2-3.9,0.6c-0.1,0-0.2,0-0.3,0
	V11.7H381.7z M99.3,23.4v149.7l-0.4,1l-5.5,15V23.4H99.3z M75.9,35.1h5.9v186.2l-5.9,16V64.4V35.1z M52.5,80.4
	c0-2.4,1.9-4.3,4.3-4.3h7.4v192.8l-11.7,31.9V80.4z M381,337c-0.4,1.4-1.7,2.4-3.2,2.4H55.8c-1.4,0-2.3-0.8-2.6-1.3
	c-0.4-0.5-0.9-1.5-0.7-2.4l11.7-32.2v0l17.6-48.1l0,0l17.6-48.1v0l11.3-31l0.4-1.1l0,0l0.9-2.6l0.2-0.5c0.4-1.4,1.7-2.4,3.2-2.4
	h266.4h11.7h23.4h20.4c2.2,0,2.8,3.2,2.9,4.8L381,337z"/>
<path d="M142.5,99.5H343c3.2,0,5.9-2.6,5.9-5.9c0-3.2-2.6-5.9-5.9-5.9H142.5c-3.2,0-5.9,2.6-5.9,5.9S139.3,99.5,142.5,99.5z"/>
<path d="M142.5,58.5H271c3.2,0,5.9-2.6,5.9-5.9c0-3.2-2.6-5.9-5.9-5.9H142.5c-3.2,0-5.9,2.6-5.9,5.9
	C136.7,55.9,139.3,58.5,142.5,58.5z"/>
<path d="M142.5,140.5H343c3.2,0,5.9-2.6,5.9-5.9s-2.6-5.9-5.9-5.9H142.5c-3.2,0-5.9,2.6-5.9,5.9S139.3,140.5,142.5,140.5z"/>
<path d="M302.2,294c-8.4,0-16.5-2.8-23.4-8.1c-0.4-0.2-0.8-0.5-1.1-0.8l-17.5-17.3c-1.6-1.6-1.6-4.3,0-5.9c1.6-1.6,4.3-1.6,5.9,0
	l16.8,16.6c0.1,0.1,0.3,0.2,0.4,0.3c5.6,4.5,12.2,6.9,19.1,6.9c17.5,0,31.7-14.9,31.7-33.3S319.6,219,302.2,219
	c-6.8,0-13.4,2.4-19.1,6.9c-0.2,0.2-0.4,0.3-0.6,0.4l-67.5,59c-0.3,0.3-0.6,0.5-1,0.6c-6.9,5.3-15,8-23.4,8c-22.1,0-40-18.7-40-41.7
	s18-41.7,40-41.7c8.4,0,16.5,2.8,23.4,8.1c0.4,0.2,0.8,0.5,1.2,0.8l17.5,17.3c1.6,1.6,1.6,4.3,0,5.9c-1.6,1.6-4.3,1.6-5.9,0
	L210,226.1c-0.1-0.1-0.3-0.2-0.4-0.3c-5.6-4.5-12.2-6.9-19.1-6.9c-17.5,0-31.7,14.9-31.7,33.3s14.2,33.3,31.7,33.3
	c6.8,0,13.4-2.4,19.1-6.9c0.2-0.2,0.4-0.3,0.6-0.4l67.5-59c0.3-0.3,0.6-0.5,1-0.6c6.9-5.3,15-8,23.4-8c22.1,0,40,18.7,40,41.7
	S324.2,294,302.2,294z"/>
<path d="M229.4,244h-25c-2.3,0-4.2-1.9-4.2-4.2s1.9-4.2,4.2-4.2h20.8v-20.8c0-2.3,1.9-4.2,4.2-4.2c2.3,0,4.2,1.9,4.2,4.2v25
	C233.5,242.1,231.7,244,229.4,244z"/>
<path d="M262.7,294c-2.3,0-4.2-1.9-4.2-4.2v-25c0-2.3,1.9-4.2,4.2-4.2h25c2.3,0,4.2,1.9,4.2,4.2s-1.9,4.2-4.2,4.2h-20.8v20.8
	C266.9,292.1,265,294,262.7,294z"/>
</svg>
