<?xml version="1.0" encoding="utf-8"?>
<!-- Generator: Adobe Illustrator 23.0.2, SVG Export Plug-In . SVG Version: 6.00 Build 0)  -->
<svg version="1.1" id="Layer_1" xmlns="http://www.w3.org/2000/svg" xmlns:xlink="http://www.w3.org/1999/xlink" x="0px" y="0px"
	 viewBox="0 0 1934.11 528.72" style="enable-background:new 0 0 1934.11 528.72;" xml:space="preserve">
<g>
	<path d="M1701.15,194.49c-0.5-4.78-0.07-9.65-0.12-14.48c-0.31-28.67-1.3-57.27-7.92-85.37c-11.43-48.43-40.65-78.96-89.83-89.28
		c-35.38-7.41-70.89-6.98-106.16,0.33c-51.42,10.65-86.54,40.31-103.07,90.85c-8.14,24.91-11.3,50.59-12.33,76.63
		c-1.3,32.88-0.33,65.63,6.37,97.97c5.16,24.91,14.19,48.14,30.84,67.84c19.64,23.24,45.44,35.8,74.51,42.46
		c30.01,6.87,60.41,7.62,90.93,4.91c40.06-3.57,76.23-17.53,108.6-41.43c2.16-1.6,2.2-2.59,0.61-4.61
		c-4.85-6.13-9.71-12.29-14.13-18.74c-2.29-3.32-3.91-3.2-6.91-0.96c-14.32,10.69-29.42,20.15-46.46,25.84
		c-40.19,13.4-81.12,14.23-122.18,5.16c-43.07-9.5-69.75-36.44-81.11-78.93c-5.9-22.06-7.53-44.57-8.23-67.25
		c-0.15-4.55,0.87-5.86,5.59-5.84c45.82,0.19,91.65,0.11,137.47,0.11c45.99,0,91.99-0.05,137.98,0.09
		C1699.72,199.8,1701.64,199.21,1701.15,194.49z M1663.73,168.49c-19.5,0.05-38.99,0.03-58.49,0.03h-64
		c-40.32,0-80.65-0.06-120.98,0.1c-4.1,0.01-5.29-0.74-4.9-5.12c1.7-19.44,4.17-38.68,10.5-57.28c12.41-36.49,37.3-59.49,74.6-68.8
		c31.19-7.79,62.7-8.26,94.1-1.59c37.04,7.88,58.52,31.44,66.46,68.02c4.44,20.44,5.47,41.23,6.57,62.02
		C1667.78,169.5,1665.45,168.49,1663.73,168.49z"/>
	<path d="M1336.77,83.39c-8.75-32.11-29.39-53.76-60.88-64.88c-17.3-6.11-35.26-8.59-53.47-8.66
		c-57.47-0.23-114.95-0.07-172.43-0.27c-4.65-0.01-6.07,0.84-6.05,5.84c0.2,59.81,0.13,119.62,0.13,179.43
		c0,60.31,0.03,120.62-0.09,180.93c-0.01,3.63,0.72,4.87,4.59,4.7c7.64-0.35,15.33-0.35,22.98-0.01c4.36,0.2,5.81-0.79,5.79-5.55
		c-0.23-39.15-0.05-78.3-0.24-117.45c-0.02-4.63,0.81-6.1,5.83-6.07c43.65,0.23,87.3,0.08,130.95,0.16
		c14.86,0.02,29.61-0.9,44.15-4.15c38.58-8.62,65.81-30.39,77.54-68.89C1345.15,147.08,1345.39,115.07,1336.77,83.39z
		 M1301.69,169.94c-9,25.86-28.22,39.86-54.31,45.46c-9.97,2.14-20.1,2.91-30.28,2.91c-45,0.02-90-0.04-135,0.1
		c-3.83,0.01-5.02-0.83-4.99-4.88c0.19-27.66,0.1-55.33,0.1-82.99c0-27.67,0.02-55.34-0.02-83c-0.01-2.68-0.17-4.62,3.72-4.6
		c48.83,0.25,97.66,0.15,146.49,0.58c14.59,0.12,28.72,3.54,41.81,10.32c21.53,11.15,32.64,29.77,36.6,52.95
		C1309.45,128.09,1308.86,149.35,1301.69,169.94z"/>
	<path d="M885.77,374.99c0.01,4.31-0.88,5.73-5.42,5.51c-8.48-0.42-16.99-0.27-25.49-0.05c-3.07,0.08-3.97-0.73-3.9-3.85
		c0.2-9.83,0.07-19.66,0.07-29.49c-0.03-71.16,0.03-142.31-0.16-213.47c-0.04-15.65-1.12-31.3-5.87-46.41
		c-8.13-25.87-27.07-39.81-52.14-46.75c-25.18-6.97-50.94-7.72-76.82-6.55c-16.84,0.76-33.44,2.93-49.54,8.37
		c-27.26,9.21-42.7,28.16-47.45,56.28c-2.53,15.02-2.9,30.16-2.91,45.32c-0.02,33.66-0.01,67.32-0.01,100.98
		c0,43.5-0.06,86.99,0.11,130.48c0.02,4.21-1.06,5.3-5.19,5.12c-8.32-0.35-16.67-0.23-24.99-0.04c-2.97,0.07-4.17-0.58-3.97-3.81
		c0.29-4.65,0.07-9.33,0.07-14c0.03-73.65-0.08-147.3,0.17-220.96c0.08-21.64,1.2-43.24,6.58-64.43c8.39-33,29.15-54.11,61.09-64.76
		c28.04-9.36,57.09-11.09,86.31-10.83c26.53,0.23,52.83,2.44,78.36,10.61c37.56,12.01,59.24,37.59,66.45,76.07
		c4.14,22.07,4.46,44.38,4.5,66.7C885.74,228.35,885.63,301.67,885.77,374.99z"/>
	<path d="M524.22,264.21c-0.59,16.01-2.14,31.86-6.01,47.46c-8.15,32.78-28.55,54.02-60.27,64.92c-18.9,6.51-38.45,9.46-58.26,10.44
		c-30.67,1.52-61.29,1.19-91.48-5.55c-16.69-3.72-32.56-9.45-46.56-19.57c-22.43-16.2-32.22-39.47-36.59-65.75
		c-3.3-19.8-3.68-39.79-3.71-59.77c-0.1-73.99,0.01-147.97-0.15-221.96c-0.01-4.53,1.23-5.6,5.54-5.42
		c8.15,0.35,16.34,0.33,24.49,0.01c3.96-0.16,4.92,1.04,4.91,4.94c-0.15,43.49-0.09,86.98-0.09,130.47h0.09
		c0,37.49-0.06,74.98,0.04,112.47c0.04,12,0.99,23.96,3.35,35.77c5.97,29.9,24.65,47.63,53.34,55.88
		c21.85,6.29,44.23,7.4,66.78,7.17c20.72-0.22,41.22-1.98,61.01-8.68c27.65-9.36,42.98-28.85,47.49-57.4
		c2.51-15.86,2.77-31.84,2.78-47.83c0.05-75.82,0.07-151.64-0.1-227.45c-0.01-4.54,1.24-5.54,5.5-5.35c7.99,0.36,16,0.32,23.99,0.01
		c3.83-0.15,4.68,1.06,4.67,4.76c-0.13,50.15,0,100.31-0.11,150.46C524.79,197.57,525.44,230.89,524.22,264.21z"/>
	<path d="M163.03,185.36c-0.01,45.33,0.09,90.66-0.15,136c-0.1,19.16-1.13,38.28-4.96,57.16c-7.71,38.11-30.54,62.12-67.67,72.95
		c-26.18,7.64-53.03,9.32-80.1,9.15c-9.99-0.06-9.99-0.1-9.99-10.2c0-5.33,0.34-10.69-0.1-15.99c-0.38-4.72,0.83-6.16,5.85-5.97
		c20.53,0.8,40.96-0.24,61.05-5c9.1-2.16,17.84-5.25,26.05-9.8c19.61-10.86,29.29-28.33,33.07-49.7
		c2.77-15.65,2.98-31.48,2.98-47.32c0.01-45.16,0.01-90.33,0.01-135.49c0-55.67,0.05-111.34-0.11-167
		c-0.01-4.19,1.01-5.34,5.17-5.14c7.82,0.36,15.67,0.35,23.49,0.01c4.23-0.19,5.56,0.75,5.54,5.34
		C162.97,71.36,163.05,128.36,163.03,185.36z"/>
	<path d="M1934.09,31.86c0.06,2.88-0.67,3.58-3.66,3.27c-25.97-2.68-51.9-2.39-77.66,2.27c-12.85,2.32-25.18,6.23-36.34,13.23
		c-18.82,11.81-27.06,29.92-30.34,51.02c-2.39,15.38-2.29,30.89-2.3,46.38c-0.07,75.49-0.08,150.99,0.09,226.49
		c0.01,4.82-1.11,6.26-5.98,5.98c-7.81-0.45-15.67-0.36-23.49-0.02c-3.87,0.16-4.62-1.07-4.61-4.73
		c0.13-44.33,0.09-88.66,0.09-132.99h0.27c0-38.33-0.2-76.66,0.1-114.99c0.13-17.17,2-34.22,6.3-50.94
		c8.41-32.75,29.14-53.84,60.94-64.31c32.65-10.75,66.38-11.67,100.3-10.49c4.33,0.15,8.65,0.53,12.98,0.65
		c2.54,0.08,3.36,1.11,3.32,3.68C1933.94,14.86,1933.93,23.36,1934.09,31.86z"/>
	<path d="M982.05,374.68c0,4.46-0.94,6.03-5.65,5.76c-7.64-0.43-15.34-0.37-22.99-0.01c-4.13,0.2-4.85-1.27-4.85-5.03
		c0.11-60.32,0.08-120.64,0.08-180.96c0-59.83,0.05-119.65-0.1-179.47c-0.01-4.27,0.83-5.78,5.4-5.52
		c7.81,0.44,15.67,0.36,23.49,0.02c3.9-0.16,4.79,1.15,4.6,4.79c-0.3,5.81-0.08,11.66-0.08,17.49
		C981.95,146.06,981.92,260.37,982.05,374.68z"/>
	<path d="M1383.21,425.01c-2.94,9.23-5.86,18.38-8.77,27.53c-7.47,23.45-14.98,46.89-22.35,70.37c-1.01,3.21-2.17,4.91-6.07,4.84
		c-3.81-0.08-5.49-1.2-6.64-4.85c-8.35-26.3-16.92-52.54-25.91-80.32c-4.73,14.61-9.04,27.87-13.33,41.13
		c-4.3,13.29-8.76,26.53-12.79,39.9c-1.08,3.59-2.94,4.12-6.11,4.04c-3.02-0.07-5.07-0.2-6.23-3.88
		c-9.89-31.58-19.98-63.1-30.21-94.57c-1.32-4.08-0.24-4.57,3.58-4.8c4.84-0.3,6.78,1.39,8.2,6.03
		c7.38,24.17,15.17,48.22,22.83,72.31c0.55,1.72,1.22,3.41,2.19,6.1c5.01-15.36,9.72-29.79,14.42-44.22
		c3.96-12.17,8.09-24.3,11.76-36.56c1.08-3.59,3.18-3.52,5.96-3.57c2.89-0.05,4.82,0.21,5.91,3.66
		c7.97,25.22,16.19,50.35,24.34,75.5c0.46,1.42,0.94,2.83,1.5,4.5c2.1-2.82,2.52-6.01,3.46-8.94c7.15-22.16,14.19-44.36,21.27-66.53
		C1373.07,423.72,1373.09,423.72,1383.21,425.01z"/>
	<path d="M1494.8,460.03c-3.47-18.4-13.94-30.53-32.46-35.15c-5.87-1.47-11.86-1.56-17.72-1.92c-3.44,0.19-6.79,0.18-10.08,0.58
		c-18.35,2.22-32.22,10.67-38.08,29c-4.56,14.26-4.64,28.89-0.9,43.37c4.25,16.45,14.74,26.86,31.37,30.76
		c11.51,2.7,23.11,2.72,34.65,0.13c17.91-4.03,28.66-15.23,32.68-33.05C1496.79,482.54,1496.92,471.25,1494.8,460.03z
		 M1483.7,490.89c-3.89,16.62-15.07,25.9-33.06,27.41c-6.32,0.53-12.66,0.39-18.88-1.01c-13.17-2.96-21.91-10.81-25.51-23.92
		c-2.86-10.45-3.02-21.09-0.8-31.65c3.63-17.25,15.13-26.87,33.39-28.16c6.33-0.45,12.65-0.27,18.88,1.14
		c16.51,3.73,26.14,16,27.3,34.84c0.14,2.15,0.02,4.32,0.02,5.24C1485.42,481.05,1484.83,486.02,1483.7,490.89z"/>
	<path d="M1030.57,526.85c-3.3,0.35-7.17,1.9-10.01-2.08c-8.78-12.35-17.77-24.54-26.67-36.79c-10.97-15.08-21.93-30.16-32.9-45.23
		c-0.36-0.49-0.77-0.94-1.88-2.27v80.7c0,5.33-4.58,8.13-9.3,5.76c-1.58-0.8-1.32-2.18-1.32-3.45c-0.02-31.81,0-63.62-0.03-95.43
		c-0.01-2.47,0.79-3.35,3.42-3.61c5.78-0.56,9.6,1.06,13.21,6.18c17.65,25.03,35.82,49.69,53.82,74.47c0.66,0.9,1.02,2.11,2.9,2.55
		v-4.82c0-24.48,0.14-48.96-0.11-73.44c-0.05-4.68,1.97-4.83,5.61-4.97c4.04-0.15,4.96,1.19,4.95,5.05
		c-0.16,30.64-0.06,61.29-0.16,91.93C1032.1,523.28,1033.57,526.54,1030.57,526.85z"/>
	<path d="M1573.6,489.49c-2.02-3.35-2.15-4.61,2.3-5.73c15.81-3.94,22.36-14.68,21.15-33.5c-0.93-14.34-9.12-22.96-24.52-24.83
		c-17.08-2.07-34.27-0.42-51.4-0.89c-3.68-0.1-2.79,2.54-2.8,4.51c-0.04,15.49-0.02,30.98-0.02,46.47c0,15.16,0.08,30.32-0.06,45.47
		c-0.03,3.93,0.03,6.43,5.37,6.37c4.92-0.06,5.65-1.8,5.55-6.05c-0.26-10.65,0-21.32-0.14-31.97c-0.04-2.91,0.56-4.16,3.82-4.06
		c7.82,0.23,15.65,0.21,23.48,0c2.79-0.08,4.13,1.08,5.41,3.33c6.18,10.84,12.77,21.46,18.65,32.46c2.55,4.79,5.53,6.59,10.92,6.23
		c4.36-0.29,3.7-1.52,2.06-4.27C1586.74,511.87,1580.3,500.6,1573.6,489.49z M1531.56,475.38c-2.55,0.08-2.49-1.53-2.48-3.28
		c0.02-5.84,0.01-11.67,0.01-17.5c0-5.5,0.08-11-0.05-16.5c-0.05-2.48,0.61-3.61,3.34-3.52c12.48,0.4,24.99-0.69,37.46,0.72
		c10.91,1.23,16.11,7.1,16.3,18.3c0.22,12.97-4.43,19.43-15.65,20.98C1557.57,476.37,1544.54,474.97,1531.56,475.38z"/>
	<path d="M1126.83,521.96c-0.07,3.6-0.57,5.34-4.89,5.29c-19.66-0.25-39.32-0.24-58.98-0.01c-4.17,0.05-4.9-1.43-4.85-5.15
		c0.18-15.49,0.07-30.99,0.07-46.48c0-15.33,0.1-30.66-0.07-45.99c-0.03-3.63,0.53-5.24,4.8-5.18c19.49,0.25,38.99,0.29,58.48-0.02
		c4.94-0.08,4.6,2.34,4.76,5.75c0.19,3.86-0.9,5.13-4.95,5.07c-15.66-0.24-31.32,0-46.98-0.17c-3.71-0.04-5.33,0.67-5.15,4.86
		c0.35,7.98,0.35,16,0,23.98c-0.19,4.2,1.44,4.91,5.14,4.86c14.66-0.18,29.32-0.01,43.98-0.11c3.91-0.03,6.8-0.4,6.84,5.41
		c0.04,6.23-3.54,5.13-7.08,5.13c-14.66,0.01-29.33,0.1-43.99-0.07c-3.53-0.04-5.01,0.62-4.89,4.6c0.31,9.66,0.22,19.33,0.04,28.99
		c-0.06,3.26,0.95,4.29,4.25,4.26c16.16-0.15,32.32,0.07,48.48-0.17C1125.95,516.75,1126.91,518.15,1126.83,521.96z"/>
	<path d="M1792.88,498.3c-0.02,12.76-5.65,21.79-16.4,26.11c-7.84,3.15-16.09,4.01-24.47,4.01c-13.35-0.04-26.17-2.42-37.89-9.09
		c-1.69-0.97-5.87-1.34-3.03-5.05c1.85-2.42,2.15-7.22,7.8-3.92c14.57,8.52,30.52,9.88,46.87,6.98c6.81-1.21,12.69-4.2,15.21-11.38
		c3.83-10.91-0.69-20.21-12.02-23.26c-9.45-2.55-19.15-4.16-28.74-6.22c-2.11-0.45-4.21-0.97-6.27-1.63
		c-15.99-5.08-22.31-16.01-18.59-32.25c2-8.76,7.57-14.59,16.03-16.88c17.38-4.71,34.58-3.99,51.11,3.72
		c1.63,0.76,6.05,1.02,3.26,4.77c-1.93,2.59-2.05,7.98-8.43,4.61c-12.36-6.53-25.85-7.19-39.39-4.33
		c-8.18,1.72-12.09,6.67-12.61,14.6c-0.49,7.39,2.97,12.51,10.85,15.44c9.88,3.68,20.46,4.39,30.61,6.94
		c3.21,0.81,6.46,1.63,9.55,2.81C1787.83,478.71,1792.91,486.18,1792.88,498.3z"/>
	<path d="M1699.8,526.42c-10.03,2.07-11.07,1.65-16.49-6.4c-9.77-14.5-19.62-28.95-29.27-43.53c-1.94-2.93-3.09-3.67-5.62-0.52
		c-3.65,4.54-7.51,8.99-11.8,12.9c-4.44,4.05-6.11,8.54-5.65,14.5c0.5,6.46-0.18,13.01,0.22,19.48c0.26,4.36-1.97,4.51-5.13,4.31
		c-2.86-0.18-6.03,0.89-5.89-4.17c0.3-10.99,0.09-21.99,0.09-32.99c0-20.33,0.16-40.66-0.12-60.99c-0.07-4.7,2.24-4.57,5.48-4.5
		c3.05,0.06,5.69-0.59,5.59,4.35c-0.34,16.15-0.13,32.32-0.12,48.48c0,0.78,0.08,1.56,0.18,3.36c5.41-5.84,10.24-11,15.01-16.2
		c11.49-12.53,22.98-25.04,34.39-37.64c4.21-4.65,9.13-1.07,13.58-2.53c0.11,0.41,0.22,0.82,0.33,1.23
		c-10.9,11.91-21.71,23.9-32.77,35.66c-2.5,2.66-2.77,4.43-0.65,7.53c12.14,17.72,24.04,35.61,36.01,53.45
		C1698.07,523.55,1698.89,524.95,1699.8,526.42z"/>
	<path d="M1226.38,435.23c-9.82-0.29-19.66,0.07-29.48-0.17c-3.81-0.09-5.18,0.86-5.1,4.94c0.25,13.81,0.09,27.64,0.09,41.46
		c0,13.33-0.19,26.65,0.11,39.97c0.1,4.54-1.08,5.9-5.74,5.9c-4.54-0.01-5.47-1.42-5.44-5.7c0.19-26.81-0.02-53.63,0.21-80.44
		c0.04-4.69-0.99-6.37-5.95-6.17c-9.64,0.4-19.32-0.07-28.97,0.21c-4.29,0.12-4.02-2.34-3.84-5.08c0.17-2.54-1.25-5.71,3.71-5.68
		c26.81,0.17,53.63,0.18,80.44-0.02c4.51-0.03,3.75,2.6,3.69,5.15C1230.06,432.18,1231.3,435.37,1226.38,435.23z"/>
	<path d="M1857.71,335.18c-12.83,0.14-23.07,10.43-23.13,23.23c-0.06,12.94,10.45,23.45,23.45,23.45
		c13.02,0,23.35-10.44,23.28-23.52C1881.25,345.27,1870.83,335.04,1857.71,335.18z M1858.18,378.79
		c-11.49,0.08-20.63-9.05-20.51-20.49c0.12-11.28,9.08-20.1,20.4-20.08c11.3,0.02,20.18,8.91,20.2,20.22
		C1878.29,369.74,1869.44,378.7,1858.18,378.79z"/>
	<path d="M1866.72,359.81c3.46-1.81,3.67-5.66,2.77-9.3c-0.83-3.37-3.2-4.98-6.5-5.15c-3.82-0.2-7.66-0.05-11.47-0.3
		c-2.84-0.19-3.25,1.18-3.19,3.58c0.13,5.65-0.17,11.32,0.15,16.95c0.12,2.11-1.89,6.07,1.71,6.11c3.74,0.05,1.74-3.99,1.68-5.96
		c-0.1-3.7,1.3-4.2,4.59-4.28c4.73-0.13,4.66,4,6.61,6.33c1.53,1.83,1.84,5.4,6,3.68c-1.17-2.09-2.18-4.14-3.42-6.05
		C1864.17,363.13,1863.27,361.62,1866.72,359.81z M1860.63,358.28c-0.99,0.05-1.99,0-3.39,0c-1.39-0.43-4.18,1.2-4.9-1.01
		c-0.78-2.39-0.31-5.24-0.18-7.88c0.05-1.02,1.17-0.93,1.98-0.93c2.15,0,4.31,0.01,6.46,0.03c3.2,0.03,5.51,1.03,5.51,4.81
		C1866.1,357.04,1863.78,358.09,1860.63,358.28z"/>
</g>
</svg>
