<?xml version="1.0" encoding="utf-8"?>
<!-- Generator: Adobe Illustrator 23.0.2, SVG Export Plug-In . SVG Version: 6.00 Build 0)  -->
<svg version="1.1" id="Layer_1" xmlns="http://www.w3.org/2000/svg" xmlns:xlink="http://www.w3.org/1999/xlink" x="0px" y="0px"
	 viewBox="0 0 1997.21 221.91" style="enable-background:new 0 0 1997.21 221.91;" xml:space="preserve">
<g>
	<path d="M1845.22,93.66v19.05h-36.9v106.02h-21.76V113.07h-38.12v105.58c-9.89,0-19.32,0.14-28.73-0.18
		c-1.13-0.04-2.44-2.42-3.24-3.94c-14.59-28.05-29.12-56.13-43.67-84.2c-0.82-1.57-1.69-3.11-2.54-4.66
		c-0.36,0.08-0.72,0.17-1.08,0.26v92.71h-107.84V94.12h67.8v17.54h-46.45v35.28h37.53v17.92h-37.45v35.46h65.65V93.78
		c7.24,0,14.19,0.46,21.04-0.14c6.03-0.53,9.03,1.61,11.74,7.03c14.1,28.11,28.68,55.98,43.1,83.93c0.73,1.43,1.54,2.83,3.17,4.12
		V93.66H1845.22z"/>
	<path d="M791.6,164.24c1.44-0.52,2.36-0.9,3.3-1.19c17.5-5.39,27.02-19.6,25.47-38.04c-1.33-15.9-13.43-28.56-31.03-29.92
		c-17.56-1.36-35.26-0.83-52.9-1.1c-0.25-0.01-0.5,0.37-1.26,0.98v105.77H669v-35.2h37.7v-17.91h-28.33c-9.68,0-9.68,0-9.68-9.76
		v-25.84h47.08V94.32H647.3v124.75h110.06V166.4c7.54-2.32,11.77,0.09,15.27,6.61c7.71,14.37,16.25,28.29,24.56,42.33
		c0.84,1.42,2.34,3.42,3.61,3.47c7.75,0.33,15.52,0.17,24.27,0.17C813.63,200.27,802.69,182.37,791.6,164.24z M757.74,147.48v-35.61
		c10.51,0.45,20.94-1.57,31.09,1.89c7.14,2.43,10.58,7.93,10.43,15.81c-0.16,8.3-3.61,14.11-11.37,15.42
		C778.17,146.63,768.19,146.69,757.74,147.48z"/>
	<path d="M1135.63,164.24c1.42-0.53,2.33-0.91,3.27-1.22c17.81-5.75,27-19.46,25.49-38.03c-1.31-16.04-13.39-28.49-31.55-29.94
		c-17.39-1.38-34.93-0.79-52.4-1.04c-0.24-0.01-0.49,0.38-1.26,1.01v105.7h-66.15v-35.04h37.7v-18.05h-27.35
		c-10.65,0-10.65,0-10.65-10.79v-24.83h47.07V94.33h-68.45v124.75h110.03v-52.7c7.49-2.25,11.76,0.05,15.27,6.61
		c7.69,14.37,16.24,28.29,24.57,42.31c0.89,1.51,2.65,3.46,4.08,3.52c7.59,0.35,15.19,0.17,23.82,0.17
		C1157.67,200.27,1146.72,182.37,1135.63,164.24z M1101.8,147.22V111.2c10.26,0.73,20.38,0.7,30.19,2.4
		c7.92,1.37,11.65,8.12,11.28,16.54c-0.38,8.48-4.48,14.25-12.82,15.39C1121.16,146.8,1111.68,146.7,1101.8,147.22z"/>
	<path d="M507.29,215.82c-13.87-39.72-27.73-79.45-41.77-119.11c-0.47-1.31-2.74-2.71-4.23-2.8c-5.82-0.32-11.67,0.12-17.48-0.22
		c-4.13-0.24-6.05,1.05-7.45,5.15c-10.86,31.79-22.01,63.48-33.08,95.19c-0.57,1.64-1.27,3.23-2.16,5.48
		c-12.33-15.4-24.16-30.17-36.03-45c16-20.22,31.7-40.09,48.02-60.73c-8,0-14.67-0.25-21.3,0.14c-2.09,0.13-4.75,1.46-6.01,3.1
		c-12.97,16.91-25.71,34.01-38.53,51.04c-0.89,1.19-1.93,2.27-2.89,3.4c-0.35-0.19-0.69-0.37-1.04-0.56V93.98h-21.15v124.34h21.52
		v-60.86c1.84,2.28,2.88,3.48,3.83,4.75c13.28,17.73,26.59,35.44,39.77,53.24c1.76,2.38,3.61,3.44,6.62,3.33
		c5.99-0.23,12-0.27,17.99,0.01c3.3,0.15,4.62-1.12,5.52-4.16c2.79-9.4,6.04-18.67,8.79-28.09c0.92-3.17,2.42-4.12,5.6-4.08
		c12.5,0.16,25,0.21,37.49-0.03c3.53-0.06,4.95,1.22,5.93,4.4c2.89,9.38,5.97,18.7,9.23,27.95c0.54,1.53,2.25,3.66,3.53,3.74
		c6.43,0.38,12.9,0.18,19.69,0.18C507.52,217.39,507.54,216.56,507.29,215.82z M433.07,164.93c5.59-17.16,11.04-33.93,16.95-52.08
		c6.05,18.09,11.66,34.86,17.41,52.08H433.07z"/>
	<path d="M1303.26,93.78v124.64h-20.73v-102.6c-0.32-0.07-0.63-0.15-0.95-0.22c-0.42,1.55-0.87,3.09-1.27,4.64
		c-8,30.92-16.11,61.8-23.88,92.77c-1.17,4.68-3.12,6.32-7.77,5.78c-3.46-0.4-7.03-0.42-10.48,0.01c-4.28,0.53-5.69-1.38-6.66-5.22
		c-7.94-31.27-16.07-62.49-24.15-93.73c-0.36-1.41-0.78-2.82-1.87-4.17v102.69h-21.07V94.17h37.9c7.05,29.1,14.17,58.51,21.29,87.93
		c0.29,0.02,0.59,0.04,0.88,0.05c2.63-10.6,5.26-21.21,7.87-31.82c4.31-17.44,8.71-34.85,12.81-52.34c0.76-3.22,1.95-4.34,5.26-4.28
		C1281.24,93.9,1292.05,93.78,1303.26,93.78z"/>
	<path d="M1538.06,94.02v124.64c-9.34,0-18.62,0.17-27.88-0.19c-1.29-0.05-2.81-2.47-3.67-4.09c-14.69-27.81-29.28-55.67-43.9-83.51
		c-0.75-1.41-1.57-2.78-3.1-5.48v92.93h-20.5V93.84c9.12,0,18.21-0.15,27.29,0.17c1.16,0.04,2.52,2.34,3.31,3.84
		c14.88,28.46,29.69,56.95,44.52,85.44c0.76,1.45,1.54,2.88,3.03,5.65V94.02H1538.06z"/>
	<path d="M1428.41,216.73c-13.93-40.07-27.85-80.13-41.95-120.13c-0.45-1.29-2.79-2.62-4.31-2.69c-6.15-0.31-12.34,0.16-18.48-0.23
		c-4.06-0.26-5.76,1.16-7.06,4.96c-10.98,32.1-22.18,64.13-33.32,96.19c-2.71,7.82-5.43,15.64-8.29,23.89h21.3
		c3.87-12.04,7.67-23.87,11.45-35.61h46.58c3.7,10.79,7.28,21.51,11.12,32.14c0.54,1.48,2.31,3.5,3.61,3.57
		c6.46,0.37,12.95,0.17,19.63,0.17C1428.58,217.99,1428.61,217.31,1428.41,216.73z M1353.65,164.92
		c5.58-17.15,11.04-33.89,16.96-52.07c6.22,18.2,11.93,34.9,17.8,52.07H1353.65z"/>
	<path d="M948.83,95.33c-5.68-1.09-11.58-1.35-17.38-1.44c-12.61-0.21-25.22-0.07-38.04-0.07v124.93h21.54v-51.61
		c4.33,0,8.13,0.14,11.92-0.03c6.64-0.3,13.35-0.29,19.9-1.29c18.74-2.87,30.52-16.36,30.92-34.77
		C978.09,112.36,967.43,98.93,948.83,95.33z M941.68,147.74c-8.63,1.19-17.44,1.03-26.53,1.48v-37.78
		c9.25,0.45,18.27,0.17,27.05,1.49c9.76,1.47,14.35,7.95,14.18,17.46C956.23,139.56,950.97,146.46,941.68,147.74z"/>
	<polygon points="1930.09,200.63 1930.09,218.62 1857.22,218.62 1857.22,94.02 1925.61,94.02 1925.61,111.76 1878.88,111.76 
		1878.88,146.93 1916.59,146.93 1916.59,165.2 1878.84,165.2 1878.84,200.63 	"/>
	<path d="M617.92,212.05c-13.22,8.09-27.65,9.25-42.42,7.39c-6.68-0.84-13.23-3.14-19.67-5.28c-1.43-0.47-2.92-2.99-3.06-4.67
		c-0.4-4.94-0.14-9.92-0.14-14.71c7.85,2.28,15.31,5.37,23.04,6.43c7.42,1.01,15.27,0.75,22.67-0.49
		c6.95-1.17,11.81-6.12,12.96-13.54c1.21-7.85-2.16-13.78-8.94-17.43c-5.38-2.91-11.23-4.94-16.78-7.57
		c-6.13-2.92-12.65-5.38-18.14-9.26c-20.11-14.19-18.92-41.4,2.37-53.8c17.01-9.91,34.95-9.3,52.99-2.87
		c1.11,0.39,2.49,1.94,2.55,3.02c0.27,5.09,0.12,10.22,0.12,14.25c-9.71-1.55-19.1-3.89-28.56-4.22
		c-5.04-0.18-10.89,2.12-15.18,5.05c-8.36,5.71-8.15,16.52,0.19,22.28c5,3.45,10.87,5.64,16.4,8.29c6.73,3.23,13.85,5.8,20.2,9.63
		C640.67,167.89,637.35,200.14,617.92,212.05z"/>
	<rect x="515.72" y="94.01" width="21.11" height="124.27"/>
	<path d="M147.37,25.76c0.14,17.17-9.74,28.04-25.55,28.12c-17.09,0.08-26.46-9.5-26.64-27.25C95.01,10.05,104.58,0.1,120.77,0
		C137.22-0.1,147.24,9.61,147.37,25.76z"/>
	<path d="M65.44,48.05c0.16,14.54-8.24,23.59-22.16,23.84c-14.63,0.26-24.15-9.26-24.27-24.27c-0.12-14.2,9.01-23.46,23.21-23.56
		C56.53,23.96,65.28,32.99,65.44,48.05z"/>
	<path d="M79.24,170.61c0.05,0.09-0.11,0.29-0.41,0.99c-23.14-26.55-46.1-52.9-69.29-79.51c6.31-8.93,14.69-13.61,25.18-14.53
		c0.91-0.08,2.43,1.03,2.86,1.96C51.53,109.85,65.39,140.23,79.24,170.61z"/>
	<path d="M218.47,64.22c0.07,13.57-8.55,22.37-21.92,22.37c-13.75,0.01-23.5-9.46-23.65-22.95c-0.14-13.78,8.95-23.46,22.21-23.63
		C208.91,39.83,218.4,49.67,218.47,64.22z"/>
	<path d="M135.81,60.41c-4.79,33.72-9.58,67.39-14.37,101.06c-0.29-0.04-0.58-0.08-0.87-0.12c-4.9-33.53-9.8-67.06-14.73-100.81
		C115.92,56.92,125.45,57.06,135.81,60.41z"/>
	<path d="M224.62,103.68c-21.46,23.29-42.84,46.5-64.21,69.71c-0.24-0.19-0.48-0.37-0.71-0.56c9.99-22.05,19.98-44.11,29.97-66.17
		c1.16-2.57,2.37-5.12,3.54-7.69c3.44-7.55,3.45-7.6,11.75-6.04C212.51,94.35,219.08,97.64,224.62,103.68z"/>
	<path d="M68.01,180.07c-0.26,0.25-0.52,0.5-0.78,0.75c-16.72-12.93-33.44-25.85-50.16-38.77c-4.35-3.36-8.58-6.91-13.15-9.93
		c-3.23-2.14-4.01-4.74-3.91-8.36c0.29-9.94,1.77-19.53,7.08-29.13C27.58,123.36,47.79,151.71,68.01,180.07z"/>
	<path d="M107.28,162.57c-0.32,0.08-0.63,0.16-0.95,0.24c-1.41-3.85-2.82-7.69-4.23-11.54c-6.54-17.93-12.91-35.93-19.71-53.76
		c-3.18-8.33-1.89-15.7,3.22-22.53c4.17-5.57,8.91-10.62,16.46-13.36C103.83,95.69,105.55,129.13,107.28,162.57z"/>
	<path d="M159.37,98c-7.35,20.31-14.75,40.61-22.15,60.91c-0.48,1.33-1.14,2.6-2.43,3.71c1.71-33.44,3.42-66.87,5.14-100.45
		C155.66,66.6,164.62,83.5,159.37,98z"/>
	<path d="M92.28,165.98c-0.3,0.14-0.59,0.28-0.89,0.42c-16.89-29.58-33.77-59.17-50.8-89c16-2.23,30.17,5.06,34.81,19.54
		c5.25,16.39,8.76,33.35,12.89,50.1C89.83,153.3,90.96,159.66,92.28,165.98z"/>
	<path d="M236.44,132.21c-0.16,0.96-1.14,1.97-1.99,2.63c-20,15.45-40.03,30.84-60.07,46.24c-0.35,0.27-0.83,0.39-2.63,1.21
		c19.09-25.92,37.31-50.66,55.52-75.37C234.82,111.98,237.53,125.41,236.44,132.21z"/>
	<path d="M192.04,92.54c-14.72,25.5-29.23,50.63-43.73,75.76c-0.28-0.12-0.55-0.24-0.83-0.36c3.81-17.86,7.25-35.82,11.55-53.57
		C162.28,100.94,175.63,92.37,192.04,92.54z"/>
	<path d="M59.12,191.15c-0.18,0.29-0.36,0.57-0.54,0.85c-7.94-3.64-15.88-7.29-23.82-10.93c-10.43-4.77-20.91-9.46-31.26-14.41
		c-1.45-0.7-3.18-2.67-3.23-4.11c-0.3-8.98-0.15-17.97-0.15-28.54C20.5,153.75,39.81,172.45,59.12,191.15z"/>
	<path d="M237.04,164.67c-0.04,1.27-1.28,3.12-2.45,3.68c-17.22,8.23-34.52,16.28-51.81,24.36c-0.22,0.1-0.6-0.12-1.29-0.28
		c18.32-17.63,36.47-35.1,55.66-53.57C237.15,148.45,237.26,156.56,237.04,164.67z"/>
	<path d="M1971.27,170.97c-14.5-0.03-25.89,11.12-25.91,25.38c-0.03,14.29,11.29,25.51,25.78,25.56
		c14.37,0.06,26.01-11.26,26.07-25.37C1997.27,182.58,1985.52,170.99,1971.27,170.97z M1970.81,217.28
		c-11.91,0-20.55-8.87-20.49-21.02c0.06-11.9,8.99-20.74,20.92-20.71c11.79,0.03,20.56,9.09,20.45,21.14
		C1991.59,208.83,1983.01,217.29,1970.81,217.28z"/>
	<path d="M52.77,204.15c-0.11,0.24-0.23,0.48-0.34,0.72c-17.28-4.02-34.56-8.04-52.02-12.11v-23.22
		C18.26,181.34,35.52,192.75,52.77,204.15z"/>
	<path d="M51.16,218.84c-0.06,0.25-0.13,0.5-0.19,0.75H0.45v-22.18C17.72,204.71,34.44,211.77,51.16,218.84z"/>
	<path d="M237.04,192.33c-0.02,0.85-1.09,2.22-1.89,2.41c-15.36,3.58-30.75,7.02-46.13,10.48c-0.2-0.4-0.39-0.8-0.59-1.2
		c15.9-10.35,31.81-20.7,48.7-31.69C237.13,179.84,237.2,186.09,237.04,192.33z"/>
	<path d="M236.84,199.41v20.23h-46.1c-0.13-0.28-0.27-0.56-0.4-0.84C205.67,212.41,221,206.02,236.84,199.41z"/>
	<path d="M1961.72,182.01c4.54,0,7.86-0.07,11.18,0.01c6.43,0.16,9.37,2.12,10.16,6.66c0.79,4.54-1.22,7.53-7.26,10.26
		c2.35,3.79,4.68,7.53,7,11.27c-0.25,0.44-0.51,0.87-0.76,1.31c-1.62-0.91-3.66-1.48-4.78-2.81c-1.9-2.26-2.99-5.21-4.89-7.47
		c-1.22-1.46-3.27-2.21-5.97-3.92c0,5.48,0,9.26,0,14.79c-2.2-1.47-4.5-2.27-4.52-3.13
		C1961.62,200.08,1961.72,191.18,1961.72,182.01z M1966.25,186.01c0,3.12,0,5.82,0,8.92c3.18-0.17,6.13,0.2,8.67-0.65
		c1.51-0.5,3.18-2.87,3.28-4.49c0.07-1.18-2.12-3.25-3.62-3.62C1972.1,185.57,1969.37,186.01,1966.25,186.01z"/>
</g>
</svg>
