<?xml version="1.0" encoding="utf-8"?>
<!-- Generator: Adobe Illustrator 23.0.2, SVG Export Plug-In . SVG Version: 6.00 Build 0)  -->
<svg version="1.1" id="Layer_1" xmlns="http://www.w3.org/2000/svg" xmlns:xlink="http://www.w3.org/1999/xlink" x="0px" y="0px"
	 viewBox="0 0 1873.5 275.05" style="enable-background:new 0 0 1873.5 275.05;" xml:space="preserve">
<g>
	<path d="M827.71,136.39c-13.75,42.54-27.5,85.09-41.2,127.65c-0.92,2.83-1.69,4.87-5.55,4.85c-36.83-0.17-73.66-0.1-110.49-0.11
		c-0.98,0-1.95-0.14-3.74-0.27c0.59-2.15,1.01-3.99,1.59-5.78c12.97-40,25.62-80.1,39.15-119.91c4.21-12.38-3.13-21.95-13.05-24.82
		c-13.85-4-28-2.91-42.16-2.8c-6.67,0.06-8.87,3.1-10.72,8.78c-15.15,46.64-30.63,93.16-45.85,139.78
		c-1.22,3.76-2.74,5.16-6.88,5.14c-35.83-0.19-71.66-0.11-107.49-0.11h-5.85c5.7-17.32,11.03-33.55,16.37-49.78
		c12.87-39.15,25.78-78.29,38.56-117.47c1.08-3.3,2.38-5.21,6.24-5.68c25.08-3.06,50.05-7.3,75.21-9.39
		c27.85-2.31,55.85-3.63,83.79-3.74c30.28-0.12,60.67,1.19,90.21,8.81c10.33,2.66,20.63,6.64,29.95,11.82
		C829.42,110.95,832.52,121.52,827.71,136.39z"/>
	<path d="M1792.03,103.85c-8.11-4.74-17.03-8.47-26-11.28c-27.27-8.53-55.47-10.4-83.97-11.47c-20.04,1.75-40.14,2.94-60.1,5.39
		c-26.72,3.28-52.51,10.41-76.54,22.86c-36.01,18.67-61.75,45.64-67.95,87.4c-2.64,17.81,1.98,33.63,15.65,46.25
		c8.21,7.58,17.7,12.91,28.01,16.95c25.95,10.18,53.22,12.94,80.73,13.84c24.66,0.79,49.28-0.2,73.73-3.9
		c30.13-4.57,59.25-12.28,85.8-27.84c28.41-16.67,49.11-39.57,57.51-72.18C1826.23,141.39,1817.2,118.56,1792.03,103.85z
		 M1687.19,198.76c-3.96,10.14-9.19,19.58-16.77,27.55c-13.32,13.98-37.61,19.11-55.44,11.72c-11.46-4.75-16.79-14.24-16.56-34.43
		c2.72-21.28,9.54-46.1,24.63-67.98c13.59-19.68,36.86-23.88,55.88-18.8c13.22,3.53,20.69,13.36,21.03,26.98
		C1700.46,163.21,1694.09,181.07,1687.19,198.76z"/>
	<path d="M1155.5,111.03c-7.3-5.85-15.79-10.65-24.42-14.29c-24.89-10.49-51.43-13.23-78.1-14.24c-28.33-1.07-56.59,0.07-84.61,4.9
		c-29.75,5.11-58.28,13.71-83.87,30.26c-27.4,17.71-46.75,41.45-53.06,74.2c-4.29,22.28,1.78,41.14,20.22,55.34
		c9.37,7.22,19.91,12.06,31.05,15.63c28.22,9.05,57.37,11.03,86.86,12.22c19.54-1.7,39.16-2.82,58.62-5.23
		c27.87-3.46,54.76-10.81,79.76-24.02c31.18-16.45,54.4-39.85,64.01-74.74C1178.34,147.89,1175.22,126.83,1155.5,111.03z
		 M1053.46,147.97c-2.2,24.63-9.35,47.89-22.31,69.09c-10.15,16.63-25.5,24.17-44.8,24.39c-3.79-0.47-7.64-0.66-11.36-1.48
		c-17.02-3.74-25.81-17.26-23.19-36.19c2.77-20.06,8.74-39.24,17.91-57.29c7.51-14.77,18.06-26.76,35.25-29.77
		c8.19-1.43,16.96-1.64,25.16-0.39C1045.49,118.67,1054.92,131.63,1053.46,147.97z"/>
	<path d="M1518.35,88.29c-1.19,1.88-1.87,3.13-2.71,4.27c-42.62,57.37-85.27,114.73-127.82,172.15c-1.91,2.59-3.92,3.51-7.05,3.5
		c-55.66-0.07-111.32-0.09-166.99,0.03c-4.33,0.01-5.48-1.44-5.99-5.65c-3.32-27.74-7.05-55.43-10.55-83.14
		c-3.18-25.25-6.22-50.51-9.34-75.76c-0.6-4.92-1.25-9.82-1.92-15.09h107.58c5.23,41.72,10.47,83.51,15.91,126.91
		c2.44-3.16,3.95-5.04,5.38-6.97c28.78-38.6,57.6-77.17,86.26-115.85c2.45-3.31,4.96-4.52,9.07-4.5c34.16,0.18,68.33,0.1,102.49,0.1
		H1518.35z"/>
	<path d="M464.95,102.68c-5.21-3.22-10.76-6.05-16.44-8.32c-21.15-8.46-43.49-10.96-65.97-11.83c-23.14-0.89-46.28-0.33-69.31,2.76
		c-28.38,3.81-55.86,10.57-81.37,23.95c-25.15,13.18-45.51,31.28-57.51,57.58c-5.42,11.88-8.77,24.32-9.59,37.46
		c-1.75,28.39,12.97,44.49,34.04,54.53c22.99,10.95,47.74,14.17,72.79,14.94c28.65,0.89,57.35,0.16,85.75-3.91
		c20.19-2.89,40.16-7.34,60.22-11.12c3.52-0.66,5.65-2.62,7.1-6.12c4.58-11.06,9.61-21.94,14.4-32.91c1.5-3.45,2.8-6.99,4.51-11.26
		c-2.03,0.75-3.22,1.18-4.41,1.63c-14.76,5.6-29.35,11.73-44.32,16.68c-25.36,8.39-51.2,14.77-78.24,13.48
		c-12.65-0.61-25.23-1.84-36.32-9.15c-4.58-3.02-6.77-7.12-7.54-12.3c-0.5-3.4,0.71-5.12,4.27-5.9
		c33.28-7.27,66.52-14.68,99.76-22.07c34.39-7.64,68.77-15.28,103.14-22.97c2.81-0.63,5.65-0.84,6.67-4.73
		C491.77,143.17,488.15,117.02,464.95,102.68z M389.77,143.72c-0.19,2.19-1.85,5.28-3.69,6.15
		c-35.25,16.81-70.62,33.35-105.98,49.94c-0.72,0.34-1.51,0.53-3.45,1.2c3.14-11.84,5.97-22.56,8.82-33.27
		c1.53-5.78,3.05-11.56,4.64-17.31c6.13-22.2,24.3-37.09,47.45-39.6c11.43-1.24,22.6-1.21,33.37,3.16
		C383.9,119.25,390.97,130.28,389.77,143.72z"/>
	<path d="M199.72,0.12c-0.58,2.43-0.89,4.16-1.41,5.84c-26.55,85.72-53.13,171.44-79.64,257.18c-0.96,3.1-1.75,5.14-5.82,5.12
		c-36.16-0.18-72.33-0.1-108.49-0.12c-1.29,0-2.57-0.23-4.36-0.4c4.07-13.19,8.01-26.03,11.98-38.85
		C34.96,154.59,57.99,80.3,80.82,5.96c1.35-4.4,3.07-5.99,7.84-5.96c34.99,0.22,69.99,0.12,104.98,0.12H199.72z"/>
	<path d="M1873.39,261.79c-0.02,1-1.45,1.97-2.23,2.96c-0.76-1.01-2.14-2.01-2.18-3.04c-0.21-6.5-0.1-13-0.14-19.5
		c0-0.75-0.23-1.49-1.51-2.46c-1.72,4.71-3.45,9.43-5.16,14.14c-0.96,2.66-1.69,5.43-2.94,7.94c-0.6,1.22-2.07,2.53-3.31,2.73
		c-0.81,0.13-2.38-1.5-2.83-2.64c-2.47-6.35-4.7-12.8-7.02-19.2c-0.27-0.74-0.6-1.45-0.9-2.18c-0.45,0.02-0.9,0.04-1.35,0.06
		c0,2.96,0.01,5.92,0,8.88c-0.01,4.17,0.14,8.35-0.16,12.5c-0.07,0.97-1.63,1.84-2.51,2.76c-0.71-0.87-2.04-1.73-2.05-2.61
		c-0.15-9.96-0.09-19.92-0.09-29.76c7.22-1.68,7.49-1.54,9.61,4.35c2.41,6.7,4.83,13.4,7.75,21.5c1.42-3.55,2.43-5.86,3.26-8.23
		c1.48-4.24,3.2-8.43,4.19-12.79c1.19-5.27,3.99-6.82,9.67-4.91C1873.49,242.18,1873.56,251.99,1873.39,261.79z"/>
	<path d="M1834.97,234.34c-0.28,0.48-0.55,0.97-0.83,1.46h-10.34v28.19c-3.55,1.49-4.99,0.84-4.93-2.78
		c0.12-6.81-0.18-13.63,0.11-20.43c0.17-4.02-1.27-5.42-5.13-4.96c-1.77,0.22-3.59,0.04-5.39,0.04c-0.31-0.44-0.61-0.88-0.92-1.31
		c0.95-0.98,1.88-2.76,2.86-2.79c7.14-0.24,14.29-0.25,21.43-0.02C1832.9,231.78,1833.92,233.43,1834.97,234.34z"/>
</g>
</svg>
