<?xml version="1.0" encoding="utf-8"?>
<!-- Generator: Adobe Illustrator 23.0.2, SVG Export Plug-In . SVG Version: 6.00 Build 0)  -->
<svg version="1.1" id="Layer_1" xmlns="http://www.w3.org/2000/svg" xmlns:xlink="http://www.w3.org/1999/xlink" x="0px" y="0px"
	 viewBox="0 0 110.7 132.4" style="enable-background:new 0 0 110.7 132.4;" xml:space="preserve">
<style type="text/css">
	.st0{fill:#1196BA;}
	.st1{fill:#3FCAEA;}
	.st2{fill:#1AA1C1;}
	.st3{fill:#4CC8E5;}
</style>
<g>
	<g>
		<path class="st0" d="M98.5,130.6l-4.2-29.4l0.1-0.4c0.1-0.3,7.9-29.6,10.5-37.9c1.3-4.2,1.9-8.6,1.9-13.3
			C106.7,24.5,86.3,4,61.1,4S15.5,24.5,15.5,49.6v4.5L4,84.8l0.1,0.1h15.6v20.6c0,1.1,0.4,2.2,1.2,3c0.8,0.8,1.9,1.2,3,1.2h22.8v4
			H23.9c-2.2,0-4.3-0.9-5.8-2.4c-1.6-1.6-2.4-3.6-2.4-5.8V88.9H4.1c-1.3,0-2.6-0.7-3.3-1.7C0,86-0.2,84.6,0.3,83.4l11.2-30v-3.8
			C11.5,22.3,33.8,0,61.1,0s49.6,22.3,49.6,49.6c0,5.1-0.7,9.9-2.1,14.5c-2.3,7.8-9.4,33.9-10.3,37.4l4.1,28.6L98.5,130.6z"/>
		<rect x="38.4" y="111.7" class="st0" width="4" height="20.7"/>
	</g>
	<g>
		<rect x="63.2" y="105.5" class="st0" width="4" height="5.5"/>
		<rect x="63.2" y="94.5" class="st0" width="4" height="5.5"/>
		<rect x="63.2" y="83.6" class="st0" width="4" height="5.5"/>
	</g>
</g>
<g>
	<path class="st1" d="M58.8,84.6c-0.1,0-0.2,0-0.3,0c-4.9-0.7-9.5-2.3-13.6-4.9c-0.5-0.3-0.8-0.8-0.9-1.3c-0.1-0.6,0-1.1,0.4-1.6
		c1.3-1.8,1.1-4.2-0.5-5.7c-1.6-1.5-4.1-1.5-5.7,0c-0.4,0.4-1,0.6-1.5,0.5c-0.6-0.1-1.1-0.3-1.4-0.8c-2.9-3.9-5-8.3-6.2-13.1
		c-0.1-0.5,0-1.1,0.3-1.6c0.3-0.5,0.8-0.8,1.4-0.9c2.2-0.3,3.8-2.2,3.7-4.4c-0.1-2.2-1.9-3.9-4.1-4c-0.6,0-1.1-0.3-1.4-0.7
		c-0.4-0.4-0.5-1-0.4-1.6c0.7-4.9,2.3-9.5,4.9-13.6c0.3-0.5,0.8-0.8,1.3-0.9c0.6-0.1,1.1,0,1.6,0.4c1.8,1.3,4.2,1.1,5.7-0.5
		c1.5-1.6,1.5-4.1,0-5.7c-0.4-0.4-0.6-1-0.5-1.5c0.1-0.6,0.3-1.1,0.8-1.4c3.9-2.9,8.3-5,13.1-6.2c0.5-0.1,1.1,0,1.6,0.3
		c0.5,0.3,0.8,0.8,0.9,1.4c0.3,2.2,2.2,3.8,4.4,3.7c2.2-0.1,3.9-1.8,4-4.1c0-0.6,0.3-1.1,0.7-1.4c0.4-0.4,1-0.5,1.6-0.4
		c4.9,0.7,9.5,2.3,13.6,4.9c0.5,0.3,0.8,0.8,0.9,1.3c0.1,0.6,0,1.1-0.4,1.6c-1.3,1.8-1.1,4.2,0.5,5.7c1.6,1.5,4.1,1.5,5.7,0
		c0.4-0.4,1-0.6,1.5-0.5c0.6,0.1,1.1,0.3,1.4,0.8c2.9,3.9,5,8.3,6.2,13.1c0.1,0.5,0,1.1-0.3,1.6c-0.3,0.5-0.8,0.8-1.4,0.9
		c-2.2,0.3-3.8,2.2-3.7,4.4c0.1,2.2,1.9,3.9,4.1,4c0.6,0,1.1,0.3,1.4,0.7c0.4,0.4,0.5,1,0.4,1.6c-0.7,4.9-2.3,9.5-4.9,13.6
		c-0.3,0.5-0.8,0.8-1.3,0.9c-0.6,0.1-1.1,0-1.6-0.4c-1.8-1.3-4.2-1.1-5.7,0.5c-1.5,1.6-1.5,4.1,0,5.7c0.4,0.4,0.6,1,0.5,1.5
		c-0.1,0.6-0.3,1.1-0.8,1.4c-3.9,2.9-8.3,5-13.1,6.2c-0.5,0.1-1.1,0-1.6-0.3c-0.5-0.3-0.8-0.8-0.9-1.4c-0.3-2.2-2.2-3.8-4.4-3.7
		c-2.2,0.1-3.9,1.9-4,4.1c0,0.6-0.3,1.1-0.7,1.4C59.8,84.4,59.3,84.6,58.8,84.6z M48.7,77.2c2.7,1.4,5.6,2.5,8.6,3.1
		c1-3.2,3.9-5.5,7.4-5.7c3.5-0.2,6.6,1.9,7.9,4.9c2.9-0.9,5.7-2.2,8.2-3.9c-1.5-3-1.1-6.7,1.2-9.3c2.4-2.6,6-3.4,9.1-2.1
		c1.4-2.7,2.5-5.6,3.1-8.6c-3.2-1-5.5-3.9-5.7-7.4c0,0,0,0,0,0c-0.2-3.5,1.9-6.6,4.9-7.9c-0.9-2.9-2.2-5.7-3.9-8.2
		c-3,1.5-6.7,1.1-9.3-1.2c-2.6-2.4-3.4-6-2.1-9.1c-2.7-1.4-5.6-2.5-8.6-3.1c-1,3.2-3.9,5.5-7.4,5.7c-3.5,0.2-6.6-1.8-7.9-4.9
		c-2.9,0.9-5.7,2.2-8.2,3.9c1.5,3,1.1,6.7-1.2,9.3c-2.4,2.6-6,3.4-9.1,2.1c-1.4,2.7-2.5,5.6-3.1,8.6c3.2,1,5.5,3.9,5.7,7.4
		c0.2,3.5-1.9,6.6-4.9,7.9c0.9,2.9,2.2,5.7,3.9,8.2c3-1.5,6.7-1.1,9.3,1.2C49.2,70.5,49.9,74.1,48.7,77.2z"/>
	<path class="st2" d="M63.4,67.2c-4.6,0-9-1.7-12.5-4.8c-3.7-3.3-5.8-7.9-6.1-12.8c-0.5-10.2,7.4-18.9,17.6-19.4
		c5-0.2,9.7,1.5,13.4,4.8c3.7,3.3,5.8,7.9,6.1,12.8c0.5,10.2-7.4,18.9-17.6,19.4C64,67.2,63.7,67.2,63.4,67.2z M63.4,34.1
		c-0.2,0-0.5,0-0.7,0c-8,0.4-14.2,7.2-13.8,15.2c0.2,3.9,1.9,7.5,4.8,10.1c2.9,2.6,6.6,3.9,10.5,3.8c8-0.4,14.2-7.2,13.8-15.2
		c-0.2-3.9-1.9-7.5-4.8-10.1C70.5,35.4,67,34.1,63.4,34.1z"/>
	<path class="st3" d="M63.5,55.5c-3.7,0-6.8-2.9-6.9-6.6c-0.1-1.9,0.5-3.6,1.8-5c1.2-1.4,3-2.2,4.8-2.3c1.9-0.1,3.6,0.5,5,1.8
		s2.2,3,2.3,4.8c0.1,1.9-0.5,3.6-1.8,5c-1.2,1.4-3,2.2-4.8,2.3C63.8,55.5,63.7,55.5,63.5,55.5z M63.6,43.6c-0.1,0-0.2,0-0.2,0
		c-1.3,0.1-2.5,0.6-3.4,1.6c-0.9,1-1.3,2.2-1.3,3.6c0.1,2.7,2.5,4.8,5.2,4.7c1.3-0.1,2.5-0.6,3.4-1.6c0.9-1,1.3-2.2,1.3-3.6
		c-0.1-1.3-0.6-2.5-1.6-3.4C66,44,64.8,43.6,63.6,43.6z"/>
</g>
</svg>
