<?xml version="1.0" encoding="utf-8"?>
<!-- Generator: Adobe Illustrator 23.0.2, SVG Export Plug-In . SVG Version: 6.00 Build 0)  -->
<svg version="1.1" id="Layer_1" xmlns="http://www.w3.org/2000/svg" xmlns:xlink="http://www.w3.org/1999/xlink" x="0px" y="0px"
	 viewBox="0 0 110.74 132.43" style="enable-background:new 0 0 110.74 132.43;" xml:space="preserve">
<g>
	<g>
		<g>
			<path d="M263.73,145.2h-92.28c-1.76,0-3.44-0.59-4.72-1.65c-1.36-1.14-2.14-2.74-2.14-4.41V21.4c0-1.66,0.78-3.27,2.14-4.4
				c1.28-1.07,2.95-1.66,4.72-1.66h92.28c1.76,0,3.44,0.59,4.72,1.65c1.36,1.14,2.14,2.74,2.14,4.4v117.74
				c0,1.66-0.78,3.27-2.14,4.4C267.17,144.61,265.49,145.2,263.73,145.2z M171.45,19.34c-0.82,0-1.6,0.26-2.15,0.72
				c-0.45,0.38-0.71,0.85-0.71,1.34v117.74c0,0.48,0.25,0.96,0.71,1.34c0.55,0.46,1.33,0.72,2.15,0.72h92.28
				c0.82,0,1.6-0.26,2.15-0.72c0.45-0.38,0.71-0.85,0.71-1.34V21.4c0-0.48-0.25-0.96-0.71-1.34c-0.55-0.46-1.33-0.72-2.15-0.72
				H171.45z"/>
			<path d="M194.3,77.97h-16.57V63.79h16.57V77.97z M179.73,75.97h12.57V65.79h-12.57V75.97z"/>
			<path d="M216.16,77.97h-16.57V63.79h16.57V77.97z M201.59,75.97h12.57V65.79h-12.57V75.97z"/>
			<path d="M194.3,96.24h-16.57V82.06h16.57V96.24z M179.73,94.24h12.57V84.06h-12.57V94.24z"/>
			<path d="M216.16,96.24h-16.57V82.06h16.57V96.24z M201.59,94.24h12.57V84.06h-12.57V94.24z"/>
			<path d="M238.01,96.24h-16.57V82.06h16.57V96.24z M223.44,94.24h12.57V84.06h-12.57V94.24z"/>
			<path style="fill:#96D32A;" d="M259.87,96.24H243.3V82.06h16.57V96.24z M245.3,94.24h12.57V84.06H245.3V94.24z"/>
			<path d="M194.3,114.51h-16.57v-14.18h16.57V114.51z M179.73,112.51h12.57v-10.18h-12.57V112.51z"/>
			<path d="M216.16,114.51h-16.57v-14.18h16.57V114.51z M201.59,112.51h12.57v-10.18h-12.57V112.51z"/>
			<path d="M238.01,114.51h-16.57v-14.18h16.57V114.51z M223.44,112.51h12.57v-10.18h-12.57V112.51z"/>
			<path d="M194.3,132.78h-16.57V118.6h16.57V132.78z M179.73,130.78h12.57V120.6h-12.57V130.78z"/>
			<path d="M216.16,132.78h-16.57V118.6h16.57V132.78z M201.59,130.78h12.57V120.6h-12.57V130.78z"/>
			<path d="M238.01,132.78h-16.57V118.6h16.57V132.78z M223.44,130.78h12.57V120.6h-12.57V130.78z"/>
			<path d="M259.87,132.78H243.3v-32.45h16.57V132.78z M245.3,130.78h12.57v-28.45H245.3V130.78z"/>
		</g>
		<g>
			<line x1="220.9" y1="66.82" x2="237.01" y2="66.82"/>
			<rect x="220.9" y="65.82" width="16.11" height="2"/>
		</g>
		<g>
			<line style="fill:#3FCAEA;" x1="241.87" y1="66.82" x2="258.87" y2="66.82"/>
			<rect x="241.87" y="65.82" width="17" height="2"/>
		</g>
		<g>
			<path d="M254.01,56.98h-72.85c-1,0-1.96-0.34-2.68-0.95c-0.79-0.67-1.24-1.61-1.24-2.59V32.95c0-0.98,0.45-1.93,1.25-2.59
				c0.73-0.61,1.68-0.95,2.68-0.95h72.85c1,0,1.96,0.34,2.68,0.95c0.79,0.67,1.24,1.61,1.24,2.59v20.48c0,0.98-0.45,1.93-1.24,2.59
				C255.97,56.64,255.01,56.98,254.01,56.98z M181.16,32.41c-0.29,0-0.56,0.09-0.75,0.25c-0.12,0.1-0.18,0.2-0.18,0.3v20.48
				c0,0.1,0.06,0.2,0.18,0.3c0.19,0.16,0.46,0.25,0.75,0.25h72.85c0.29,0,0.56-0.09,0.75-0.25c0.11-0.1,0.18-0.2,0.18-0.3V32.95
				c0-0.1-0.06-0.2-0.18-0.3c-0.19-0.16-0.46-0.25-0.75-0.25H181.16z"/>
		</g>
	</g>
	<g>
		<path style="fill:#FFFFFF;" d="M295,88.99c0,15.1-12.44,27.35-27.77,27.35c-10.19,0-19.1-5.4-23.93-13.46
			c-2.44-4.07-3.84-8.82-3.84-13.89c0-15.1,12.43-27.35,27.77-27.35C282.56,61.64,295,73.89,295,88.99z"/>
		<g>
			<ellipse style="fill:#FFFFFF;" cx="267.23" cy="88.99" rx="23.5" ry="23.14"/>
			<path d="M267.22,113.13c-13.33,0-24.27-10.57-24.49-23.75c-0.11-6.45,2.34-12.55,6.9-17.19c4.55-4.63,10.66-7.24,17.2-7.34
				c13.48-0.17,24.67,10.44,24.9,23.74l0,0c0.11,6.45-2.34,12.55-6.9,17.19c-4.55,4.63-10.66,7.24-17.2,7.34
				C267.49,113.13,267.35,113.13,267.22,113.13z M267.23,66.85c-0.12,0-0.25,0-0.37,0c-6.01,0.1-11.62,2.49-15.8,6.74
				c-4.18,4.25-6.42,9.84-6.33,15.75c0.2,12.08,10.25,21.78,22.49,21.78c0.12,0,0.25,0,0.37,0c6.01-0.1,11.62-2.49,15.8-6.74
				c4.18-4.25,6.42-9.84,6.33-15.75l0,0C289.52,76.55,279.47,66.85,267.23,66.85z"/>
		</g>
		<ellipse cx="267.3" cy="89.06" rx="16.79" ry="16.53"/>
		<path style="fill:#FFFFFF;" d="M264.17,97.69c-0.38,0-0.76-0.14-1.05-0.43l-6.43-6.33l2.11-2.14l5.38,5.3l11.81-11.63l2.11,2.14
			l-12.86,12.67C264.93,97.54,264.55,97.69,264.17,97.69z"/>
	</g>
</g>
<path style="fill:#FFFFFF;" d="M312,176"/>
<path d="M266.58,61.64"/>
</svg>
