<?xml version="1.0" encoding="utf-8"?>
<!-- Generator: Adobe Illustrator 23.0.2, SVG Export Plug-In . SVG Version: 6.00 Build 0)  -->
<svg version="1.1" id="Layer_1" xmlns="http://www.w3.org/2000/svg" xmlns:xlink="http://www.w3.org/1999/xlink" x="0px" y="0px"
	 viewBox="0 0 155.11 153.08" style="enable-background:new 0 0 155.11 153.08;" xml:space="preserve">
<polygon style="fill:#1196BA;" points="121.21,92.16 67.87,92.16 67.87,87.16 116.21,87.16 116.21,19.53 19.53,19.53 19.53,72.71 
	14.53,72.71 14.53,14.53 121.21,14.53 "/>
<polygon style="fill:#1196BA;" points="24.36,126.08 0,126.05 0,77.47 63.1,77.47 63.1,126.05 49.94,126.05 49.94,121.05 
	58.1,121.05 58.1,82.47 5,82.47 5,121.06 24.36,121.08 "/>
<rect x="127.97" y="54.08" style="fill:#3FCAEA;" width="15.37" height="2"/>
<rect x="127.97" y="66.08" style="fill:#3FCAEA;" width="15.37" height="2"/>
<rect x="127.97" y="78.08" style="fill:#3FCAEA;" width="15.37" height="2"/>
<rect x="127.97" y="90.08" style="fill:#3FCAEA;" width="15.37" height="2"/>
<rect x="84.39" y="102.08" style="fill:#3FCAEA;" width="58.95" height="2"/>
<rect x="84.39" y="114.08" style="fill:#3FCAEA;" width="58.95" height="2"/>
<rect x="93.39" y="125.08" style="fill:#3FCAEA;" width="49.95" height="2"/>
<rect x="72.63" y="96.92" style="fill:#1196BA;" width="5" height="28.08"/>
<polygon style="fill:#1196BA;" points="155.1,140.58 91.73,140.58 91.73,135.58 150.1,135.58 150.1,43.74 125.97,43.74 
	125.97,38.74 155.1,38.74 "/>
<path style="fill:#1196BA;" d="M150.26,24.37h-24.37V0h24.37V24.37z M130.89,19.37h14.37V5h-14.37V19.37z"/>
<rect x="135.66" y="11.18" style="fill:#3FCAEA;" width="4.84" height="2"/>
<polygon style="fill:#1196BA;" points="9.84,26.71 4.84,26.71 4.84,4.84 26.71,4.84 26.71,9.84 9.84,9.84 "/>
<rect x="28.36" y="27.08" style="fill:#3FCAEA;" width="26" height="23"/>
<path style="fill:#3FCAEA;" d="M54.36,117.08h-4c0,0,0-1,0-3s0-4,0-7c0-7-6-13-13-13c-6,0-13,5-13,14c0,2,0,2,0,4s0,5,0,5h-15v-30
	h45V117.08z"/>
<rect x="59.36" y="27.08" style="fill:#3FCAEA;" width="50" height="9"/>
<rect x="59.36" y="41.08" style="fill:#3FCAEA;" width="14" height="9"/>
<rect x="78.11" y="41.08" style="fill:#3FCAEA;" width="13.5" height="9"/>
<rect x="95.36" y="41.08" style="fill:#3FCAEA;" width="14" height="9"/>
<rect x="28.36" y="57.08" style="fill:#3FCAEA;" width="81" height="2"/>
<rect x="28.36" y="67.08" style="fill:#3FCAEA;" width="81" height="2"/>
<rect x="68.36" y="77.08" style="fill:#3FCAEA;" width="41" height="2"/>
<path style="fill:#1196BA;" d="M32.86,153.08h-5v-46.09c0-2.51,0.98-4.88,2.76-6.66c1.78-1.78,4.14-2.76,6.66-2.76
	s4.88,0.98,6.66,2.76c1.78,1.78,2.76,4.14,2.76,6.66v29.96h-5v-29.96c0-1.18-0.46-2.29-1.29-3.12c-0.83-0.83-1.94-1.29-3.12-1.29
	s-2.29,0.46-3.12,1.29c-0.83,0.83-1.29,1.94-1.29,3.12V153.08z"/>
<path style="fill:#1196BA;" d="M60.51,143.86h-5v-6.91c0-1.18-0.46-2.29-1.29-3.12s-1.94-1.29-3.12-1.29s-2.29,0.46-3.12,1.29
	c-0.83,0.83-1.29,1.94-1.29,3.12v6.91h-5v-6.91c0-2.51,0.98-4.88,2.76-6.66c1.78-1.78,4.14-2.76,6.66-2.76s4.88,0.98,6.66,2.76
	c1.78,1.78,2.76,4.14,2.76,6.66V143.86z"/>
<path style="fill:#1196BA;" d="M74.34,143.86h-5v-6.91c0-1.18-0.46-2.29-1.29-3.12c-0.83-0.83-1.94-1.29-3.12-1.29
	c-1.18,0-2.29,0.46-3.12,1.29s-1.29,1.94-1.29,3.12v6.91h-5v-6.91c0-2.51,0.98-4.88,2.76-6.66s4.14-2.76,6.66-2.76
	c2.51,0,4.88,0.98,6.66,2.76c1.78,1.78,2.76,4.14,2.76,6.66V143.86z"/>
<path style="fill:#1196BA;" d="M88.17,153.08h-5v-16.13c0-1.18-0.46-2.29-1.29-3.12c-0.83-0.83-1.94-1.29-3.12-1.29
	s-2.29,0.46-3.12,1.29s-1.29,1.94-1.29,3.12v6.91h-5v-6.91c0-2.51,0.98-4.88,2.76-6.66s4.14-2.76,6.66-2.76
	c2.51,0,4.88,0.98,6.66,2.76c1.78,1.78,2.76,4.14,2.76,6.66V153.08z"/>
</svg>
