<?xml version="1.0" encoding="utf-8"?>
<!-- Generator: Adobe Illustrator 23.0.2, SVG Export Plug-In . SVG Version: 6.00 Build 0)  -->
<svg version="1.1" id="Layer_1" xmlns="http://www.w3.org/2000/svg" xmlns:xlink="http://www.w3.org/1999/xlink" x="0px" y="0px"
	 viewBox="0 0 155.11 153.08" style="enable-background:new 0 0 155.11 153.08;" xml:space="preserve">
<polygon points="121.21,92.16 67.87,92.16 67.87,87.16 116.21,87.16 116.21,19.53 19.53,19.53 19.53,72.71 14.53,72.71 14.53,14.53 
	121.21,14.53 "/>
<polygon points="24.36,126.08 0,126.05 0,77.47 63.1,77.47 63.1,126.05 49.94,126.05 49.94,121.05 58.1,121.05 58.1,82.47 5,82.47 
	5,121.06 24.36,121.08 "/>
<rect x="127.97" y="54.08" width="15.37" height="2"/>
<rect x="127.97" y="66.08" width="15.37" height="2"/>
<rect x="127.97" y="78.08" width="15.37" height="2"/>
<rect x="127.97" y="90.08" width="15.37" height="2"/>
<rect x="84.39" y="102.08" width="58.95" height="2"/>
<rect x="84.39" y="114.08" width="58.95" height="2"/>
<rect x="93.39" y="125.08" width="49.95" height="2"/>
<rect x="72.63" y="96.92" width="5" height="28.08"/>
<polygon points="155.1,140.58 91.73,140.58 91.73,135.58 150.1,135.58 150.1,43.74 125.97,43.74 125.97,38.74 155.1,38.74 "/>
<path d="M150.26,24.37h-24.37V0h24.37V24.37z M130.89,19.37h14.37V5h-14.37V19.37z"/>
<rect x="135.66" y="11.18" width="4.84" height="2"/>
<polygon points="9.84,26.71 4.84,26.71 4.84,4.84 26.71,4.84 26.71,9.84 9.84,9.84 "/>
<rect x="28.36" y="27.08" width="26" height="23"/>
<path d="M54.36,117.08h-4c0,0,0-1,0-3s0-4,0-7c0-7-6-13-13-13c-6,0-13,5-13,14c0,2,0,2,0,4s0,5,0,5h-15v-30h45V117.08z"/>
<rect x="59.36" y="27.08" width="50" height="9"/>
<rect x="59.36" y="41.08" width="14" height="9"/>
<rect x="78.11" y="41.08" width="13.5" height="9"/>
<rect x="95.36" y="41.08" width="14" height="9"/>
<rect x="28.36" y="57.08" width="81" height="2"/>
<rect x="28.36" y="67.08" width="81" height="2"/>
<rect x="68.36" y="77.08" width="41" height="2"/>
<path d="M46.69,106.99v21.64c-0.82,0.43-1.58,0.99-2.25,1.66c-1.77,1.78-2.75,4.15-2.75,6.66v-29.96c0-1.18-0.46-2.28-1.3-3.12
	c-0.83-0.83-1.94-1.29-3.12-1.29c-1.18,0-2.28,0.46-3.12,1.29c-0.83,0.84-1.29,1.94-1.29,3.12v46.09h-5v-46.09
	c0-2.51,0.98-4.87,2.76-6.65c1.78-1.78,4.14-2.76,6.65-2.76c2.52,0,4.88,0.98,6.66,2.76C45.71,102.12,46.69,104.48,46.69,106.99z
	 M41.69,136.95v6.91h5v-6.91H41.69z M44.44,130.29c-1.77,1.78-2.75,4.15-2.75,6.66h5v-8.32C45.87,129.06,45.11,129.62,44.44,130.29z
	 M57.75,130.29c-1.77-1.77-4.14-2.75-6.65-2.75c-1.56,0-3.07,0.38-4.41,1.09v8.32c0-1.18,0.46-2.29,1.29-3.12
	c0.83-0.83,1.94-1.29,3.12-1.29s2.28,0.46,3.12,1.29c0.83,0.83,1.29,1.94,1.29,3.12c0-2.38,0.88-4.64,2.5-6.38
	C57.93,130.47,57.84,130.38,57.75,130.29z M58.01,130.57c-1.62,1.74-2.5,4-2.5,6.38v6.91h5v-6.91
	C60.51,134.57,59.63,132.31,58.01,130.57z M71.58,130.29c-1.78-1.77-4.14-2.75-6.65-2.75c-2.52,0-4.88,0.98-6.66,2.75
	c-0.09,0.09-0.18,0.18-0.26,0.28c1.62,1.74,2.5,4,2.5,6.38c0-1.18,0.46-2.29,1.3-3.12c0.83-0.83,1.94-1.29,3.12-1.29
	c1.17,0,2.28,0.46,3.11,1.29c0.84,0.83,1.3,1.94,1.3,3.12c0-2.38,0.88-4.64,2.5-6.38C71.76,130.47,71.67,130.38,71.58,130.29z
	 M71.84,130.57c-1.62,1.74-2.5,4-2.5,6.38v6.91h5v-6.91C74.34,134.57,73.46,132.31,71.84,130.57z M85.41,130.29
	c-1.78-1.77-4.15-2.75-6.66-2.75s-4.88,0.98-6.65,2.75c-0.09,0.09-0.18,0.18-0.26,0.28c1.62,1.74,2.5,4,2.5,6.38
	c0-1.18,0.46-2.29,1.29-3.12c0.84-0.83,1.94-1.29,3.12-1.29s2.29,0.46,3.12,1.29c0.83,0.83,1.29,1.94,1.29,3.12v16.13h5v-16.13
	C88.16,134.44,87.19,132.07,85.41,130.29z"/>
</svg>
