<?xml version="1.0" encoding="utf-8"?>
<!-- Generator: Adobe Illustrator 23.0.2, SVG Export Plug-In . SVG Version: 6.00 Build 0)  -->
<svg version="1.1" id="Layer_1" xmlns="http://www.w3.org/2000/svg" xmlns:xlink="http://www.w3.org/1999/xlink" x="0px" y="0px"
	 viewBox="0 0 1528.89 417.25" style="enable-background:new 0 0 1528.89 417.25;" xml:space="preserve">
<g>
	<path d="M100.97,11.05c-0.32,6.63,0,13.29-0.11,19.93c-0.08,5.34-2.65,7.92-8,7.99c-7.31,0.1-14.63,0.1-21.94,0.01
		c-5.33-0.07-7.93-2.66-8-7.99c-0.1-7.64-0.38-15.31,0.16-22.92c0.19-2.76,2.48-5.38,3.81-8.07h30
		C100.23,2.95,101.18,6.62,100.97,11.05z"/>
	<path d="M1528.89,132v13c-0.6,0.96-1.2,1.93-1.8,2.89c-0.41-0.09-0.82-0.19-1.23-0.28c-0.25-3.18-0.49-6.36-0.81-10.43
		c-2.04,2.48-3.61,4.39-5.57,6.77c-1.74-2.15-3.25-4.01-5.26-6.49c-0.42,3.78-0.78,7.06-1.15,10.33c-0.5-0.05-1.01-0.1-1.51-0.14
		v-17.03c0.48-0.15,0.95-0.3,1.43-0.45c2.03,2.91,4.06,5.82,6.53,9.36c1.62-2.42,3.17-4.47,4.42-6.68
		C1525.32,130.38,1526.85,130.05,1528.89,132z"/>
	<path d="M526.89,295.91c0,7.38-5.26,12.64-12.46,12.78c-6.85,0.12-12.52-5.52-12.54-12.77c-0.12-36.81-0.18-73.62-0.26-110.44
		c-0.01-1.91,0-3.83-1.17-6.11c-4.1,6.13-8.24,12.23-12.31,18.38c-12.04,18.15-24.32,36.16-35.97,54.56
		c-5.3,8.37-15.76,9.34-21.78,0.06c-14.85-22.87-30.25-45.39-45.43-68.05c-0.95-1.43-1.94-2.83-2.92-4.25
		c-0.38,0.12-0.76,0.23-1.14,0.34v5.25c0.09,36.14,0.19,72.29,0.24,108.44c0.01,8.38-2.87,12.53-9.57,14.29
		c-6.79,1.78-13.29-2.06-14.82-8.89c-0.44-1.93-0.57-3.95-0.57-5.93c-0.12-48.31-0.2-96.62-0.27-144.93
		c-0.02-8.54,3.01-14.46,8.98-15.4c9.92-1.55,14.78-0.95,19.94,7.13c18.15,28.45,36.4,56.84,54.62,85.25
		c0.53,0.83,1.11,1.63,2.07,3.04c1.18-1.68,2.21-3.04,3.12-4.47c17.79-27.9,35.65-55.74,53.25-83.75c3.95-6.28,9.12-8.76,16.27-8.2
		c7.72,0.61,12.67,5.5,12.68,13.23C526.9,195.62,526.91,245.76,526.89,295.91z"/>
	<path d="M749.86,291.56c0.02,9.28-2.3,13.5-8.56,15.7c-6.65,2.33-13.04,0.23-18.33-6.54c-19.36-24.8-38.62-49.68-57.89-74.55
		c-12.65-16.31-25.27-32.64-37.92-48.95c-0.76-0.99-1.65-1.89-3.3-3.77v120.36c-0.01,9.14-4.42,14.38-12.14,14.44
		c-8.09,0.07-12.82-5.19-12.82-14.35c-0.02-48.66,0.03-97.32-0.12-145.98c-0.02-6.54,1.17-12.25,7.77-14.68
		c7.17-2.65,14.45-2.1,19.73,4.06c6.94,8.07,13.31,16.62,19.84,25.03c24.91,32.09,49.78,64.19,74.66,96.29
		c0.94,1.21,1.91,2.38,2.87,3.57c0.4-0.15,0.81-0.3,1.21-0.45c0-1.76,0.01-3.51,0-5.26c-0.08-36.66-0.14-73.31-0.28-109.97
		c-0.03-5.71,1.25-10.58,6.73-13.41c7.19-3.71,15.78,0.17,17.71,8.07c0.47,1.91,0.57,3.95,0.58,5.92
		C749.72,195.25,749.79,243.4,749.86,291.56z"/>
	<path d="M1488.47,229.48c1.66,0,3.34,0.08,4.99-0.07c6.96-0.62,11.7-5.23,11.12-12.15c-0.8-9.56-1.37-19.39-4.09-28.48
		c-8.95-29.84-27.93-50.21-59.36-56.04c-30.78-5.71-57.08,3.57-77.09,27.91c-18.21,22.16-23.11,48.1-19.07,76.03
		c6.53,45.2,44.9,75.9,90.46,72.84c22.56-1.51,41.83-9.89,57.91-25.72c4.12-4.06,5.04-8.68,2.71-13.08
		c-2.27-4.26-6.99-6.73-11.76-5.43c-2.43,0.67-4.8,2.26-6.74,3.95c-16.02,13.95-34.35,20.18-55.68,18.07
		c-28.23-2.79-51.96-28.35-52.25-57.23c1.44-0.09,2.91-0.25,4.37-0.25C1412.15,229.7,1450.3,229.6,1488.47,229.48z M1369.57,210.83
		c-1.5-30.56,26.04-58.83,56.86-58.49c29.44,0.32,54.64,28.05,52.68,58.49H1369.57z"/>
	<path d="M1146.7,293.92c-0.01,10.34-8.61,16.73-17.25,12.77c-4.78-2.18-7.41-6-7.39-11.43c0.03-5.74,0.01-11.48,0.01-17.22
		c-0.34-0.09-0.68-0.18-1.02-0.27c-1.77,2.32-3.51,4.65-5.31,6.94c-15.74,19.99-36.72,27.19-61.41,24.7
		c-36.74-3.7-56.44-31.03-56.58-67.03c-0.09-23.33,0.02-46.66-0.03-70c-0.01-8.16-0.36-16.32-0.26-24.48
		c0.1-7.76,3.76-12.63,9.8-13.73c8.53-1.55,15.42,4.24,15.43,13.19c0.05,29.5-0.03,59,0.05,88.49c0.03,9.92,1.79,19.56,6.42,28.44
		c8.18,15.72,25.93,24.61,44.89,22.67c29.91-3.05,47.87-23.78,47.98-55.83c0.09-27.32-0.19-54.65-0.27-81.98
		c0-2.31,0.01-4.72,0.59-6.93c1.29-4.88,5.98-8.34,11.1-8.61c5.14-0.28,10.42,3.01,12.09,7.97c0.78,2.32,1.12,4.89,1.12,7.35
		C1146.73,197.26,1146.73,245.59,1146.7,293.92z"/>
	<path d="M191.76,331.88h-9.44c-9.02,0-10.55,1.56-10.55,10.75v36.92c-1.59,0.12-3.01,0.31-4.44,0.31
		c-26.13,0.02-52.27,0.03-78.41,0.01c-5.77,0-7.86-1.61-7.87-6.55c-0.07-27.47-0.04-54.94-0.04-82.41v-4.79
		c14.16,0,27.78-0.24,41.39,0.09c9.15,0.22,12.43-1.53,11.63-11.78c-0.07-0.82,0.07-1.65,0.12-2.82c1.08-0.16,2.17-0.46,3.26-0.46
		c15.65-0.04,31.3-0.05,46.95-0.01c5.29,0.01,7.35,1.74,7.37,6.54C191.82,295.48,191.76,313.29,191.76,331.88z"/>
	<path d="M908.07,304.91c-22.55,8.42-44.89,5.57-66.71-2.63c-8.63-3.24-16.79-7.92-24.78-12.62c-7.01-4.13-8.48-10.86-4.55-16.46
		c3.77-5.36,10.22-6.06,16.75-1.77c18.15,11.91,37.74,18.97,59.75,16.66c11.79-1.23,21.98-5.86,26.95-17.64
		c4.47-10.59,1.79-21.39-8.33-26.92c-9.79-5.35-20.68-8.74-31.2-12.69c-11.15-4.2-22.74-7.36-33.61-12.18
		c-34.84-15.48-29.23-59.1-4.84-75.04c11.84-7.74,24.79-10.99,38.78-10.83c19,0.16,36.73,5.22,53.42,14.09
		c6.43,3.41,8.68,9.95,5.75,15.52c-3.01,5.73-9.95,7.63-16.42,4.13c-14.24-7.7-29.15-13.07-45.56-12.64
		c-9.7,0.25-18.78,2.72-25.71,10.2c-8.71,9.4-8.01,23.67,2.86,30.28c8.94,5.44,19.15,8.9,28.99,12.75
		c12.04,4.7,24.59,8.21,36.34,13.5c13.03,5.86,22.57,15.71,24.62,30.54C943.98,275.96,931.66,296.1,908.07,304.91z"/>
	<path d="M131.52,212.12v56.76h-26c-5.83,0-11.65-0.01-17.48,0c-7.15,0.01-9.24,2.05-9.27,9.03c-0.01,1.8,0,3.6,0,5.68
		c-1.67,0.11-2.96,0.27-4.24,0.28c-15.15,0.01-30.3,0.04-45.45-0.01c-5.1-0.02-7.03-1.87-7.04-6.88
		c-0.05-30.96-0.01-61.93-0.04-92.9c0-4.44,1.91-6.94,6.52-6.95c15.81-0.01,31.62,0,48.25,0c0,9.15-0.02,17.77,0,26.38
		c0.02,6.37,2.27,8.6,8.7,8.61c13.65,0.02,27.3,0,40.95,0H131.52z"/>
	<path d="M98.73,103.88c-5.12,0-9.45-0.03-13.78,0.01c-5.78,0.05-8.15,2.37-8.17,8.12c-0.04,10.5-0.01,20.99-0.01,31.49v5.38H65.93
		c-19.32,0-38.64,0.01-57.97-0.01c-6.29-0.01-7.93-1.66-7.94-8.01c-0.02-26.99-0.02-53.98,0-80.97c0.01-6.01,1.73-7.75,7.69-7.76
		c27.82-0.02,55.64,0.02,83.46-0.03c3.95-0.01,7.41,0.94,7.47,5.4C98.87,72.78,98.73,88.07,98.73,103.88z"/>
	<path d="M1302.96,157.79c-1.6,0.43-3.25,0.71-4.9,0.95c-10.01,1.51-19.25,5.03-27.52,10.88c-16.14,11.43-24.87,27.53-27.66,46.67
		c-1.53,10.48-1.57,21.2-1.76,31.82c-0.28,15.48,0.04,30.97-0.13,46.46c-0.09,7.33-4.52,12.2-11.21,13.1
		c-5.38,0.72-11.24-3.13-13.11-8.67c-0.31-0.93-0.45-1.92-0.58-2.9c-0.08-0.65-0.02-1.33-0.02-1.99
		c-0.11-48.12-0.23-96.24-0.3-144.36c-0.01-2.48-0.03-5.07,0.61-7.43c1.57-5.8,7.53-9.45,13.49-8.65
		c6.44,0.88,10.77,5.66,10.82,12.22c0.07,10.11,0.02,20.24,0.02,30.56c6.04-8.15,11.09-16.42,17.57-23.38
		c11.18-12,24.74-20.15,41.87-20.17c6.97-0.01,11.4,4.36,12.16,11.33C1312.98,150.49,1309.14,156.13,1302.96,157.79z"/>
	<path d="M252.74,155.8c0,3.51-1.84,5.96-5.37,5.98c-19.61,0.13-39.22,0.06-59.36,0.06c0-16.96,0.01-33.11,0-49.27
		c-0.01-6.43-2.23-8.64-8.62-8.69c-5-0.04-9.99-0.06-14.99-0.11c-0.29,0-0.58-0.24-1.35-0.57c0-6.75-0.15-13.7,0.06-20.64
		c0.1-3.54,2.44-5.41,5.95-5.41c25.82-0.04,51.64-0.03,77.46-0.01c4.02,0.01,6.22,2.17,6.22,6.2
		C252.78,107.5,252.77,131.65,252.74,155.8z"/>
	<path d="M185.51,164.12v16.76c-8.14,0-16.09-0.02-24.03,0c-6.44,0.02-8.68,2.24-8.71,8.62c-0.02,6.62,0,13.24,0,20.12h-18.76
		c0-8.81,0.02-17.42,0-26.04c-0.02-6.44-2.23-8.68-8.62-8.69c-13.66-0.03-27.33-0.01-40.99-0.01h-5.16v-23.76
		c4.67,0,9.12,0.03,13.57-0.01c5.79-0.05,8.17-2.37,8.19-8.11c0.04-10.5,0.01-21,0.01-31.49v-5.13h59.76v23.03c0,9-0.05,18,0.02,27
		c0.04,5.17,2.48,7.62,7.59,7.69C174.01,164.18,179.63,164.12,185.51,164.12z"/>
	<path d="M244.74,397.31c-0.01,5.73-1.77,7.54-7.38,7.55c-18.66,0.04-37.31,0.04-55.97,0c-5.45-0.01-7.29-1.8-7.37-7.06
		c-0.08-4.98-0.02-9.96-0.02-15.68c4.26,0,7.89,0.02,11.53,0c6.11-0.05,8.45-2.31,8.46-8.34c0.03-12.97,0.01-25.95,0.01-39.26
		c1.51-0.15,2.77-0.38,4.04-0.38c12.99-0.03,25.98-0.04,38.97-0.01c5.99,0.02,7.73,1.74,7.74,7.72
		C244.79,360.34,244.79,378.82,244.74,397.31z"/>
	<path d="M225.76,191.33c0.02,17.49,0.02,34.98,0,52.47c-0.01,6.38-1.64,8.06-7.88,8.07c-18.32,0.02-36.64,0.02-54.97,0
		c-6.11-0.01-7.86-1.68-7.88-7.56c-0.05-10.48-0.02-20.96-0.02-32.19c8.4,0,16.2,0.01,24,0c6.79-0.01,8.98-2.16,9-8.81
		c0.02-6.48,0-12.96,0-20.19h5.02c8.16,0,16.32-0.01,24.48,0.01C224.16,183.15,225.74,184.72,225.76,191.33z"/>
	<path d="M329.87,122.72c-0.04,5.67-2.58,8.22-8.27,8.25c-13.47,0.08-26.95,0.07-40.43,0.01c-5.66-0.03-8.23-2.59-8.26-8.26
		c-0.07-13.15-0.07-26.29,0-39.44c0.03-5.66,2.6-8.19,8.26-8.26c6.83-0.08,13.65-0.02,20.47-0.02c6.66,0,13.31-0.06,19.97,0.02
		c5.67,0.07,8.23,2.6,8.26,8.26C329.93,96.43,329.93,109.57,329.87,122.72z"/>
	<path d="M65.86,398.97c-0.04,5.35-2.65,7.96-8.01,8c-12.98,0.09-25.96,0.08-38.94,0c-5.33-0.03-7.95-2.66-7.99-8.01
		c-0.09-12.64-0.09-25.29,0-37.93c0.04-5.34,2.67-7.93,8.01-8c6.49-0.1,12.98-0.03,19.47-0.03s12.98-0.07,19.46,0.03
		c5.35,0.08,7.97,2.67,8,8.01C65.93,373.68,65.95,386.33,65.86,398.97z"/>
	<path d="M131.74,209.88h-9.07c-12.14,0-24.28,0.04-36.42-0.02c-5.36-0.03-7.19-1.85-7.23-7.19c-0.07-8.29-0.02-16.58-0.02-25.53
		c16.12,0,31.57-0.05,47.01,0.04c3.52,0.02,5.64,2.13,5.68,5.65C131.83,191.62,131.74,200.41,131.74,209.88z"/>
	<path d="M64.84,330.56c-0.1,4.72-2.76,7.23-7.56,7.41c-3.66,0.12-7.32,0.02-10.98,0.02c-3.49,0.01-6.98,0.08-10.47-0.01
		c-5.1-0.13-7.8-2.63-7.9-7.59c-0.13-7.31-0.14-14.63,0.01-21.95c0.1-4.71,2.78-7.32,7.56-7.4c7.32-0.13,14.63-0.14,21.95,0.01
		c4.72,0.1,7.32,2.78,7.4,7.56C64.98,315.92,64.99,323.24,64.84,330.56z"/>
	<path d="M185.74,161.77c-6.2,0-12.17,0.43-18-0.26c-1.76-0.21-4.47-3.48-4.51-5.4c-0.36-16.42-0.21-32.86-0.21-49.97
		c6.12,0,11.58-0.1,17.04,0.04c3.53,0.1,5.62,2.19,5.64,5.7C185.79,128.32,185.74,144.76,185.74,161.77z"/>
	<path d="M98.71,143.1c-0.03,3.51-2.09,5.6-5.62,5.72c-4.46,0.15-8.92,0.04-14.08,0.04v-19.52c0-5.65-0.03-11.3,0.02-16.94
		c0.04-4.01,2.13-6.18,6.16-6.25c4.29-0.08,8.59-0.02,13.56-0.02C98.74,118.9,98.81,131,98.71,143.1z"/>
	<path d="M185.71,204.17c-0.08,3.52-2.16,5.6-5.68,5.65c-8.12,0.12-16.23,0.04-24.9,0.04c0-7.54-0.35-14.81,0.25-22
		c0.15-1.71,3.42-4.38,5.39-4.5c8.08-0.52,16.21-0.22,24.98-0.22C185.74,190.6,185.84,197.39,185.71,204.17z"/>
	<path d="M191.74,372.44c-0.03,5.64-1.81,7.36-7.48,7.43c-3.15,0.04-6.3,0.01-10.22,0.01c0-13.8-0.09-27.06,0.06-40.31
		c0.04-3.52,2.41-5.35,5.91-5.42c3.65-0.08,7.3-0.02,11.75-0.02v6.41C191.77,351.17,191.8,361.81,191.74,372.44z"/>
	<path d="M424.22,362.93c-4.31,11.93-8.63,23.86-12.95,35.79c-0.57,1.56-0.98,3.22-1.81,4.62c-0.83,1.38-2.12,2.49-3.2,3.72
		c-1.08-1.28-2.62-2.39-3.16-3.87c-3.37-9.18-6.51-18.44-9.75-27.67c-0.43-1.22-1-2.39-2-4.76c-1.87,4.98-3.4,8.87-4.79,12.81
		c-2.42,6.88-4.66,13.82-7.19,20.66c-0.43,1.15-1.8,2.32-2.98,2.67c-0.61,0.18-2.21-1.24-2.57-2.23
		c-4.93-13.35-9.73-26.75-14.54-40.14c-0.17-0.45-0.09-0.99-0.14-1.76c3.72-1.4,4.59,0.87,5.46,3.39
		c3.21,9.23,6.49,18.45,9.75,27.67c0.51,1.45,1.11,2.86,1.66,4.3c0.46-0.01,0.91-0.02,1.37-0.03c0.63-1.58,1.33-3.13,1.88-4.74
		c3.02-8.95,5.92-17.94,9.09-26.83c0.56-1.58,2.2-2.77,3.33-4.14c1,1.32,2.4,2.49,2.93,3.98c3.32,9.36,6.45,18.81,9.66,28.22
		c0.46,1.37,1.06,2.69,2.17,5.51c2.94-8.23,5.42-15.12,7.86-22.03c1.49-4.22,2.7-8.55,4.51-12.63c0.68-1.55,2.66-2.53,4.05-3.77
		C423.32,362.09,423.77,362.51,424.22,362.93z"/>
	<path d="M131.71,278.37c-0.24,3.27-2.12,5.4-5.39,5.42c-14.92,0.12-29.84,0.06-45.28,0.06c0-2.68-0.12-4.96,0.03-7.22
		c0.23-3.27,2.13-5.4,5.39-5.42c14.92-0.12,29.85-0.05,45.28-0.05C131.74,274.06,131.86,276.23,131.71,278.37z"/>
	<path d="M1461.48,374.78c-0.51-0.3-1.01-0.6-1.52-0.9c-1.32,1.54-2.65,3.07-3.98,4.59c-11.19-6.61-19.03-6.3-24.93,1.18
		c-4.36,5.52-4.07,13.95,0.66,19.31c6.05,6.85,14.03,6.71,24.81-0.43c2.05,8.59-2.17,14.75-10.7,14.77c-3.85,0-7.7-1.47-11.57-2.08
		c-1.22-0.19-2.53,0.23-3.8,0.37c0.71,0.96,1.3,2.63,2.15,2.77c5.64,0.94,11.38,2.36,17,2.06c6.55-0.35,11.46-5.69,11.76-12.25
		C1461.8,394.4,1461.48,384.58,1461.48,374.78z M1444.71,400.32c-7.29,0-12.08-4.54-12.14-11.51c-0.06-6.93,4.81-11.54,12.12-11.47
		c7.53,0.07,12.59,4.82,12.52,11.76C1457.15,395.7,1451.98,400.32,1444.71,400.32z"/>
	<path d="M1020.88,403.55c-0.04,1.03-1.37,2.02-2.11,3.02c-0.72-1.03-2.02-2.04-2.06-3.09c-0.23-5.32,0-10.65-0.15-15.98
		c-0.19-6.68-3.68-10.22-9.72-10.16c-6.05,0.06-10.21,4.19-10.29,10.41c-0.08,6.12-0.02,12.24-0.02,18.61h-4.72
		c0-14.68-0.07-29.11,0.15-43.54c0.02-1.01,2.16-1.99,3.31-2.98c0.4,0.32,0.79,0.65,1.19,0.98v18.32c1.86-1.41,2.92-2.28,4.04-3.04
		c4.31-2.94,8.89-3.56,13.67-1.29c4.72,2.24,6.74,6.21,6.79,11.27C1021.02,391.9,1021.08,397.73,1020.88,403.55z"/>
	<path d="M1418.44,385.93c-0.22-5.82-3.33-10.55-8.22-11.14c-4.96-0.59-10.12,0.2-15.15,0.75c-0.81,0.09-1.43,2.02-2.14,3.11
		c14.92-4.08,23.04,1.41,20.75,8.38c-5.96,0.38-11.77,0.24-17.36,1.27c-4.69,0.87-7.28,4.51-7.04,9.53
		c0.23,4.81,3.32,7.31,7.53,8.84c6.36,2.31,11.61-0.29,15.97-3.49c1.64,1.5,3,2.74,4.36,3.98c0.46-0.43,0.91-0.87,1.36-1.31
		C1418.49,399.21,1418.7,392.56,1418.44,385.93z M1412.17,399.92c-2.41,3.81-8.57,5.17-13.03,3.69c-3.34-1.11-6.1-3.35-5.21-6.77
		c0.62-2.36,3.34-4.43,5.56-6.01c1.33-0.94,3.51-0.66,4.85-0.87c1.81,0.18,3.19,0.13,4.44,0.49c1.78,0.52,4.88,1.26,4.94,2.07
		C1413.89,394.97,1413.46,397.88,1412.17,399.92z"/>
	<path d="M951.9,374.32c-7.59-2.32-15.34,1.02-18.82,8.11c-3.97,8.07-1.83,17.12,5.25,22.22c6.67,4.8,15.68,3.73,22.07-2.63
		c-0.15-0.59-0.31-1.17-0.46-1.76c-1.45,0.53-3,0.87-4.32,1.62c-8.97,5.09-18.63,0.61-19.66-9.77h26.03
		C963.13,383.45,958.98,376.48,951.9,374.32z M936.2,388.55c0.8-6.79,4.89-11.15,10.44-11.39c5.81-0.26,9.91,3.81,11.06,11.39H936.2
		z"/>
	<path d="M1048.47,373.62c-7.15-1.24-14.85,3.86-17.16,11.37c-2.64,8.55,1,17.37,8.67,21.03c7.06,3.36,15.93,1.28,19.35-5.87
		c-1.67,0.67-3.41,1.23-5.01,2.05c-9.15,4.64-18.61-0.2-18.82-10.34h26.05C1061.86,381.5,1057.1,375.13,1048.47,373.62z
		 M1035.92,388.6c-0.19-6.42,4.3-11.35,10.27-11.44c6.1-0.09,10.48,4.61,10.42,11.44H1035.92z"/>
	<path d="M564.2,392.11c2.26,0.01,3.86-0.29,3.78-3.21c-0.16-6.33-4.55-12.62-10.38-14.5c-8.04-2.58-15.81,0.87-19.42,8.63
		c-3.61,7.77-1.06,17.43,5.72,21.67c7.81,4.88,16.72,3.57,21.95-3.93c-1.85,0.02-3.6,0.42-5.12,1.25
		c-8.91,4.85-18.53,0.29-19.26-9.93C549.26,392.09,556.73,392.06,564.2,392.11z M552.33,377.17c6.1-0.12,10.62,4.89,10.2,11.49
		h-20.31C541.63,382.47,546.24,377.29,552.33,377.17z"/>
	<path d="M1499.11,392.1c2.2,0.01,3.91-0.16,3.87-3.12c-0.09-6.26-4.52-12.68-10.32-14.57c-8.03-2.61-15.81,0.82-19.47,8.58
		c-3.51,7.45-1.12,17.13,5.24,21.46c6.49,4.42,16.35,4.77,22.41-2.67c-0.16-0.55-0.33-1.1-0.5-1.66c-1.52,0.61-3.11,1.09-4.55,1.84
		c-4.78,2.47-9.64,2.82-14.25-0.03c-3.33-2.06-5.66-5.05-4.96-9.84C1484.18,392.09,1491.65,392.07,1499.11,392.1z M1487.66,377.18
		c5.94,0.13,10.1,4.78,9.95,11.38h-20.59C1477.02,381.93,1481.7,377.04,1487.66,377.18z"/>
	<path d="M482.78,402.21c-3.56-2.05-5.95-5.15-5.4-10.22h26.19c-0.24-11.29-4.97-17.33-13.78-18.46c-7.38-0.95-14.76,4.51-16.9,12.5
		c-2.2,8.27,1.96,17.14,9.52,20.27c7.22,2.99,15.7,0.76,19.02-5.68c-1.73,0.13-3.35,0.62-4.84,1.37
		C491.99,404.33,487.28,404.79,482.78,402.21z M488.17,377.17c6.04-0.07,10.42,4.7,10.38,11.46h-20.77
		C477.68,382.14,482.22,377.24,488.17,377.17z"/>
	<path d="M1182.53,387.07c0.01,6.3,0,12.61,0,18.9c-2.97,1.22-4.36,0.74-4.31-2.46c0.1-5.33,0.1-10.66,0.01-15.99
		c-0.1-6.35-3.4-9.91-9.22-10.15c-6.01-0.24-10.45,3.24-10.81,9.29c-0.39,6.43-0.09,12.91-0.09,19.31
		c-3.24,1.17-4.55,0.55-4.53-2.58c0.06-13.32-0.03-26.65,0.12-39.97c0.01-1.01,1.42-2,2.18-3c0.7,1.05,1.95,2.06,2,3.13
		c0.22,4.92,0.1,9.85,0.1,14.94c3.53-1.76,6.42-3.78,9.61-4.65c7.02-1.91,14.01,3.11,14.89,10.23
		C1182.59,385.06,1182.53,386.07,1182.53,387.07z"/>
	<path d="M803.57,406.21h-4.32c0-6.46,0.04-12.75-0.01-19.04c-0.05-6.04-3.25-9.52-8.88-9.8c-5.74-0.28-10.43,3.14-10.88,8.64
		c-0.47,5.62-0.11,11.3-0.4,16.94c-0.06,1.24-1.33,2.42-2.05,3.62c-0.74-1.16-2.12-2.32-2.13-3.49c-0.15-13.96-0.1-27.92-0.1-42.07
		c3.51-1.32,4.46-0.09,4.41,2.77c-0.1,4.78-0.03,9.56-0.03,14.68c3.28-1.68,5.96-3.61,8.96-4.48c7.67-2.23,14.75,2.48,15.32,10.45
		C803.97,391.52,803.57,398.68,803.57,406.21z"/>
	<path d="M1356.61,392.05c1.16-9.22-3.57-16.18-12.02-18.21c-7.07-1.7-15.13,2.96-17.83,10.32c-3.23,8.8,0.46,18.05,8.7,21.82
		c7.55,3.44,15.81,1.41,19.31-5.47c-1.92,0.2-3.64,0.88-5.31,1.66c-4.65,2.2-9.35,2.59-13.81-0.19c-3.39-2.1-5.51-5.16-4.92-9.93
		H1356.61z M1341.08,377.19c6-0.25,11.41,4.83,10.76,11.4h-20.75C1331.03,382.13,1335.18,377.43,1341.08,377.19z"/>
	<path d="M873.26,373.38c-9.57-0.01-17.43,7.86-17.45,17.48c-0.03,9.04,8.29,16.98,17.55,16.78c9.41-0.21,17.2-8.02,17.17-17.21
		C890.49,381.16,882.63,373.39,873.26,373.38z M873.13,403.66c-7.49-0.04-12.78-5.69-12.67-13.51c0.11-7.6,5.45-12.94,12.79-12.81
		c7.36,0.12,13.14,6.17,12.92,13.52C885.93,398.3,880.42,403.71,873.13,403.66z"/>
	<path d="M649.54,373.38c-9.39,0.1-17.24,7.87-17.3,17.1c-0.06,9.41,7.53,17.03,17.09,17.15c9.56,0.13,17.46-7.62,17.63-17.28
		C667.13,381.34,658.85,373.28,649.54,373.38z M649.91,403.66c-7.33,0.12-13.29-5.76-13.31-13.14c-0.02-7.46,5.35-13.04,12.66-13.18
		c7.47-0.13,13.13,5.52,13.16,13.14C662.45,398.06,657.24,403.53,649.91,403.66z"/>
	<path d="M830.42,373.39c-9.61,0.19-17.4,8.22-17.18,17.72c0.21,9.1,8.48,16.79,17.79,16.52c9.39-0.26,17.11-8.21,16.94-17.43
		C847.8,380.93,839.73,373.2,830.42,373.39z M830.86,403.65c-7.44,0.05-13.15-5.69-13.24-13.32c-0.08-7.24,5.68-13.01,12.97-12.98
		c7.3,0.03,12.78,5.59,12.85,13.04C843.52,397.93,838.14,403.6,830.86,403.65z"/>
	<path d="M1265.74,373.39c-9.22,0.02-17.39,7.99-17.49,17.08c-0.09,9.04,7.98,17.05,17.29,17.17c9.31,0.11,17.45-7.65,17.63-16.8
		C1283.34,381.34,1275.39,373.37,1265.74,373.39z M1266.04,403.65c-7.44,0.08-13.07-5.68-13.04-13.34
		c0.04-7.54,5.42-12.98,12.82-12.96c7.22,0.02,12.63,5.59,12.72,13.1C1278.61,398.05,1273.4,403.57,1266.04,403.65z"/>
	<path d="M1098.14,386.53c-0.11-4.75-1.64-9.04-6.27-11.05c-6.59-2.87-13.11-2.12-19.42,1.92c1.13,0.9,2.35,1.32,3.53,1.24
		c3.28-0.21,6.57-1.03,9.82-0.89c5.58,0.25,8.19,3.95,7.5,9.23c-5.8,0.4-11.58,0.34-17.16,1.34c-4.76,0.85-7.27,4.6-7.1,9.48
		c0.15,4.74,3.19,7.35,7.49,8.86c6.16,2.18,11.31-0.07,15.58-3.16c1.97,1.37,3.2,2.22,4.42,3.07c0.55-1.19,1.54-2.37,1.58-3.58
		C1098.27,397.51,1098.27,392.01,1098.14,386.53z M1092.49,399.47c-3.03,4.3-10.08,6.4-14.66,3.6c-1.99-1.22-3.92-4.29-3.9-6.51
		c0.02-1.92,2.49-4.32,4.47-5.59c1.64-1.05,4.14-0.77,5.77-1.01c1.86,0.18,3.18,0.27,4.49,0.44
		C1094.46,391.19,1095.91,394.63,1092.49,399.47z"/>
	<path d="M462.98,406c-2.98,1.1-4.45,0.67-4.4-2.53c0.09-4.83,0.1-9.66,0-14.49c-0.18-7.84-3.49-11.68-9.85-11.64
		c-6.52,0.05-10.32,4.26-10.52,11.88c-0.12,4.66-0.09,9.33,0,13.99c0.05,2.86-0.89,4.1-4.17,2.86V360.9
		c2.9-1.06,4.23-0.39,4.17,2.72c-0.1,4.92-0.03,9.84-0.03,15.82c2.03-1.59,3.11-2.5,4.24-3.33c8.26-6.01,18.89-1.56,20.28,8.5
		c0.2,1.48,0.26,2.98,0.27,4.47C462.99,394.72,462.98,400.35,462.98,406z"/>
	<path d="M705.27,374.87v31.22c-0.35,0.32-0.71,0.65-1.07,0.97c-1.36-1.28-2.72-2.56-4.53-4.26c-0.26,0.2-1.38,0.99-2.46,1.84
		c-4.39,3.42-9.21,3.74-14.1,1.55c-4.77-2.13-6.7-6.32-6.82-11.31c-0.14-5.83-0.18-11.67,0.08-17.49c0.05-1.2,1.62-2.33,2.48-3.5
		c0.56,0.41,1.12,0.81,1.69,1.21c0,5.65-0.05,11.3,0.01,16.94c0.07,7.39,3.4,11.4,9.51,11.58c6.54,0.19,10.89-4.14,11.15-11.37
		c0.17-4.83,0.13-9.67,0-14.5C701.14,374.83,702.09,373.66,705.27,374.87z"/>
	<path d="M626.85,374.96c-1.5,3.79-2.96,7.6-4.52,11.37c-3.03,7.37-6.04,14.73-9.19,22.05c-3.22,7.5-7.91,10.22-14.28,8.26
		c-1.1-0.34-1.92-1.6-2.86-2.43c0.36-0.37,0.72-0.74,1.07-1.12c1.65,0.09,3.3,0.3,4.94,0.24c5.44-0.18,8.31-4.72,6.03-9.59
		c-3.72-7.97-7.53-15.9-11.27-23.86c-0.75-1.61-1.33-3.3-2-4.95c0.45-0.4,0.9-0.81,1.35-1.22c1.41,1.26,3.39,2.25,4.15,3.83
		c3.73,7.72,7.14,15.6,11.33,24.91c3.63-9.19,6.6-17.03,9.88-24.73c0.68-1.59,2.55-2.67,3.86-3.98
		C625.85,374.15,626.35,374.55,626.85,374.96z"/>
	<path d="M923.07,398.88c-0.54,4.21-4.35,7.76-9.37,8.28c-5.61,0.58-10.83-0.59-15.28-4.19c0.02-0.51,0.04-1.02,0.06-1.53
		c1.32,0,2.69-0.2,3.97,0.04c3.53,0.66,7.06,2.19,10.52,2.02c1.99-0.1,4.77-2.46,5.57-4.45c1.15-2.89-1.24-4.78-4.09-5.72
		c-3.45-1.13-7.21-1.84-10.19-3.75c-2.2-1.4-4.82-4.53-4.64-6.67c0.24-2.75,2.51-6.22,4.94-7.68c4.85-2.92,10.27-1.67,15.23,0.69
		c0.74,0.35,1,1.72,1.48,2.61c-0.99,0.16-2.01,0.55-2.96,0.43c-3.41-0.4-6.83-1.47-10.19-1.28c-1.57,0.09-3.96,2.3-4.23,3.85
		c-0.25,1.45,1.45,3.96,2.96,4.82c2.69,1.53,5.91,2.1,8.87,3.18C921.07,391.5,923.6,394.79,923.07,398.88z"/>
	<path d="M1216.48,391.75c0.56,9.28,10.06,14.82,18.52,10.64c0.89-0.43,1.64-1.2,2.56-1.51c1.05-0.34,2.22-0.34,3.34-0.49
		c-0.33,1.07-0.33,2.49-1.04,3.16c-4.47,4.27-12.34,5.2-18.19,2.36c-6.26-3.04-10.33-9.64-9.84-16.06
		c0.54-7.11,4.13-12.22,10.6-15.07c6.37-2.8,12.94-1.3,18.84,3.87c-0.01,0.61-0.02,1.23-0.03,1.84c-1.4-0.14-3.12,0.17-4.16-0.52
		c-4.56-3.02-9.3-3.78-14.11-1.21C1217.9,381.47,1216.15,386.07,1216.48,391.75z"/>
	<path d="M764.91,400.72c-6.62,8.14-16.45,8.96-23.76,2.77c-6.89-5.84-7.99-16.11-2.49-23.34c5.34-7.02,15.85-8.7,23.25-3.73
		c2.08,1.39,4.21,2.78,0.45,5.14c-10.02-8.38-19.95-3.05-22.09,4.5c-1.61,5.7-0.05,11.86,4.47,15.22c4.3,3.2,10.61,3.14,15.48,0.11
		C761.49,400.6,763.21,400.49,764.91,400.72z"/>
	<path d="M1320.54,374.9c-4.43,9.98-8.66,19.66-13.06,29.27c-0.53,1.17-1.86,2.59-2.93,2.7c-0.99,0.09-2.64-1.2-3.13-2.28
		c-4.45-9.76-8.71-19.59-13.08-29.55c3.56-1.74,4.86,0.09,5.98,2.87c3.05,7.64,6.26,15.22,10.04,24.34
		c3.93-9.16,7.43-16.87,10.51-24.75C1315.94,374.74,1317.18,373.72,1320.54,374.9z"/>
	<path d="M1144.48,403.33c-2.74,4.76-6.01,4.14-8.9,3.7c-3.61-0.54-6.2-2.76-6.44-6.56c-0.34-5.31-0.26-10.65-0.34-15.97
		c-0.02-1.82,0-3.65,0-4.88c-1.79-1.43-3.13-2.51-4.48-3.59c1.22-0.84,2.43-1.68,4.3-2.97c0.09-2.1,0.23-5.04,0.36-7.94
		c2.98-0.51,2.98-0.51,4.93,9.23h9.72c-0.45,2.87-0.45,2.87-10.22,4.25c0,6.86-0.24,13.82,0.2,20.74c0.09,1.41,2.55,3.11,4.27,3.85
		C1139.38,403.84,1141.39,403.33,1144.48,403.33z"/>
	<path d="M1114.52,406.05l-1.32,0.96c-0.98-1.02-2.8-2.03-2.82-3.07c-0.19-14.26-0.13-28.52-0.13-42.78
		c0.49-0.43,0.97-0.87,1.45-1.3c0.94,0.98,2.69,1.95,2.7,2.94C1114.57,377.22,1114.52,391.63,1114.52,406.05z"/>
	<path d="M531.88,374.68c-0.84,1.29-1.42,3.3-2.58,3.75c-8.79,3.34-11.33,6.58-11.74,16.08c-0.12,2.98-0.11,5.98-0.01,8.96
		c0.11,3.12-1.25,3.74-4.07,2.62v-31.2c3.21-0.25,3.21-0.25,4.63,5.93c3.86-2.58,7.89-5.27,11.92-7.96
		C530.65,373.47,531.27,374.07,531.88,374.68z"/>
	<path d="M1381.88,378.74c-6.28,1.29-9.69,5.26-10.34,11.76c-0.43,4.29-0.13,8.65-0.46,12.95c-0.09,1.09-1.34,2.09-2.06,3.12
		c-0.74-1-2.1-1.99-2.12-3c-0.17-8.66-0.04-17.32-0.13-25.98c-0.03-3.13,1.24-3.82,4.13-2.67c0.19,1.88,0.37,3.79,0.55,5.61
		c4.21-2.67,8.19-5.18,12.53-7.92C1385.46,376.59,1385.23,378.06,1381.88,378.74z"/>
	<path d="M1506.35,143.3c-0.19,1.83-2.13,4.26-3.89,4.97c-3.67,1.49-7.1,0.34-9.58-2.53c0.19-0.52,0.38-1.04,0.57-1.55
		c1.53,0.59,3.07,1.66,4.6,1.64c1.69-0.03,3.37-1.06,5.05-1.65c-1.1-1.15-2.06-2.51-3.35-3.39c-1.05-0.71-2.84-0.49-3.68-1.32
		c-1.28-1.26-2.94-3.19-2.76-4.62c0.22-1.68,2.04-4.18,3.52-4.46c2.78-0.52,5.8,0.29,8.72,0.55c-0.15,0.86-0.3,1.73-0.45,2.6
		c-1.7-0.39-3.4-1.1-5.09-1.06c-1.27,0.03-2.51,1.04-3.77,1.61c0.78,1.05,1.36,2.4,2.38,3.06c1.2,0.78,3.09,0.59,4.15,1.46
		C1504.31,139.88,1506.49,141.84,1506.35,143.3z"/>
</g>
</svg>
