<?xml version="1.0" encoding="utf-8"?>
<!-- Generator: Adobe Illustrator 23.0.2, SVG Export Plug-In . SVG Version: 6.00 Build 0)  -->
<svg version="1.1" id="Capa_1" xmlns="http://www.w3.org/2000/svg" xmlns:xlink="http://www.w3.org/1999/xlink" x="0px" y="0px"
	 width="80.3px" height="67.6px" viewBox="0 0 80.3 67.6" style="enable-background:new 0 0 80.3 67.6;" xml:space="preserve">
<g>
	<path d="M48.4,11.7c3.7,2.3,6.4,6.3,6.9,10.8c1.5,0.7,3.1,1.1,4.9,1.1c6.5,0,11.8-5.3,11.8-11.8S66.7,0,60.2,0
		C53.7,0.1,48.5,5.3,48.4,11.7z M40.7,35.8c6.5,0,11.8-5.3,11.8-11.8s-5.3-11.8-11.8-11.8S28.9,17.5,28.9,24S34.2,35.8,40.7,35.8z
		 M45.6,36.6h-10c-8.3,0-15,6.8-15,15v12.2V64l0.8,0.3c7.9,2.5,14.8,3.3,20.5,3.3c11.1,0,17.5-3.2,17.9-3.4l0.8-0.4h0.1V51.6
		C60.7,43.3,53.9,36.6,45.6,36.6z M65.1,21.5h-10c0.7,3.8-0.1,9.7-4.3,13.1c7.4,2.2,12.8,9,12.8,17.1v3.8c9.8-0.4,15.4-3.1,15.8-3.3
		l0.8-0.4h0.1V39.5C80.1,31.2,73.4,21.5,65.1,21.5z M20,23.7c2.3,0,4.4-0.7,6.3-1.8c0.6-3.8,2.6-7,5.5-9.3c0-0.2,0-0.4,0-0.7
		c0-6.5-5.3-11.8-11.8-11.8S8.2,5.4,8.2,11.9C8.3,18.4,13.5,23.7,20,23.7z M30.6,34.5c-3.7-4.4-4.8-7.1-4.3-13
		c-0.4,0-0.9-0.1-1.3-0.1H15c-8.3,0-15,9.7-15,18v12.2v0.2l0.8,0.3c6.4,2,12,2.9,16.9,3.2v-3.7C17.8,43.6,23.2,36.7,30.6,34.5z"/>
</g>
</svg>
