<?xml version="1.0" encoding="utf-8"?>
<!-- Generator: Adobe Illustrator 23.0.2, SVG Export Plug-In . SVG Version: 6.00 Build 0)  -->
<svg version="1.1" id="Capa_1" xmlns="http://www.w3.org/2000/svg" xmlns:xlink="http://www.w3.org/1999/xlink" x="0px" y="0px"
	 width="132.7px" height="132.7px" viewBox="0 0 132.7 132.7" style="enable-background:new 0 0 132.7 132.7;" xml:space="preserve"
	>
<path d="M125.4,29.5L43.2,0.4c-5.1-1.7-12,1.7-13.7,6.9L0.4,89.5c-1.7,5.1,1.7,12,6.9,13.7l82.2,29.1c5.1,1.7,12-1.7,13.7-6.8
	l29.1-82.2C134,38.1,130.5,31.3,125.4,29.5z M66.9,44.7c6.5,0,11.8,5.3,11.8,11.8s-5.3,11.8-11.8,11.8S55.1,63,55.1,56.5
	S60.4,44.7,66.9,44.7z M43.9,87.8C39,87.5,33.4,86.6,27,84.6l-0.8-0.3V71.9c0-7.7,5.8-16.6,13.3-17.8c-3-2.1-5-5.7-5-9.7
	c0-6.5,5.3-11.8,11.8-11.8S58,37.9,58,44.4v0.7c-2.9,2.3-4.9,5.5-5.5,9.3c0,0,0,0,0,0c-0.4,5.6,0.7,8.3,4.3,12.6
	c-7.4,2.2-12.8,9.1-12.9,17.1V87.8z M86.9,96.3h-0.1L86,96.7c-0.4,0.2-6.8,3.4-17.9,3.4c-5.7,0-12.6-0.8-20.5-3.3l-0.8-0.3V84.1
	c0-8.2,6.7-15,15-15h10c8.3,0,15.1,6.7,15.1,15V96.3z M106.5,84.3L106.5,84.3l-0.9,0.4c-0.4,0.2-6,2.9-15.8,3.3v-3.8
	c0-8.1-5.4-14.9-12.8-17.1c4.2-3.4,5-9.3,4.3-13.1h0.1c-0.8-4.1-3.3-7.7-6.8-9.8c0.1-6.4,5.3-11.6,11.8-11.7
	c6.5,0,11.8,5.3,11.8,11.8c0,4.1-2.1,7.7-5.3,9.8c7.5,1.1,13.4,10.1,13.6,17.9V84.3z"/>
</svg>
