<?xml version="1.0" encoding="utf-8"?>
<!-- Generator: Adobe Illustrator 23.0.2, SVG Export Plug-In . SVG Version: 6.00 Build 0)  -->
<svg version="1.1" id="Layer_1" xmlns="http://www.w3.org/2000/svg" xmlns:xlink="http://www.w3.org/1999/xlink" x="0px" y="0px"
	 viewBox="0 0 181.9 133.8" style="enable-background:new 0 0 181.9 133.8;" xml:space="preserve">
<polygon points="112.5,81.2 10.7,81.2 10.7,10.9 130.8,10.9 130.8,15.8 128.3,15.8 128.3,13.4 13.2,13.4 13.2,78.7 112.5,78.7 "/>
<path d="M112.5,109.1H9.1c-2.4,0-4.7-0.9-6.4-2.7c-1.7-1.7-2.7-4-2.7-6.4v-11h112.5v3.5H3.5v7.5c0,1.5,0.6,2.9,1.6,3.9
	c1.1,1.1,2.5,1.6,4,1.6h103.4V109.1z"/>
<rect x="62" y="98.6" width="13.9" height="2"/>
<path d="M3.5,89.8H0V9.1c0-2.4,1-4.7,2.7-6.4C4.5,0.9,6.8,0,9.2,0h122.5c2.5,0,4.8,0.9,6.5,2.7c1.7,1.7,2.7,4,2.7,6.4l0,6.7l-3.5,0
	l0-6.7c0-1.5-0.6-2.9-1.7-3.9c-1.1-1.1-2.5-1.6-4.1-1.6H9.2c-1.5,0-3,0.6-4.1,1.6C4.1,6.2,3.5,7.6,3.5,9.1V89.8z"/>
<path d="M173.7,132.5h-50.1c-4.5,0-8.1-3.7-8.1-8.3V27.6c0-4.6,3.7-8.3,8.1-8.3h50.1c4.5,0,8.1,3.7,8.1,8.3v96.7
	C181.9,128.8,178.2,132.5,173.7,132.5z M123.6,22.9c-2.6,0-4.6,2.1-4.6,4.8v96.7c0,2.6,2.1,4.8,4.6,4.8h50.1c2.6,0,4.6-2.1,4.6-4.8
	V27.6c0-2.6-2.1-4.8-4.6-4.8H123.6z"/>
<rect x="143.8" y="122.3" width="10.8" height="2"/>
<rect x="137.8" y="29" width="4.4" height="2"/>
<rect x="146.3" y="28.8" width="13.6" height="2"/>
<rect x="117.2" y="35.5" width="62.9" height="2"/>
<rect x="116.9" y="115.6" width="61.9" height="2"/>
<path d="M101.1,133.8h-3.5c0-1.2-0.3-3.5-0.6-4c-0.3-0.3-0.6-0.5-0.9-0.5H42.4c-0.3,0-0.7,0.2-1,0.6c-0.3,0.5-0.6,2.8-0.6,4h-3.5
	c0,0,0.1-4.5,1.3-6.1c1-1.2,2.3-2,3.7-2H96c1.4,0,2.8,0.7,3.7,2C101,129.3,101.1,133.8,101.1,133.8z"/>
<rect x="86.7" y="108.2" transform="matrix(0.9911 -0.1334 0.1334 0.9911 -14.8667 12.8498)" width="3.5" height="18.3"/>
<rect x="42.2" y="115.5" transform="matrix(0.1105 -0.9939 0.9939 0.1105 -70.9944 155.2753)" width="18.1" height="3.5"/>
<path d="M41.9,66c-11.6,0-19.3-1-19.3-5.9h3c0,0.9,1.6,2.9,16.3,2.9s16.3-2,16.3-2.9h3C61.3,65,53.5,66,41.9,66z"/>
<polygon points="61.3,60.2 58.3,60.2 58.3,54.5 47.6,48.1 45.3,45.9 47.4,43.8 49.5,45.9 61.3,52.8 "/>
<polygon points="25.6,60.2 22.6,60.2 22.6,52.8 34.3,45.9 36.4,43.8 38.5,45.9 36,48.4 25.6,54.5 "/>
<path d="M41.9,47.5c-5.7,0-10.4-4.6-10.4-10.2v-2.2c0-5.6,4.7-10.2,10.4-10.2s10.4,4.6,10.4,10.2v2.2C52.3,42.9,47.7,47.5,41.9,47.5
	z M41.9,27.9c-4.1,0-7.4,3.2-7.4,7.2v2.2c0,4,3.3,7.2,7.4,7.2s7.4-3.2,7.4-7.2v-2.2C49.3,31.1,46,27.9,41.9,27.9z"/>
<polygon points="92.4,46.6 86.2,46.6 86.2,38.7 78.2,38.7 78.2,32.5 86.2,32.5 86.2,24.6 92.4,24.6 92.4,32.5 100.5,32.5 
	100.5,38.7 92.4,38.7 "/>
<rect x="69.8" y="51.6" width="39" height="2.5"/>
<rect x="69.8" y="58" width="39" height="2.5"/>
<rect x="69.8" y="64" width="39" height="2.5"/>
<path d="M148.3,84.3c-10.4,0-17.3-0.9-17.3-5.4h3c0,0.6,1,2.4,14.3,2.4s14.3-1.8,14.3-2.4h3C165.6,83.4,158.7,84.3,148.3,84.3z"/>
<polygon points="165.6,78.9 162.6,78.9 162.6,74 153.2,68.3 151.2,66.4 153.3,64.2 155.2,66.1 165.6,72.2 "/>
<polygon points="134,78.9 131,78.9 131,72.2 141.4,66.1 143.3,64.2 145.4,66.4 143.1,68.6 134,74 "/>
<path d="M148.3,67.8c-5.2,0-9.4-4.2-9.4-9.3v-1.9c0-5.1,4.2-9.3,9.4-9.3s9.4,4.2,9.4,9.3v1.9C157.7,63.7,153.5,67.8,148.3,67.8z
	 M148.3,50.3c-3.5,0-6.4,2.8-6.4,6.3v1.9c0,3.5,2.9,6.3,6.4,6.3s6.4-2.8,6.4-6.3v-1.9C154.7,53.1,151.8,50.3,148.3,50.3z"/>
<rect x="127" y="94.4" width="43.8" height="2.5"/>
<rect x="127" y="102" width="43.8" height="2.5"/>
</svg>
