<?xml version="1.0" encoding="utf-8"?>
<!-- Generator: Adobe Illustrator 23.0.2, SVG Export Plug-In . SVG Version: 6.00 Build 0)  -->
<svg version="1.1" id="Layer_1" xmlns="http://www.w3.org/2000/svg" xmlns:xlink="http://www.w3.org/1999/xlink" x="0px" y="0px"
	 viewBox="0 0 149 112.29" style="enable-background:new 0 0 149 112.29;" xml:space="preserve">
<g>
	<path d="M131,86.56H18.15V9.25H131V86.56z M20.15,84.56H129V11.25H20.15V84.56z"/>
	<path d="M139.77,94.8h-6V7.83c0-0.51-0.19-0.99-0.52-1.34c-0.38-0.4-0.81-0.49-1.09-0.49H16.84c-0.29,0-0.71,0.08-1.09,0.49
		c-0.34,0.35-0.52,0.83-0.52,1.34V94.8h-6V7.83c0-2.07,0.78-4.01,2.18-5.49C12.85,0.83,14.78,0,16.84,0h115.32
		c2.06,0,3.99,0.83,5.43,2.34c1.41,1.47,2.18,3.42,2.18,5.49V94.8z"/>
	<path d="M136.77,112.29H12.23c-3.29,0-6.38-1.33-8.69-3.76C1.25,106.14,0,102.98,0,99.63V91.8h57.33l4.61,4.83h25.11l4.61-4.83H149
		v7.83c0,3.35-1.25,6.52-3.53,8.9C143.16,110.95,140.07,112.29,136.77,112.29z M6,97.8v1.83c0,1.8,0.67,3.5,1.87,4.76
		c1.17,1.23,2.72,1.9,4.35,1.9h124.55c1.64,0,3.18-0.68,4.35-1.9c1.21-1.27,1.88-2.96,1.88-4.76V97.8H94.23l-4.61,4.83H59.38
		l-4.61-4.83H6z"/>
</g>
<g>
	<g>
		<path d="M74.5,81C56.58,81,42,66.42,42,48.5S56.58,16,74.5,16S107,30.58,107,48.5S92.42,81,74.5,81z M74.5,20
			C58.79,20,46,32.79,46,48.5S58.79,77,74.5,77S103,64.21,103,48.5S90.21,20,74.5,20z"/>
	</g>
	<g>
		<polygon points="86,58.7 82.47,55.17 88.49,49.15 82.47,43.13 86,39.59 95.56,49.15 		"/>
		<polygon points="61.7,58.7 52.15,49.15 61.7,39.59 65.24,43.13 59.22,49.15 65.24,55.17 		"/>
		<rect x="60.62" y="46.65" transform="matrix(0.1961 -0.9806 0.9806 0.1961 11.1732 111.927)" width="26.47" height="5"/>
	</g>
</g>
</svg>
