<?xml version="1.0" encoding="utf-8"?>
<!-- Generator: Adobe Illustrator 23.0.2, SVG Export Plug-In . SVG Version: 6.00 Build 0)  -->
<svg version="1.1" id="Layer_1" xmlns="http://www.w3.org/2000/svg" xmlns:xlink="http://www.w3.org/1999/xlink" x="0px" y="0px"
	 viewBox="0 0 205.6 171.9" style="enable-background:new 0 0 205.6 171.9;" xml:space="preserve">
<path d="M101.5,140.3H13c-9,0-12.4-5.9-12.9-9.1l0-0.4v-12.3h5v12c0.2,0.9,1.6,4.7,8,4.7h88.6V140.3z"/>
<polygon points="70.5,104.5 12.8,104.4 12.8,14.8 166.1,14.8 166.1,33.9 163.1,33.9 163.1,17.8 15.8,17.8 15.8,101.4 70.5,101.5 "/>
<g>
	<path d="M130.7,171.9h-6c0-0.3,0-0.7,0.1-1.1c0.1-1.6,0.1-2.7-0.9-3.8c-0.6-0.6-1.4-0.7-1.8-0.7H56.1c-0.7,0-1.4,0.3-1.9,0.8
		c-0.1,0.1-0.7,1-0.7,4.8h-6c0-3.1,0.3-7,2.6-9.1c1.7-1.6,3.8-2.5,6.1-2.5h65.9c2.4,0,4.6,0.9,6.2,2.6c3,3.1,2.7,6.7,2.5,8.4
		C130.7,171.5,130.7,171.7,130.7,171.9z"/>
	<rect x="111" y="137.9" transform="matrix(0.9939 -0.1104 0.1104 0.9939 -15.942 13.404)" width="4" height="25.5"/>
	<rect x="52.4" y="148.6" transform="matrix(0.1104 -0.9939 0.9939 0.1104 -91.7064 198.7462)" width="25.5" height="4"/>
</g>
<rect x="79.2" y="125.6" width="9.6" height="4"/>
<rect x="29" y="60.5" width="6" height="25.8"/>
<rect x="41.2" y="50.6" width="6" height="35.7"/>
<rect x="55.1" y="35.1" width="6" height="51.2"/>
<path d="M130.8,140.9c-22.4,0-43.7-13.2-52.9-35c-12.3-29.1,1.4-62.8,30.5-75.1c29.1-12.3,62.8,1.4,75.1,30.5
	c12.3,29.1-1.4,62.8-30.5,75.1C145.8,139.5,138.2,140.9,130.8,140.9z M130.7,32.3c-6.6,0-13.4,1.3-19.9,4
	c-26.1,11-38.3,41.2-27.3,67.2c11,26.1,41.2,38.3,67.2,27.3c26.1-11,38.3-41.2,27.3-67.2C169.8,44.1,150.7,32.3,130.7,32.3z"/>
<polygon points="154.4,148.2 144,136.9 147,134.1 154.8,142.6 181.7,119.3 175,111.8 178,109.2 187.4,119.6 "/>
<path d="M192.7,171.6c-0.1,0-0.2,0-0.3,0c-3.2-0.1-6.1-1.4-8.1-3.7l-23.3-27l3.8-3.3l23.3,27c1.1,1.3,2.7,2,4.5,2
	c1.9,0,3.8-0.7,5.3-2c1.5-1.3,2.5-3.1,2.7-4.9c0.2-1.8-0.3-3.5-1.3-4.7L176,128l3.8-3.3l23.3,27c2,2.3,2.9,5.4,2.5,8.6
	c-0.4,3.1-2,6-4.4,8.1C198.7,170.5,195.8,171.6,192.7,171.6z"/>
<path d="M131.4,128.8c-17.9,0-34.8-10.5-42.2-28c-9.8-23.2,1.1-50.1,24.4-59.9c11.3-4.8,23.7-4.8,35-0.2s20.2,13.3,24.9,24.6
	c4.8,11.3,4.8,23.7,0.2,35c-4.6,11.3-13.3,20.2-24.6,24.9C143.3,127.6,137.3,128.8,131.4,128.8z M131.3,40.3
	c-5.6,0-11.3,1.1-16.6,3.4c-21.7,9.2-31.9,34.3-22.8,56c9.2,21.7,34.3,31.9,56,22.8c10.5-4.4,18.7-12.7,23-23.3
	c4.3-10.6,4.2-22.2-0.2-32.7l0,0c-4.4-10.5-12.7-18.7-23.3-23C142.2,41.3,136.7,40.3,131.3,40.3z"/>
<path d="M78.1,119H0V15.3C0,0.2,11.7,0,11.8,0h156.1c8.7,0,11.8,7.1,11.8,11.8v30.3h-5V11.8c0-1.1-0.4-6.8-6.8-6.8H11.8
	C11.1,5,5,5.5,5,15.3V114h73.1V119z"/>
<rect x="142.1" y="70.5" width="11" height="40.1"/>
<rect x="109.1" y="82.9" width="10" height="27.6"/>
<rect x="125" y="55.7" width="11" height="54.9"/>
</svg>
