<?xml version="1.0" encoding="utf-8"?>
<!-- Generator: Adobe Illustrator 23.0.2, SVG Export Plug-In . SVG Version: 6.00 Build 0)  -->
<svg version="1.1" id="Layer_1" xmlns="http://www.w3.org/2000/svg" xmlns:xlink="http://www.w3.org/1999/xlink" x="0px" y="0px"
	 viewBox="0 0 152 152.1" style="enable-background:new 0 0 152 152.1;" xml:space="preserve">
<style type="text/css">
	.st0{fill:#010002;}
</style>
<path d="M142.7,127.5H9.3c-2.5,0-4.8-1-6.5-2.7c-1.7-1.7-2.5-3.6-2.6-3.8L0,120.6v-14.5h152v12.1c0,2.5-1,4.8-2.7,6.5
	C147.5,126.5,145.2,127.5,142.7,127.5z M4,119.8c0.2,0.5,0.8,1.4,1.5,2.2c1,1,2.3,1.5,3.7,1.5h133.5c1.4,0,2.7-0.5,3.7-1.5
	c1-1,1.5-2.3,1.5-3.7v-8.1H4V119.8z"/>
<path class="st0" d="M109.5,152.1h-4c0-1.1-0.5-2.7-0.8-3c-0.5-0.5-1.3-0.8-2-0.8H48.4c-0.8,0-1.5,0.3-2,0.8c-0.4,0.4-0.8,1.9-0.8,3
	h-4c0-1.5,0.5-4.4,2-5.8c1.3-1.3,3-2,4.8-2h54.2c1.8,0,3.5,0.7,4.8,2C108.9,147.8,109.5,150.6,109.5,152.1z"/>
<rect x="93.5" y="126.1" transform="matrix(0.9878 -0.156 0.156 0.9878 -20.0033 16.5556)" class="st0" width="4" height="19.2"/>
<rect x="44.5" y="134.4" transform="matrix(0.1104 -0.9939 0.9939 0.1104 -86.2441 176.4404)" class="st0" width="21.9" height="4"/>
<rect x="67.7" y="114.8" width="14.5" height="4"/>
<path d="M141.9,56.2H99.2L99.3,14l14.5-13.6h28L141.9,56.2z M101.7,53.7h37.7l-0.2-50.8h-24.5l-13,12.2l0,0.6L101.7,53.7z"/>
<polyline points="115,2.3 115,15.2 101,15.2 "/>
<path d="M121.3,45c-7.4,0-13.4-6-13.4-13.4c0-7.4,6-13.4,13.4-13.4s13.4,6,13.4,13.4C134.7,39,128.7,45,121.3,45z M121.3,20.3
	c-6.3,0-11.4,5.1-11.4,11.4S115,43,121.3,43s11.4-5.1,11.4-11.4S127.6,20.3,121.3,20.3z"/>
<polygon points="128.6,41.3 120,32.7 120,20.2 122,20.2 122,31.9 130.1,39.9 "/>
<path d="M71.5,84c-4.8,0-8.6-3.9-8.6-8.6s3.9-8.6,8.6-8.6s8.6,3.9,8.6,8.6S76.3,84,71.5,84z M71.5,69.7c-3.1,0-5.6,2.5-5.6,5.6
	s2.5,5.6,5.6,5.6s5.6-2.5,5.6-5.6S74.6,69.7,71.5,69.7z"/>
<path d="M88.3,66c-4.8,0-8.6-3.9-8.6-8.6s3.9-8.6,8.6-8.6c4.8,0,8.6,3.9,8.6,8.6S93.1,66,88.3,66z M88.3,51.7
	c-3.1,0-5.6,2.5-5.6,5.6s2.5,5.6,5.6,5.6c3.1,0,5.6-2.5,5.6-5.6S91.4,51.7,88.3,51.7z"/>
<path d="M106.8,84c-4.8,0-8.6-3.9-8.6-8.6s3.9-8.6,8.6-8.6c4.8,0,8.6,3.9,8.6,8.6S111.5,84,106.8,84z M106.8,69.7
	c-3.1,0-5.6,2.5-5.6,5.6s2.5,5.6,5.6,5.6c3.1,0,5.6-2.5,5.6-5.6S109.9,69.7,106.8,69.7z"/>
<path d="M49.6,66.3c-6.3,0-7.9-4.5-7.9-6.9h3h-1.5l1.5,0c0,0.7,0.3,3.9,4.9,3.9c4.8,0,4.9-3.5,4.9-3.9h3
	C57.5,61.7,55.8,66.3,49.6,66.3z"/>
<rect x="29.4" y="65.4" transform="matrix(0.7071 -0.7071 0.7071 0.7071 -36.3445 46.1018)" width="16.1" height="3"/>
<rect x="59.2" y="59.8" transform="matrix(0.6803 -0.733 0.733 0.6803 -29.1988 65.7303)" width="3" height="13"/>
<rect x="74.9" y="64.4" transform="matrix(0.7135 -0.7006 0.7006 0.7135 -23.294 74.8598)" width="9.9" height="3"/>
<rect x="96.5" y="61.5" transform="matrix(0.6965 -0.7175 0.7175 0.6965 -17.8807 90.481)" width="3" height="9.7"/>
<rect x="110.7" y="65.2" transform="matrix(0.6508 -0.7592 0.7592 0.6508 -10.5675 110.4911)" width="8.2" height="3"/>
<rect x="68" y="20.8" width="30" height="3"/>
<polygon points="140.5,96.8 11.5,96.8 11.5,59.3 14.5,59.3 14.5,93.8 137.5,93.8 137.5,58.3 140.5,58.3 "/>
<path d="M152,106.3h-4v-87c0-0.2-0.1-6-4-6v-4c6.3,0,8,6.5,8,10V106.3z"/>
<path d="M4,106.3H0v-87c0-3.5,1.7-10,8-10v4c-3.9,0-4,5.8-4,6V106.3z"/>
<rect x="68" y="9.3" width="30" height="4"/>
<polygon points="66.3,47.3 63.8,47.3 63.8,2.5 11.3,2.5 11.3,47.3 8.8,47.3 8.8,0 66.3,0 "/>
<path d="M66.3,56.5H8.8V43h57.5V56.5z M11.3,54h52.5v-8.5H11.3V54z"/>
<rect x="22.2" y="29.3" width="3" height="14"/>
<rect x="31.9" y="18.3" width="3" height="25"/>
<rect x="41" y="9.3" width="3" height="34"/>
<rect x="50.5" y="23.3" width="3" height="20"/>
</svg>
