<?xml version="1.0" encoding="utf-8"?>
<!-- Generator: Adobe Illustrator 23.0.2, SVG Export Plug-In . SVG Version: 6.00 Build 0)  -->
<svg version="1.1" id="Capa_1" xmlns="http://www.w3.org/2000/svg" xmlns:xlink="http://www.w3.org/1999/xlink" x="0px" y="0px"
	 width="104.9px" height="104.9px" viewBox="0 0 104.9 104.9" style="enable-background:new 0 0 104.9 104.9;" xml:space="preserve"
	>
<style type="text/css">
	.st0{display:none;}
	.st1{display:inline;}
</style>
<g class="st0">
	<path class="st1" d="M61.7,63.4l-9.6-4.8c-0.9-0.5-1.5-1.4-1.5-2.4v-3.4c0.2-0.3,0.5-0.6,0.7-1c1.2-1.8,2.2-3.7,3-5.8
		c1.4-0.6,2.3-2,2.3-3.6v-4c0-1-0.4-1.9-1-2.6v-5.3c0.1-0.6,0.3-3.8-2.1-6.5c-1.9-2.3-5.3-3.5-9.8-3.5s-7.9,1.2-9.9,3.5
		c-2.4,2.7-2.1,6-2.1,6.5v5.3c-0.6,0.7-1,1.7-1,2.6v4c0,1.2,0.6,2.4,1.5,3.1c0.9,3.6,2.8,6.4,3.5,7.2V56c0,1-0.5,1.9-1.4,2.3
		l-8.9,4.9c-2.9,1.7-4.7,4.8-4.7,8.1v4.2h46v-4C66.7,68,64.8,64.9,61.7,63.4z"/>
	<path class="st1" d="M77.3,64.5l-9.7-4.2c-0.2-0.1-0.5-0.4-0.7-0.8h6.5c0,0,0.4,0,1,0c1.1,0,2.6-0.1,4-0.7c0.8-0.4,1.4-1,1.7-1.9
		c0.2-0.9,0.1-1.8-0.4-2.5c-1.9-2.7-6.2-9.6-6.4-16.6c0-0.1-0.4-12.1-12.2-12.2c-1.2,0-2.3,0.2-3.4,0.4c0.8,2.1,0.7,4,0.7,4.6v4.7
		c0.6,0.9,1,2,1,3.1v4c0,1.9-1,3.7-2.6,4.7c-0.7,2-1.7,3.9-2.9,5.6c-0.2,0.2-0.3,0.4-0.4,0.6v2.9c0,0.4,0.2,0.8,0.6,1l9.6,4.8
		c3.6,1.8,5.8,5.4,5.8,9.4v4H82v-3.7C81.9,68.7,80.1,65.9,77.3,64.5z"/>
</g>
<path d="M99.1,23.4l-65-23C30.1-1,24.7,1.7,23.4,5.8l-23,65c-1.3,4.1,1.3,9.5,5.4,10.8l65,23c4.1,1.4,9.5-1.3,10.8-5.4l23-65
	C105.9,30.1,103.2,24.7,99.1,23.4z M78.8,67.4c-0.2,1-0.5,1.9-0.8,2.5c-0.5,1.2-2,2.5-4.4,3.8c-2.2,1.2-4.5,1.8-6.7,1.8
	c-0.7,0-1.3,0-1.9-0.1c-0.6-0.1-1.3-0.2-2.1-0.5c-0.8-0.2-1.3-0.4-1.7-0.5c-0.4-0.1-1-0.4-2-0.7c-1-0.3-1.5-0.6-1.8-0.6
	c-2.3-0.8-4.4-1.8-6.3-3c-3-1.9-6.2-4.5-9.5-7.7c-3.3-3.3-5.8-6.4-7.7-9.4c-1.2-1.8-2.1-3.9-3-6.3c-0.1-0.2-0.3-0.8-0.6-1.8
	c-0.4-1-0.6-1.6-0.7-2c-0.1-0.4-0.3-0.9-0.5-1.7c-0.2-0.8-0.4-1.4-0.5-2.1c-0.1-0.6-0.1-1.3-0.1-1.9c0-2.2,0.6-4.4,1.8-6.7
	c1.3-2.4,2.6-3.9,3.8-4.4c0.6-0.3,1.4-0.5,2.5-0.8c1-0.2,1.9-0.4,2.5-0.4c0.3,0,0.6,0,0.8,0.1c0.4,0.1,1.1,1.1,1.9,2.7
	c0.3,0.5,0.6,1.1,1.1,1.9c0.5,0.8,0.9,1.6,1.3,2.3c0.4,0.7,0.8,1.3,1.1,1.9c0.1,0.1,0.3,0.4,0.6,0.9c0.3,0.5,0.6,0.9,0.8,1.3
	c0.2,0.4,0.3,0.7,0.3,1c0,0.5-0.3,1.1-1,1.8c-0.7,0.7-1.4,1.4-2.2,2c-0.8,0.6-1.5,1.2-2.2,1.9c-0.7,0.7-1,1.2-1,1.6
	c0,0.2,0.1,0.5,0.2,0.8c0.1,0.3,0.2,0.6,0.3,0.7c0.1,0.2,0.3,0.4,0.5,0.9c0.3,0.4,0.4,0.6,0.4,0.7c1.8,3.3,3.9,6.1,6.2,8.4
	c2.3,2.3,5.1,4.4,8.4,6.2c0,0,0.3,0.2,0.7,0.4c0.4,0.3,0.7,0.4,0.9,0.5c0.2,0.1,0.4,0.2,0.7,0.3s0.6,0.2,0.8,0.2c0.4,0,1-0.3,1.6-1
	c0.7-0.7,1.3-1.4,1.9-2.2c0.6-0.8,1.3-1.5,2-2.2c0.7-0.7,1.3-1,1.8-1c0.3,0,0.7,0.1,1,0.3c0.3,0.2,0.8,0.4,1.3,0.8
	c0.5,0.3,0.8,0.5,0.9,0.6c0.6,0.3,1.2,0.7,1.9,1.1c0.7,0.4,1.4,0.8,2.3,1.3c0.8,0.5,1.5,0.8,1.9,1.1c1.7,0.8,2.6,1.5,2.7,1.9
	c0.1,0.2,0.1,0.4,0.1,0.8C79.2,65.5,79,66.3,78.8,67.4z"/>
</svg>
