<!-- Generated by IcoMoon.io -->
<svg version="1.1" xmlns="http://www.w3.org/2000/svg" width="1024" height="1024" viewBox="0 0 1024 1024">
<title></title>
<g id="icomoon-ignore">
</g>
<path fill="#000" d="M777.609 497.903l-375.467-256c-5.239-3.55-11.998-3.942-17.596-0.99-5.581 2.953-9.079 8.755-9.079 15.087v512c0 6.332 3.499 12.134 9.097 15.087 2.492 1.331 5.239 1.98 7.97 1.98 3.362 0 6.724-1.007 9.609-2.97l375.467-256c4.659-3.174 7.458-8.448 7.458-14.097s-2.799-10.923-7.458-14.097zM409.6 735.693v-447.386l328.107 223.693-328.107 223.693z"></path>
<path fill="#000" d="M512 0c-282.317 0-512 229.683-512 512s229.683 512 512 512 512-229.683 512-512-229.683-512-512-512zM512 989.867c-263.492 0-477.867-214.374-477.867-477.867s214.374-477.867 477.867-477.867 477.867 214.374 477.867 477.867-214.374 477.867-477.867 477.867z"></path>
</svg>
