<?xml version="1.0" encoding="utf-8"?>
<!-- Generator: Adobe Illustrator 23.0.2, SVG Export Plug-In . SVG Version: 6.00 Build 0)  -->
<svg version="1.1" id="Layer_1" xmlns="http://www.w3.org/2000/svg" xmlns:xlink="http://www.w3.org/1999/xlink" x="0px" y="0px"
	 viewBox="0 0 137.9 134.7" style="enable-background:new 0 0 137.9 134.7;" xml:space="preserve">
<title>point-click</title>
<path d="M3,134.7c-0.8,0-1.5-0.3-2.1-0.9c-1.2-1.2-1.1-3.1,0-4.2l41-40.5c0.7-0.7,1.6-1,2.6-0.8c0.9,0.2,1.8,0.8,2.2,1.6l16.8,33.6
	l23.6-74.1L14.2,73.6l19.7,8.8c1.5,0.7,2.2,2.4,1.5,4s-2.4,2.2-4,1.5L4.7,75.9c-1.1-0.5-1.8-1.7-1.8-2.9C3,71.8,3.8,70.7,5,70.3
	l85.9-28.5c1.1-0.4,2.3-0.1,3.1,0.7s1.1,2,0.8,3L67,132.3c-0.4,1.2-1.4,2-2.6,2.1c-1.2,0.1-2.4-0.6-2.9-1.6L43.2,96.3L5.1,133.8
	C4.5,134.4,3.8,134.7,3,134.7z"/>
<path d="M90.8,122.8c-1.3,0-2.5-0.9-2.9-2.2c-0.4-1.6,0.5-3.2,2.1-3.7c17-4.5,30.6-16.4,37.4-32.6c12.1-28.7-1.5-61.8-30.1-73.8
	c-13.9-5.8-29.2-5.9-43.2-0.2c-13.9,5.7-24.8,16.5-30.7,30.4c-0.6,1.5-2.4,2.2-3.9,1.6c-1.5-0.6-2.2-2.4-1.6-3.9
	c6.5-15.4,18.5-27.3,33.9-33.6c15.4-6.3,32.4-6.2,47.8,0.3c31.7,13.3,46.7,50,33.3,81.7c-7.5,17.9-22.6,31.1-41.4,36.1
	C91.4,122.8,91.1,122.8,90.8,122.8z"/>
<path d="M90,102.7c-0.8,0-1.6-0.5-1.9-1.3c-0.4-1,0.2-2.2,1.2-2.5c9.7-3.4,17.5-10.3,22-19.6c9.3-19.1,1.2-42.2-17.9-51.5
	C74.4,18.5,51.3,26.6,42,45.7c-0.5,1-1.7,1.4-2.7,0.9c-1-0.5-1.4-1.7-0.9-2.7C48.7,22.8,74.1,14,95.2,24.2
	C116.3,34.4,125.2,59.9,115,81c-4.9,10.2-13.6,17.9-24.3,21.6C90.5,102.7,90.3,102.7,90,102.7z"/>
</svg>
