<?xml version="1.0" standalone="no"?>
<!DOCTYPE svg PUBLIC "-//W3C//DTD SVG 20010904//EN"
 "http://www.w3.org/TR/2001/REC-SVG-20010904/DTD/svg10.dtd">
<svg version="1.0" xmlns="http://www.w3.org/2000/svg"
 width="233.000000pt" height="204.000000pt" viewBox="0 0 233.000000 204.000000"
 preserveAspectRatio="xMidYMid meet">
<metadata>
Created by potrace 1.15, written by Peter Selinger 2001-2017
</metadata>
<g transform="translate(0.000000,204.000000) scale(0.100000,-0.100000)"
fill="#000000" stroke="none">
<path d="M845 2010 c-277 -62 -493 -186 -622 -355 -61 -80 -142 -238 -172
-337 -49 -161 -51 -196 -51 -774 l0 -544 495 0 495 0 0 495 0 495 -290 0 -290
0 0 33 c0 56 40 199 76 275 45 93 119 167 221 220 78 40 227 92 264 92 18 0
19 9 19 210 l0 210 -32 -1 c-18 0 -69 -9 -113 -19z"/>
<path d="M2185 2010 c-277 -62 -493 -186 -622 -355 -61 -80 -142 -238 -172
-337 -49 -161 -51 -196 -51 -774 l0 -544 495 0 495 0 0 495 0 495 -290 0 -290
0 0 33 c0 56 40 199 76 275 45 93 119 167 221 220 78 40 227 92 264 92 18 0
19 9 19 210 l0 210 -32 -1 c-18 0 -69 -9 -113 -19z"/>
</g>
</svg>
