<?xml version="1.0" encoding="utf-8"?>
<!-- Generator: Adobe Illustrator 23.0.2, SVG Export Plug-In . SVG Version: 6.00 Build 0)  -->
<svg version="1.1" id="Layer_1" xmlns="http://www.w3.org/2000/svg" xmlns:xlink="http://www.w3.org/1999/xlink" x="0px" y="0px"
	 viewBox="0 0 163.74 130.24" style="enable-background:new 0 0 163.74 130.24;" xml:space="preserve">
<g>
	<g>
		<path d="M57.2,36.89l-9.51-14.48L71.18,7.23c5.87-3.8,15.11-3.46,25.34,0.92l-1.57,3.68c-8.86-3.79-16.93-4.25-21.6-1.24
			L53.24,23.58l7.3,11.11L57.2,36.89z"/>
		<path d="M104.19,108.45l-8.42-12.83l3.34-2.2l6.24,9.51l20.13-13.01c6.34-4.1,7.69-12.65,7.7-19.11l4,0.01
			c-0.02,10.68-3.32,18.44-9.53,22.46L104.19,108.45z"/>
		<polyline points="57.85,34.46 57.68,34.21 51.02,24.54 50.8,24.22 49.51,22.35 55.65,18.32 65.29,32.31 		"/>
		<g>
			<polygon points="110.9,102.88 104.47,106.45 103.6,104.98 103.48,104.79 98.99,97.24 98.84,96.99 97.74,95.99 104.4,91.96 			"/>
			<rect x="61.94" y="64.44" transform="matrix(0.8358 -0.549 0.549 0.8358 -25.7525 45.9497)" width="4" height="3.17"/>
			<rect x="65.43" y="69.74" transform="matrix(0.8359 -0.5489 0.5489 0.8359 -28.0886 48.7201)" width="4" height="3.17"/>
			<rect x="68.91" y="75.05" transform="matrix(0.8359 -0.5489 0.5489 0.8359 -30.4278 51.5023)" width="4" height="3.17"/>
		</g>
		<path d="M82.71,106.51L71.38,89.25l-16.03-1.33L47.1,75.34l5.25-15.08L41,43l46-29.73c18.73-12.11,41.14-16.25,59.93-11.1
			c1.08,0.29,2.15,0.62,3.19,0.98c4.33,1.47,8.37,3.44,11.99,5.86l0.71,0.47l0.15,0.84c4.25,23.76-9.53,50.47-34.3,66.48
			L82.71,106.51z M57.62,84.09l16.03,1.33l10.22,15.56l42.64-27.56c23.13-14.95,36.17-39.59,32.67-61.57
			c-3.15-2.01-6.63-3.67-10.34-4.93c-0.97-0.33-1.97-0.63-2.97-0.91c-17.71-4.86-38.91-0.9-56.7,10.6L46.56,44.17l10.21,15.55
			l-5.25,15.08L57.62,84.09z"/>
	</g>
</g>
<g>
	<g>
		<rect x="13.83" y="56.31" transform="matrix(0.8379 -0.5459 0.5459 0.8379 -27.0416 24.5782)" width="28.05" height="3"/>
		<rect x="-3.27" y="67.83" transform="matrix(0.8379 -0.5459 0.5459 0.8379 -34.2847 23.2341)" width="50.49" height="3"/>
		<rect x="5.4" y="71.7" transform="matrix(0.8379 -0.5459 0.5459 0.8379 -35.4441 27.0632)" width="44.88" height="3"/>
		<g>
			<rect x="50.75" y="112.98" transform="matrix(0.8379 -0.5459 0.5459 0.8379 -51.9916 53.9197)" width="28.05" height="3"/>
			<rect x="26.61" y="113.71" transform="matrix(0.8379 -0.5459 0.5459 0.8379 -54.4824 46.9867)" width="50.49" height="3"/>
			<rect x="28.25" y="106.78" transform="matrix(0.8379 -0.5459 0.5459 0.8379 -50.8895 45.2269)" width="44.88" height="3"/>
		</g>
	</g>
</g>
<g>
	<path d="M111.82,60.03c-1.39,0-2.79-0.16-4.17-0.48c-4.79-1.1-8.85-4.01-11.46-8.17c-5.37-8.6-2.75-19.96,5.85-25.34
		c8.6-5.37,19.96-2.75,25.34,5.85c5.37,8.6,2.75,19.96-5.85,25.34C118.57,59.08,115.22,60.03,111.82,60.03z M111.76,28.25
		c-2.42,0-4.87,0.66-7.07,2.03c-6.26,3.91-8.17,12.19-4.26,18.45c1.9,3.03,4.86,5.15,8.34,5.95c3.48,0.81,7.07,0.2,10.11-1.69
		c6.26-3.91,8.17-12.19,4.26-18.45C120.6,30.49,116.23,28.25,111.76,28.25z"/>
</g>
<path d="M160.99,28.8c-9.89,0-17.94-10.56-17.94-23.55h6c0,9.67,5.36,17.55,11.94,17.55V28.8z"/>
<g>
	<circle cx="111.63" cy="41.96" r="9.36"/>
</g>
</svg>
