<?xml version="1.0" encoding="utf-8"?>
<!-- Generator: Adobe Illustrator 23.0.2, SVG Export Plug-In . SVG Version: 6.00 Build 0)  -->
<svg version="1.1" id="Layer_1" xmlns="http://www.w3.org/2000/svg" xmlns:xlink="http://www.w3.org/1999/xlink" x="0px" y="0px"
	 viewBox="0 0 163.7 130.2" style="enable-background:new 0 0 163.7 130.2;" xml:space="preserve">
<style type="text/css">
	.st0{fill:#1196BA;}
	.st1{fill:#3FCAEA;}
</style>
<g>
	<g>
		<path class="st0" d="M57.2,36.9l-9.5-14.5L71.2,7.2c5.9-3.8,15.1-3.5,25.3,0.9l-1.6,3.7C86.1,8,78,7.6,73.4,10.6l-20.1,13
			l7.3,11.1L57.2,36.9z"/>
		<path class="st0" d="M104.2,108.4l-8.4-12.8l3.3-2.2l6.2,9.5l20.1-13c6.3-4.1,7.7-12.7,7.7-19.1l4,0c0,10.7-3.3,18.4-9.5,22.5
			L104.2,108.4z"/>
		<polyline class="st0" points="57.9,34.5 57.7,34.2 51,24.5 50.8,24.2 49.5,22.4 55.7,18.3 65.3,32.3 		"/>
		<g>
			<polygon class="st0" points="110.9,102.9 104.5,106.4 103.6,105 103.5,104.8 99,97.2 98.8,97 97.7,96 104.4,92 			"/>
			<rect x="61.9" y="64.4" transform="matrix(0.8358 -0.549 0.549 0.8358 -25.7527 45.9498)" class="st1" width="4" height="3.2"/>
			
				<rect x="65.4" y="69.7" transform="matrix(0.8359 -0.5489 0.5489 0.8359 -28.0888 48.7202)" class="st1" width="4" height="3.2"/>
			<rect x="68.9" y="75" transform="matrix(0.8359 -0.5489 0.5489 0.8359 -30.428 51.5024)" class="st1" width="4" height="3.2"/>
		</g>
		<path class="st0" d="M82.7,106.5L71.4,89.3l-16-1.3l-8.3-12.6l5.2-15.1L41,43l46-29.7C105.7,1.2,128.1-3,146.9,2.2
			c1.1,0.3,2.1,0.6,3.2,1c4.3,1.5,8.4,3.4,12,5.9l0.7,0.5l0.2,0.8c4.3,23.8-9.5,50.5-34.3,66.5L82.7,106.5z M57.6,84.1l16,1.3
			L83.9,101l42.6-27.6c23.1-14.9,36.2-39.6,32.7-61.6c-3.1-2-6.6-3.7-10.3-4.9c-1-0.3-2-0.6-3-0.9C128.2,1.2,107,5.1,89.2,16.6
			L46.6,44.2l10.2,15.5l-5.2,15.1L57.6,84.1z"/>
	</g>
</g>
<g>
	<g>
		<rect x="13.8" y="56.3" transform="matrix(0.8379 -0.5459 0.5459 0.8379 -27.0418 24.5783)" class="st1" width="28" height="3"/>
		
			<rect x="-3.3" y="67.8" transform="matrix(0.8379 -0.5459 0.5459 0.8379 -34.2849 23.2341)" class="st1" width="50.5" height="3"/>
		<rect x="5.4" y="71.7" transform="matrix(0.8379 -0.5459 0.5459 0.8379 -35.4442 27.0632)" class="st1" width="44.9" height="3"/>
		<g>
			<rect x="50.7" y="113" transform="matrix(0.8379 -0.5459 0.5459 0.8379 -51.9918 53.9197)" class="st1" width="28" height="3"/>
			
				<rect x="26.6" y="113.7" transform="matrix(0.8379 -0.5459 0.5459 0.8379 -54.4827 46.9868)" class="st1" width="50.5" height="3"/>
			
				<rect x="28.3" y="106.8" transform="matrix(0.8379 -0.5459 0.5459 0.8379 -50.8897 45.227)" class="st1" width="44.9" height="3"/>
		</g>
	</g>
</g>
<g>
	<path class="st1" d="M111.8,60c-6.1,0-12.1-3.1-15.6-8.6c-5.4-8.6-2.7-20,5.8-25.3c4.2-2.6,9.1-3.4,13.9-2.3
		c4.8,1.1,8.9,4,11.5,8.2l0,0c5.4,8.6,2.7,20-5.8,25.3C118.5,59.1,115.1,60,111.8,60z M111.8,28.2c-2.5,0-4.9,0.7-7.1,2
		c-6.3,3.9-8.2,12.2-4.3,18.4c3.9,6.3,12.2,8.2,18.4,4.3c6.3-3.9,8.2-12.2,4.3-18.4l0,0c-1.9-3-4.9-5.1-8.3-5.9
		C113.8,28.4,112.8,28.2,111.8,28.2z"/>
</g>
<path class="st0" d="M161,28.8c-9.9,0-17.9-10.6-17.9-23.5h6c0,9.7,5.4,17.5,11.9,17.5V28.8z"/>
<g>
	<circle class="st0" cx="111.6" cy="42" r="9.4"/>
</g>
</svg>
