<?xml version="1.0" encoding="utf-8"?>
<!-- Generator: Adobe Illustrator 23.0.2, SVG Export Plug-In . SVG Version: 6.00 Build 0)  -->
<svg version="1.1" id="Layer_1" xmlns="http://www.w3.org/2000/svg" xmlns:xlink="http://www.w3.org/1999/xlink" x="0px" y="0px"
	 viewBox="0 0 131 130" style="enable-background:new 0 0 131 130;" xml:space="preserve">
<title>scale-grow</title>
<path d="M27.6,69.3c-0.5,0-1-0.2-1.4-0.6c-0.8-0.8-0.8-2.1,0-2.8l46.1-45.3c0.8-0.8,2-0.8,2.8,0l9.9,9.6l29.2-28.5
	c0.8-0.8,2.1-0.8,2.8,0c0.8,0.8,0.8,2.1,0,2.8L86.4,34.5c-0.8,0.8-2,0.8-2.8,0l-9.9-9.6L29,68.8C28.6,69.2,28.1,69.3,27.6,69.3z"/>
<path d="M117.3,19c-1.1,0-2-0.9-2-2V4.2L101.3,4c-1.1,0-2-0.9-2-2c0-1.1,0.9-2,2-2c0,0,0,0,0,0l16,0.2c1.1,0,2,0.9,2,2V17
	C119.3,18.1,118.4,19,117.3,19z"/>
<ellipse cx="18.7" cy="76.3" rx="2.7" ry="2.6"/>
<path d="M35.3,128.1c-1.1,0-2-0.9-2-2v-25.8c0-0.6-0.4-1-1-1H17.1c-0.6,0-1,0.4-1,1v25.5c0,1.1-0.9,2-2,2s-2-0.9-2-2v-25.5
	c0-2.8,2.2-5,5-5h15.2c2.8,0,5,2.2,5,5v25.8C37.3,127.3,36.4,128.1,35.3,128.1z"/>
<path d="M75.6,126.7c-1.1,0-2-0.9-2-2V78.8c0-0.6-0.4-1-1-1H57.5c-0.6,0-1,0.4-1,1v45.7c0,1.1-0.9,2-2,2s-2-0.9-2-2V78.8
	c0-2.8,2.2-5,5-5h15.1c2.8,0,5,2.2,5,5v45.9C77.6,125.8,76.7,126.7,75.6,126.7z"/>
<path d="M95.3,126.7c-1.1,0-2-0.9-2-2V42.5c0-2.8,2.2-5,5-5h15.1c2.8,0,5,2.2,5,5v82c0,1.1-0.9,2-2,2s-2-0.9-2-2v-82
	c0-0.6-0.4-1-1-1H98.3c-0.6,0-1,0.4-1,1v82.2C97.3,125.8,96.4,126.7,95.3,126.7z"/>
<path d="M128,130H3c-1.7,0-3-1.3-3-3s1.3-3,3-3h125c1.7,0,3,1.3,3,3S129.7,130,128,130z"/>
</svg>
