<?xml version="1.0" encoding="utf-8"?>
<!-- Generator: Adobe Illustrator 23.0.2, SVG Export Plug-In . SVG Version: 6.00 Build 0)  -->
<svg version="1.1" id="Layer_1" xmlns="http://www.w3.org/2000/svg" xmlns:xlink="http://www.w3.org/1999/xlink" x="0px" y="0px"
	 viewBox="0 0 132.81 105" style="enable-background:new 0 0 132.81 105;" xml:space="preserve">
<g>
	<g>
		<g>
			<path d="M66.41,36.91c-9.85,0-17.87-8.28-17.87-18.45S56.55,0,66.41,0s17.87,8.28,17.87,18.45S76.26,36.91,66.41,36.91z M66.41,6
				c-6.55,0-11.87,5.59-11.87,12.45s5.33,12.45,11.87,12.45s11.87-5.59,11.87-12.45S72.95,6,66.41,6z"/>
			<path d="M45.59,98.73h-14.9V64.82c0-5.73,2.16-11.13,6.07-15.19c3.94-4.1,9.19-6.35,14.78-6.35h2.97v6h-2.97
				c-3.94,0-7.66,1.6-10.45,4.51c-2.83,2.94-4.39,6.86-4.39,11.03v27.91h8.9V98.73z"/>
			<path d="M102.12,98.73h-14.9v-6h8.9V64.82c0-4.18-1.56-8.09-4.39-11.03c-2.8-2.91-6.51-4.51-10.46-4.51H78.3v-6h2.97
				c5.59,0,10.84,2.26,14.78,6.35c3.91,4.06,6.07,9.46,6.07,15.19V98.73z"/>
			<rect x="84.23" y="86.45" width="6" height="18.55"/>
			<rect x="42.59" y="86.45" width="6" height="18.55"/>
		</g>
		<g>
			<path d="M25.79,42.09c-7.66,0-13.9-6.44-13.9-14.36c0-7.92,6.23-14.36,13.9-14.36s13.9,6.44,13.9,14.36
				C39.69,35.65,33.46,42.09,25.79,42.09z M25.79,17.36c-5.46,0-9.9,4.65-9.9,10.36s4.44,10.36,9.9,10.36s9.9-4.65,9.9-10.36
				S31.25,17.36,25.79,17.36z"/>
			<path d="M12.92,105h-4v-7.27H0V64.82C0,61,1.44,57.4,4.04,54.69c2.63-2.73,6.13-4.24,9.85-4.24h14.87v4H13.9
				c-2.63,0-5.11,1.07-6.97,3.01C5.04,59.42,4,62.04,4,64.82v28.91h8.92V105z"/>
		</g>
		<g>
			<path d="M107.02,42.09c-7.66,0-13.9-6.44-13.9-14.36c0-7.92,6.23-14.36,13.9-14.36c7.66,0,13.9,6.44,13.9,14.36
				C120.92,35.65,114.68,42.09,107.02,42.09z M107.02,17.36c-5.46,0-9.9,4.65-9.9,10.36s4.44,10.36,9.9,10.36s9.9-4.65,9.9-10.36
				S112.48,17.36,107.02,17.36z"/>
			<path d="M123.89,105h-4V93.73h8.92V64.82c0-2.78-1.04-5.39-2.93-7.35c-1.86-1.94-4.34-3.01-6.97-3.01h-14.87v-4h14.87
				c3.73,0,7.23,1.5,9.85,4.24c2.61,2.71,4.04,6.31,4.04,10.13v32.91h-8.92V105z"/>
		</g>
		<polygon points="63.81,43.6 61.81,49.3 63.81,55 70.81,55 72.81,49.3 70.81,43.6 		"/>
		<polygon points="63.81,59.49 61.81,83.98 67.81,93 73.81,82.69 70.81,59.49 		"/>
	</g>
</g>
</svg>
