<?xml version="1.0" encoding="utf-8"?>
<!-- Generator: Adobe Illustrator 23.0.2, SVG Export Plug-In . SVG Version: 6.00 Build 0)  -->
<svg version="1.1" id="Layer_1" xmlns="http://www.w3.org/2000/svg" xmlns:xlink="http://www.w3.org/1999/xlink" x="0px" y="0px"
	 viewBox="0 0 121.1 128.5" style="enable-background:new 0 0 121.1 128.5;" xml:space="preserve">
<style type="text/css">
	.st0{fill:#1196BA;}
	.st1{fill:#3FCAEA;}
</style>
<g>
	<path class="st0" d="M27.3,23.2c-6.2,0-11.2-5-11.2-11.2c0-6.2,5-11.2,11.2-11.2s11.2,5,11.2,11.2C38.5,18.2,33.5,23.2,27.3,23.2z
		 M27.3,4.8c-4,0-7.2,3.2-7.2,7.2c0,4,3.2,7.2,7.2,7.2s7.2-3.2,7.2-7.2C34.5,8,31.2,4.8,27.3,4.8z"/>
	<path class="st0" d="M60.2,22.4c-6.2,0-11.2-5-11.2-11.2C49,5,54,0,60.2,0s11.2,5,11.2,11.2C71.4,17.4,66.4,22.4,60.2,22.4z
		 M60.2,4c-4,0-7.2,3.2-7.2,7.2c0,4,3.2,7.2,7.2,7.2c4,0,7.2-3.2,7.2-7.2C67.4,7.2,64.2,4,60.2,4z"/>
	<path class="st0" d="M92.3,22.4c-6.2,0-11.2-5-11.2-11.2C81.1,5,86.2,0,92.3,0s11.2,5,11.2,11.2C103.6,17.4,98.5,22.4,92.3,22.4z
		 M92.3,4c-4,0-7.2,3.2-7.2,7.2c0,4,3.2,7.2,7.2,7.2c4,0,7.2-3.2,7.2-7.2C99.6,7.2,96.3,4,92.3,4z"/>
	<path class="st0" d="M115.7,57V34.4c0-4.4-2.9-8.3-7.3-9.7l-6-1.5c-0.8-0.2-1.6,0-2.2,0.6l-7.6,7.4l-7.6-7.4
		c-0.6-0.6-1.4-0.8-2.2-0.6l-6.2,1.5c-0.1,0-0.2,0.1-0.2,0.1c-0.1,0-0.2-0.1-0.4-0.1l-6-1.5c-0.8-0.2-1.6,0-2.2,0.6l-7.6,7.4
		l-7.6-7.4c-0.6-0.6-1.4-0.8-2.2-0.6l-6.2,1.5c-0.1,0-0.1,0.1-0.2,0.1c-0.1,0-0.2-0.1-0.4-0.1l-6-1.5c-0.8-0.2-1.6,0-2.2,0.6
		l-7.6,7.4l-7.6-7.4c-0.6-0.6-1.4-0.8-2.2-0.6l-6.2,1.5c-4.3,1.4-7.2,5.3-7.2,9.7V57c0,5.4,4,10,9.3,11v4.2
		C9.2,78.9,6.1,86.8,5,95.3c-0.1,0.6,0.1,1.3,0.6,1.8c12,12.9,32.4,20.7,54.6,20.7s42.6-7.7,54.6-20.7c0.4-0.5,0.7-1.1,0.6-1.8
		c-1.1-8.5-4.2-16.4-8.8-23.2V68C111.7,67,115.7,62.4,115.7,57z M9.2,57V34.4c0-2.5,1.6-4.6,3.8-5.3l4.7-1.2l8.3,8.1
		c0.9,0.9,2.4,0.9,3.3,0l8.3-8.1l1.4,0.4C37.8,30,37,32.2,37,34.4v18.5c-7.1,3.2-13.4,7.8-18.5,13.4V38.9c0-1.2-1-2.3-2.3-2.3
		c-1.3,0-2.3,1-2.3,2.3v24.4C11.1,62.4,9.2,59.9,9.2,57z M27.9,106.9c-7.1-3.1-13.3-7.1-18.1-12.1c1-6.9,3.5-13.2,7.1-18.8
		c3.7,2.3,8.2,4.3,13.2,5.9c-1.5,6.2-2.3,13-2.3,20.1C27.7,103.6,27.8,105.3,27.9,106.9z M19.4,72.3c6.2-8,14.8-14.1,24.7-17.3
		c-5.5,5.2-10,13.1-12.9,22.6C26.7,76.1,22.7,74.4,19.4,72.3z M57.8,113.2c-8.9-0.2-17.5-1.8-25.2-4.4c-0.2-2.3-0.3-4.5-0.3-6.8
		c0-6.6,0.8-13,2.2-18.8c7.1,1.8,15.1,2.8,23.3,3V113.2z M57.8,81.7c-7.9-0.2-15.4-1.2-22.1-2.9c4.4-14.4,12.7-24.7,22.1-26.2V81.7z
		 M60.1,48c-0.6,0-1.2,0-1.7,0.1c-2.6,0.1-5.1,0.3-7.5,0.7v-9.8c0-1.2-1-2.3-2.3-2.3c-1.3,0-2.3,1-2.3,2.3v10.8
		c-1.6,0.4-3.1,0.9-4.6,1.4V34.4c0-2.5,1.6-4.6,3.8-5.3l4.7-1.2l8.3,8.1c0.9,0.9,2.4,0.9,3.3,0l8.3-8.1l4.6,1.1c2.4,0.8,4,2.9,4,5.4
		v16.7c-1.5-0.5-3.1-1-4.6-1.4V38.9c0-1.2-1-2.3-2.3-2.3c-1.3,0-2.3,1-2.3,2.3v9.8c-2.5-0.4-5-0.6-7.5-0.7C61.3,48,60.7,48,60.1,48z
		 M84.6,78.9c-6.7,1.7-14.3,2.7-22.1,2.9V52.7C71.9,54.1,80.2,64.5,84.6,78.9z M87.6,108.8c-7.7,2.7-16.2,4.2-25.2,4.4v-27
		c8.2-0.2,16.2-1.2,23.3-3c1.4,5.8,2.2,12.2,2.2,18.8C87.9,104.2,87.8,106.5,87.6,108.8z M76.1,55c9.9,3.2,18.5,9.3,24.7,17.3
		c-3.3,2.1-7.3,3.8-11.8,5.2C86.1,68.1,81.6,60.3,76.1,55z M110.5,94.8c-4.8,5-11,9-18.1,12.1c0.1-1.7,0.2-3.3,0.2-4.9
		c0-7.1-0.8-13.9-2.3-20.1c5-1.6,9.5-3.5,13.2-5.9C107,81.7,109.5,88,110.5,94.8z M104.1,36.7c-1.3,0-2.3,1-2.3,2.3v27.4
		c-5.1-5.7-11.4-10.2-18.5-13.4V34.4c0-2.3-0.8-4.4-2.2-6.1l1.5-0.4l8.3,8.1c0.9,0.9,2.4,0.9,3.3,0l8.3-8.1l4.6,1.1
		c2.4,0.8,4,2.9,4,5.4V57c0,2.9-1.9,5.4-4.6,6.3V38.9C106.5,37.7,105.4,36.7,104.1,36.7z"/>
	<path class="st1" d="M60.1,128.5c-1,0-2,0-3,0C17.5,127.3,0.7,105.7,0,104.7l3.2-2.4c0.2,0.2,16.4,21,54.1,22.2
		c38.1,1.2,60.6-22.1,60.9-22.3l2.9,2.7C120.1,105.9,98.3,128.5,60.1,128.5z"/>
</g>
</svg>
