<?xml version="1.0" encoding="utf-8"?>
<!-- Generator: Adobe Illustrator 23.0.2, SVG Export Plug-In . SVG Version: 6.00 Build 0)  -->
<svg version="1.1" id="Layer_1" xmlns="http://www.w3.org/2000/svg" xmlns:xlink="http://www.w3.org/1999/xlink" x="0px" y="0px"
	 viewBox="0 0 132.8 110" style="enable-background:new 0 0 132.8 110;" xml:space="preserve">
<style type="text/css">
	.st0{fill:#1196BA;}
	.st1{fill:#3FCAEA;}
</style>
<g>
	<g>
		<g>
			<path class="st0" d="M66.4,36.9c-9.8,0-17.9-8.3-17.9-18.5S56.5,0,66.4,0s17.9,8.3,17.9,18.5S76.3,36.9,66.4,36.9z M66.4,6
				c-6.5,0-11.9,5.6-11.9,12.5s5.3,12.5,11.9,12.5s11.9-5.6,11.9-12.5S72.9,6,66.4,6z"/>
			<path class="st0" d="M45.6,98.7H30.7V64.8c0-5.7,2.2-11.1,6.1-15.2c3.9-4.1,9.2-6.3,14.8-6.3h3v6h-3c-3.9,0-7.7,1.6-10.5,4.5
				c-2.8,2.9-4.4,6.9-4.4,11v27.9h8.9L45.6,98.7L45.6,98.7z"/>
			<path class="st0" d="M102.1,98.7H87.2v-6h8.9V64.8c0-4.2-1.6-8.1-4.4-11c-2.8-2.9-6.5-4.5-10.5-4.5h-3v-6h3
				c5.6,0,10.8,2.3,14.8,6.3c3.9,4.1,6.1,9.5,6.1,15.2V98.7z"/>
			<rect x="84.2" y="86.4" class="st0" width="6" height="18.6"/>
			<rect x="42.6" y="86.4" class="st0" width="6" height="18.6"/>
		</g>
		<g>
			<path class="st1" d="M25.8,42.1c-7.7,0-13.9-6.4-13.9-14.4s6.2-14.4,13.9-14.4s13.9,6.4,13.9,14.4C39.7,35.7,33.5,42.1,25.8,42.1
				z M25.8,17.4c-5.5,0-9.9,4.6-9.9,10.4s4.4,10.4,9.9,10.4s9.9-4.7,9.9-10.4S31.3,17.4,25.8,17.4z"/>
			<path class="st1" d="M12.9,105h-4v-7.3H0V64.8c0-3.8,1.4-7.4,4-10.1c2.6-2.7,6.1-4.2,9.9-4.2h14.9v4H13.9c-2.6,0-5.1,1.1-7,3
				C5,59.4,4,62,4,64.8v28.9h8.9V105z"/>
		</g>
		<g>
			<path class="st1" d="M107,42.1c-7.7,0-13.9-6.4-13.9-14.4s6.2-14.4,13.9-14.4c7.7,0,13.9,6.4,13.9,14.4S114.7,42.1,107,42.1z
				 M107,17.4c-5.5,0-9.9,4.6-9.9,10.4s4.4,10.4,9.9,10.4s9.9-4.7,9.9-10.4S112.5,17.4,107,17.4z"/>
			<path class="st1" d="M123.9,105h-4V93.7h8.9V64.8c0-2.8-1-5.4-2.9-7.3c-1.9-1.9-4.3-3-7-3H104v-4h14.9c3.7,0,7.2,1.5,9.8,4.2
				c2.6,2.7,4,6.3,4,10.1v32.9h-8.9L123.9,105L123.9,105z"/>
		</g>
		<polygon class="st0" points="63.8,43.6 61.8,49.3 63.8,55 70.8,55 72.8,49.3 70.8,43.6 		"/>
		<polygon class="st0" points="63.8,59.5 61.8,84 67.8,93 73.8,82.7 70.8,59.5 		"/>
		<rect x="0" y="105" class="st0" width="132.8" height="5"/>
	</g>
</g>
</svg>
