<?xml version="1.0" encoding="utf-8"?>
<!-- Generator: Adobe Illustrator 23.0.2, SVG Export Plug-In . SVG Version: 6.00 Build 0)  -->
<svg version="1.1" id="Layer_1" xmlns="http://www.w3.org/2000/svg" xmlns:xlink="http://www.w3.org/1999/xlink" x="0px" y="0px"
	 viewBox="0 0 121.05 128.52" style="enable-background:new 0 0 121.05 128.52;" xml:space="preserve">
<g>
	<path d="M27.27,23.22c-6.18,0-11.22-5.03-11.22-11.22c0-6.18,5.03-11.22,11.22-11.22S38.49,5.82,38.49,12
		C38.49,18.19,33.45,23.22,27.27,23.22z M27.27,4.78c-3.98,0-7.22,3.24-7.22,7.22c0,3.98,3.24,7.22,7.22,7.22s7.22-3.24,7.22-7.22
		C34.49,8.02,31.25,4.78,27.27,4.78z"/>
	<path d="M60.2,22.43c-6.18,0-11.22-5.03-11.22-11.22C48.98,5.03,54.02,0,60.2,0s11.22,5.03,11.22,11.22
		C71.42,17.4,66.38,22.43,60.2,22.43z M60.2,4c-3.98,0-7.22,3.24-7.22,7.22c0,3.98,3.24,7.22,7.22,7.22c3.98,0,7.22-3.24,7.22-7.22
		C67.42,7.24,64.18,4,60.2,4z"/>
	<path d="M92.35,22.43c-6.18,0-11.22-5.03-11.22-11.22C81.13,5.03,86.16,0,92.35,0s11.22,5.03,11.22,11.22
		C103.56,17.4,98.53,22.43,92.35,22.43z M92.35,4c-3.98,0-7.22,3.24-7.22,7.22c0,3.98,3.24,7.22,7.22,7.22
		c3.98,0,7.22-3.24,7.22-7.22C99.56,7.24,96.33,4,92.35,4z"/>
	<path d="M115.71,56.96V34.44c0-4.4-2.88-8.28-7.32-9.7l-6-1.49c-0.79-0.2-1.63,0.03-2.21,0.59l-7.63,7.42l-7.63-7.42
		c-0.58-0.56-1.42-0.79-2.21-0.59l-6.16,1.53c-0.08,0.03-0.16,0.07-0.24,0.1c-0.12-0.04-0.23-0.1-0.35-0.14l-6-1.49
		c-0.79-0.2-1.63,0.03-2.21,0.59l-7.63,7.42l-7.63-7.42c-0.58-0.56-1.42-0.79-2.21-0.59l-6.16,1.53c-0.08,0.02-0.14,0.06-0.22,0.09
		c-0.12-0.04-0.23-0.09-0.37-0.13l-6-1.49c-0.79-0.2-1.63,0.03-2.21,0.59l-7.63,7.42l-7.63-7.42c-0.58-0.56-1.42-0.79-2.21-0.59
		l-6.16,1.53c-4.29,1.38-7.17,5.26-7.17,9.66v22.52c0,5.44,3.99,9.99,9.26,11.03v4.16c-4.63,6.77-7.74,14.63-8.83,23.16
		c-0.08,0.65,0.13,1.3,0.58,1.78c11.99,12.94,32.39,20.67,54.57,20.67s42.59-7.73,54.57-20.67c0.45-0.48,0.66-1.13,0.58-1.78
		c-1.08-8.53-4.2-16.39-8.83-23.16V68C111.73,66.95,115.71,62.4,115.71,56.96z M9.17,56.96V34.44c0-2.45,1.6-4.61,3.84-5.34
		l4.72-1.17l8.33,8.1c0.9,0.88,2.37,0.88,3.28,0l8.33-8.1l1.44,0.36c-1.35,1.73-2.14,3.87-2.14,6.15v18.48
		c-7.1,3.18-13.4,7.77-18.53,13.43V38.95c0-1.24-1.04-2.25-2.32-2.25c-1.28,0-2.32,1.01-2.32,2.25v24.36
		C11.11,62.37,9.17,59.9,9.17,56.96z M27.86,106.95c-7.12-3.06-13.33-7.15-18.14-12.1c1.02-6.85,3.51-13.19,7.07-18.79
		c3.75,2.32,8.24,4.29,13.25,5.87c-1.5,6.22-2.33,12.99-2.33,20.09C27.7,103.64,27.76,105.29,27.86,106.95z M19.39,72.33
		c6.2-8.02,14.81-14.11,24.74-17.31c-5.52,5.24-10.03,13.1-12.92,22.56C26.74,76.15,22.74,74.39,19.39,72.33z M57.81,113.22
		c-8.93-0.23-17.48-1.76-25.17-4.43c-0.19-2.27-0.3-4.54-0.3-6.78c0-6.62,0.78-12.98,2.17-18.81c7.12,1.8,15.06,2.85,23.31,3.01
		V113.22z M57.81,81.71c-7.87-0.16-15.42-1.15-22.14-2.85c4.39-14.39,12.68-24.73,22.14-26.2V81.71z M60.13,47.96
		c-0.58,0-1.15,0.03-1.73,0.08c-2.56,0.08-5.07,0.31-7.54,0.71v-9.8c0-1.24-1.04-2.25-2.32-2.25c-1.28,0-2.32,1.01-2.32,2.25v10.77
		c-1.57,0.4-3.11,0.86-4.63,1.38V34.44c0-2.45,1.6-4.61,3.84-5.34l4.72-1.17l8.33,8.1c0.9,0.88,2.37,0.88,3.28,0l8.33-8.1l4.57,1.13
		c2.39,0.77,3.99,2.93,3.99,5.38V51.1c-1.52-0.52-3.06-0.99-4.63-1.38V38.95c0-1.24-1.04-2.25-2.32-2.25
		c-1.28,0-2.32,1.01-2.32,2.25v9.8c-2.47-0.41-4.98-0.64-7.54-0.71C61.28,47.98,60.71,47.96,60.13,47.96z M84.58,78.85
		c-6.72,1.7-14.26,2.69-22.14,2.85V52.65C71.9,54.12,80.18,64.46,84.58,78.85z M87.62,108.79c-7.69,2.67-16.24,4.2-25.17,4.43V86.21
		c8.25-0.17,16.2-1.21,23.31-3.01c1.39,5.83,2.17,12.2,2.17,18.81C87.92,104.24,87.8,106.52,87.62,108.79z M76.12,55.01
		c9.93,3.2,18.54,9.29,24.74,17.31c-3.35,2.06-7.35,3.82-11.82,5.25C86.15,68.11,81.64,60.26,76.12,55.01z M110.54,94.84
		c-4.81,4.96-11.02,9.04-18.14,12.1c0.09-1.66,0.16-3.31,0.16-4.94c0-7.1-0.83-13.88-2.33-20.09c5-1.58,9.5-3.54,13.25-5.87
		C107.03,81.66,109.52,87.99,110.54,94.84z M104.13,36.69c-1.28,0-2.32,1.01-2.32,2.25v27.41c-5.13-5.66-11.43-10.25-18.53-13.43
		V34.44c0-2.28-0.79-4.42-2.16-6.15l1.45-0.36l8.33,8.1c0.9,0.88,2.37,0.88,3.28,0l8.33-8.1l4.57,1.13
		c2.39,0.77,3.99,2.93,3.99,5.38v22.52c0,2.93-1.94,5.41-4.63,6.34V38.95C106.45,37.7,105.41,36.69,104.13,36.69z"/>
	<path d="M60.12,128.52c-0.98,0-1.96-0.01-2.95-0.04C17.47,127.28,0.69,105.65,0,104.73l3.19-2.41c0.16,0.21,16.43,21.02,54.1,22.16
		c38.14,1.18,60.63-22.09,60.86-22.32l2.91,2.75C120.12,105.89,98.33,128.52,60.12,128.52z"/>
</g>
</svg>
