<?xml version="1.0" encoding="utf-8"?>
<!-- Generator: Adobe Illustrator 23.0.2, SVG Export Plug-In . SVG Version: 6.00 Build 0)  -->
<svg version="1.1" id="Layer_1" xmlns="http://www.w3.org/2000/svg" xmlns:xlink="http://www.w3.org/1999/xlink" x="0px" y="0px"
	 viewBox="0 0 1800 378" style="enable-background:new 0 0 1800 378;" xml:space="preserve">
<g>
	<path d="M816.84,4.48c0-1.49,0.11-2.99,0.16-4.48H0v378h817c-0.05-1.49-0.16-2.99-0.16-4.48V4.48z M265.82,122.7
		c-2.57,28.71-5.14,57.41-7.78,86.12c-3.01,32.73-23.24,58.91-52.39,67.72c-12.97,3.93-26.23,4.83-39.52,2.08
		c-27.92-5.8-47.54-29.12-47.83-58.67c-0.18-17.94,1.76-35.91,3.14-53.83c1.61-20.93,3.65-41.83,5.51-62.73
		c0.18-1.95,0.43-3.9,0.67-6.03h35.1c0,1.32,0.09,2.44-0.01,3.53c-3.13,34.85-6.54,69.67-9.22,104.55
		c-0.57,7.44,0.65,15.31,2.59,22.57c2.3,8.57,8.9,13.75,17.57,16.13c23.32,6.42,45.08-7.88,48.21-32.65
		c2.65-20.98,4.13-42.1,6.08-63.17c1.47-15.93,2.85-31.86,4.3-47.79c0.09-0.97,0.4-1.92,0.68-3.21h35.02
		C267.23,105.94,266.57,114.33,265.82,122.7z M428.23,111.17c-1.33,12.38-2.4,24.79-3.61,37.73c-0.95-0.48-1.61-0.61-1.94-1.02
		c-14.36-17.57-33.58-21.4-54.6-18.27c-28.19,4.2-46.64,25-49.95,55c-1.31,11.95-0.64,23.65,4.63,34.7
		c7.81,16.38,21.53,23.92,38.95,25.51c19.27,1.77,36.13-4.08,50.71-16.72c1.38-1.2,2.78-2.38,4.2-3.53c0.2-0.16,0.6-0.07,1.44-0.15
		c-0.82,9.46-1.64,18.83-2.46,28.21c-0.1,1.16-0.49,2.35-0.34,3.47c1.27,9.37-4.03,13.21-11.97,16.44
		c-18.95,7.71-38.3,9.96-58.27,6.15c-33.53-6.38-56.39-29.59-61.81-63.62c-4.67-29.3,0.94-56.9,17.97-81.38
		c19.68-28.28,47.97-39.97,81.75-39.94c14.99,0.01,28.97,3.66,42.02,11.07C427.67,106.36,428.57,108.05,428.23,111.17z
		 M545.14,276.09H440.45c5.31-59.61,10.6-118.91,15.92-178.59h35.5c-4.24,48.34-8.47,96.53-12.74,145.13h69.17
		C547.23,253.94,546.2,264.82,545.14,276.09z M679.22,276.12c-1.01-0.02-2.48-1.91-2.9-3.21c-2.27-6.96-4.48-13.95-6.27-21.03
		c-0.83-3.29-2.4-4.04-5.54-4.02c-19.82,0.13-39.64,0.13-59.46,0c-2.96-0.02-4.45,0.98-5.63,3.62c-3.27,7.29-6.72,14.49-10.33,21.61
		c-0.69,1.35-2.45,3.03-3.75,3.06c-11.46,0.24-22.93,0.14-35.35,0.14c2.79-5.49,5.01-9.93,7.28-14.34
		c28.93-56.21,57.86-112.42,86.8-168.62c0.07-0.15,0.13-0.32,0.23-0.44c1.12-1.31,2.23-2.62,3.35-3.93
		c0.96,1.39,2.27,2.65,2.83,4.19c3.81,10.47,7.46,20.99,11.16,31.51c17.06,48.48,34.11,96.96,51.15,145.44
		c0.65,1.83,1.17,3.71,1.93,6.17C702.46,276.27,690.84,276.35,679.22,276.12z"/>
	<path d="M1800,289v10h-50.07v-6.3c0-33.16,0.09-66.32-0.08-99.48c-0.03-5.78-0.52-11.7-1.87-17.3
		c-4.46-18.47-22.11-26.15-38.94-17.05c-13.02,7.04-19.86,18.99-23.7,32.63c-1.92,6.8-2.84,14.07-2.98,21.16
		c-0.38,19.82-0.14,39.65-0.13,59.48c0.01,11.49,3.63,15.52,15.15,16.75c0.82,0.08,1.64,0.16,2.47,0.22
		c0.82,0.06,1.66,0.11,2.5,0.16c1.68,0.09,3.39,0.17,5.18,0.28v8.97h-77.11v-8.71c0.49-0.06,0.98-0.12,1.47-0.18
		c0.99-0.12,1.99-0.22,2.99-0.33c0.5-0.06,1.01-0.11,1.51-0.17c2.01-0.24,4.03-0.52,6.02-0.94c2.47-0.53,4.45-1.23,6.01-2.18
		c0.46-0.29,0.89-0.6,1.28-0.93c2.46-2.13,3.46-5.28,3.47-10.09c0.06-57.32,0.06-114.64,0.01-171.95
		c-0.01-8.65-3.65-12.57-12.46-13.91c-3.28-0.5-6.61-0.66-10.28-1.01v-9.09c4.21-0.16,8.43-0.33,12.67-0.5
		c4.25-0.16,8.51-0.33,12.81-0.5c2.14-0.08,4.3-0.17,6.46-0.25c4.33-0.17,8.69-0.34,13.1-0.51c2.2-0.09,4.42-0.17,6.64-0.26v98.21
		c0.38,0.08,0.76,0.16,1.14,0.24c0.85-1.49,1.72-2.98,2.55-4.48c2.69-4.88,5.96-9.17,9.7-12.82c0.42-0.41,0.84-0.81,1.26-1.2
		c0.85-0.78,1.73-1.52,2.62-2.24c1.34-1.07,2.73-2.07,4.16-2.99c0.47-0.31,0.95-0.61,1.44-0.9c0.97-0.58,1.95-1.13,2.96-1.64
		c0.5-0.26,1.01-0.51,1.52-0.74c1.02-0.49,2.05-0.93,3.09-1.33c10.79-4.2,23.03-4.65,35.15-0.68c17.22,5.64,25.76,18.76,29.09,35.63
		c1.44,7.29,1.95,14.87,2.04,22.33c0.26,22.15,0.09,44.32,0.09,66.48c0,13.85,3.67,17.67,17.6,18.25
		C1797.68,289.18,1798.84,289.05,1800,289z"/>
	<path d="M1125.04,289.48v9.07h-91.53v-8.71c1.87-0.23,3.76-0.42,5.65-0.61c1.27-0.13,2.53-0.27,3.8-0.42
		c1.26-0.15,2.52-0.33,3.77-0.53c0.63-0.11,1.26-0.22,1.88-0.34c2.21-0.43,4.18-1.06,5.91-1.89c0.87-0.42,1.67-0.89,2.41-1.4
		c0.37-0.26,0.72-0.54,1.06-0.82c0.34-0.29,0.66-0.59,0.96-0.9c2.42-2.48,3.75-5.82,3.81-10.04c0.4-27.98,0.15-55.96,0.15-84.3
		h-97.65c-0.09,1.69-0.25,3.3-0.25,4.91c-0.01,24-0.02,48-0.01,71.99c0.02,13.95,4.01,20.33,15.27,22.62
		c0.83,0.17,1.7,0.31,2.62,0.44c0.91,0.13,1.86,0.23,2.86,0.32c0.5,0.04,1.01,0.08,1.53,0.11c0.5,0.03,1,0.06,1.5,0.08
		c0.5,0.02,1,0.04,1.5,0.06c3.85,0.17,5.92,0.26,6.88,1.22c1.13,1.11,0.76,3.39-0.04,8.32h-93.33c-0.18-0.96-0.43-1.74-0.46-2.53
		c-0.14-3.35-0.2-5.01,0.65-5.89l0.13-0.13c0.05-0.04,0.1-0.08,0.16-0.12c0.11-0.08,0.22-0.14,0.35-0.2
		c0.2-0.09,0.42-0.17,0.67-0.23c0.5-0.13,1.12-0.22,1.88-0.28c0.38-0.03,0.79-0.06,1.25-0.09c0.3-0.02,0.62-0.03,0.96-0.05
		c0.17-0.01,0.34-0.02,0.52-0.03c1.49-0.08,3-0.14,4.49-0.32c0.5-0.06,0.99-0.13,1.48-0.22c0.8-0.14,1.56-0.29,2.29-0.45
		c0.74-0.17,1.44-0.34,2.11-0.53c0.67-0.19,1.32-0.39,1.93-0.61c0.92-0.33,1.77-0.69,2.56-1.08c0.53-0.27,1.03-0.55,1.5-0.84
		c0.47-0.3,0.92-0.62,1.34-0.95c3.98-3.19,5.61-8.08,5.63-15.76c0.12-53.66,0.12-107.32-0.02-160.98c-0.02-9.12-2.7-14.68-8.68-17.7
		c-0.54-0.27-1.11-0.53-1.71-0.76c-1.5-0.58-3.17-1.04-5.01-1.38c-1.11-0.21-2.29-0.37-3.53-0.5c-1.3-0.13-2.6-0.23-3.91-0.33
		c-2.19-0.16-4.42-0.29-6.76-0.47v-8.9h93.11v8.58c-4.4,0.53-8.77,0.86-13.06,1.47c-1.43,0.2-2.86,0.43-4.27,0.72
		c-8.85,1.76-13.76,6.32-13.95,15.2c-0.52,24.61-0.18,49.24-0.18,74.16h97.59c0.12-1.56,0.3-2.86,0.3-4.15
		c0.02-21.5,0.09-43-0.02-64.5c-0.04-8.83-2.04-14.47-6.77-17.84c-0.5-0.36-1.03-0.69-1.59-0.99c-0.29-0.16-0.57-0.3-0.87-0.44
		c-1.19-0.57-2.5-1.04-3.95-1.42c-1.45-0.38-3.03-0.68-4.75-0.9c-0.87-0.11-1.76-0.21-2.7-0.28c-1.95-0.15-3.9-0.3-5.91-0.45
		c-1.2-0.09-2.43-0.18-3.69-0.27V77.3h90.87v8.64c-4.79,0.63-9.74,0.96-14.53,1.98c-9.37,1.99-13.6,7.14-14.2,16.69
		c-0.17,2.65-0.15,5.33-0.15,7.99c0,50.16-0.01,100.32,0,150.48c0,16.22,3.23,22.66,15.08,25.03c0.68,0.13,1.39,0.26,2.14,0.37
		c2.22,0.33,4.71,0.55,7.5,0.68c0.83,0.04,1.66,0.09,2.54,0.15C1123.04,289.36,1123.98,289.42,1125.04,289.48z"/>
	<path d="M1432.33,263.28c-1.96,6.13-3.29,11.79-5.58,17.04c-1.83,4.18-5.75,5.7-10.45,4.97c-4.53-0.7-6.63-3.69-7.29-7.73
		c-0.64-3.92-1.02-7.93-1.03-11.9c-0.09-26.32,0.09-52.64-0.1-78.96c-0.16-22.72-9.91-35.4-32.14-39.66
		c-11.98-2.3-24.47-2.84-36.71-2.66c-12.1,0.19-23.57,4.1-33.64,11.23c-6.54,4.63-11.75,10.33-13.87,18.32
		c-2.66,10.1,3,20.46,12.48,22.91c10.28,2.65,20.06-3.28,22.54-13.66c2.29-9.59-2.49-16.71-13.82-20.61
		c13.59-11.6,45.43-12.55,59.33-1.78c4.5,3.49,6.85,8.07,6.87,13.78c0.03,8.66-0.16,17.33,0.09,25.98c0.1,3.42-0.9,4.91-4.25,5.95
		c-13.98,4.33-27.97,8.66-41.71,13.67c-14.26,5.19-28.09,11.48-39.28,22.19c-18.96,18.17-13.84,45.44,10.37,55.76
		c12.4,5.29,25.27,5.48,38.28,3.42c17.49-2.76,30.67-11.43,37.62-28.3c0.14-0.32,0.61-0.51,1.02-0.85c1.4,5.02,2.44,9.88,4.13,14.51
		c2.64,7.21,7.68,11.85,15.52,13.25c21.77,3.89,39.23-10.5,38.7-36.87H1432.33z M1376.61,258.01
		c-2.72,14.96-11.92,26.32-27.17,31.14c-21.38,6.77-38.09-8.51-32.68-30.3c1.54-6.19,5.08-12.36,9.16-17.34
		c10.33-12.57,36.08-25.29,53.89-27.29C1378.86,228.98,1379.21,243.76,1376.61,258.01z"/>
	<path d="M1254.52,266.76c-7.31,6.47-13.89,14.23-22.18,19.03c-24.46,14.18-51.85,5.06-63.39-20.67c-3.42-7.63-5.17-16.1-6.9-24.35
		c-1.2-5.72-1.06-11.72-1.56-18.15h106.61c-1.49-9.65-2.07-18.84-4.41-27.55c-6.79-25.3-21.72-43.33-48.29-49.24
		c-27.01-6-49.66,2.14-67.73,22.85c-11.53,13.21-17.51,28.93-19.23,46.28c-4.71,47.47,30.75,94.33,82.86,87.19
		c23.36-3.21,41-14.31,53.92-34.19c-2.02-1.72-3.89-3.32-6.22-5.31C1256.64,264.27,1255.73,265.69,1254.52,266.76z M1172.45,164.44
		c12.53-15.99,39.77-14.81,51.76,1.88c6.22,8.67,8.42,18.73,9.64,29.03c0.62,5.26,0.73,10.59,1.11,16.49h-74.23
		C1160.94,194.97,1161.55,178.35,1172.45,164.44z"/>
	<path d="M1517.12,289.45v9.2h-77.87v-8.99c4.2-0.4,8.2-0.5,12.08-1.22c9.5-1.76,12.4-5.36,12.43-14.98
		c0.04-15.83,0.01-31.65,0.01-47.48V106.04c0-6.49-0.99-10.62-3.74-13.23c-1.12-1.07-2.56-1.89-4.35-2.5
		c-0.51-0.18-1.05-0.34-1.62-0.48c-1.71-0.44-3.69-0.74-5.97-0.94c-0.7-0.06-1.41-0.13-2.11-0.19c-0.71-0.07-1.43-0.13-2.15-0.19
		c-1.45-0.13-2.95-0.26-4.52-0.4v-9.08c4.37-0.16,8.75-0.33,13.15-0.5c13.2-0.5,26.57-1,40.32-1.52v193.26
		c0,8.21,1.06,12.9,4.6,15.57c0.4,0.29,0.82,0.57,1.28,0.82c0.46,0.25,0.95,0.47,1.47,0.68c0.79,0.31,1.65,0.57,2.6,0.79
		c0.32,0.07,0.65,0.14,0.98,0.21c1.01,0.19,2.1,0.35,3.29,0.48c1.19,0.12,2.47,0.22,3.85,0.29c0.99,0.06,1.98,0.11,3.01,0.17
		C1514.89,289.33,1515.96,289.39,1517.12,289.45z"/>
	<path d="M1617.69,287.21c-4.05,7.47-10.65,11.8-18.78,13.75c-10.72,2.58-21.52,2.48-32.17-0.22c-0.89-0.23-1.75-0.48-2.58-0.76
		c-3.34-1.12-6.25-2.66-8.75-4.64c-0.31-0.25-0.61-0.5-0.91-0.76c-0.6-0.53-1.17-1.07-1.72-1.64c-5.18-5.48-8.03-13.38-8.64-23.74
		c-0.22-3.66-0.13-7.33-0.13-11c-0.01-31.66-0.01-63.32-0.01-94.99v-5.9h-23.5v-9.26c3.62-0.64,7.48-1.31,11.34-2.01
		c1.7-0.31,3.32-0.72,4.87-1.22c0.62-0.2,1.22-0.42,1.82-0.65c0.59-0.24,1.17-0.49,1.74-0.75c0.28-0.14,0.56-0.27,0.84-0.41
		c0.83-0.43,1.63-0.89,2.4-1.38c4.87-3.14,8.51-7.77,10.68-14c2.73-7.83,5.31-15.81,6.86-23.93c0.45-2.39,1.15-4.1,2.2-5.22
		c0.13-0.14,0.27-0.26,0.41-0.39c0.43-0.36,0.9-0.64,1.43-0.83c1.28-0.49,2.9-0.52,4.91-0.16c0.2,0.04,0.4,0.07,0.6,0.09
		c0.21,0.02,0.42,0.03,0.65,0.05c0.45,0.03,0.96,0.05,1.57,0.09v49.07h44.99v10.71H1573v116.38c0,7.15,1.22,11.83,4.12,14.92
		c0.42,0.43,0.86,0.84,1.35,1.22c1.29,1,2.83,1.8,4.66,2.42c7.21,2.47,14.51,1.42,20.18-2.72c1.66-1.21,3.17-2.69,4.51-4.41
		c4.99-6.45,6.65-14.07,7.14-21.98c0.23-3.62,0.04-7.26,0.04-11.21h8.83C1624.08,264.1,1623.7,276.15,1617.69,287.21z"/>
	<path d="M659.54,217.11h-43.45c8.95-19.83,17.71-39.26,26.45-58.64C648.16,177.87,653.79,197.28,659.54,217.11z"/>
</g>
</svg>
