<?xml version="1.0" encoding="utf-8"?>
<!-- Generator: Adobe Illustrator 23.0.2, SVG Export Plug-In . SVG Version: 6.00 Build 0)  -->
<svg version="1.1" id="Capa_1" xmlns="http://www.w3.org/2000/svg" xmlns:xlink="http://www.w3.org/1999/xlink" x="0px" y="0px"
	 width="104.9px" height="104.9px" viewBox="0 0 104.9 104.9" style="enable-background:new 0 0 104.9 104.9;" xml:space="preserve"
	>
<path d="M61.7,63.4l-9.6-4.8c-0.9-0.5-1.5-1.4-1.5-2.4v-3.4c0.2-0.3,0.5-0.6,0.7-1c1.2-1.8,2.2-3.7,3-5.8c1.4-0.6,2.3-2,2.3-3.6v-4
	c0-1-0.4-1.9-1-2.6v-5.3c0.1-0.6,0.3-3.8-2.1-6.5c-1.9-2.3-5.3-3.5-9.8-3.5s-7.9,1.2-9.9,3.5c-2.4,2.7-2.1,6-2.1,6.5v5.3
	c-0.6,0.7-1,1.7-1,2.6v4c0,1.2,0.6,2.4,1.5,3.1c0.9,3.6,2.8,6.4,3.5,7.2V56c0,1-0.5,1.9-1.4,2.3l-8.9,4.9c-2.9,1.7-4.7,4.8-4.7,8.1
	v4.2h46v-4C66.7,68,64.8,64.9,61.7,63.4z M77.3,64.5l-9.7-4.2c-0.2-0.1-0.5-0.4-0.7-0.8h6.5c0,0,0.4,0,1,0c1.1,0,2.6-0.1,4-0.7
	c0.8-0.4,1.4-1,1.7-1.9c0.2-0.9,0.1-1.8-0.4-2.5c-1.9-2.7-6.2-9.6-6.4-16.6c0-0.1-0.4-12.1-12.2-12.2c-1.2,0-2.3,0.2-3.4,0.4
	c0.8,2.1,0.7,4,0.7,4.6v4.7c0.6,0.9,1,2,1,3.1v4c0,1.9-1,3.7-2.6,4.7c-0.7,2-1.7,3.9-2.9,5.6c-0.2,0.2-0.3,0.4-0.4,0.6v2.9
	c0,0.4,0.2,0.8,0.6,1l9.6,4.8c3.6,1.8,5.8,5.4,5.8,9.4v4H82v-3.7C81.9,68.7,80.1,65.9,77.3,64.5z M81.5,99.1
	c-1.4,4.1-6.8,6.8-10.8,5.4l-65-23C1.7,80.2-1,74.8,0.4,70.7l23-65c1.4-4.1,6.8-6.8,10.8-5.4l65,23c4.1,1.4,6.8,6.8,5.4,10.8
	L81.5,99.1"/>
</svg>
