<?xml version="1.0" encoding="utf-8"?>
<!-- Generator: Adobe Illustrator 23.0.2, SVG Export Plug-In . SVG Version: 6.00 Build 0)  -->
<svg version="1.1" id="Capa_1" xmlns="http://www.w3.org/2000/svg" xmlns:xlink="http://www.w3.org/1999/xlink" x="0px" y="0px"
	 width="61.2px" height="55px" viewBox="0 0 61.2 55" style="enable-background:new 0 0 61.2 55;" xml:space="preserve">
<g>
	<path d="M41,42.9l-9.6-4.8c-0.9-0.5-1.5-1.4-1.5-2.4v-3.4c0.2-0.3,0.5-0.6,0.7-1c1.2-1.8,2.2-3.7,3-5.8c1.4-0.6,2.3-2,2.3-3.6v-4
		c0-1-0.4-1.9-1-2.6v-5.3c0.1-0.6,0.3-3.8-2.1-6.5C30.9,1.2,27.5,0,23,0s-7.9,1.2-9.9,3.5c-2.4,2.7-2.1,6-2.1,6.5v5.3
		c-0.6,0.7-1,1.7-1,2.6v4c0,1.2,0.6,2.4,1.5,3.1c0.9,3.6,2.8,6.4,3.5,7.2v3.3c0,1-0.5,1.9-1.4,2.3l-8.9,4.9C1.8,44.4,0,47.5,0,50.8
		V55h46v-4C46,47.5,44.1,44.4,41,42.9z"/>
	<path d="M56.6,44l-9.7-4.2c-0.2-0.1-0.5-0.4-0.7-0.8l6.5,0c0,0,0.4,0,1,0c1.1,0,2.6-0.1,4-0.7c0.8-0.4,1.4-1,1.7-1.9
		c0.2-0.9,0.1-1.8-0.4-2.5c-1.9-2.7-6.2-9.6-6.4-16.6c0-0.1-0.4-12.1-12.2-12.2c-1.2,0-2.3,0.2-3.4,0.4c0.8,2.1,0.7,4,0.7,4.6v4.7
		c0.6,0.9,1,2,1,3.1v4c0,1.9-1,3.7-2.6,4.7c-0.7,2-1.7,3.9-2.9,5.6c-0.2,0.2-0.3,0.4-0.4,0.6v2.9c0,0.4,0.2,0.8,0.6,1l9.6,4.8
		c3.6,1.8,5.8,5.4,5.8,9.4v4h12.5v-3.7C61.2,48.2,59.4,45.4,56.6,44z"/>
</g>
</svg>
