<?xml version="1.0" encoding="utf-8"?>
<!-- Generator: Adobe Illustrator 23.0.2, SVG Export Plug-In . SVG Version: 6.00 Build 0)  -->
<svg version="1.1" id="Layer_1" xmlns="http://www.w3.org/2000/svg" xmlns:xlink="http://www.w3.org/1999/xlink" x="0px" y="0px"
	 viewBox="0 0 128.5 116.05" style="enable-background:new 0 0 128.5 116.05;" xml:space="preserve">
<g>
	<path d="M118.2,107.25H10.3c-0.83,0-1.5-0.67-1.5-1.5V26.9c0-0.83,0.67-1.5,1.5-1.5h107.9c0.83,0,1.5,0.67,1.5,1.5v78.85
		C119.7,106.58,119.03,107.25,118.2,107.25z M11.8,104.25h104.9V28.4H11.8V104.25z"/>
	<polygon points="128.5,116.05 0,116.05 0,18.6 4,18.6 4,112.05 124.5,112.05 124.5,18.6 128.5,18.6 	"/>
	<path d="M128.5,20.6H0V0h128.5V20.6z M4,16.6h120.5V4H4V16.6z"/>
	<g>
		<rect x="10.3" y="8.8" width="4.15" height="3"/>
		<rect x="18.6" y="8.8" width="4.15" height="3"/>
		<rect x="26.9" y="8.8" width="4.15" height="3"/>
	</g>
	<rect x="35.2" y="8.8" width="83" height="3"/>
	<g>
		<path d="M93.47,56.1c-2.74-2.7-6.37-4.19-10.21-4.19c-3.93,0-7.61,1.54-10.37,4.34l-3.24,3.29v0l-0.78,0.79l-3.25,3.3l0,0
			l-2.46,2.5l0,0L61.32,68L60,69.34v0l-4.6,4.67c-2.09,2.12-4.89,3.29-7.87,3.29c-2.92,0-5.67-1.13-7.75-3.18
			c-2.1-2.07-3.27-4.84-3.3-7.79c-0.02-2.95,1.11-5.73,3.18-7.84c2.09-2.12,4.89-3.29,7.87-3.29c2.92,0,5.67,1.13,7.75,3.18
			l5.85,5.77l2.46-2.5l-5.85-5.77c-2.74-2.7-6.37-4.19-10.21-4.19c-3.93,0-7.61,1.54-10.37,4.34c-2.73,2.77-4.21,6.44-4.18,10.32
			c0.03,3.89,1.57,7.53,4.34,10.26c2.74,2.7,6.37,4.19,10.21,4.19c3.93,0,7.61-1.54,10.37-4.34l7.75-7.87l0,0l2.46-2.5l0,0
			l7.28-7.39c2.09-2.12,4.89-3.29,7.87-3.29c2.92,0,5.67,1.13,7.75,3.18c2.1,2.07,3.27,4.84,3.3,7.79c0.02,2.95-1.11,5.73-3.18,7.84
			c-1.97,2-4.45,3.06-7.17,3.06h0c-2.9,0-5.73-1.22-7.97-3.42l-5.85-5.76l-2.46,2.5l5.85,5.76c2.9,2.86,6.61,4.43,10.43,4.43h0
			c3.63,0,7.06-1.46,9.67-4.1c2.73-2.77,4.22-6.43,4.19-10.32C97.78,62.47,96.24,58.82,93.47,56.1z"/>
		<path d="M47.52,81.31c-3.98,0-7.73-1.54-10.56-4.33c-2.87-2.82-4.46-6.59-4.49-10.61c-0.03-4.02,1.51-7.81,4.33-10.68
			c2.85-2.9,6.66-4.49,10.73-4.49c3.98,0,7.73,1.54,10.56,4.33l6.21,6.12l-3.16,3.21l-6.21-6.12c-1.99-1.96-4.61-3.03-7.4-3.03
			c-2.85,0-5.52,1.12-7.51,3.15c-1.98,2.01-3.05,4.66-3.03,7.48c0.02,2.82,1.14,5.46,3.15,7.43c1.99,1.96,4.61,3.03,7.4,3.03
			c2.85,0,5.51-1.12,7.51-3.15L72.53,55.9c2.85-2.9,6.66-4.49,10.73-4.49c3.98,0,7.73,1.54,10.56,4.33
			c2.87,2.82,4.46,6.59,4.49,10.61c0.03,4.02-1.51,7.81-4.33,10.68c-2.7,2.74-6.26,4.25-10.03,4.25c-3.96,0-7.79-1.63-10.79-4.57
			l-6.21-6.11l3.16-3.21l6.21,6.11c2.15,2.12,4.85,3.28,7.62,3.28c2.58,0,4.94-1.01,6.82-2.91c1.98-2.01,3.05-4.66,3.03-7.48
			s-1.14-5.46-3.15-7.43c-1.98-1.96-4.61-3.03-7.4-3.03c-2.85,0-5.52,1.12-7.51,3.14L65.65,69.31l0,0l-7.4,7.51
			C55.4,79.71,51.59,81.31,47.52,81.31z M47.53,52.2c-3.79,0-7.35,1.49-10.01,4.19c-2.63,2.67-4.07,6.21-4.04,9.97
			c0.03,3.75,1.52,7.27,4.19,9.91c2.65,2.61,6.15,4.04,9.86,4.04c3.79,0,7.35-1.49,10.01-4.19l8.11-8.23l0,0l9.38-9.53
			c2.19-2.22,5.11-3.44,8.23-3.44c3.05,0,5.93,1.18,8.1,3.32c2.2,2.16,3.42,5.05,3.44,8.14c0.02,3.08-1.16,5.99-3.32,8.19
			c-2.07,2.1-4.67,3.21-7.53,3.21c-3.03,0-5.99-1.27-8.32-3.57l-5.5-5.41l-1.76,1.79l5.5,5.41c2.81,2.76,6.39,4.29,10.08,4.29
			c3.5,0,6.8-1.4,9.31-3.96c2.64-2.67,4.07-6.21,4.04-9.97c-0.03-3.75-1.52-7.27-4.19-9.91l0,0c-2.65-2.61-6.15-4.04-9.86-4.04
			c-3.79,0-7.35,1.49-10.01,4.19L55.75,74.36c-2.19,2.22-5.11,3.44-8.22,3.44c-3.05,0-5.93-1.18-8.1-3.32
			c-2.2-2.17-3.42-5.06-3.45-8.14c-0.02-3.08,1.16-5.99,3.32-8.19c2.19-2.22,5.11-3.44,8.23-3.44c3.05,0,5.93,1.18,8.1,3.32
			l5.5,5.42l1.76-1.79l-5.5-5.42C54.74,53.64,51.24,52.2,47.53,52.2z"/>
	</g>
</g>
</svg>
