<?xml version="1.0" encoding="utf-8"?>
<!-- Generator: Adobe Illustrator 23.0.2, SVG Export Plug-In . SVG Version: 6.00 Build 0)  -->
<svg version="1.1" id="Layer_1" xmlns="http://www.w3.org/2000/svg" xmlns:xlink="http://www.w3.org/1999/xlink" x="0px" y="0px"
	 viewBox="0 0 128.5 116.1" style="enable-background:new 0 0 128.5 116.1;" xml:space="preserve">
<style type="text/css">
	.st0{fill:#3FCAEA;}
	.st1{fill:#1196BA;}
</style>
<g>
	<path class="st0" d="M118.2,107.3H10.3c-0.8,0-1.5-0.7-1.5-1.5V26.9c0-0.8,0.7-1.5,1.5-1.5h107.9c0.8,0,1.5,0.7,1.5,1.5v78.9
		C119.7,106.6,119,107.3,118.2,107.3z M11.8,104.3h104.9V28.4H11.8V104.3z"/>
	<polygon class="st1" points="128.5,116 0,116 0,18.6 4,18.6 4,112 124.5,112 124.5,18.6 128.5,18.6 	"/>
	<path class="st1" d="M128.5,20.6H0V0h128.5V20.6z M4,16.6h120.5V4H4V16.6z"/>
	<g>
		<rect x="10.3" y="8.8" class="st0" width="4.2" height="3"/>
		<rect x="18.6" y="8.8" class="st0" width="4.1" height="3"/>
		<rect x="26.9" y="8.8" class="st0" width="4.1" height="3"/>
	</g>
	<rect x="35.2" y="8.8" class="st0" width="83" height="3"/>
	<g>
		<path class="st1" d="M93.5,56.1c-2.7-2.7-6.4-4.2-10.2-4.2c-3.9,0-7.6,1.5-10.4,4.3l-3.2,3.3v0l-0.8,0.8l-3.3,3.3l0,0l-2.5,2.5
			l0,0L61.3,68L60,69.3v0L55.4,74c-2.1,2.1-4.9,3.3-7.9,3.3c-2.9,0-5.7-1.1-7.8-3.2c-2.1-2.1-3.3-4.8-3.3-7.8c0-3,1.1-5.7,3.2-7.8
			c2.1-2.1,4.9-3.3,7.9-3.3c2.9,0,5.7,1.1,7.8,3.2l5.9,5.8l2.5-2.5l-5.9-5.8c-2.7-2.7-6.4-4.2-10.2-4.2c-3.9,0-7.6,1.5-10.4,4.3
			c-2.7,2.8-4.2,6.4-4.2,10.3c0,3.9,1.6,7.5,4.3,10.3c2.7,2.7,6.4,4.2,10.2,4.2c3.9,0,7.6-1.5,10.4-4.3l7.8-7.9l0,0l2.5-2.5l0,0
			l7.3-7.4c2.1-2.1,4.9-3.3,7.9-3.3c2.9,0,5.7,1.1,7.8,3.2c2.1,2.1,3.3,4.8,3.3,7.8c0,3-1.1,5.7-3.2,7.8c-2,2-4.5,3.1-7.2,3.1h0
			c-2.9,0-5.7-1.2-8-3.4l-5.9-5.8l-2.5,2.5l5.9,5.8c2.9,2.9,6.6,4.4,10.4,4.4h0c3.6,0,7.1-1.5,9.7-4.1c2.7-2.8,4.2-6.4,4.2-10.3
			C97.8,62.5,96.2,58.8,93.5,56.1z"/>
		<path class="st1" d="M47.5,81.3c-4,0-7.7-1.5-10.6-4.3c-2.9-2.8-4.5-6.6-4.5-10.6c0-4,1.5-7.8,4.3-10.7c2.9-2.9,6.7-4.5,10.7-4.5
			c4,0,7.7,1.5,10.6,4.3l6.2,6.1l-3.2,3.2l-6.2-6.1c-2-2-4.6-3-7.4-3c-2.8,0-5.5,1.1-7.5,3.1c-2,2-3.1,4.7-3,7.5s1.1,5.5,3.1,7.4
			c2,2,4.6,3,7.4,3c2.8,0,5.5-1.1,7.5-3.1l17.5-17.8c2.9-2.9,6.7-4.5,10.7-4.5c4,0,7.7,1.5,10.6,4.3c2.9,2.8,4.5,6.6,4.5,10.6
			c0,4-1.5,7.8-4.3,10.7c-2.7,2.7-6.3,4.3-10,4.3c-4,0-7.8-1.6-10.8-4.6L67,70.6l3.2-3.2l6.2,6.1c2.1,2.1,4.9,3.3,7.6,3.3
			c2.6,0,4.9-1,6.8-2.9c2-2,3.1-4.7,3-7.5s-1.1-5.5-3.1-7.4c-2-2-4.6-3-7.4-3c-2.8,0-5.5,1.1-7.5,3.1L65.7,69.3l0,0l-7.4,7.5
			C55.4,79.7,51.6,81.3,47.5,81.3z M47.5,52.2c-3.8,0-7.4,1.5-10,4.2c-2.6,2.7-4.1,6.2-4,10c0,3.8,1.5,7.3,4.2,9.9
			c2.6,2.6,6.1,4,9.9,4c3.8,0,7.3-1.5,10-4.2l8.1-8.2l0,0l9.4-9.5c2.2-2.2,5.1-3.4,8.2-3.4c3.1,0,5.9,1.2,8.1,3.3
			c2.2,2.2,3.4,5.1,3.4,8.1c0,3.1-1.2,6-3.3,8.2c-2.1,2.1-4.7,3.2-7.5,3.2c-3,0-6-1.3-8.3-3.6l-5.5-5.4l-1.8,1.8l5.5,5.4
			c2.8,2.8,6.4,4.3,10.1,4.3c3.5,0,6.8-1.4,9.3-4c2.6-2.7,4.1-6.2,4-10c0-3.8-1.5-7.3-4.2-9.9v0c-2.6-2.6-6.1-4-9.9-4
			c-3.8,0-7.4,1.5-10,4.2L55.7,74.4c-2.2,2.2-5.1,3.4-8.2,3.4c-3,0-5.9-1.2-8.1-3.3c-2.2-2.2-3.4-5.1-3.4-8.1c0-3.1,1.2-6,3.3-8.2
			c2.2-2.2,5.1-3.4,8.2-3.4c3.1,0,5.9,1.2,8.1,3.3l5.5,5.4l1.8-1.8l-5.5-5.4C54.7,53.6,51.2,52.2,47.5,52.2z"/>
	</g>
</g>
</svg>
