<?xml version="1.0" encoding="utf-8"?>
<!-- Generator: Adobe Illustrator 23.0.2, SVG Export Plug-In . SVG Version: 6.00 Build 0)  -->
<svg version="1.1" id="Layer_1" xmlns="http://www.w3.org/2000/svg" xmlns:xlink="http://www.w3.org/1999/xlink" x="0px" y="0px"
	 viewBox="0 0 2926 750" style="enable-background:new 0 0 2926 750;" xml:space="preserve">
<g>
	<path d="M600,0H0v236c0.33,1.01,0.92,2.01,0.96,3.02c0.4,10.6,0.19,21.24,1.16,31.78c1.53,16.46,3.89,32.85,5.8,49.28
		c2.99,25.64,7.99,50.93,15.25,75.65c6.82,23.22,14.37,46.29,23.01,68.88c6.8,17.79,14.72,35.34,24.01,51.95
		c12.88,23.01,26.6,45.69,41.69,67.3c11.89,17.03,26.08,32.51,39.84,48.16c9.86,11.21,20.19,22.1,31.19,32.18
		c23.33,21.38,47.66,41.58,74.29,58.83c13.91,9.02,27.86,17.98,41.8,26.97h1c24.06-15.3,48.6-29.91,70.75-48
		c16.15-13.19,32.53-26.18,47.78-40.38c13.81-12.85,26.65-26.83,39.12-41.01c11.02-12.54,21.44-25.68,31.25-39.18
		c22.99-31.65,42.5-65.35,58.11-101.29c12.15-27.96,22.78-56.46,29.96-86.11c5.09-21.04,9.89-42.18,13.82-63.46
		c2.9-15.76,4.67-31.77,6.07-47.74c1.56-17.75,2.93-35.59,3-53.39C600.18,152.96,600,76.48,600,0z M89.49,6.95h418.88
		c0.12,0.28,0.24,0.56,0.36,0.84c-6.08,2.68-12.15,5.42-18.26,8.05c-47.95,20.66-95.9,41.31-143.86,61.95
		c-14.17,6.1-28.27,12.38-42.62,18.04c-3.03,1.19-7.44,1.05-10.46-0.24c-50.1-21.34-100.06-42.99-150.09-64.5
		C126.5,23.8,109.48,16.68,92.51,9.47c-1.12-0.48-2.17-1.14-3.25-1.71C89.34,7.49,89.41,7.22,89.49,6.95z M427.37,210.23
		c25.88,11.09,51.82,22.01,77.73,33.03c1.63,0.69,3.18,1.59,4.64,3.15H90.38c-0.11-0.31-0.22-0.61-0.33-0.92
		c12.72-5.47,25.44-10.94,38.17-16.39c31.66-13.55,63.34-27.06,95-40.62c24.34-10.43,48.62-20.99,73.04-31.23
		c2.26-0.95,5.65-0.82,7.93,0.15C345.3,174.89,386.3,192.64,427.37,210.23z M7.03,29.84c75.14,32.2,149.64,64.13,224.14,96.05
		c-0.02,0.52-0.04,1.03-0.06,1.54c-74.45,32.05-148.89,64.1-224.08,96.47V29.84z M591.4,278.79c-1.62,15.43-3.01,30.95-5.8,46.18
		c-4.37,23.89-9.02,47.79-15.09,71.28c-4.69,18.21-11.82,35.78-17.71,53.68c-8.43,25.64-20.21,49.78-33.42,73.17
		c-8.83,15.64-18.29,31.03-28.77,45.59c-13.59,18.89-27.68,37.55-43.05,54.99c-14.26,16.17-29.95,31.2-46.01,45.63
		c-14.96,13.45-30.76,26.09-47.05,37.9c-16.88,12.26-34.73,23.19-52.34,34.4c-1.52,0.97-4.97,0.5-6.65-0.62
		c-22.38-15.01-44.88-29.88-66.77-45.59c-11.63-8.35-22.3-18.08-33.11-27.52c-22.26-19.47-42.9-40.55-60.97-63.98
		c-12.8-16.6-25.63-33.27-37.06-50.81c-9.85-15.1-18.24-31.22-26.36-47.35c-8.06-16.02-15.75-32.31-22.16-49.03
		c-6.88-17.96-12.06-36.57-18.04-54.88c-10.46-31.99-15.66-65.06-19.79-98.31c-1.84-14.79-2.54-29.72-3.72-44.6
		c-0.14-1.76-0.02-3.55-0.02-5.58h585.26C592.33,262.01,592.28,270.45,591.4,278.79z M592.95,223.89
		C517.56,191.6,442.78,159.56,368,127.52c0.06-0.45,0.12-0.91,0.17-1.36c74.71-32.01,149.42-64.02,224.78-96.31V223.89z"/>
	<path d="M2921.87,554.78c-1.32,1.26-2.37,2.31-3.47,3.31c-10.12,9.28-22.34,12.01-35.25,9.31c-13.97-2.93-22.08-13.05-27.2-25.95
		c-3.79-9.55-2.6-19.46-3.04-29.29c-0.2-4.7,1.08-6.34,6.06-6.27c19.82,0.27,39.64,0.11,59.45,0.11h6.07
		c-0.6-6.27-0.62-11.92-1.78-17.32c-1.76-8.21-5.74-15.29-13.25-19.82c-11.72-7.06-24.5-7.42-37.15-4.37
		c-16.8,4.03-28.68,14.7-36.58,30.09c-8.58,16.71-9.57,34.41-6.46,52.31c1.73,10.04,6.55,19.43,14.48,26.15
		c17.54,14.88,37.37,15.55,57.31,6.08c8.99-4.28,16.67-11.33,24.94-17.12v-2C2924.66,558.3,2923.31,556.6,2921.87,554.78z
		 M2871.01,474.02c12.31-6.38,21.38,0.86,24.93,10.4c1.24,3.33,2.11,6.82,2.92,10.29c0.65,2.83-0.46,4.34-3.65,4.32
		c-13.15-0.08-26.3-0.03-40-0.03C2858.11,488.87,2861.01,479.2,2871.01,474.02z"/>
	<path d="M2088.8,578.65v4.04h-77.52v-4.72c6-1.38,11.78-2.37,17.35-4.06c7.71-2.34,9.89-6.75,8-14.67
		c-0.3-1.27-0.55-2.57-0.61-3.87c-0.7-16.53-1.33-33.07-2.03-49.6c-0.63-14.7-1.26-29.41-2.03-44.1c-0.24-4.67-0.91-9.32-2.23-14.23
		c-2,6.05-3.73,12.21-6.04,18.14c-8.11,20.77-16.41,41.46-24.64,62.19c-6.67,16.79-13.53,33.51-19.87,50.42
		c-1.46,3.88-3.23,5.01-7.11,4.89c-8.37-0.24-8.42-0.04-11.01-8.12c-9.51-29.59-19.12-59.15-28.4-88.81
		c-4.61-14.74-8.58-29.67-12.86-44.52c-0.13-0.44-0.47-0.83-1.45-2.53c-0.18,3.02-0.27,4.52-0.35,6.01c-1,18.3-1.92,36.61-3.04,54.9
		c-0.85,13.81-1.9,27.61-2.99,41.4c-0.5,6.38-1.24,12.74-1.96,19.1c-0.46,4.06,0.06,7.99,4,9.83c5.57,2.59,11.33,5.17,17.28,6.41
		c3.91,0.81,5.39,1.76,4.42,5.92h-64.4v-5.38c8.75-0.73,16.73-3.21,22.75-9.95c0.91-1.02,1.72-2.45,1.86-3.76
		c0.52-4.92,0.77-9.86,1.07-14.79c1.02-16.47,1.96-32.94,3.03-49.4c0.92-13.98,2-27.94,2.98-41.91c0.36-5.1,0.4-10.24,1.07-15.29
		c0.8-6.01-2.47-9.37-7.14-11.64c-3.32-1.61-6.99-2.51-10.56-3.55c-2.82-0.83-5.56-1.51-3.88-6h21.61c10.67,0,21.33,0.08,31.99-0.06
		c2.44-0.03,4.08,0.45,4.85,2.95c5.66,18.51,11.26,37.04,17.07,55.5c6.94,22.03,14.07,44,21.5,67.19
		c16.32-42.47,32.22-83.86,48.19-125.42h50.68c0.81,4.94,0.64,4.57-4.3,5.96c-4.57,1.29-9.03,3.32-13.21,5.63
		c-5.73,3.17-3.95,9.01-3.76,13.91c0.26,6.88,1.39,13.73,1.84,20.61c0.52,8.09,0.65,16.2,1.06,24.3c0.97,19.13,1.98,38.26,3.01,57.4
		c0.25,4.6,1.13,9.23,0.85,13.79c-0.3,5.01,2.02,8.01,6.09,9.61C2075.81,574.67,2081.88,576.38,2088.8,578.65z"/>
	<path d="M2368.32,567.76c-4.41,0.59-8.97,0.89-13.39,1.86c-8.06,1.76-11.8-0.92-11.92-9.18c-0.36-24.59-0.8-49.18-0.97-73.78
		c-0.17-22.82-0.08-45.64,0.03-68.46c0.01-1.82,0.93-3.66,1.6-5.42c1.27-3.35,2.67-6.64,4.01-9.96c-0.51-0.59-1.02-1.18-1.52-1.77
		c-17.05,4.4-34.09,8.81-51.08,13.2v4.96c4.97,1.02,9.45,1.78,13.86,2.87c5.12,1.28,8.62,4.88,8.84,9.95
		c0.48,11.21,0.15,22.45,0.15,34.02c-11.73-4.66-24.26-3.67-36.7-0.99c-14.88,3.21-27.95,10.28-36.94,22.61
		c-14.73,20.19-16.83,42.71-9.34,66.29c8.53,26.9,39.67,40.24,63.74,26.73c6.63-3.73,13.15-7.64,19.81-11.51
		c0.95,6.31,1.89,12.53,2.85,18.93c1.74-0.17,3.11-0.09,4.34-0.46c12.92-3.9,25.79-7.95,38.74-11.76
		C2368.6,574.67,2370.12,572.51,2368.32,567.76z M2317.97,556.12c-0.03,2.71,0.4,6.05-0.97,7.94c-1.42,1.95-4.74,2.57-7.3,3.6
		c-10.17,4.09-20.29,4.52-30.16-0.85c-9.19-5.01-15.11-12.81-18.57-22.58c-6.87-19.43-5.81-38.53,4.24-56.41
		c7.82-13.91,20.94-20.22,37.32-10.07c6.08,3.77,10.72,8.55,13.64,14.96c0.98,2.15,1.7,4.63,1.75,6.98
		c0.2,9.31,0.08,18.64,0.08,27.96C2318,537.14,2318.05,546.63,2317.97,556.12z"/>
	<path d="M1404.84,127.07c-3.02,0.47-6.13,1.22-8.86,2.55c-6.31,3.1-10.42,7.07-10.21,15.49c0.63,25.98,0.51,51.98,0.1,77.96
		c-0.18,10.92-2.14,21.75-6.86,31.84c-7.44,15.92-20.1,25.51-36.94,29.49c-21.32,5.03-42.11,4.15-60.92-8.46
		c-13.61-9.12-21.23-22.77-21.88-38.69c-1.26-31.04-0.96-62.15-1.25-93.24c-0.1-10.39-2.61-13.62-13.04-15.99
		c-2.22-0.5-4.53-0.6-6.75-1.1c-2.85-0.63-5.54-1.55-3.75-5.69h76.09c1.7,4.95-1.8,4.92-4.78,5.83c-5.38,1.64-10.86,3.26-15.86,5.75
		c-1.92,0.95-3.74,4.27-3.76,6.53c-0.26,27.98-0.62,55.98,0.02,83.95c0.32,13.73,3.98,26.81,14.49,36.97
		c5.95,5.75,13.32,8.68,21.03,9.55c27.27,3.08,45.05-11.09,48.07-37.6c1.89-16.55,1.84-33.35,2.12-50.05
		c0.19-11.09-0.51-22.19-0.93-33.29c-0.13-3.43-0.2-6.99-1.17-10.23c-0.56-1.89-2.57-3.95-4.43-4.72
		c-6.28-2.62-12.75-4.75-19.19-6.94c-2.76-0.94-5.55-1.61-3.69-5.74h66.12C1409.76,124.96,1408.41,126.52,1404.84,127.07z"/>
	<path d="M1068.91,577.36v5.26h-65.57v-4.59c4.14-1.7,8.4-2.87,12.02-5.08c5.96-3.64,5.94-10.31,6.53-16.24
		c0.76-7.72,1.07-15.52,1.04-23.28c-0.04-10.29,0.5-20.76-1.19-30.82c-2.56-15.3-7.44-23.39-23.81-24.12
		c-7.77-0.35-15.8,4.28-23.61,6.95c-0.79,0.28-1.26,2.56-1.27,3.9c-0.07,25.49-0.07,50.98-0.03,76.47c0.01,4.78,3.94,9.01,9.2,10.13
		c2.39,0.51,4.82,0.84,7.5,1.29v5.52H931.2v-5.04c3.73-1.16,7.57-1.94,11.04-3.53c4.47-2.05,6.81-5.68,6.8-10.92
		c-0.08-41.15-0.01-82.3-0.05-123.45c-0.02-16.89-2.36-17.99-18.7-20.12c-0.09-0.86-0.22-1.8-0.28-2.74
		c-0.04-0.81-0.01-1.63-0.01-2.75c16.1-3.82,31.32-10.11,49.16-12.99c-1.73,4.04-2.94,6.45-3.81,8.97c-1.24,3.62-3.14,7.3-3.2,10.99
		c-0.32,19.46-0.15,38.94-0.15,59.51c5.7-3.59,10.64-6.91,15.77-9.88c10.6-6.14,21.73-9.84,34.2-6.75
		c14.12,3.5,21.19,13.48,23.94,26.85c2.99,14.56,4.15,29.25,2.21,44.16c-1.25,9.62-1.5,19.38-2.11,29.08
		c-0.49,8.04-0.45,8.15,7.72,10.16C1058.62,575.51,1063.6,576.31,1068.91,577.36z"/>
	<path d="M783.22,535.55c0.23,14.45-3.87,26.55-14.53,36.17c-8.98,8.11-19.94,12.35-31.73,14.21c-17.36,2.75-34.33,0.52-50.96-4.88
		c-9.3-3.03-9.13-3.06-10.05-12.55c-1.03-10.59-2.42-21.13-3.72-32.28h4.27c3.68,7.04,6.62,14.15,10.83,20.4
		c7.86,11.65,19.7,17.06,33.26,19.47c12.24,2.18,22.85-0.8,31.37-9.68c11.81-12.32,7.87-31.68-4.07-39.14
		c-12.08-7.54-25.48-12.97-38.27-19.37c-9.94-4.97-19.15-10.87-25.53-20.32c-8.31-12.29-8.03-32.38-0.28-44.84
		c10.26-16.49,26.11-23.23,44.59-25.82c16.32-2.29,31.99-0.14,47.52,4.89c3.09,1,4.19,2.13,4.15,5.35
		c-0.17,12.13-0.07,24.26-0.07,36.61h-4.78c-2.14-6.22-3.85-12.46-6.41-18.33c-4.31-9.9-13.39-14.15-22.92-16.88
		c-11.42-3.26-22.64-2.55-32.96,4.41c-7.49,5.06-10.95,16.79-9.74,24.41c1.68,10.46,8.05,17.08,17.21,21.77
		c15.11,7.73,30.5,15.07,44.95,23.91C776.93,510.15,783,521.1,783.22,535.55z"/>
	<path d="M814.99,126.83c-12.57,0.76-19.47,8.84-25.18,18.71c-12.49,21.61-25.06,43.17-37.45,64.82c-1,1.74-1.29,4.08-1.3,6.14
		c-0.11,13.83,0.19,27.66-0.16,41.48c-0.18,6.96,3.3,11.49,8.8,14.05c6.08,2.84,12.77,4.36,20.14,6.75v3.93h-85.59v-4.65
		c5.83-1.32,11.76-2.29,17.45-4.05c10.6-3.28,11.3-4.51,11.3-15.27c0-13.33,0.13-26.66-0.11-39.98c-0.05-2.59-1.11-5.38-2.39-7.7
		c-7.04-12.7-14.23-25.32-21.49-37.89c-6.44-11.15-12.97-22.26-19.61-33.29c-4.61-7.65-11.81-11.43-20.42-12.91
		c-2.91-0.5-6.25-0.83-4.63-5.66h75.34v3.58c-6.05,2.09-11.87,4-17.6,6.13c-3.54,1.31-3.49,3.72-1.79,6.72
		c9.01,15.89,17.91,31.85,26.88,47.76c2.55,4.53,5.2,8.99,8.13,14.05c6.85-12.41,13.27-24.11,19.75-35.79
		c4.83-8.7,9.69-17.39,14.64-26.03c1.72-2.99,1.73-5.4-1.79-6.71c-5.74-2.13-11.55-4.04-17.71-6.17v-3.55h58.24
		C820.46,125.16,817.77,126.66,814.99,126.83z"/>
	<path d="M2810.77,576.02v6.61h-65.12c-1.19-5.62-1.19-5.63,4.66-6.64c8.45-1.46,11.87-7.81,11.78-13.95
		c-0.26-17.49,0.25-34.99-0.27-52.46c-0.19-6.2-1.75-12.62-3.96-18.45c-4.52-11.95-15.89-14.04-25.76-11.56
		c-5.3,1.33-10.35,3.83-15.3,6.24c-1.34,0.65-2.67,2.9-2.68,4.42c-0.17,25.16-0.14,50.31-0.1,75.46c0.01,5.03,4.04,9.24,9.57,10.29
		c2.37,0.44,4.76,0.86,7.24,1.31v5.42h-58.57v-5.14c3.41-0.94,7.18-1.48,10.47-3.01c4.73-2.2,7.39-5.95,7.34-11.66
		c-0.18-20.15-0.07-40.31-0.07-60.47c0-11.15-3.32-15.96-13.58-20.36c-1.41-0.61-3.25-2.54-3.16-3.72c0.1-1.3,1.99-3.04,3.46-3.57
		c10.56-3.8,21.21-7.37,31.85-10.95c1.51-0.51,3.12-0.7,5.48-1.22v18.83c7.64-4.51,14.73-9.14,22.21-13
		c9.49-4.88,19.32-7.11,30.2-3.76c11.68,3.6,17.52,11.87,18.3,22.93c1.23,17.36,0.95,34.83,1.22,52.25
		c0.12,7.32,0.02,14.65,0.02,21.98c0,8.95,2.2,11.27,11.11,12.19C2801.63,574.51,2806.1,575.33,2810.77,576.02z"/>
	<path d="M1568.74,276.06v6.68h-65.34c-1.27-4.54,0.06-6.39,4.8-6.88c7.73-0.81,11.79-5.97,11.8-13.72
		c0.01-17.49,0.34-34.99-0.18-52.46c-0.19-6.21-1.74-12.62-3.94-18.46c-4.56-12.09-15.49-13.94-25.24-11.85
		c-5.63,1.2-10.93,4.1-16.2,6.62c-1.2,0.57-2.33,2.72-2.34,4.15c-0.14,25.31-0.13,50.63-0.07,75.95c0.01,4.67,4.19,8.85,9.46,9.88
		c2.38,0.46,4.77,0.86,7.31,1.31v5.4h-58.7v-5.24c2.25-0.47,4.57-1.07,6.92-1.42c5.18-0.78,11.32-7.07,11.17-13.03
		c-0.5-20.14-0.19-40.3-0.19-60.46c0-11.26-3.25-16.02-13.5-20.42c-1.43-0.61-3.28-2.46-3.24-3.68c0.05-1.27,1.93-3.08,3.38-3.6
		c10.56-3.8,21.21-7.37,31.86-10.94c1.6-0.54,3.34-0.71,5.48-1.14v18.73c7.65-4.51,14.74-9.1,22.19-13
		c10.65-5.57,21.66-7.58,33.4-2.66c10.06,4.21,14.6,12.34,15.23,22.19c1.06,16.38,0.92,32.83,1.18,49.25
		c0.13,8.49,0.02,16.99,0.02,25.49c0,7.72,2.56,10.44,10.51,11.26c2.44,0.25,4.86,0.64,7.29,0.99
		C1564.05,275.33,1566.29,275.68,1568.74,276.06z"/>
	<path d="M1351.09,507.14c-3.73-16.99-12.53-30.15-28.11-38.04c-11.68-5.91-24.17-7.13-37.28-5.31
		c-12.61,1.75-23.61,6.43-32.81,14.94c-13.43,12.4-18.82,28.32-19.98,46.52c1.7,8.12,2.71,16.46,5.25,24.31
		c4.76,14.67,14.34,25.4,28.79,31.5c17.06,7.2,34.23,6.86,51.04-0.23c14.13-5.95,24.28-16.39,30.04-30.77
		C1353.63,536.09,1354.31,521.84,1351.09,507.14z M1317.49,564.08c-13.72,21.23-33.53,13.02-43.43-0.09
		c-7.67-10.16-10.51-22.09-12.25-34.58c-2.1-14.99-0.23-29.04,6.71-42.43c5.37-10.35,14.24-16.21,23.4-14.9
		c10.17,1.45,17.81,7.19,23.35,15.66c8.38,12.79,10.83,27.15,10.81,44.46C1326.46,542.1,1324.24,553.63,1317.49,564.08z"/>
	<path d="M1660.98,507.15c-3.19-16.95-12.31-29.91-27.57-37.86c-12.08-6.3-25.14-7.48-38.72-5.39
		c-21.09,3.26-36.51,14.33-45.18,33.48c-7.65,16.87-7.54,34.7-1.45,52.22c5.2,14.93,14.9,25.8,29.79,31.86
		c11.44,4.65,23.08,5.45,35.2,3.64c12.06-1.8,22.47-6.79,31.24-14.98c13.24-12.36,18.45-28.17,18.91-48.74
		C1662.75,518.46,1662.04,512.77,1660.98,507.15z M1627.4,564.21c-13.68,21.13-33.68,12.75-43.39-0.35
		c-7.6-10.24-10.52-22.09-12.21-34.6c-2.06-15.16-0.32-29.4,7.14-42.78c5.01-9,11.95-15.72,23.13-14.34
		c9.96,1.23,17.82,6.83,22.93,15.35c8.8,14.71,11,24.31,11,42.53C1636.4,542.24,1634.17,553.75,1627.4,564.21z"/>
	<path d="M1205.99,507.25c-3.26-17.12-12.41-30.18-27.94-38.13c-12.15-6.22-25.23-7.35-38.75-5.18
		c-20.83,3.34-36.15,14.37-44.76,33.35c-7.65,16.88-7.56,34.68-1.49,52.22c5.17,14.94,14.83,25.81,29.72,31.9
		c11.43,4.68,23.06,5.48,35.19,3.69c12.06-1.78,22.48-6.74,31.26-14.92c13.39-12.47,18.63-28.44,19.39-46.47
		C1207.74,518.22,1207.02,512.7,1205.99,507.25z M1172.28,564.39c-13.51,20.53-32.96,13.05-43.16-0.3
		c-7.71-10.08-10.57-22.04-12.31-34.55c-2.09-14.99-0.24-29.04,6.64-42.45c5.27-10.28,14.21-16.25,23.34-15
		c10.17,1.38,17.82,7.08,23.41,15.54c8.56,12.93,10.83,27.49,10.94,47.3C1181.29,542.44,1179.15,553.95,1172.28,564.39z"/>
	<path d="M1795.96,419.47c0.01,0.6-0.41,1.22-0.69,1.8c-5.81,12.28-7.93,12.7-19.11,5.53c-7.34-4.7-14.6-9.69-24.06-9.92
		c-8.35-0.21-14.41,3.78-15.83,12.31c-2.2,13.23-2.91,26.71-4.32,40.77h35.64v12.14H1733v76.02c0,8.88,2.96,13.27,11.71,15.79
		c5.12,1.48,10.51,1.98,16.07,2.98v5.77h-72.49v-4.65c4.62-1.57,9.42-2.98,14.02-4.84c4-1.6,5.83-4.55,5.79-9.25
		c-0.22-23.5-0.14-47-0.06-70.5c0.01-3.59,0.58-7.18,0.94-11.27h-21.42c-1.47-5.04-0.15-7.5,4.88-8.27
		c3.82-0.58,7.44-2.57,11.27-3.09c5.03-0.68,4.91-4.84,5.04-7.7c0.6-13.58,7-24.67,14.35-35.35c12.3-17.86,29.16-27.27,51.14-25.61
		c8.36,0.63,16.61,2.86,21.22,11.02C1796.41,414.82,1795.92,417.34,1795.96,419.47z"/>
	<path d="M929.58,265.03c-2.94,1.51-5.6,3.05-8.39,4.28c-9.54,4.2-16.33-0.78-17.06-8.75c-0.66-7.13-0.13-14.36-0.13-21.54
		c0-16.01,0.16-32.03-0.04-48.04c-0.24-19.14-11.74-27.25-27.11-27.75c-21.01-0.68-37.89,8.45-50.08,25.66
		c-2.08,2.93-3.06,6.64-4.54,9.98c0.45,0.44,0.89,0.88,1.34,1.33c7.56-1.11,15.14-2.12,22.65-3.48c0.78-0.14,1.44-2.29,1.73-3.6
		c0.85-3.81,0.96-7.86,2.34-11.44c1.92-4.93,4.93-8.07,10.98-7.81c7.89,0.35,14.81,7.67,16.47,17.16
		c1.69,9.69,1.28,19.74,1.79,29.69c-15.5,5.62-30.2,10.9-44.85,16.3c-3.61,1.33-8.43,2.1-10.34,4.79c-6,8.43-6.02,18.79-3.56,28.05
		c3.72,14.01,20.18,18.14,31.25,15.48c10.38-2.5,19.17-8.23,26.47-16.34c0.34,0.81,0.57,1.24,0.72,1.7
		c3.71,11.19,17.56,18.07,28.62,14.07c6.18-2.23,11.6-6.47,17.55-9.43C929.99,273.05,930.71,269.67,929.58,265.03z M878.94,262.07
		c0,0.65-0.53,1.45-1.05,1.93c-6.49,5.87-13.91,9.14-22.86,7.99c-4.55-0.58-7.44-3.65-7.69-7.69c-0.4-6.37,0.33-12.83,0.8-19.23
		c0.07-0.94,1.15-2.12,2.07-2.61c9.3-4.98,18.66-9.83,28.78-15.13C878.99,239.58,879,250.83,878.94,262.07z"/>
	<path d="M2440.71,168.32v5.34c-12.98,1.26-19.16,10.05-23.55,20.9c-8.6,21.27-17.4,42.46-25.85,63.79
		c-9.93,25.11-19.65,50.31-29.31,75.52c-4.31,11.22-16.47,15.86-24.75,9.17c-3.74-3.01-5.51-9.22-3.95-13.8
		c1.61-4.7,5.4-7.29,10.97-7.2c2.76,0.05,5.52,0.81,8.26,0.68c1.19-0.05,2.9-1.26,3.39-2.37c4.84-10.87,9.55-21.79,14.07-32.79
		c0.64-1.56,0.58-3.83-0.05-5.42c-11.24-28.28-22.61-56.51-33.95-84.75c-1.51-3.78-2.83-7.64-4.49-11.35
		c-3.66-8.17-10.62-11.46-19.26-12.3v-5.37h60.42v4.54c-5.65,1.85-11.13,3.64-17.27,5.64c9.95,24.73,19.51,48.51,29.56,73.49
		c5.26-13.97,10.12-26.82,14.94-39.7c2.91-7.77,5.8-15.54,8.6-23.34c2.2-6.12,1.3-8.95-4.57-11.91c-3.55-1.79-7.58-2.63-11.71-4
		v-4.77H2440.71z"/>
	<path d="M2206.96,558.91c-0.86-1.34-1.82-2.61-2.66-3.8c-0.4,0.03-0.62-0.02-0.71,0.07c-1,0.88-1.96,1.79-2.95,2.68
		c-11.21,10.04-24.29,12.82-38.45,8.63c-12.59-3.72-19.59-13.42-24.28-25.25c-3.73-9.42-2.5-19.16-3.01-28.82
		c-0.26-4.97,1.12-6.61,6.32-6.54c21.32,0.29,42.65,0.12,65.17,0.12c-0.5-5.78-0.53-11.06-1.49-16.16c-1.88-9.96-6.75-18-16.29-22.6
		c-11.04-5.33-22.71-5.57-34.17-2.81c-16.63,4-28.55,14.44-36.47,29.6c-8.78,16.8-9.88,34.69-6.71,52.79
		c1.79,10.22,6.72,19.71,14.81,26.53c11.73,9.87,25.24,13.21,40.78,10.88c16.91-2.54,29.18-12.19,41.26-22.79
		C2207.63,560.37,2207.39,559.58,2206.96,558.91z M2153.17,473.98c12.59-6.33,21,1.08,24.72,10.12c1.41,3.42,2.17,7.14,2.99,10.77
		c0.57,2.53-0.33,4.16-3.34,4.15c-13.31-0.05-26.62-0.03-40.32-0.03C2140.16,488.86,2142.99,479.09,2153.17,473.98z"/>
	<path d="M1895.32,255.05c-3.54,2.56-6.64,4.97-9.9,7.14c-17.58,11.67-42.61,6.55-53.52-13.99c-6.65-12.53-6.01-25.74-5.72-39.04
		c0.03-1.08,2.42-2.92,3.81-3.01c5.14-0.37,10.32-0.15,15.49-0.15h51.96c-0.53-5.98-0.59-11.28-1.55-16.42
		c-2.2-11.87-8.95-20.72-20.52-24.23c-20.57-6.25-44.01-0.73-59.65,18.17c-15.91,19.2-20.53,58.67-6.55,80.14
		c8.51,13.07,20.47,20.1,35.62,21.23c21.97,1.64,39.07-8.73,54.39-23.8C1897.88,259.05,1896.53,256.96,1895.32,255.05z
		 M1843.4,174.3c11.05-6.13,20.49-1.26,24.62,8.22c1.8,4.12,2.89,8.6,3.88,13.01c0.66,2.96-1.51,3.5-4.01,3.49
		c-12.99-0.05-25.97-0.02-39.69-0.02C1831.01,189.01,1833.95,179.55,1843.4,174.3z"/>
	<path d="M1123,254.64c-1.36,1.3-2.31,2.22-3.27,3.13c-10.17,9.52-22.5,12.39-35.63,9.6c-13.99-2.98-22.07-13.08-27.17-26.02
		c-3.96-10.05-2.58-20.48-2.98-30.81c-0.14-3.54,1.2-4.64,4.65-4.6c12.66,0.15,25.33,0.06,38,0.06h28.86
		c-0.54-6.08-0.55-11.41-1.59-16.53c-2.02-9.92-6.95-18.03-16.6-22.39c-9.73-4.4-19.8-4.83-30.3-3.2
		c-12.6,1.96-23.39,7.63-31.13,17.13c-18.07,22.17-21.92,47.64-12.65,74.44c6.08,17.57,20.22,27.72,38.73,29.4
		c22.29,2.02,39.77-8.43,55.28-23.78C1125.83,258.98,1124.47,256.9,1123,254.64z M1071.77,174.11c10.03-5.34,19.89-1.83,24.49,8.74
		c1.74,3.98,2.7,8.33,3.64,12.6c0.64,2.93-1.37,3.58-3.93,3.57c-12.99-0.05-25.97-0.02-39.74-0.02
		C1059.01,188.91,1062.02,179.3,1071.77,174.11z"/>
	<path d="M1004.74,277.23v5.51h-61.56v-4.84c4.42-1.52,8.77-2.76,12.89-4.53c4.13-1.77,5.97-5.16,5.97-9.78
		c-0.07-41.13-0.03-82.27-0.05-123.4c0-17.02-2.19-18.47-18.78-20.57c-0.08-1.54-0.16-3.14-0.27-5.25
		c15.72-4.46,31.4-8.9,47.08-13.35c0.43,0.56,0.87,1.12,1.3,1.68c-0.47,1.85-0.41,4.13-1.5,5.46c-3.65,4.46-3.88,9.5-3.87,14.88
		c0.09,46.3,0.05,92.6,0.05,138.89c0,7.82,3.35,12.21,10.8,13.93C999.33,276.45,1001.93,276.75,1004.74,277.23z"/>
	<path d="M1438.76,577.22v5.41h-61.41v-4.77c4.32-1.51,8.68-2.76,12.79-4.55c3.88-1.69,5.89-4.88,5.88-9.32
		c-0.03-42.63,0.01-85.26-0.04-127.89c-0.01-11.18-4.62-15.7-16.09-16.11c-0.8-0.02-1.6-0.09-2.8-0.16v-5.5
		c15.64-4.44,31.31-8.89,46.99-13.33c0.39,0.51,0.78,1.02,1.18,1.52c-0.54,2.09-0.51,4.62-1.72,6.16c-2.98,3.78-3.61,7.85-3.6,12.46
		c0.1,46.96,0.06,93.92,0.06,140.89c0,7.7,3.5,12.22,10.89,13.87C1433.42,576.46,1436.01,576.77,1438.76,577.22z"/>
	<path d="M2114.64,255.47c-3.48,18.94-16.77,26.94-30.53,29.53c-15.65,2.94-30.64-0.16-45.39-5.15c-1.05-0.36-2.46-1.52-2.58-2.45
		c-1.25-9.56-2.26-19.16-3.33-28.71c4.7-1.81,6.75,0.28,9.15,3.68c5.24,7.46,10.71,14.88,16.98,21.46
		c6.41,6.72,14.47,3.89,22.06,1.68c8.69-2.53,11.58-9.55,11.65-17.28c0.08-8.15-4.98-13.86-12.28-17.47
		c-8.77-4.35-17.63-8.55-26.22-13.22c-15.51-8.44-21.65-24.55-16.07-40.92c3.65-10.67,12.06-16.92,22.31-20.54
		c16.26-5.74,32.25-3.35,47.9,2.73c1.47,0.57,3.47,2.32,3.52,3.58c0.3,8.72,0.16,17.45,0.16,26.44c-3.06,0.88-4.96-0.34-7.18-3.77
		c-4.6-7.11-9.98-13.79-15.58-20.19c-5.56-6.36-15.48-4.68-23.35-0.64c-6.67,3.41-8.82,10.71-7.42,18.78
		c1.35,7.78,7.15,11.49,13.2,14.83c8.84,4.87,18.04,9.1,26.84,14.06C2114.09,230.72,2116.55,245.11,2114.64,255.47z"/>
	<path d="M1787.68,168.35v5.38c-13.98,0.98-19.14,11.22-23.68,22.36c-6.63,16.28-13.53,32.45-20.35,48.67
		c-4.85,11.56-10.2,22.94-14.46,34.71c-2.19,6.09-7.27,3.74-10.96,5.26c-0.49,0.21-2.85-2.78-3.56-4.6
		c-12.31-31.35-24.35-62.8-36.82-94.08c-3.29-8.27-10.54-11.73-19.69-12.22v-5.55h60.61v4.54c-4.36,1.6-8.58,3.12-12.79,4.7
		c-2.52,0.95-3.4,2.13-2.18,5.23c6.28,16.06,12.18,32.27,18.24,48.41c2.7,7.2,5.47,14.39,8.62,22.66
		c2.72-6.61,5.12-12.09,7.25-17.68c6.19-16.26,12.25-32.58,18.4-48.86c1.62-4.28-1.27-8.85-7.51-11.2c-3.01-1.13-6.2-1.78-9.57-2.73
		v-5H1787.68z"/>
	<path d="M2304.93,275.41c-10.7,5.72-21.61,11.16-34.23,10.56c-18.54-0.89-30.31-9.73-30.66-30.65c-0.2-11.66-0.29-23.33,0.04-34.99
		c0.33-11.54,1.26-23.06,1.91-34.6c0.07-1.32,0.01-2.64,0.01-4.51h-13.18c-2.42-5.51,0.57-8.5,3.88-11.42
		c8.78-7.75,17.47-15.58,26.32-23.24c1.68-1.45,3.94-2.23,6.95-3.87v25.15h39.82V181h-39.57c-0.09,1.37-0.19,2.32-0.21,3.28
		c-0.34,18.09-0.73,36.18-0.97,54.28c-0.07,5.15-0.57,10.52,0.63,15.42c3.45,14,17.45,18.56,30.01,16.65
		c3.83-0.58,7.58-1.73,11.53-2.66C2309.25,271.39,2307.57,274,2304.93,275.41z"/>
	<path d="M907.82,563.55c-12.6,12.33-26.73,21.8-45.34,21.42c-22.04-0.44-37.86-12.31-43.92-33.36c-5.25-18.24-4.5-36.85,4.7-54.12
		c9.59-18,24.57-29,44.79-32.48c13.25-2.28,26.16-1.99,37.84,5.96c5.3,3.61,6.41,6.85,3.87,12.54c-1.31,2.96-3.08,5.72-4.34,8.71
		c-1.44,3.42-3.62,3.43-6.3,1.79c-6.66-4.1-13.14-8.52-19.99-12.28c-4.24-2.33-8.93-3.94-13.57-5.39c-4.47-1.4-8.38,0.36-11.77,3.37
		c-7.58,6.75-9.98,16.09-11.57,25.37c-2.2,12.88-1.7,25.72,2.69,38.39c7.75,22.39,31.68,31.1,49.51,20.5
		c4.47-2.65,7.99-6.88,12.23-10.65C911.79,558.14,912.22,559.24,907.82,563.55z"/>
	<path d="M2561.82,563.54c-12.59,12.33-26.73,21.81-45.33,21.43c-22.04-0.44-37.86-12.3-43.93-33.35
		c-5.25-18.24-4.5-36.85,4.7-54.12c9.58-18.01,24.56-29.01,44.78-32.49c13.25-2.27,26.16-2,37.85,5.96
		c5.3,3.61,6.41,6.85,3.88,12.54c-1.32,2.96-3.09,5.72-4.34,8.7c-1.44,3.42-3.62,3.45-6.3,1.8c-6.67-4.1-13.15-8.52-19.99-12.28
		c-4.24-2.32-8.94-3.93-13.58-5.39c-4.47-1.4-8.38,0.35-11.77,3.37c-7.58,6.74-9.98,16.08-11.57,25.37
		c-2.2,12.88-1.7,25.72,2.69,38.39c7.75,22.38,31.67,31.1,49.51,20.5c4.46-2.65,7.98-6.88,12.23-10.65
		C2565.79,558.14,2566.22,559.24,2561.82,563.54z"/>
	<path d="M2013.25,172.16c-2.61,6.51-5.53,12.88-8.37,19.3c-1.41,3.19-3.51,3.24-6.31,1.63c-7.69-4.42-15.91-6.88-24.88-6.06
		c-1.27,0.12-2.58,0.48-3.73,1.01c-4.22,1.95-6.2,4.78-6.11,9.97c0.36,21.66,0.29,43.32,0.04,64.98c-0.05,4.59,1.68,7.42,5.61,8.73
		c5.84,1.94,11.85,3.38,18.29,5.18v5.84h-64.39c-1.24-4.49-0.01-6.39,4.77-6.88c7.75-0.8,11.82-5.96,11.83-13.7
		c0.01-20.66,0-41.33,0-61.99c0-11.44-2.22-14.5-13.19-18.26c-1.21-0.41-2.37-0.95-3.49-1.4c-1.33-4.15,0.43-5.77,4.37-6.96
		c9.65-2.91,19.12-6.44,28.7-9.61c1.93-0.64,4.02-0.78,6.51-1.24v23.48c0.45,0.34,0.89,0.68,1.34,1.02
		c1.76-2.07,3.32-4.36,5.32-6.17c4.73-4.33,9.52-8.62,14.55-12.6c9.81-7.75,19.7-3.94,28.12-0.22
		C2013.04,168.56,2013.67,171.1,2013.25,172.16z"/>
	<path d="M2446.64,582.73h-59.26c-1.12-4.28-0.12-6.13,4.67-6.93c7.61-1.26,13.24-3.99,13.05-15.18c-0.34-19.99-0.43-40.01,0.04-60
		c0.23-10.23-3.54-14.87-12.97-18.15c-1.63-0.56-3.18-2.29-3.98-3.88c-0.33-0.65,1.15-3.07,2.25-3.47
		c11.32-4.11,22.72-8,34.13-11.86c1.19-0.4,2.59-0.17,4.43-0.27v99.64c0,8.7,3.33,12.65,12.22,13.25
		C2445.93,576.19,2448.03,577.61,2446.64,582.73z"/>
	<path d="M1646.61,282.78h-59.21c-1-3.9-0.65-6.15,4.35-6.94c7.97-1.26,13.56-4.17,13.35-15.41c-0.36-20.49-0.37-41,0.03-61.5
		c0.17-8.91-4.66-13.24-11.3-15.88c-1.05-0.42-2.39-0.43-3.19-1.11c-1.09-0.9-2.45-2.27-2.45-3.44c0.01-1.17,1.3-2.99,2.44-3.41
		c11.16-4.05,22.4-7.91,33.65-11.72c1.32-0.44,2.85-0.25,4.72-0.39v99.34c0,9.08,3.3,13.01,12.4,13.56
		C1646.3,276.18,1647.94,277.93,1646.61,282.78z"/>
	<path d="M2646.67,582.82h-59.24c-1.1-4.18-0.38-6.21,4.49-7c7.73-1.25,13.35-4.09,13.17-15.07c-0.32-20.49-0.09-41-0.09-61.5
		c0-9.25-2.96-13.19-11.81-16.35c-2.18-0.78-5.88-0.52-5.1-4.57c0.23-1.19,1.2-2.84,2.22-3.2c11.33-4.08,22.72-7.97,34.13-11.82
		c1.21-0.41,2.61-0.24,4.56-0.39v99.58c0,8.95,3.39,12.86,12.58,13.39C2646.29,576.16,2647.82,577.98,2646.67,582.82z"/>
	<path d="M2202.61,282.82h-59.18c-1.1-4.18-0.37-6.21,4.49-7c7.73-1.25,13.35-4.09,13.17-15.07c-0.32-20.49-0.09-41-0.09-61.5
		c0-9.25-2.96-13.19-11.81-16.35c-2.18-0.78-5.88-0.52-5.1-4.57c0.23-1.19,1.2-2.84,2.22-3.21c11.33-4.07,22.72-7.96,34.13-11.81
		c1.21-0.41,2.61-0.24,4.56-0.39v99.58c0,8.95,3.39,12.85,12.58,13.4C2202.24,276.18,2203.91,277.91,2202.61,282.82z"/>
	<path d="M2170.98,136.97c-8.82,0-16.34-7.69-16.04-14.64c0.36-8.29,6.85-13.89,15.93-14.46c8.11-0.51,16.57,6.8,15.13,14.62
		C2187.64,130.06,2179.28,136.96,2170.98,136.97z"/>
	<path d="M2614.97,436.97c-8.81,0-16.34-7.69-16.03-14.65c0.36-8.29,6.86-13.88,15.94-14.45c8.1-0.51,16.56,6.8,15.12,14.62
		C2631.64,430.06,2623.27,436.97,2614.97,436.97z"/>
	<path d="M1614.97,136.97c-8.82,0-16.34-7.69-16.03-14.65c0.36-8.29,6.86-13.88,15.94-14.45c8.1-0.51,16.56,6.79,15.12,14.62
		C1631.64,130.07,1623.27,136.97,1614.97,136.97z"/>
	<path d="M2415.19,436.96c-8.72,0.16-16.39-7.4-16.26-14.42c0.12-7.22,6.86-14.74,16.24-14.75c7.92-0.01,16.25,7.08,14.83,14.49
		C2431.63,430.14,2423.43,436.81,2415.19,436.96z"/>
	<path d="M415.79,357.79c-5.55-12.32-13.34-23.27-25.72-29.44c-12.65-6.32-26.56-8.24-40.62-8.29c-7.3-0.03-14.62,0.42-21.91,0.97
		c-3.66,0.27-6.23-0.13-6.42-4.54c-0.21-4.8-1.28-9.65-0.8-14.35c1.34-12.9-2.13-16.66-13.71-21.43c-7.75-3.18-15.9-1.7-22.73,3.18
		c-5.97,4.26-3.89,10.72-2.93,16.58c1.3,8.01,2.96,15.98,4.06,24.02c0.98,7.21-3.92,10.79-11.29,9.05
		c-2.99-0.71-6.57-1.47-9.24-0.48c-5.52,2.05-10.96,4.75-15.78,8.11c-8.32,5.79-17.17,9.32-27.34,9.02
		c-3.62-0.11-5.12,1.58-4.5,4.78c0.73,3.71,2.21,7.26,3.1,10.94c0.56,2.32,2.92,4.96-0.66,6.99c-3.66,2.08-8.29,3.8-11,0.37
		c-4.59-5.82-10.04-5.2-15.75-3.99c-6.08,1.28-11.97,2.8-18.08,0.11c-1.12-0.49-2.71,0.05-4.08,0.12c-0.51,0.74-1.02,1.49-1.53,2.23
		c2.58,1.55,5.17,3.11,7.68,4.62c-1.56,2.07-2.83,3.26-3.44,4.73c-0.55,1.33-0.36,2.96-0.49,4.46c1.49-0.27,3.18-0.18,4.42-0.89
		c2.16-1.21,4.02-2.93,6.03-4.41c7.79-5.73,12.97-5.91,20.59-0.5c4.13,2.94,8.34,3.63,13.14,1.66c2.2-0.9,5.63-2.26,6.95-1.29
		c8.17,5.98,16.27,3.29,24.75,1.24c4.89-1.19,10.29-1.81,15.2-1.05c9.24,1.43,11.48,0.69,15.49-7.98c1.82-3.94,3.41-8.2,8.88-10.25
		c-0.18,3.67,0.08,6.83-0.53,9.81c-3.95,19.06-4.74,38.21-1.89,57.48c0.43,2.93-0.27,4.33-3.47,5.21
		c-18.83,5.15-36.69,12.19-51.22,26c-17,16.15-22.07,39.48-11.61,58.35c8.15,14.7,21.64,23.57,36.69,29.91
		c11.08,4.66,22.6,8.28,34.41,12.54c-0.33,3.71-0.93,7.96-1.08,12.22c-0.52,15.46-1.02,30.92-1.23,46.39
		c-0.06,4.41-1.76,6.58-5.87,7.9c-6.36,2.04-12.33,4.97-16.51,10.54c-9.18,12.25-6.88,37.61,7.49,45.11
		c4.96,2.59,10.18,4.68,15.13,7.27c1.39,0.73,3.02,2.35,3.22,3.74c0.49,3.43,0.18,6.97,0.25,10.46c0.09,3.95,1.7,7.94,5.43,8.48
		c3.92,0.57,8.5-0.34,12.16-1.99c3.2-1.43,2.46-5.21,1.79-8.52c-0.64-3.16-1.29-6.78-0.39-9.72c4.6-15,14.46-26.54,25.6-37.14
		c1.1-1.05,1.78-2.55,2.65-3.83c-1.65-0.75-3.25-1.92-4.95-2.1c-1.3-0.14-2.93,0.73-4.07,1.59c-5.47,4.15-10.83,8.45-16.71,13.07
		c-0.47-6.96-0.94-13.93-1.38-20.41c13.74-4.67,26.71-8.76,39.45-13.49c19.88-7.38,28.47-23.09,30.48-43.19
		c2.18-21.8-8.34-37.04-26.06-47.75c-12.05-7.29-24.87-13.27-37.22-20.07c-1.92-1.05-4.47-3.32-4.5-5.06
		c-0.25-14.66-0.07-29.32,0.27-43.97c0.03-1.43,1.67-3.53,3.08-4.13c15.06-6.43,30.42-12.19,45.3-18.99
		c23.15-10.56,42.09-25.72,51.68-50.41C419.54,384.28,421.75,371.05,415.79,357.79z M300.51,300.56c3.8,0.28,7.57,0.93,11.35,1.45
		c-0.03,0.57-0.06,1.15-0.09,1.72c-3.75,2.94-7.86,2.92-12.02,1.05c-1.01-0.45-1.61-1.79-2.4-2.72
		C298.41,301.53,299.5,300.48,300.51,300.56z M308.09,308.83c3.25,0.77,3.56,2.94,1.75,5.7c-3.23,4.9-3.17,4.94,0.31,9.54
		c-6.16,1.63-12.1,3.2-18.34,4.86c-0.9-7.68-1.75-14.87-2.8-23.87C296.21,306.46,302.2,307.44,308.09,308.83z M229.17,374.97
		c6.18-3.62,11.64-6.97,18.79-4.73C244.67,377.54,235.72,379.99,229.17,374.97z M261.26,542.35c-14.51-5.21-26.84-13.8-34.36-28.03
		c-7.88-14.92-5.19-32.89,6.57-45.06c12.86-13.3,28.95-20.95,45.95-27.17c1.86-0.68,3.75-1.29,5.64-1.93
		c0.14-0.04,0.32,0.02,1.41,0.1c0,3.11,0.31,6.11-0.16,8.98c-0.18,1.13-1.93,2.43-3.23,2.89c-12.11,4.31-23.9,9.28-34.23,17.06
		c-15.76,11.88-18.19,28.86-6.91,45.09c6.23,8.96,14.77,15.04,24.58,18.89c14.54,5.71,29.44,10.49,44.22,15.55
		c12.64,4.32,25,9.18,35.46,17.79c14.39,11.84,15.51,23.79,3.49,38.15c-9.68,11.57-22.78,17.89-36.42,23.76
		c-1.23-4.43,0.07-6.47,4.09-8.24c11.89-5.22,22.48-12.32,28.85-24.18c5.1-9.49,3.23-16.97-5.28-23.61
		c-10.43-8.14-22.49-12.72-34.96-16.47C291.05,551.44,275.91,547.6,261.26,542.35z M316.95,581.57c-2.46-3.67-2.3-9.11-2.65-14.32
		c8.97,4.85,19.53,6.73,25.43,15.98c2.41,3.79,2.26,7.79-0.58,11.57c-3.53,4.73-18.59,16.19-26.28,18.03
		c1.55-5.13,2.83-10.36,4.71-15.36C319.65,591.98,320.75,587.25,316.95,581.57z M288.27,655.57c0.46,0.02,0.92,0.04,1.38,0.07
		c0,2.46-0.64,5.17,0.18,7.33c0.87,2.29,3.12,4.06,4.78,6.06c1.24-2.05,3.37-4.01,3.56-6.15c0.38-4.26-0.4-8.62-0.51-12.94
		c-0.28-10.77-1.21-21.59-0.49-32.29c1.22-17.99,1.73-35.87-1.07-53.73c-0.1-0.65-0.01-1.32-0.01-2.31
		c6.27-0.53,6.51-0.03,5.32,5.19c-0.76,3.34-1.02,6.94-0.67,10.34c0.55,5.24,5.57,9.54,3.48,15.47c-0.08,0.25,0.5,0.8,0.86,1.13
		c0.22,0.21,0.58,0.26,1.17,0.5c1.17-1.25,2.42-2.58,3.66-3.9c0.32,0.15,0.63,0.31,0.95,0.47c-0.65,2.58-1.3,5.16-2.04,8.07
		c-1.54-0.4-2.73-0.72-4.01-1.05c-0.27,0.52-0.56,0.91-0.68,1.35c-3.73,13.63-4.47,27.55-3.65,41.57
		c0.52,8.79,1.63,17.55,2.12,26.35c0.09,1.54-1.13,3.87-2.44,4.65c-3.8,2.24-8.09,2.59-11.7-0.36c-3.46-2.84-3.9-6.77-2.29-10.89
		C286.81,658.83,287.56,657.21,288.27,655.57z M284.8,630.51c-1.56,8.66-8.68,16.57-15.89,18.04
		C270.66,639.47,278.46,636.42,284.8,630.51z M300.12,707.69c-0.73-6.35-1.32-11.45-1.98-17.17
		C301.96,693.38,303.37,703.36,300.12,707.69z M315.3,669.26c1.37-0.71,2.63-1.6,4.25-1.89c-7.02,10.25-15.83,17.87-29.03,17.15
		c-8.07-0.45-14.6-5.1-18.39-12.02c-3.58-6.55-1.43-13.41,2.95-19.07c3.36-4.35,7.54-8.07,11.35-12.08
		c0.38,0.38,0.76,0.75,1.13,1.12c-2.73,4.85-5.77,9.55-8.12,14.58c-2.71,5.79-2.72,11.8,1.85,16.76c4.87,5.28,11.13,6.56,17.7,3.74
		C304.58,675.15,309.89,672.08,315.3,669.26z M334.29,535.71c14.22,6.36,26.93,15.16,34.91,29.29c8.03,14.24,7.72,36.05-7.48,49.14
		c-13.08,11.26-28.14,17.98-44.63,22.05c-1.51,0.37-3.1,0.45-4.66,0.67c-0.26-0.55-0.53-1.1-0.79-1.64c1.55-1.05,3-2.35,4.68-3.11
		c9.55-4.28,19.67-7.56,28.62-12.82c12.7-7.48,20.16-19.03,20.73-34.27c0.43-11.57-6.74-18.67-15.09-24.83
		c-11.9-8.77-25.53-14.13-39.31-19.09c-16.87-6.06-34.23-11.06-49.4-20.97c-5.2-3.39-9.6-8.01-14.33-12.11
		c-7.43-6.45-5.34-22.41,1.39-29.73c6.65-7.24,15.33-10.95,24.22-14.31c3.99-1.5,8.08-2.76,12.67-4.31c0,2.96,0.32,5.31-0.13,7.51
		c-0.25,1.22-1.55,2.68-2.74,3.19c-4.99,2.13-10.34,3.49-15.13,5.96c-8.35,4.3-13.17,18.02-2.49,27.91
		c6.26,5.8,13.52,9.53,21.28,12.58C302.52,523.09,318.7,528.73,334.29,535.71z M285.07,480.13c-0.4,8.21-0.69,16.12-1.31,24.01
		c-0.07,0.81-2.67,2.36-3.17,2.05c-3.05-1.87-6.35-3.75-8.59-6.44c-3.1-3.71-4.44-8.54-1.73-12.97
		C273.43,481.62,278.59,479.74,285.07,480.13z M311.84,394.31c-9.26,4.05-11.38,6.93-11.14,15.86c0.85,32.26,1.26,64.54,1.83,96.82
		c0.03,1.63,0,3.27,0,5.22c-9.14-0.26-9.67-0.25-9.78-8.01c-0.25-16.26,0.52-32.53,0.12-48.78c-0.4-16.75-1.72-33.49-2.59-50.23
		c-0.07-1.28-0.27-2.96,0.41-3.79c4.1-5.03,3.51-10.88,3.29-16.68c-0.1-2.5-0.4-4.98-0.5-7.47c-0.44-10.92,4.63-15.48,16.54-13.98
		c-6.14,4.49-5.95,10.39-5.33,16.61c0.28,2.73-0.79,5.57-0.92,8.37c-0.05,1.14,0.51,2.63,1.32,3.35c0.48,0.43,2.12-0.16,3.06-0.62
		c2.06-1.01,4-2.24,6.36-3.58C315.45,390.65,315.79,392.59,311.84,394.31z M402.38,404.64c-11.99,17.29-28.55,28.59-47.03,37.41
		c-12.42,5.94-25.28,10.97-37.96,16.37c-0.72,0.31-1.54,0.37-2.31,0.54c-1.95-7.08-1.4-8.16,4.98-10.11
		c22.8-6.98,43.58-17.83,62.32-32.55c17.56-13.79,23.99-36.37,16.03-56.25c-4.67-11.67-13.81-18.83-25.34-22.24
		c-23.8-7.04-47.78-8.01-71.47,0.9c-3.44,1.3-6.55,3.47-9.82,5.23c0.16,0.49,0.31,0.97,0.47,1.45c3.17-0.43,6.55-0.31,9.48-1.39
		c14.59-5.36,29.64-6.05,44.74-4c9.44,1.28,19.29,2.74,27.85,6.57c17.74,7.92,27.95,35.01,10.37,53.89
		c-10.26,11.02-22.73,18.78-35.96,25.48c-10.51,5.33-21.21,10.3-31.84,15.39c-0.53,0.25-1.26,0.09-2.43,0.15
		c0.12-1.71,0.31-2.85,0.27-3.98c-0.19-4.99,2.02-7.21,6.97-8.99c18.23-6.53,35.28-15.41,49.71-28.64
		c6.23-5.71,11.37-12.23,12.43-20.94c1.69-13.8-6.64-25.68-20.87-29.04c-26.15-6.17-51.8-4.09-76.77,5.91
		c-6.28,2.51-10.4,7.21-12.27,13.57c-1.47,5.01-4.51,5.86-9.03,4.9c-3.56-0.77-7.19-1.18-10.84-1.75
		c-2.32-8.76-3.66-9.46-13.15-6.85c-3.18,0.88-6.34,1.91-9.58,2.57c-4.7,0.94-6.41-1.95-7.38-5.96c-1.03-4.26,0.67-6.24,4.77-6.64
		c12.4-1.21,21.32-9.46,31.36-15.45c4.44-2.65,8.76-4.54,13.75-0.62c1.12,0.87,4.09-0.07,5.96-0.8c23.91-9.3,48.57-13.52,74.24-11.8
		c21.56,1.44,37.99,11.5,50.62,28.74C414.23,368.78,411.29,391.8,402.38,404.64z M320.36,354.8c15.08,0.98,30.02-0.02,44.01,5.58
		c10,4.01,12.53,15.96,6.19,26.16c-5.26,8.46-12.49,15.01-21.01,19.94c-9.3,5.39-18.94,10.2-28.46,15.22
		c-0.98,0.52-2.13,0.71-3.95,1.29C320.79,400.25,325.73,378.08,320.36,354.8z"/>
	<path d="M556.54,103.13c-2.48-0.21-4.05-0.35-5.82-0.49c-0.74,2.41-1.5,4.86-2.25,7.32c-0.35,0.05-0.69,0.1-1.04,0.16
		c-0.78-2.51-1.55-5.01-2.33-7.53c-1.78,0.27-3.36,0.51-6.01,0.9c2.83-10.04,5.48-19.47,8.13-28.9c0.42-0.02,0.84-0.05,1.25-0.08
		C551.11,83.86,553.74,93.2,556.54,103.13z"/>
	<path d="M556.7,179.67c-2.56-0.34-4.24-0.57-6-0.81c-0.84,2.98-1.49,5.27-2.14,7.57c-0.38,0.03-0.76,0.06-1.13,0.09
		c-0.7-2.41-1.4-4.82-2.21-7.63c-1.51,0.22-3.07,0.45-6.03,0.9c2.78-9.92,5.44-19.38,8.1-28.85c0.38-0.03,0.76-0.06,1.15-0.1
		C551.13,160.23,553.82,169.62,556.7,179.67z"/>
	<path d="M465.39,144.21c-2.37-0.33-3.92-0.54-5.81-0.79c-0.82,2.52-1.69,5.2-2.56,7.89c-0.31-0.01-0.62-0.03-0.93-0.05
		c-0.71-2.49-1.42-4.99-2.16-7.58c-1.81,0.12-3.53,0.24-5.99,0.4c2.82-9.93,5.49-19.37,8.16-28.8c0.36-0.02,0.71-0.04,1.06-0.06
		C459.84,124.65,462.51,134.08,465.39,144.21z"/>
	<path d="M559.57,149.65c-2.42,1.67-3.72,3.25-5.06,3.29c-1.12,0.03-2.3-1.74-3.45-2.71c1.06-1.25,1.97-3.29,3.23-3.53
		C555.47,146.47,557.02,148.13,559.57,149.65z"/>
	<path d="M466.55,114.33c0.21,1.18-1.49,2.71-2.98,5.1c-1.7-2.18-3.48-3.46-3.43-4.67c0.05-1.27,1.87-2.47,2.91-3.69
		C464.29,112.14,466.32,113.07,466.55,114.33z"/>
	<path d="M546.26,73.63c-2.34,1.56-3.79,3.27-5.01,3.12c-1.23-0.15-3.13-2.17-3.1-3.33c0.03-1.16,2.03-3.08,3.27-3.16
		C542.64,70.17,544,71.96,546.26,73.63z"/>
	<path d="M453.26,114.57c-0.15,1.25-2.16,2.28-3.36,3.4c-1.01-1.28-2.63-2.47-2.84-3.87c-0.15-1.03,1.55-2.33,3.07-4.41
		C451.65,111.91,453.41,113.36,453.26,114.57z"/>
	<path d="M544.6,150.01c-0.23,1.22-2.27,2.9-3.51,2.89c-1.06-0.01-2.91-2.1-2.94-3.31c-0.03-1.2,1.75-2.46,3.48-4.64
		C543.14,147.35,544.82,148.86,544.6,150.01z"/>
	<path d="M457.13,112.96c-1.95-2.51-3.56-3.7-3.65-4.99c-0.07-1.03,1.83-3.17,2.66-3.08c1.36,0.15,3.24,1.5,3.64,2.75
		C460.1,108.65,458.57,110.25,457.13,112.96z"/>
	<path d="M553,143.49c-2.71,1.5-4.14,2.94-5.35,2.78c-1.17-0.16-2.11-1.98-3.15-3.07c1.17-1.11,2.24-2.92,3.53-3.1
		C549.13,139.94,550.49,141.68,553,143.49z"/>
	<path d="M550.92,66.62c0.16,1.23-1.22,2.66-2.67,5.43c-1.91-2.56-3.71-3.94-3.53-5c0.22-1.32,1.89-2.85,3.27-3.34
		C548.61,63.49,550.77,65.47,550.92,66.62z"/>
	<path d="M557.74,73.42c0.1,1.08-1.89,3.36-2.76,3.26c-1.4-0.15-3.43-1.64-3.7-2.89c-0.25-1.18,1.43-2.77,2.86-5.18
		C555.91,70.83,557.63,72.06,557.74,73.42z"/>
	<path d="M62.77,179.33c-2.77-0.26-4.36-0.41-6.16-0.57c-0.66,2.67-1.28,5.16-1.89,7.66c-0.41,0.05-0.81,0.1-1.22,0.14
		c-0.74-2.53-1.48-5.06-2.27-7.79c-1.66,0.16-3.26,0.3-5.86,0.54c2.74-9.86,5.33-19.16,7.91-28.45c0.4-0.09,0.8-0.17,1.2-0.26
		C57.16,159.88,59.84,169.16,62.77,179.33z"/>
	<path d="M154.14,144.38c-2.78-0.56-4.2-0.85-5.94-1.2c-0.84,2.54-1.69,5.13-2.97,9.02c-1.18-3.76-1.99-6.32-2.83-9.02
		c-1.69,0.31-3.26,0.6-5.97,1.1c2.88-10.12,5.58-19.6,8.28-29.08c0.38,0.06,0.75,0.12,1.12,0.18
		C148.5,124.69,151.17,134,154.14,144.38z"/>
	<path d="M62.81,103.16c-2.71-0.37-4.28-0.59-6.09-0.84c-0.73,2.51-1.46,5.06-2.2,7.62c-0.36,0.02-0.72,0.03-1.08,0.05
		c-0.7-2.58-1.4-5.16-2.1-7.76c-1.73,0.29-3.31,0.56-6.07,1.04c2.81-10.03,5.43-19.38,8.05-28.72c0.47,0.03,0.94,0.06,1.41,0.09
		C57.36,83.91,59.98,93.18,62.81,103.16z"/>
	<path d="M148.49,107.91c-0.17,1.18-2.3,2.06-3.57,3.08c-0.99-1.31-2.64-2.56-2.76-3.95c-0.09-1.02,1.79-2.22,3.48-4.11
		C147,105.14,148.67,106.66,148.49,107.91z"/>
	<path d="M143.57,114.41c-2.47,1.6-3.86,3.18-5.18,3.13c-1.1-0.04-3.11-2.17-2.96-3.07c0.23-1.31,1.95-3.1,3.21-3.26
		C139.81,111.06,141.22,112.79,143.57,114.41z"/>
	<path d="M156.75,113.86c-2.3,1.91-3.61,3.83-4.77,3.74c-1.25-0.09-2.93-1.89-3.32-3.27c-0.22-0.77,1.66-2.98,2.75-3.1
		C152.71,111.09,154.18,112.5,156.75,113.86z"/>
	<path d="M65.57,72.9c-2.32,1.85-3.68,3.76-4.86,3.65c-1.3-0.12-2.96-1.92-3.4-3.32c-0.23-0.71,1.79-2.97,2.92-3.07
		C61.56,70.03,63.03,71.5,65.57,72.9z"/>
	<path d="M50.67,73.16c-0.02,1.38-1.6,2.75-3.21,5.2c-1.62-2.42-3.36-3.87-3.22-5.11c0.15-1.22,2.08-2.87,3.44-3.1
		C48.56,70.01,50.68,72.09,50.67,73.16z"/>
	<path d="M50.63,149.43c0.23,1.12-1.55,2.66-3.17,5.14c-1.64-2.35-3.27-3.66-3.25-4.95c0.01-1.17,2.03-3.41,2.76-3.26
		C48.41,146.67,50.35,148.13,50.63,149.43z"/>
	<path d="M65.54,149.87c-2.41,1.47-3.82,2.99-5.13,2.92c-1.15-0.07-3.24-2.22-3.04-2.96c0.37-1.43,1.96-3.34,3.24-3.49
		C61.78,146.19,63.2,148.09,65.54,149.87z"/>
	<path d="M58.83,66.46c-2.13,1.64-3.44,3.42-4.61,3.33c-1.27-0.1-2.39-1.95-3.58-3.04c1.16-1.14,2.17-2.88,3.54-3.24
		C55.12,63.27,56.56,64.94,58.83,66.46z"/>
	<path d="M59.06,143.1c-2.67,1.73-4.17,3.42-5.21,3.18c-1.24-0.28-2.6-2.14-2.9-3.52c-0.15-0.73,1.84-2.67,2.91-2.7
		C55.12,140.02,56.42,141.46,59.06,143.1z"/>
	<path d="M365.33,235.98c-1.75,0.28-3.32,0.53-5.9,0.94c2.72-10.14,5.33-19.85,7.62-28.39c-3.04,0.12-5.76,0.23-8.47,0.33
		c0.15-1.52,0.17-4.32,0.48-4.35c2.36-0.25,4.78,0.04,7.86,0.19c0.45-1.8-6.43-7.09,1.52-7.69c3.72-0.28,4.03,3.2,2.69,5.53
		c2.49,1.04,5.35,1.37,6.59,2.96c1.92,2.46-1.31,5.57-4.51,4.41c-1.22-0.44-2.29-1.33-4.39-2.59c2.89,10.39,5.45,19.61,8.23,29.61
		c-2.37-0.38-3.89-0.62-5.85-0.93c-0.89,2.58-1.8,5.25-2.72,7.91c-0.33,0.03-0.65,0.05-0.98,0.08
		C366.79,241.4,366.09,238.81,365.33,235.98z"/>
	<path d="M299.56,218.91c-0.7-2.48-1.4-4.96-2.18-7.72c-1.62,0.29-3.17,0.56-6.08,1.07c2.85-10.22,5.51-19.76,8.18-29.31
		c0.43,0,0.85,0,1.28,0c2.74,9.37,5.48,18.74,8.5,29.04c-2.4-0.25-4.18-0.43-6.26-0.65c-0.72,2.53-1.46,5.13-2.2,7.72
		C300.39,219.01,299.97,218.96,299.56,218.91z"/>
	<path d="M232.29,243.05c-0.71-2.44-1.42-4.88-2.22-7.67c-1.7,0.24-3.39,0.48-6.14,0.87c2.87-10.16,5.59-19.76,8.3-29.35
		c0.43,0.01,0.85,0.02,1.28,0.03c2.68,9.5,5.36,18.99,8.26,29.26c-2.54-0.42-4.07-0.67-5.97-0.99c-0.84,2.58-1.7,5.23-2.57,7.88
		C232.91,243.07,232.6,243.06,232.29,243.05z"/>
	<path d="M237.9,199.83c-2.49,1.54-3.97,3.19-5.1,2.97c-1.36-0.26-2.43-2.09-3.62-3.24c1.31-1.19,2.49-3.01,3.99-3.35
		C234.13,196,235.58,197.97,237.9,199.83z"/>
	<path d="M305.6,175.64c-2.7,1.58-4.24,3.16-5.75,3.13c-1.02-0.02-2.84-2.36-2.76-3.56c0.08-1.15,2.13-2.97,3.36-3.01
		C301.75,172.16,303.11,173.87,305.6,175.64z"/>
	<path d="M298.35,182.17c-2.16,1.59-3.58,3.43-4.78,3.3c-1.28-0.14-3.48-2.38-3.29-3.26c0.33-1.47,2.08-3.27,3.54-3.61
		C294.79,178.38,296.29,180.46,298.35,182.17z"/>
	<path d="M244.48,206.06c-2.35,1.72-3.9,3.66-4.94,3.42c-1.39-0.33-2.38-2.35-3.54-3.65c1.21-1.03,2.38-2.8,3.64-2.87
		C240.89,202.88,242.23,204.53,244.48,206.06z"/>
	<path d="M226.61,201.14c1.54,2.47,3.35,4.18,3.01,5.09c-0.55,1.46-2.51,2.4-3.88,3.55c-0.99-1.34-2.68-2.65-2.74-4.04
		C222.95,204.58,224.79,203.33,226.61,201.14z"/>
	<path d="M311.75,181.9c-2.19,1.58-3.47,3.23-4.66,3.17c-1.33-0.08-2.58-1.72-3.86-2.68c1.15-1.35,2.08-3.35,3.52-3.82
		C307.68,178.27,309.34,180.21,311.75,181.9z"/>
	<path d="M240.2,53.06c-2.44-0.39-3.99-0.65-5.94-0.97c-0.75,2.56-1.53,5.17-2.73,9.23c-1.24-3.97-2.04-6.54-2.89-9.24
		c-1.78,0.32-3.34,0.6-5.94,1.07c2.88-10.2,5.58-19.75,8.28-29.3c0.31,0.01,0.63,0.03,0.94,0.05
		C234.62,33.39,237.31,42.88,240.2,53.06z"/>
	<path d="M376.47,52.53c-2.63-0.45-4.34-0.73-6.08-1.03c-0.7,2.51-1.4,5.03-2.1,7.54c-0.33,0.05-0.66,0.11-0.99,0.16
		c-0.83-2.48-1.65-4.97-2.55-7.66c-1.64,0.23-3.32,0.47-5.74,0.82c2.8-9.89,5.44-19.19,8.07-28.49c0.42,0.02,0.84,0.04,1.26,0.05
		C370.98,33.22,373.62,42.51,376.47,52.53z"/>
	<path d="M308.85,80.33c-2.95-0.56-4.54-0.86-6.17-1.17c-0.74,2.67-1.43,5.16-2.12,7.65c-0.35,0.05-0.69,0.1-1.03,0.15
		c-0.74-2.56-1.48-5.11-2.25-7.78c-1.61,0.3-3.19,0.59-5.97,1.1c2.8-10.01,5.42-19.36,8.04-28.71c0.44,0,0.87,0.01,1.3,0.01
		C303.29,60.83,305.93,70.07,308.85,80.33z"/>
	<path d="M234.71,16.6c0.06,1.04-1.95,3.2-2.81,3.09c-1.38-0.17-3.41-1.69-3.6-2.88c-0.19-1.23,1.49-2.75,3.01-5.22
		C233.01,13.94,234.62,15.22,234.71,16.6z"/>
	<path d="M309.76,50.19c-0.16,1.3-1.91,3.01-3.26,3.33c-0.82,0.2-3.01-1.78-3.11-2.92c-0.11-1.28,1.44-2.7,2.92-5.15
		C308.06,47.71,309.9,49.08,309.76,50.19z"/>
	<path d="M304.89,44.08c-2.48,1.43-3.9,2.89-5.2,2.79c-1.08-0.09-2.99-2.24-2.79-3.07c0.32-1.38,1.95-3.25,3.19-3.38
		C301.23,40.3,302.58,42.21,304.89,44.08z"/>
	<path d="M379.22,22.55c-2.47,1.68-3.93,3.42-5.01,3.21c-1.26-0.25-2.81-2.08-3.06-3.43c-0.15-0.84,1.87-2.88,2.96-2.92
		C375.38,19.36,376.71,20.91,379.22,22.55z"/>
	<path d="M366.02,22.2c-2.29,1.86-3.64,3.77-4.71,3.63c-1.27-0.17-2.89-1.97-3.22-3.34c-0.2-0.83,1.67-2.99,2.74-3.09
		C362.1,19.29,363.51,20.75,366.02,22.2z"/>
	<path d="M296.66,50.37c0.13,1.1-1.78,2.44-3.65,4.73c-1.42-2.48-2.89-3.91-2.76-5.16c0.11-1.1,2.25-3,3.08-2.8
		C294.7,47.46,296.51,49.11,296.66,50.37z"/>
	<path d="M372.94,15.68c-2.61,1.83-3.87,3.36-5.23,3.46c-1.07,0.07-2.26-1.62-3.4-2.53c1.01-1.24,1.84-3.2,3.09-3.52
		C368.54,12.8,370.14,14.28,372.94,15.68z"/>
	<path d="M227.9,22.82c-0.22,1.34-1.72,2.96-3.03,3.41c-0.7,0.24-2.99-1.69-3.06-2.73c-0.08-1.32,1.38-2.73,2.77-5.13
		C226.3,20.56,228.06,21.85,227.9,22.82z"/>
	<path d="M242.87,23.13c-2.33,1.63-3.74,3.34-4.7,3.11c-1.29-0.3-2.77-1.97-3.09-3.32c-0.18-0.73,1.85-2.84,2.86-2.83
		C239.26,20.11,240.57,21.61,242.87,23.13z"/>
	<path d="M272.17,347.03c-0.67,10.21-13.93,13.81-25.62,7.41C255.68,351.8,263.53,349.53,272.17,347.03z"/>
</g>
</svg>
