<?xml version="1.0" encoding="utf-8"?>
<!-- Generator: Adobe Illustrator 23.0.2, SVG Export Plug-In . SVG Version: 6.00 Build 0)  -->
<svg version="1.1" id="Layer_1" xmlns="http://www.w3.org/2000/svg" xmlns:xlink="http://www.w3.org/1999/xlink" x="0px" y="0px"
	 viewBox="0 0 1869.81 844.3" style="enable-background:new 0 0 1869.81 844.3;" xml:space="preserve">
<g>
	<path d="M1228.51,457.52c-12.24-46.2-40.04-77.25-87.14-89.73c-41.31-10.95-79.81-6.53-114.79,19.54
		c-3.35,2.49-7.59,3.78-11.14,5.49c-2.64-6.01-4.34-11.88-7.53-16.78c-9.46-14.48-27.89-19.22-46.31-12.92
		c-14.6,5-23.07,14.62-24.09,30.28c-0.33,5.15-0.77,10.31-0.77,15.46c-0.04,128.65-0.03,257.29-0.03,385.94c0,2.67-0.03,5.34,0.14,8
		c1.78,28.87,22.86,45.77,50.85,40.56c17.7-3.29,29.83-17.01,30.02-30.91c0.37-27.28,1.26-54.56,1.03-81.83
		c-0.07-8.62,1.72-16.31,4.8-24.67c1.31,0.8,2.01,1.22,2.71,1.66c8.83,5.61,17.06,12.66,26.59,16.58
		c46.41,19.11,90.1,12.25,130.21-16.89c25.33-18.4,38.2-45.09,45.54-74.8c5.7-23.09,7.41-46.67,8.43-70.31
		C1238.54,526.95,1237.62,491.89,1228.51,457.52z M1183.62,612.79c-1.36,4.78-3.1,9.52-5.22,14.01c-8.6,18.23-23.1,28.7-43.12,30.37
		c-8.85,0.73-18.11,0.45-26.79-1.32c-22.33-4.53-35.44-19.76-41.69-40.72c-3.4-11.38-5.56-23.36-6.5-35.22
		c-2.68-34.01-1.91-67.95,7.31-101.12c4.95-17.78,14.12-32.89,32.79-38.62c10.67-3.28,22.14-5.39,33.27-5.44
		c21.47-0.08,36.17,11.53,45.01,30.79c6.92,15.06,9.51,31.16,10.84,47.46c0.88,10.78,1.04,21.62,1.29,27.3
		C1190.45,568.11,1189.88,590.77,1183.62,612.79z"/>
	<path d="M659.38,510.16c-0.96-20.82-3.8-41.45-10.99-61.21c-15.04-41.29-43.05-68.53-86.23-79.07c-25-6.1-50.15-5.27-75.41-1.48
		c-53.97,8.1-89.63,38.04-107.1,89.54c-11.11,32.77-12.88,66.88-13.07,101.1c-0.18,30.5,3.45,60.5,14.12,89.3
		c16.58,44.75,46.89,74.8,94.48,84.37c43.47,8.75,85.53,2.7,125.4-16.77c17.94-8.76,33.22-20.97,43.42-38.61
		c5.61-9.69,7.87-19.94,5.6-31.19c-5.01-24.88-32.63-36.26-51.47-21.57c-4.33,3.38-8.7,6.73-12.88,10.29
		c-13.6,11.59-28.5,20.95-46.01,25.17c-26.09,6.31-50.14,2.68-69.78-17.1c-14.39-14.49-19.31-32.68-17.9-52.63
		c0.5-7.02,4.71-10.03,11.74-10.03h83.49c25.99,0,51.98,0.05,77.98-0.04c4.98-0.02,9.99-0.35,14.95-0.91
		c10.82-1.22,16.1-5.93,18.73-16.4c0.52-2.09,1.13-4.24,1.14-6.37C659.64,541.08,660.1,525.6,659.38,510.16z M569.05,517.79
		c-22.14-0.18-44.29-0.08-66.43-0.08h-65.44c-5.92-0.01-8.33-1.83-8.41-7.84c-0.06-5.09,0.52-10.33,1.73-15.27
		c7.58-31.03,30.04-51.32,61.59-56.21c17.37-2.7,34.29-2,49.91,6.94c19.86,11.36,28.79,29.67,31.59,51.57
		c0.65,5.1,0.77,10.27,1.08,15.41C574.9,516.24,573.25,517.83,569.05,517.79z"/>
	<path d="M318.2,401.94c0.09,9.15-1.45,18.68-4.2,27.42c-26.82,85.2-53.96,170.3-81.22,255.36c-9.14,28.5-18.51,56.93-28.49,85.14
		c-4.79,13.54-12.15,25.92-22.15,36.49c-11.75,12.4-26.72,18.16-43.12,21.25c-20,3.76-40,5.47-59.84-0.4
		c-14.19-4.2-25.91-11.89-30.31-27.03c-7.04-24.2,12.02-47.81,37.81-47.23c6.33,0.14,12.66,0.41,18.99,0.43
		c24.41,0.09,38.75-18.59,32.26-42.2c-1.31-4.78-3.18-9.48-5.37-13.93C90.51,611.48,48.34,525.77,6.27,440.03
		c-5.57-11.36-7.49-23.43-5.52-35.96c4.09-26.1,36.17-42.63,59.89-30.95c7.3,3.59,12.36,9.22,16.15,16.41
		c33.82,64.01,67.75,127.96,101.65,191.93c1.23,2.3,2.47,4.6,4.44,8.27c7.25-24.65,14.03-47.77,20.87-70.87
		c11.27-38.12,22.36-76.3,34.07-114.29c2.51-8.14,6.54-16.07,11.18-23.26c8.68-13.47,21.41-18.2,37.22-14.74
		C305.99,370.9,318.02,383.28,318.2,401.94z"/>
	<path d="M1596.84,300.83c-1.73,9.42-2.37,19.21-5.42,28.19c-6.28,18.45-26.7,24.77-42.18,12.94c-7.25-5.55-13.87-12.71-18.78-20.41
		c-51.11-80.18-101.84-160.62-152.62-241.01c-5.94-9.41-5.91-18.13,1.24-26.67c4.16-4.98,9.57-9.35,15.23-12.56
		c21.69-12.33,45.35-19.84,69.18-26.74c23.85-6.91,47.98-12.64,72.81-14.34c7.68-0.53,15.76-0.19,23.19,1.64
		c11.39,2.81,17.13,11.29,17.96,23.02c3.24,45.35,6.71,90.68,9.76,136.04c2.71,40.38,4.96,80.79,7.42,121.19
		c0.37,6.15,0.74,12.3,1.11,18.45C1596.11,300.66,1596.47,300.74,1596.84,300.83z"/>
	<path d="M832.57,495.93c0,64.99,0.05,129.99-0.09,194.98c-0.01,5.76-0.53,11.76-2.18,17.24c-5.12,17.06-17.6,26.03-34.75,27.87
		c-16.11,1.72-29.47-4.11-38.58-18.02c-5.04-7.7-6.11-16.71-6.13-25.43c-0.19-132.32-0.14-264.64-0.07-396.96
		c0-4.97,0.36-10.04,1.32-14.9c3.91-19.79,24.3-33.49,45.51-30.86c9.16,1.14,17.43,4.29,24.17,10.81
		c5.08,4.91,8.44,10.71,8.82,17.93c0.67,12.79,1.85,25.57,1.89,38.36C832.68,376.61,832.57,436.27,832.57,495.93z"/>
	<path d="M1865.51,342.77c-1,13.01-6.6,21.57-18.69,24.83c-27.95,7.53-56.03,14.54-84.09,21.64c-25.32,6.4-50.64,12.79-76.03,18.9
		c-11.96,2.87-22.86,0.39-31.61-8.71c-8.48-8.82-12.66-19.15-9.32-31.45c0.85-3.13,2.48-6.23,4.41-8.86
		c31.65-43.1,63.4-86.12,95.14-129.16c0.79-1.07,1.62-2.11,2.46-3.15c11.81-14.65,26.19-16.89,40.69-4.69
		c9.87,8.3,18.82,17.95,26.97,27.98c18.22,22.44,33.77,46.68,44.58,73.65C1862.46,329.84,1863.71,336.41,1865.51,342.77z"/>
	<path d="M1529.16,447.76c-3.2,6.11-7.85,10.88-14.53,13c-53.4,16.95-106.78,33.97-160.29,50.56c-15.2,4.71-27.3-1.92-32.85-16.95
		c-5.14-13.91-5.98-28.59-6.72-43.22c-0.23-4.65-0.03-9.32-0.03-13.99c0.22-25.51,1.34-50.97,9.12-75.52
		c1.86-5.87,4.92-11.78,8.85-16.48c6.9-8.25,16.42-10.04,26.35-6.27c19.89,7.54,39.65,15.42,59.37,23.4
		c31.12,12.6,61.97,25.92,93.32,37.94C1533.15,408.44,1537.33,432.17,1529.16,447.76z"/>
	<path d="M1869.81,549.26c-1.91,6.13-3.08,12.63-5.86,18.33c-17.94,36.72-42.84,68.13-73.96,94.52c-4.72,3.99-10.55,7.12-16.38,9.25
		c-10.78,3.94-20.75,0.6-27.25-8.84c-7.84-11.39-15.28-23.04-22.57-34.78c-22.15-35.65-43.88-71.55-66.3-107.03
		c-12.88-20.39,2.3-47.11,24.05-49.84c3.67-0.46,7.75,0.08,11.28,1.25c52.57,17.38,105.11,34.87,157.58,52.53
		C1863.31,529,1868.72,536.68,1869.81,549.26z"/>
	<path d="M1592.5,616.97c0,27-0.36,54,0.11,80.99c0.41,23.69-17.28,30.35-33.12,28.95c-18.22-1.61-35.9-5.9-52.82-12.43
		c-18.9-7.3-37.37-15.74-55.71-24.38c-6.36-3-12.25-7.52-17.49-12.3c-11.31-10.31-12.61-23.83-2.96-35.66
		c21.16-25.95,42.81-51.51,64.35-77.16c14.14-16.85,28.38-33.62,42.68-50.32c8.08-9.43,18.61-11.94,30.33-9.42
		c12.2,2.63,21.3,9.3,24.89,21.84c0.76,2.66,0.82,5.59,0.82,8.39c0.06,27.17,0.04,54.34,0.04,81.5H1592.5z"/>
	<path d="M1306.24,666.8c-12.8-0.12-23.31,10.24-23.33,23c-0.03,12.59,10.14,22.63,22.97,22.7c13.07,0.06,23.35-10,23.34-22.86
		C1329.2,677.15,1318.91,666.91,1306.24,666.8z M1305.87,709.46c-11.01-0.1-19.43-8.77-19.35-19.91
		c0.08-11.14,8.59-19.54,19.72-19.47c11.04,0.07,19.52,8.73,19.41,19.82C1325.54,700.93,1316.82,709.56,1305.87,709.46z"/>
	<path d="M1316.33,682.38c-1.1-5.25-5.4-5.67-9.7-5.76c-2.79-0.06-5.58-0.02-8.65-0.02v27.77c5.32-3.93,1.33-9.36,4.84-13.41
		c1.59,1.11,3.55,2.03,4.84,3.53c1.73,1.98,2.77,4.54,4.43,6.59c0.84,1.03,2.4,1.49,3.63,2.2c0.23-0.37,0.45-0.74,0.67-1.12
		c-2.18-3.41-4.36-6.83-6.71-10.52C1314.7,690.21,1317.37,687.36,1316.33,682.38z M1300.74,688.24c0.57-3.06,0.64-7.68,1.61-7.87
		c2.99-0.61,6.4,0.24,9.48,1.09c0.6,0.17,1.21,3.37,0.57,4.4C1309.71,690.18,1305.44,688.08,1300.74,688.24z"/>
</g>
</svg>
