<?xml version="1.0" encoding="utf-8"?>
<!-- Generator: Adobe Illustrator 23.0.2, SVG Export Plug-In . SVG Version: 6.00 Build 0)  -->
<svg version="1.1" id="Layer_1" xmlns="http://www.w3.org/2000/svg" xmlns:xlink="http://www.w3.org/1999/xlink" x="0px" y="0px"
	 width="326.3px" height="143.6px" viewBox="0 0 326.3 143.6" style="enable-background:new 0 0 326.3 143.6;" xml:space="preserve"
	>
<style type="text/css">
	.st0{fill-rule:evenodd;clip-rule:evenodd;fill:#67B245;}
	.st1{fill-rule:evenodd;clip-rule:evenodd;fill:#16467A;}
	.st2{fill:#FFFFFF;}
	.st3{font-family:'Lato-Black';}
	.st4{font-size:34.0438px;}
	.st5{enable-background:new    ;}
	.st6{fill:#67B245;}
</style>
<g>
	<path class="st0" d="M197.4,24.7c4.7,0,8.5-3.8,8.5-8.5s-3.8-8.5-8.5-8.5s-8.5,3.8-8.5,8.5S192.7,24.7,197.4,24.7z"/>
	<path class="st1" d="M255.1,37.6c-4.5-5-10.7-7.4-18.8-7.4c0,0,0,0-0.1,0c-7.6,0-13.8,2.6-18.5,7.7s-7,11.8-7,19.9
		c0,8.4,2.3,15.2,6.7,20.2c4.5,5.1,10.7,7.6,18.8,7.7c0.1,0,0.1,0,0.1,0c7.9,0,14.1-2.6,18.6-7.6c4.6-5,6.9-11.8,6.9-20.3
		C261.8,49.2,259.6,42.5,255.1,37.6z M245.5,70.9c-2.3,3-5.3,4.5-9.2,4.5c0,0,0,0-0.1,0c-8.4,0-12.6-5.8-12.6-17.5
		c0-5.4,1.1-9.6,3.4-12.7c2.3-3,5.3-4.5,9.1-4.5c0.1,0,0.1,0,0.1,0c8.4,0,12.6,5.8,12.6,17.2C248.9,63.5,247.8,67.8,245.5,70.9z"/>
	<path class="st1" d="M205.5,30h-19.2c0,0,0,0-0.1,0c0,0,0,0-0.1,0l0,0l0,0c-2,0.1-3.5,2.4-3.5,5.3c0,2.9,1.6,5.3,3.6,5.3l0,0h6.8
		v41l0,0l0,0l0,0l0,0c0.1,2.1,2.8,3.7,6.2,3.7s6.2-1.7,6.2-3.7l0,0L205.5,30z"/>
	<path class="st0" d="M313.2,55.6c-0.9,2.6-3.7,3.9-6.3,3l-36.3-12.8c-2.6-0.9-3.9-3.8-3-6.3l12.8-36.2c0.9-2.6,3.7-3.9,6.3-3
		L323,13.1c2.6,0.9,3.9,3.7,3,6.3L313.2,55.6z"/>
	<path class="st1" d="M159,30.4C158.9,30.4,158.9,30.4,159,30.4h-47c-9.2,0.3-17.8,5-17.8,15.1c0,8.4,4.8,12.4,11.1,15.6
		c4.3,2.2,8.4,2.8,9.9,6.1c1.5,3.2,0.4,8-5.2,8.3H94.2c-4.5,0-6.6-1.2-6.6-6.3V57c0-10.3-1.8-17.3-5.6-21c-3.6-3.5-8.9-5.5-16.3-5.7
		l0,0h-9.2l0,0l0,0c-2,0-3.6,2.4-3.6,5.3c0,2.9,1.6,5.3,3.6,5.3l0,0l0,0h6.9c0.7,0,1.5,0,2.2,0.1l0,0c6.4,0.6,9.6,3.7,9.6,9.4
		c-2-0.5-3.7-0.8-5.2-0.8s-3,0.1-4.5,0.2c-6.4,0.5-11.4,2.2-15.2,5c-4.6,3.4-6.9,8.3-6.9,14.5c0,1,0.1,2,0.2,2.9
		c-3,3.1-6,3.2-14.7,3.2C18.3,75.4,13,69.8,13,58.6c0-5.6,1.4-9.9,4.1-13c2.7-3.1,6.4-4.7,10.2-4.6h14.8l0,0l0,0h0.1l0,0
		c1.8-0.1,3.2-2.5,3.2-5.3c0-2.9-1.4-5.2-3.2-5.3l0,0h-0.1l0,0l0,0H28c-7.9-0.1-15,2.8-20.1,8C2.6,43.4,0,50.2,0,58.6
		c0,8.5,2.4,15.2,7.2,20c4.7,4.7,11.2,7,19.4,7.2c11.1,0.2,15.3-0.4,21.5-4.5c0.1,0.1,0.1,0.1,0.2,0.1c3.2,2.9,7.7,4.3,13.4,4.3
		c1.1,0,2.4-0.1,3.7-0.2c2.3-0.2,4.8-0.7,6.6-1.5c2.8-1.2,5.6-2.9,6.7-4.8c1.5,2.6,4.5,6.5,11.3,6.5h20.8c4.5-0.4,8.3-1.8,11-3.4
		c3.9-2.4,6.9-7.5,6.9-12.5c0-8.4-4.9-11.7-11.2-14.8c-4.3-2.2-7.7-3-9.9-6.1c-2.3-3-0.7-7.7,4.9-7.9l21.8,0.1l-0.1,64.7l0,0l0,0
		c0,2.2,2.8,4,6.3,4s6.3-1.8,6.3-4l0,0l0,0V83.4c3.2,1.6,6.7,2.3,10.7,2.3h1.3c7.4-0.2,13.4-2.6,17.8-7c4.7-4.8,7-11.5,7-20.2
		C183.7,39.9,175.8,30.4,159,30.4z M75.2,64.6c0,7-3.2,10.5-9.7,11c-0.4,0.1-0.9,0.1-1.4,0.1c-5.5,0-8.3-2.2-8.3-6.9
		c0-5.3,3.3-8.4,9.7-9.4c1.5-0.2,3.1-0.4,5-0.4c1.1,0,2.6,0.2,4.7,0.7V64.6z M167.1,71.1c-1.8,2-4.5,3.4-8.1,3.9
		c-1.2,0.1-2.6,0.2-4.1,0.2c-3,0-5.6-0.9-7.9-2.7V41.1l7.9-0.1c1.5,0,2.9,0,4.1,0.1c3.8,0.5,6.3,1.8,8.2,3.7
		c2.5,2.6,3.7,6.9,3.7,13.3C170.9,64.1,169.6,68.4,167.1,71.1z"/>
	<text transform="matrix(1 0 0 1 269.9458 47.0054)" class="st2 st3 st4">MS</text>
</g>
<g class="st5">
	<path class="st6" d="M15.2,134.7c0.1,0.3,0.2,0.5,0.3,0.8c0.1-0.3,0.2-0.5,0.3-0.8c0.1-0.3,0.2-0.5,0.4-0.8l3.5-6.9
		c0.1-0.1,0.1-0.2,0.2-0.3c0.1-0.1,0.1-0.1,0.2-0.1c0.1,0,0.2,0,0.3,0c0.1,0,0.2,0,0.4,0h2.4v13.7h-2.8v-7.9c0-0.4,0-0.8,0.1-1.2
		l-3.6,7c-0.1,0.2-0.3,0.4-0.5,0.5s-0.4,0.2-0.7,0.2h-0.4c-0.2,0-0.5-0.1-0.7-0.2s-0.3-0.3-0.5-0.5l-3.6-7c0,0.2,0,0.4,0.1,0.7
		c0,0.2,0,0.4,0,0.6v7.9H7.9v-13.7h2.4c0.1,0,0.3,0,0.4,0c0.1,0,0.2,0,0.3,0c0.1,0,0.2,0.1,0.2,0.1c0.1,0.1,0.1,0.2,0.2,0.3l3.5,6.9
		C15,134.2,15.1,134.5,15.2,134.7z"/>
	<path class="st6" d="M38.2,140.2h-2.5c-0.3,0-0.5-0.1-0.7-0.2c-0.2-0.1-0.3-0.3-0.4-0.5l-0.8-2.4h-5.2l-0.8,2.4
		c-0.1,0.2-0.2,0.3-0.4,0.5c-0.2,0.1-0.4,0.2-0.7,0.2h-2.5l5.3-13.7h3.2L38.2,140.2z M29.4,135h3.7l-1.3-3.7
		c-0.1-0.2-0.2-0.5-0.3-0.8s-0.2-0.7-0.3-1c-0.1,0.4-0.2,0.7-0.3,1.1c-0.1,0.3-0.2,0.6-0.3,0.8L29.4,135z"/>
	<path class="st6" d="M41.3,126.6c0.1,0,0.2,0,0.3,0.1c0.1,0,0.1,0.1,0.2,0.1s0.1,0.1,0.2,0.3l6.5,8.2c0-0.3,0-0.5-0.1-0.8
		c0-0.2,0-0.5,0-0.7v-7.2h2.8v13.7h-1.7c-0.2,0-0.5,0-0.6-0.1c-0.2-0.1-0.3-0.2-0.5-0.4l-6.5-8.2c0,0.2,0,0.5,0,0.7s0,0.4,0,0.6v7.3
		h-2.8v-13.7H41C41.1,126.6,41.3,126.6,41.3,126.6z"/>
	<path class="st6" d="M66.3,140.2h-2.5c-0.3,0-0.5-0.1-0.7-0.2c-0.2-0.1-0.3-0.3-0.4-0.5l-0.8-2.4h-5.2l-0.8,2.4
		c-0.1,0.2-0.2,0.3-0.4,0.5c-0.2,0.1-0.4,0.2-0.7,0.2h-2.5l5.3-13.7H61L66.3,140.2z M57.5,135h3.7l-1.3-3.7
		c-0.1-0.2-0.2-0.5-0.3-0.8s-0.2-0.7-0.3-1c-0.1,0.4-0.2,0.7-0.3,1.1c-0.1,0.3-0.2,0.6-0.3,0.8L57.5,135z"/>
	<path class="st6" d="M73.2,138c0.4,0,0.8,0,1.2-0.1c0.3-0.1,0.7-0.2,1-0.3v-2.1H74c-0.2,0-0.4-0.1-0.5-0.2
		c-0.1-0.1-0.2-0.2-0.2-0.4v-1.7h4.9v5.8c-0.4,0.3-0.7,0.5-1.1,0.7c-0.4,0.2-0.8,0.3-1.2,0.5c-0.4,0.1-0.9,0.2-1.4,0.3
		c-0.5,0.1-1,0.1-1.6,0.1c-1,0-1.9-0.2-2.8-0.5c-0.9-0.4-1.6-0.8-2.2-1.5c-0.6-0.6-1.1-1.4-1.5-2.2c-0.4-0.9-0.5-1.8-0.5-2.8
		c0-1,0.2-2,0.5-2.8c0.3-0.9,0.8-1.6,1.5-2.2c0.6-0.6,1.4-1.1,2.3-1.4c0.9-0.3,1.9-0.5,3-0.5c0.6,0,1.1,0,1.6,0.1
		c0.5,0.1,1,0.2,1.4,0.4c0.4,0.2,0.8,0.4,1.2,0.6c0.4,0.2,0.7,0.5,0.9,0.7l-0.9,1.4c-0.1,0.1-0.2,0.2-0.3,0.3
		c-0.1,0.1-0.3,0.1-0.4,0.1c-0.2,0-0.4-0.1-0.6-0.2c-0.3-0.2-0.5-0.3-0.7-0.4c-0.2-0.1-0.4-0.2-0.7-0.3c-0.2-0.1-0.5-0.1-0.7-0.2
		c-0.3,0-0.5,0-0.9,0c-0.6,0-1.1,0.1-1.6,0.3c-0.5,0.2-0.9,0.5-1.2,0.9c-0.3,0.4-0.6,0.8-0.8,1.4s-0.3,1.1-0.3,1.8
		c0,0.7,0.1,1.4,0.3,1.9c0.2,0.6,0.5,1,0.8,1.4c0.4,0.4,0.8,0.7,1.3,0.9C72.1,137.8,72.7,138,73.2,138z"/>
	<path class="st6" d="M89,126.6v2.4h-5.6v3.2h4.3v2.3h-4.3v3.3H89v2.4h-8.8v-13.7H89z"/>
	<path class="st6" d="M103.2,133.4c0,1-0.2,1.9-0.5,2.7c-0.3,0.8-0.8,1.6-1.4,2.2c-0.6,0.6-1.4,1.1-2.2,1.4
		c-0.9,0.3-1.8,0.5-2.9,0.5h-5.3v-13.7h5.3c1.1,0,2,0.2,2.9,0.5c0.9,0.3,1.6,0.8,2.2,1.4c0.6,0.6,1.1,1.3,1.4,2.2
		C103,131.5,103.2,132.4,103.2,133.4z M100,133.4c0-0.7-0.1-1.3-0.3-1.8c-0.2-0.5-0.4-1-0.8-1.4s-0.7-0.7-1.2-0.9s-1-0.3-1.6-0.3H94
		v8.8h2.1c0.6,0,1.1-0.1,1.6-0.3c0.5-0.2,0.9-0.5,1.2-0.9c0.3-0.4,0.6-0.8,0.8-1.4S100,134.1,100,133.4z"/>
	<path class="st6" d="M121.1,140.2h-2.5c-0.3,0-0.5-0.1-0.7-0.2c-0.2-0.1-0.3-0.3-0.4-0.5l-0.8-2.4h-5.2l-0.8,2.4
		c-0.1,0.2-0.2,0.3-0.4,0.5c-0.2,0.1-0.4,0.2-0.7,0.2h-2.5l5.3-13.7h3.2L121.1,140.2z M112.3,135h3.7l-1.3-3.7
		c-0.1-0.2-0.2-0.5-0.3-0.8s-0.2-0.7-0.3-1c-0.1,0.4-0.2,0.7-0.3,1.1c-0.1,0.3-0.2,0.6-0.3,0.8L112.3,135z"/>
	<path class="st6" d="M125.4,135.7v4.6h-3.2v-13.7h4.8c1,0,1.8,0.1,2.5,0.3c0.7,0.2,1.3,0.5,1.7,0.9c0.4,0.4,0.8,0.9,1,1.4
		c0.2,0.5,0.3,1.1,0.3,1.8c0,0.7-0.1,1.3-0.3,1.9s-0.6,1.1-1,1.5s-1,0.7-1.7,1s-1.5,0.3-2.5,0.3H125.4z M125.4,133.3h1.7
		c0.8,0,1.4-0.2,1.8-0.6c0.4-0.4,0.5-0.9,0.5-1.7c0-0.3,0-0.6-0.1-0.9s-0.2-0.5-0.4-0.7s-0.4-0.3-0.7-0.4c-0.3-0.1-0.6-0.2-1-0.2
		h-1.7V133.3z"/>
	<path class="st6" d="M137.3,135.7v4.6h-3.2v-13.7h4.8c1,0,1.8,0.1,2.5,0.3c0.7,0.2,1.3,0.5,1.7,0.9c0.4,0.4,0.8,0.9,1,1.4
		c0.2,0.5,0.3,1.1,0.3,1.8c0,0.7-0.1,1.3-0.3,1.9s-0.6,1.1-1,1.5s-1,0.7-1.7,1s-1.5,0.3-2.5,0.3H137.3z M137.3,133.3h1.7
		c0.8,0,1.4-0.2,1.8-0.6c0.4-0.4,0.5-0.9,0.5-1.7c0-0.3,0-0.6-0.1-0.9s-0.2-0.5-0.4-0.7s-0.4-0.3-0.7-0.4c-0.3-0.1-0.6-0.2-1-0.2
		h-1.7V133.3z"/>
	<path class="st6" d="M149.3,137.7h5.1v2.5h-8.2v-13.7h3.2V137.7z"/>
	<path class="st6" d="M159.4,140.2h-3.2v-13.7h3.2V140.2z"/>
	<path class="st6" d="M171.1,136.7c0.1,0,0.2,0,0.2,0c0.1,0,0.1,0.1,0.2,0.1l1.3,1.3c-0.6,0.7-1.2,1.3-2.1,1.6
		c-0.8,0.4-1.8,0.6-2.9,0.6c-1,0-2-0.2-2.8-0.5s-1.5-0.8-2.1-1.5c-0.6-0.6-1-1.4-1.3-2.2c-0.3-0.9-0.5-1.8-0.5-2.8
		c0-1,0.2-2,0.5-2.8c0.4-0.9,0.8-1.6,1.5-2.2c0.6-0.6,1.4-1.1,2.3-1.4c0.9-0.3,1.8-0.5,2.9-0.5c0.5,0,1,0,1.5,0.1
		c0.5,0.1,0.9,0.2,1.3,0.4s0.8,0.4,1.1,0.6c0.3,0.2,0.6,0.5,0.9,0.7l-1.1,1.4c-0.1,0.1-0.2,0.2-0.2,0.2s-0.2,0.1-0.4,0.1
		c-0.1,0-0.2,0-0.3-0.1c-0.1-0.1-0.2-0.1-0.3-0.2c-0.1-0.1-0.2-0.2-0.4-0.2s-0.3-0.2-0.5-0.2c-0.2-0.1-0.4-0.1-0.6-0.2
		s-0.5-0.1-0.9-0.1c-0.6,0-1.1,0.1-1.6,0.3s-0.9,0.5-1.2,0.9c-0.3,0.4-0.6,0.8-0.8,1.4s-0.3,1.1-0.3,1.8c0,0.7,0.1,1.3,0.3,1.9
		s0.5,1,0.8,1.4c0.3,0.4,0.7,0.7,1.2,0.8s0.9,0.3,1.4,0.3c0.3,0,0.6,0,0.8,0c0.2,0,0.5-0.1,0.7-0.1s0.4-0.2,0.6-0.3s0.4-0.2,0.6-0.4
		c0.1-0.1,0.2-0.1,0.2-0.2C170.9,136.7,171,136.7,171.1,136.7z"/>
	<path class="st6" d="M187,140.2h-2.5c-0.3,0-0.5-0.1-0.7-0.2c-0.2-0.1-0.3-0.3-0.4-0.5l-0.8-2.4h-5.2l-0.8,2.4
		c-0.1,0.2-0.2,0.3-0.4,0.5c-0.2,0.1-0.4,0.2-0.7,0.2h-2.5l5.3-13.7h3.2L187,140.2z M178.2,135h3.7l-1.3-3.7
		c-0.1-0.2-0.2-0.5-0.3-0.8s-0.2-0.7-0.3-1c-0.1,0.4-0.2,0.7-0.3,1.1c-0.1,0.3-0.2,0.6-0.3,0.8L178.2,135z"/>
	<path class="st6" d="M196.5,126.6v2.5h-3.9v11.2h-3.2v-11.2h-3.8v-2.5H196.5z"/>
	<path class="st6" d="M201.3,140.2h-3.2v-13.7h3.2V140.2z"/>
	<path class="st6" d="M217.3,133.4c0,1-0.2,1.9-0.5,2.8c-0.3,0.9-0.8,1.6-1.4,2.2c-0.6,0.6-1.4,1.1-2.2,1.5
		c-0.9,0.4-1.8,0.5-2.9,0.5s-2-0.2-2.9-0.5c-0.9-0.4-1.6-0.8-2.2-1.5c-0.6-0.6-1.1-1.4-1.4-2.2c-0.3-0.8-0.5-1.8-0.5-2.8
		s0.2-1.9,0.5-2.8c0.3-0.8,0.8-1.6,1.4-2.2c0.6-0.6,1.4-1.1,2.2-1.5c0.9-0.4,1.8-0.5,2.9-0.5s2,0.2,2.9,0.5c0.9,0.4,1.6,0.9,2.2,1.5
		c0.6,0.6,1.1,1.4,1.4,2.2C217.2,131.5,217.3,132.4,217.3,133.4z M214.1,133.4c0-0.7-0.1-1.3-0.3-1.8c-0.2-0.5-0.4-1-0.8-1.4
		c-0.3-0.4-0.7-0.7-1.2-0.9c-0.5-0.2-1-0.3-1.6-0.3c-0.6,0-1.2,0.1-1.6,0.3c-0.5,0.2-0.9,0.5-1.2,0.9c-0.3,0.4-0.6,0.8-0.8,1.4
		c-0.2,0.5-0.3,1.2-0.3,1.8c0,0.7,0.1,1.3,0.3,1.8c0.2,0.5,0.4,1,0.8,1.4s0.7,0.7,1.2,0.9c0.5,0.2,1,0.3,1.6,0.3
		c0.6,0,1.1-0.1,1.6-0.3c0.5-0.2,0.9-0.5,1.2-0.9c0.3-0.4,0.6-0.8,0.8-1.4C214,134.7,214.1,134.1,214.1,133.4z"/>
	<path class="st6" d="M220.9,126.6c0.1,0,0.2,0,0.3,0.1c0.1,0,0.1,0.1,0.2,0.1c0.1,0.1,0.1,0.1,0.2,0.3l6.5,8.2c0-0.3,0-0.5-0.1-0.8
		c0-0.2,0-0.5,0-0.7v-7.2h2.8v13.7h-1.7c-0.2,0-0.5,0-0.6-0.1c-0.2-0.1-0.3-0.2-0.5-0.4l-6.5-8.2c0,0.2,0,0.5,0,0.7s0,0.4,0,0.6v7.3
		h-2.8v-13.7h1.7C220.7,126.6,220.8,126.6,220.9,126.6z"/>
	<path class="st6" d="M244.3,129.3c-0.1,0.2-0.2,0.3-0.3,0.3c-0.1,0.1-0.2,0.1-0.4,0.1c-0.1,0-0.3,0-0.5-0.1
		c-0.2-0.1-0.4-0.2-0.6-0.3s-0.4-0.2-0.7-0.3c-0.3-0.1-0.6-0.1-0.9-0.1c-0.6,0-1,0.1-1.3,0.4c-0.3,0.3-0.4,0.6-0.4,1
		c0,0.3,0.1,0.5,0.3,0.7c0.2,0.2,0.4,0.3,0.7,0.5c0.3,0.1,0.6,0.3,1,0.4c0.4,0.1,0.7,0.2,1.1,0.4s0.8,0.3,1.1,0.5s0.7,0.4,1,0.7
		c0.3,0.3,0.5,0.6,0.7,1c0.2,0.4,0.3,0.9,0.3,1.5c0,0.6-0.1,1.2-0.3,1.8c-0.2,0.6-0.5,1-1,1.4c-0.4,0.4-0.9,0.7-1.5,1
		c-0.6,0.2-1.3,0.4-2.1,0.4c-0.4,0-0.9,0-1.3-0.1c-0.4-0.1-0.9-0.2-1.3-0.4c-0.4-0.2-0.8-0.3-1.2-0.6c-0.4-0.2-0.7-0.5-0.9-0.7
		l0.9-1.5c0.1-0.1,0.2-0.2,0.3-0.3c0.1-0.1,0.3-0.1,0.4-0.1c0.2,0,0.4,0.1,0.6,0.2c0.2,0.1,0.4,0.3,0.6,0.4c0.2,0.1,0.5,0.3,0.8,0.4
		c0.3,0.1,0.7,0.2,1.1,0.2c0.6,0,1-0.1,1.3-0.4c0.3-0.3,0.5-0.7,0.5-1.2c0-0.3-0.1-0.6-0.3-0.8c-0.2-0.2-0.4-0.4-0.7-0.5
		c-0.3-0.1-0.6-0.2-1-0.3c-0.4-0.1-0.7-0.2-1.1-0.3c-0.4-0.1-0.8-0.3-1.1-0.4c-0.4-0.2-0.7-0.4-1-0.7c-0.3-0.3-0.5-0.7-0.7-1.1
		c-0.2-0.4-0.3-1-0.3-1.6c0-0.5,0.1-1,0.3-1.5c0.2-0.5,0.5-0.9,0.9-1.3c0.4-0.4,0.9-0.7,1.5-0.9c0.6-0.2,1.2-0.3,2-0.3
		c0.4,0,0.8,0,1.2,0.1c0.4,0.1,0.8,0.2,1.1,0.3c0.4,0.1,0.7,0.3,1,0.5s0.6,0.4,0.8,0.6L244.3,129.3z"/>
	<path class="st6" d="M255.7,126.6v2.4h-5.6v3.2h4.3v2.3h-4.3v3.3h5.6v2.4h-8.8v-13.7H255.7z"/>
	<path class="st6" d="M260.6,135.2v5.1h-3.2v-13.7h4.5c1,0,1.8,0.1,2.5,0.3c0.7,0.2,1.3,0.5,1.7,0.8s0.8,0.8,1,1.3s0.3,1,0.3,1.6
		c0,0.4-0.1,0.9-0.2,1.3s-0.3,0.8-0.5,1.1c-0.2,0.3-0.5,0.6-0.9,0.9c-0.3,0.3-0.7,0.5-1.2,0.6c0.2,0.1,0.4,0.2,0.6,0.4
		s0.3,0.3,0.5,0.6l2.9,4.8h-2.9c-0.5,0-0.9-0.2-1.1-0.6l-2.3-4c-0.1-0.2-0.2-0.3-0.4-0.4c-0.1-0.1-0.3-0.1-0.6-0.1H260.6z
		 M260.6,133h1.3c0.4,0,0.8-0.1,1.1-0.2s0.6-0.3,0.7-0.5c0.2-0.2,0.3-0.4,0.4-0.7s0.1-0.5,0.1-0.8c0-0.6-0.2-1.1-0.6-1.4
		c-0.4-0.3-1-0.5-1.8-0.5h-1.3V133z"/>
	<path class="st6" d="M268.8,126.6h2.6c0.3,0,0.5,0.1,0.7,0.2c0.2,0.1,0.3,0.3,0.4,0.5l2.6,7.3c0.1,0.3,0.2,0.7,0.4,1
		c0.1,0.4,0.2,0.8,0.3,1.2c0.1-0.4,0.2-0.8,0.3-1.2c0.1-0.4,0.2-0.7,0.3-1l2.6-7.3c0.1-0.2,0.2-0.3,0.4-0.5s0.4-0.2,0.7-0.2h2.6
		l-5.5,13.7h-2.9L268.8,126.6z"/>
	<path class="st6" d="M287.3,140.2h-3.2v-13.7h3.2V140.2z"/>
	<path class="st6" d="M299,136.7c0.1,0,0.2,0,0.2,0c0.1,0,0.1,0.1,0.2,0.1l1.3,1.3c-0.6,0.7-1.2,1.3-2.1,1.6
		c-0.8,0.4-1.8,0.6-2.9,0.6c-1,0-2-0.2-2.8-0.5s-1.5-0.8-2.1-1.5s-1-1.4-1.3-2.2c-0.3-0.9-0.5-1.8-0.5-2.8c0-1,0.2-2,0.5-2.8
		c0.4-0.9,0.8-1.6,1.5-2.2s1.4-1.1,2.3-1.4c0.9-0.3,1.8-0.5,2.9-0.5c0.5,0,1,0,1.5,0.1c0.5,0.1,0.9,0.2,1.3,0.4s0.8,0.4,1.1,0.6
		c0.3,0.2,0.6,0.5,0.9,0.7l-1.1,1.4c-0.1,0.1-0.2,0.2-0.2,0.2s-0.2,0.1-0.4,0.1c-0.1,0-0.2,0-0.3-0.1c-0.1-0.1-0.2-0.1-0.3-0.2
		c-0.1-0.1-0.2-0.2-0.4-0.2s-0.3-0.2-0.5-0.2c-0.2-0.1-0.4-0.1-0.6-0.2s-0.5-0.1-0.9-0.1c-0.6,0-1.1,0.1-1.6,0.3s-0.9,0.5-1.2,0.9
		c-0.3,0.4-0.6,0.8-0.8,1.4s-0.3,1.1-0.3,1.8c0,0.7,0.1,1.3,0.3,1.9s0.5,1,0.8,1.4c0.3,0.4,0.7,0.7,1.2,0.8s0.9,0.3,1.4,0.3
		c0.3,0,0.6,0,0.8,0c0.2,0,0.5-0.1,0.7-0.1s0.4-0.2,0.6-0.3s0.4-0.2,0.6-0.4c0.1-0.1,0.2-0.1,0.2-0.2
		C298.8,136.7,298.9,136.7,299,136.7z"/>
	<path class="st6" d="M311,126.6v2.4h-5.6v3.2h4.3v2.3h-4.3v3.3h5.6v2.4h-8.8v-13.7H311z"/>
	<path class="st6" d="M320.4,129.3c-0.1,0.2-0.2,0.3-0.3,0.3c-0.1,0.1-0.2,0.1-0.4,0.1c-0.1,0-0.3,0-0.5-0.1
		c-0.2-0.1-0.4-0.2-0.6-0.3c-0.2-0.1-0.4-0.2-0.7-0.3c-0.3-0.1-0.6-0.1-0.9-0.1c-0.6,0-1,0.1-1.3,0.4c-0.3,0.3-0.4,0.6-0.4,1
		c0,0.3,0.1,0.5,0.3,0.7c0.2,0.2,0.4,0.3,0.7,0.5c0.3,0.1,0.6,0.3,1,0.4c0.4,0.1,0.7,0.2,1.1,0.4s0.8,0.3,1.1,0.5s0.7,0.4,1,0.7
		c0.3,0.3,0.5,0.6,0.7,1c0.2,0.4,0.3,0.9,0.3,1.5c0,0.6-0.1,1.2-0.3,1.8c-0.2,0.6-0.5,1-1,1.4s-0.9,0.7-1.5,1
		c-0.6,0.2-1.3,0.4-2.1,0.4c-0.4,0-0.9,0-1.3-0.1c-0.4-0.1-0.9-0.2-1.3-0.4c-0.4-0.2-0.8-0.3-1.2-0.6c-0.4-0.2-0.7-0.5-0.9-0.7
		l0.9-1.5c0.1-0.1,0.2-0.2,0.3-0.3c0.1-0.1,0.3-0.1,0.4-0.1c0.2,0,0.4,0.1,0.6,0.2c0.2,0.1,0.4,0.3,0.6,0.4s0.5,0.3,0.8,0.4
		s0.7,0.2,1.1,0.2c0.6,0,1-0.1,1.3-0.4c0.3-0.3,0.5-0.7,0.5-1.2c0-0.3-0.1-0.6-0.3-0.8c-0.2-0.2-0.4-0.4-0.7-0.5s-0.6-0.2-1-0.3
		s-0.7-0.2-1.1-0.3c-0.4-0.1-0.8-0.3-1.1-0.4c-0.4-0.2-0.7-0.4-1-0.7c-0.3-0.3-0.5-0.7-0.7-1.1c-0.2-0.4-0.3-1-0.3-1.6
		c0-0.5,0.1-1,0.3-1.5c0.2-0.5,0.5-0.9,0.9-1.3c0.4-0.4,0.9-0.7,1.5-0.9s1.2-0.3,2-0.3c0.4,0,0.8,0,1.2,0.1c0.4,0.1,0.8,0.2,1.1,0.3
		c0.4,0.1,0.7,0.3,1,0.5c0.3,0.2,0.6,0.4,0.8,0.6L320.4,129.3z"/>
</g>
</svg>
