<?xml version="1.0" encoding="utf-8"?>
<!-- Generator: Adobe Illustrator 23.0.2, SVG Export Plug-In . SVG Version: 6.00 Build 0)  -->
<svg version="1.1" id="Layer_1" xmlns="http://www.w3.org/2000/svg" xmlns:xlink="http://www.w3.org/1999/xlink" x="0px" y="0px"
	 width="337.6px" height="147.2px" viewBox="0 0 337.6 147.2" style="enable-background:new 0 0 337.6 147.2;" xml:space="preserve"
	>
<style type="text/css">
	.st0{fill-rule:evenodd;clip-rule:evenodd;fill:#1295B9;}
	.st1{fill-rule:evenodd;clip-rule:evenodd;fill:#16467A;}
	.st2{enable-background:new    ;}
	.st3{fill:#FFFFFF;}
	.st4{fill:#1295B9;}
</style>
<path class="st0" d="M197.4,24.7c4.7,0,8.5-3.8,8.5-8.5s-3.8-8.5-8.5-8.5s-8.5,3.8-8.5,8.5S192.7,24.7,197.4,24.7z"/>
<path class="st1" d="M255.1,37.6c-4.5-5-10.7-7.4-18.8-7.4c0,0,0,0-0.1,0c-7.6,0-13.8,2.6-18.5,7.7s-7,11.8-7,19.9
	c0,8.4,2.3,15.2,6.7,20.2c4.5,5.1,10.7,7.6,18.8,7.7c0.1,0,0.1,0,0.1,0c7.9,0,14.1-2.6,18.6-7.6c4.6-5,6.9-11.8,6.9-20.3
	C261.8,49.2,259.6,42.5,255.1,37.6z M245.5,70.9c-2.3,3-5.3,4.5-9.2,4.5c0,0,0,0-0.1,0c-8.4,0-12.6-5.8-12.6-17.5
	c0-5.4,1.1-9.6,3.4-12.7c2.3-3,5.3-4.5,9.1-4.5c0.1,0,0.1,0,0.1,0c8.4,0,12.6,5.8,12.6,17.2C248.9,63.5,247.8,67.8,245.5,70.9z"/>
<path class="st1" d="M205.5,30h-19.2c0,0,0,0-0.1,0c0,0,0,0-0.1,0l0,0l0,0c-2,0.1-3.5,2.4-3.5,5.3c0,2.9,1.6,5.3,3.6,5.3l0,0h6.8v41
	l0,0l0,0l0,0l0,0c0.1,2.1,2.8,3.7,6.2,3.7s6.2-1.7,6.2-3.7l0,0L205.5,30z"/>
<path class="st0" d="M322,66.3c-1.1,3.1-4.5,4.7-7.5,3.6l-43.2-15.3c-3.1-1.1-4.7-4.5-3.6-7.5L282.9,4c1.1-3.1,4.5-4.7,7.5-3.6
	l43.2,15.3c3.1,1.1,4.7,4.5,3.6,7.5L322,66.3z"/>
<path class="st1" d="M159,30.4C158.9,30.4,158.9,30.4,159,30.4h-47c-9.2,0.3-17.8,5-17.8,15.1c0,8.4,4.8,12.4,11.1,15.6
	c4.3,2.2,8.4,2.8,9.9,6.1c1.5,3.2,0.4,8-5.2,8.3H94.2c-4.5,0-6.6-1.2-6.6-6.3V57c0-10.3-1.8-17.3-5.6-21c-3.6-3.5-8.9-5.5-16.3-5.7
	l0,0h-9.2l0,0l0,0c-2,0-3.6,2.4-3.6,5.3c0,2.9,1.6,5.3,3.6,5.3l0,0l0,0h6.9c0.7,0,1.5,0,2.2,0.1l0,0c6.4,0.6,9.6,3.7,9.6,9.4
	c-2-0.5-3.7-0.8-5.2-0.8s-3,0.1-4.5,0.2c-6.4,0.5-11.4,2.2-15.2,5c-4.6,3.4-6.9,8.3-6.9,14.5c0,1,0.1,2,0.2,2.9
	c-3,3.1-6,3.2-14.7,3.2C18.3,75.4,13,69.8,13,58.6c0-5.6,1.4-9.9,4.1-13s6.4-4.7,10.2-4.6h14.8l0,0l0,0h0.1l0,0
	c1.8-0.1,3.2-2.5,3.2-5.3c0-2.9-1.4-5.2-3.2-5.3l0,0h-0.1l0,0l0,0H28c-7.9-0.1-15,2.8-20.1,8C2.6,43.4,0,50.2,0,58.6
	c0,8.5,2.4,15.2,7.2,20c4.7,4.7,11.2,7,19.4,7.2c11.1,0.2,15.3-0.4,21.5-4.5c0.1,0.1,0.1,0.1,0.2,0.1c3.2,2.9,7.7,4.3,13.4,4.3
	c1.1,0,2.4-0.1,3.7-0.2c2.3-0.2,4.8-0.7,6.6-1.5c2.8-1.2,5.6-2.9,6.7-4.8c1.5,2.6,4.5,6.5,11.3,6.5h20.8c4.5-0.4,8.3-1.8,11-3.4
	c3.9-2.4,6.9-7.5,6.9-12.5c0-8.4-4.9-11.7-11.2-14.8c-4.3-2.2-7.7-3-9.9-6.1c-2.3-3-0.7-7.7,4.9-7.9l21.8,0.1l-0.1,64.7l0,0l0,0
	c0,2.2,2.8,4,6.3,4s6.3-1.8,6.3-4l0,0l0,0V83.4c3.2,1.6,6.7,2.3,10.7,2.3h1.3c7.4-0.2,13.4-2.6,17.8-7c4.7-4.8,7-11.5,7-20.2
	C183.7,39.9,175.8,30.4,159,30.4z M75.2,64.6c0,7-3.2,10.5-9.7,11c-0.4,0.1-0.9,0.1-1.4,0.1c-5.5,0-8.3-2.2-8.3-6.9
	c0-5.3,3.3-8.4,9.7-9.4c1.5-0.2,3.1-0.4,5-0.4c1.1,0,2.6,0.2,4.7,0.7V64.6z M167.1,71.1c-1.8,2-4.5,3.4-8.1,3.9
	c-1.2,0.1-2.6,0.2-4.1,0.2c-3,0-5.6-0.9-7.9-2.7V41.1l7.9-0.1c1.5,0,2.9,0,4.1,0.1c3.8,0.5,6.3,1.8,8.2,3.7
	c2.5,2.6,3.7,6.9,3.7,13.3C170.9,64.1,169.6,68.4,167.1,71.1z"/>
<g class="st2">
	<path class="st3" d="M305.5,56.9h-6c-0.7,0-1.2-0.2-1.7-0.5c-0.4-0.3-0.7-0.7-0.9-1.2l-2-5.9h-12.8l-2,5.9
		c-0.2,0.4-0.5,0.8-0.9,1.2s-1,0.5-1.6,0.5h-6.1l13-33.6h8L305.5,56.9z M283.9,44.1h9.2l-3.1-9.2c-0.2-0.6-0.4-1.3-0.7-2.1
		c-0.3-0.8-0.5-1.6-0.8-2.6c-0.2,0.9-0.5,1.8-0.8,2.6c-0.3,0.8-0.5,1.5-0.7,2.1L283.9,44.1z"/>
	<path class="st3" d="M316,45.7v11.2h-7.8V23.3h11.8c2.4,0,4.4,0.3,6.1,0.8s3.1,1.3,4.2,2.3s1.9,2.1,2.4,3.5
		c0.5,1.3,0.8,2.8,0.8,4.3c0,1.7-0.3,3.2-0.8,4.6s-1.4,2.6-2.5,3.6c-1.1,1-2.5,1.8-4.2,2.3c-1.7,0.6-3.7,0.8-6,0.8H316z M316,39.8
		h4.1c2,0,3.5-0.5,4.4-1.5c0.9-1,1.3-2.3,1.3-4.1c0-0.8-0.1-1.5-0.3-2.1s-0.6-1.2-1-1.6c-0.5-0.5-1.1-0.8-1.8-1
		c-0.7-0.2-1.6-0.4-2.5-0.4H316V39.8z"/>
</g>
<g class="st2">
	<path class="st4" d="M69.7,143.9h-2.5c-0.3,0-0.5-0.1-0.7-0.2c-0.2-0.1-0.3-0.3-0.4-0.5l-0.8-2.4h-5.2l-0.8,2.4
		c-0.1,0.2-0.2,0.3-0.4,0.5c-0.2,0.1-0.4,0.2-0.7,0.2h-2.5l5.3-13.7h3.2L69.7,143.9z M60.9,138.6h3.7l-1.3-3.7
		c-0.1-0.2-0.2-0.5-0.3-0.8s-0.2-0.7-0.3-1c-0.1,0.4-0.2,0.7-0.3,1.1c-0.1,0.3-0.2,0.6-0.3,0.8L60.9,138.6z"/>
	<path class="st4" d="M73.9,139.3v4.6h-3.2v-13.7h4.8c1,0,1.8,0.1,2.5,0.3s1.3,0.5,1.7,0.9c0.4,0.4,0.8,0.9,1,1.4s0.3,1.1,0.3,1.8
		s-0.1,1.3-0.3,1.9s-0.6,1.1-1,1.5s-1,0.7-1.7,1s-1.5,0.3-2.5,0.3H73.9z M73.9,136.9h1.7c0.8,0,1.4-0.2,1.8-0.6
		c0.4-0.4,0.5-0.9,0.5-1.7c0-0.3,0-0.6-0.1-0.9s-0.2-0.5-0.4-0.7s-0.4-0.3-0.7-0.4c-0.3-0.1-0.6-0.2-1-0.2H74v4.5H73.9z"/>
	<path class="st4" d="M85.9,139.3v4.6h-3.2v-13.7h4.8c1,0,1.8,0.1,2.5,0.3s1.3,0.5,1.7,0.9c0.4,0.4,0.8,0.9,1,1.4s0.3,1.1,0.3,1.8
		s-0.1,1.3-0.3,1.9s-0.6,1.1-1,1.5s-1,0.7-1.7,1s-1.5,0.3-2.5,0.3H85.9z M85.9,136.9h1.7c0.8,0,1.4-0.2,1.8-0.6
		c0.4-0.4,0.5-0.9,0.5-1.7c0-0.3,0-0.6-0.1-0.9s-0.2-0.5-0.4-0.7s-0.4-0.3-0.7-0.4c-0.3-0.1-0.6-0.2-1-0.2H86v4.5H85.9z"/>
	<path class="st4" d="M97.9,141.3h5.1v2.5h-8.2v-13.7H98L97.9,141.3L97.9,141.3z"/>
	<path class="st4" d="M108,143.9h-3.2v-13.7h3.2V143.9z"/>
	<path class="st4" d="M119.7,140.3c0.1,0,0.1,0,0.2,0s0.1,0.1,0.2,0.1l1.3,1.3c-0.6,0.7-1.2,1.3-2.1,1.6c-0.8,0.4-1.8,0.6-2.9,0.6
		c-1,0-2-0.2-2.8-0.5s-1.5-0.8-2.1-1.5c-0.6-0.6-1-1.4-1.3-2.2c-0.3-0.9-0.5-1.8-0.5-2.8s0.2-2,0.5-2.8c0.4-0.9,0.8-1.6,1.5-2.2
		c0.6-0.6,1.4-1.1,2.3-1.4c0.9-0.3,1.8-0.5,2.9-0.5c0.5,0,1,0,1.5,0.1s0.9,0.2,1.3,0.4s0.8,0.4,1.1,0.6c0.3,0.2,0.6,0.5,0.9,0.7
		l-1.1,1.4c-0.1,0.1-0.2,0.2-0.2,0.2s-0.2,0.1-0.4,0.1c-0.1,0-0.2,0-0.3-0.1c-0.1-0.1-0.2-0.1-0.3-0.2s-0.2-0.2-0.4-0.2
		s-0.3-0.2-0.5-0.2c-0.2-0.1-0.4-0.1-0.6-0.2c-0.2-0.1-0.5-0.1-0.9-0.1c-0.6,0-1.1,0.1-1.6,0.3s-0.9,0.5-1.2,0.9s-0.6,0.8-0.8,1.4
		c-0.2,0.5-0.3,1.1-0.3,1.8s0.1,1.3,0.3,1.9c0.2,0.5,0.5,1,0.8,1.4s0.7,0.7,1.2,0.8c0.4,0.2,0.9,0.3,1.4,0.3c0.3,0,0.6,0,0.8,0
		c0.2,0,0.5-0.1,0.7-0.1c0.2-0.1,0.4-0.2,0.6-0.3s0.4-0.2,0.6-0.4C119.6,140.4,119.7,140.4,119.7,140.3
		C119.5,140.4,119.6,140.3,119.7,140.3z"/>
	<path class="st4" d="M135.6,143.9h-2.5c-0.3,0-0.5-0.1-0.7-0.2c-0.2-0.1-0.3-0.3-0.4-0.5l-0.8-2.4H126l-0.8,2.4
		c-0.1,0.2-0.2,0.3-0.4,0.5c-0.2,0.1-0.4,0.2-0.7,0.2h-2.5l5.3-13.7h3.2L135.6,143.9z M126.8,138.6h3.7l-1.3-3.7
		c-0.1-0.2-0.2-0.5-0.3-0.8s-0.2-0.7-0.3-1c-0.1,0.4-0.2,0.7-0.3,1.1c-0.1,0.3-0.2,0.6-0.3,0.8L126.8,138.6z"/>
	<path class="st4" d="M145.1,130.2v2.5h-3.9v11.2H138v-11.2h-3.8v-2.5H145.1z"/>
	<path class="st4" d="M149.9,143.9h-3.2v-13.7h3.2V143.9z"/>
	<path class="st4" d="M165.9,137c0,1-0.2,1.9-0.5,2.8c-0.3,0.9-0.8,1.6-1.4,2.2c-0.6,0.6-1.4,1.1-2.2,1.5c-0.9,0.4-1.8,0.5-2.9,0.5
		c-1.1,0-2-0.2-2.9-0.5c-0.9-0.4-1.6-0.8-2.2-1.5c-0.6-0.6-1.1-1.4-1.4-2.2c-0.3-0.8-0.5-1.8-0.5-2.8s0.2-1.9,0.5-2.8
		c0.3-0.8,0.8-1.6,1.4-2.2c0.6-0.6,1.4-1.1,2.2-1.5c0.9-0.4,1.8-0.5,2.9-0.5c1.1,0,2,0.2,2.9,0.5c0.9,0.4,1.6,0.9,2.2,1.5
		c0.6,0.6,1.1,1.4,1.4,2.2S165.9,136,165.9,137z M162.7,137c0-0.7-0.1-1.3-0.3-1.8s-0.4-1-0.8-1.4c-0.3-0.4-0.7-0.7-1.2-0.9
		s-1-0.3-1.6-0.3s-1.2,0.1-1.6,0.3c-0.5,0.2-0.9,0.5-1.2,0.9s-0.6,0.8-0.8,1.4s-0.3,1.2-0.3,1.8c0,0.7,0.1,1.3,0.3,1.8
		s0.4,1,0.8,1.4c0.3,0.4,0.7,0.7,1.2,0.9s1,0.3,1.6,0.3s1.1-0.1,1.6-0.3s0.9-0.5,1.2-0.9s0.6-0.8,0.8-1.4S162.7,137.7,162.7,137z"/>
	<path class="st4" d="M169.5,130.2c0.1,0,0.2,0,0.3,0.1c0.1,0,0.1,0.1,0.2,0.1c0.1,0.1,0.1,0.1,0.2,0.3l6.5,8.2c0-0.3,0-0.5-0.1-0.8
		s0-0.5,0-0.7v-7.2h2.8v13.7h-1.7c-0.2,0-0.5,0-0.6-0.1c-0.2-0.1-0.3-0.2-0.5-0.4l-6.5-8.2c0,0.2,0,0.5,0,0.7s0,0.4,0,0.6v7.3h-2.8
		v-13.7h1.7C169.3,130.2,169.4,130.2,169.5,130.2z"/>
	<path class="st4" d="M188.4,139.3v4.6h-3.2v-13.7h4.8c1,0,1.8,0.1,2.5,0.3s1.3,0.5,1.7,0.9s0.8,0.9,1,1.4s0.3,1.1,0.3,1.8
		s-0.1,1.3-0.3,1.9c-0.2,0.6-0.6,1.1-1,1.5c-0.5,0.4-1,0.7-1.7,1c-0.7,0.2-1.5,0.3-2.5,0.3H188.4z M188.4,136.9h1.7
		c0.8,0,1.4-0.2,1.8-0.6c0.4-0.4,0.5-0.9,0.5-1.7c0-0.3,0-0.6-0.1-0.9s-0.2-0.5-0.4-0.7s-0.4-0.3-0.7-0.4c-0.3-0.1-0.6-0.2-1-0.2
		h-1.7v4.5H188.4z"/>
	<path class="st4" d="M200.4,141.3h5.1v2.5h-8.2v-13.7h3.2v11.2H200.4z"/>
	<path class="st4" d="M219.7,143.9h-2.5c-0.3,0-0.5-0.1-0.7-0.2c-0.2-0.1-0.3-0.3-0.4-0.5l-0.8-2.4h-5.2l-0.8,2.4
		c-0.1,0.2-0.2,0.3-0.4,0.5c-0.2,0.1-0.4,0.2-0.7,0.2h-2.5l5.3-13.7h3.2L219.7,143.9z M210.9,138.6h3.7l-1.3-3.7
		c-0.1-0.2-0.2-0.5-0.3-0.8s-0.2-0.7-0.3-1c-0.1,0.4-0.2,0.7-0.3,1.1c-0.1,0.3-0.2,0.6-0.3,0.8L210.9,138.6z"/>
	<path class="st4" d="M229.3,130.2v2.5h-3.8v11.2h-3.2v-11.2h-3.8v-2.5H229.3z"/>
	<path class="st4" d="M239.4,130.2v2.4h-5.6v3.5h4.7v2.5h-4.7v5.3h-3.2v-13.7H239.4z"/>
	<path class="st4" d="M254.5,137c0,1-0.2,1.9-0.5,2.8c-0.3,0.9-0.8,1.6-1.4,2.2c-0.6,0.6-1.4,1.1-2.2,1.5c-0.9,0.4-1.8,0.5-2.9,0.5
		s-2-0.2-2.9-0.5c-0.9-0.4-1.6-0.8-2.2-1.5c-0.6-0.6-1.1-1.4-1.4-2.2c-0.3-0.8-0.5-1.8-0.5-2.8s0.2-1.9,0.5-2.8
		c0.3-0.8,0.8-1.6,1.4-2.2c0.6-0.6,1.4-1.1,2.2-1.5c0.9-0.4,1.8-0.5,2.9-0.5s2,0.2,2.9,0.5c0.9,0.4,1.6,0.9,2.2,1.5
		c0.6,0.6,1.1,1.4,1.4,2.2C254.4,135.1,254.5,136,254.5,137z M251.3,137c0-0.7-0.1-1.3-0.3-1.8s-0.4-1-0.8-1.4
		c-0.3-0.4-0.7-0.7-1.2-0.9s-1-0.3-1.6-0.3s-1.2,0.1-1.6,0.3c-0.5,0.2-0.9,0.5-1.2,0.9s-0.6,0.8-0.8,1.4c-0.2,0.5-0.3,1.2-0.3,1.8
		c0,0.7,0.1,1.3,0.3,1.8s0.4,1,0.8,1.4s0.7,0.7,1.2,0.9s1,0.3,1.6,0.3s1.1-0.1,1.6-0.3s0.9-0.5,1.2-0.9s0.6-0.8,0.8-1.4
		C251.2,138.3,251.3,137.7,251.3,137z"/>
	<path class="st4" d="M259.2,138.8v5.1H256v-13.7h4.5c1,0,1.8,0.1,2.5,0.3s1.3,0.5,1.7,0.8s0.8,0.8,1,1.3s0.3,1,0.3,1.6
		c0,0.4-0.1,0.9-0.2,1.3s-0.3,0.8-0.5,1.1s-0.5,0.6-0.9,0.9c-0.3,0.3-0.7,0.5-1.2,0.6c0.2,0.1,0.4,0.2,0.6,0.4s0.3,0.3,0.5,0.6
		l2.9,4.8h-2.9c-0.5,0-0.9-0.2-1.1-0.6l-2.3-4c-0.1-0.2-0.2-0.3-0.4-0.4c-0.1-0.1-0.3-0.1-0.6-0.1L259.2,138.8L259.2,138.8z
		 M259.2,136.6h1.3c0.4,0,0.8-0.1,1.1-0.2s0.6-0.3,0.7-0.5c0.2-0.2,0.3-0.4,0.4-0.7s0.1-0.5,0.1-0.8c0-0.6-0.2-1.1-0.6-1.4
		c-0.4-0.3-1-0.5-1.8-0.5h-1.3L259.2,136.6L259.2,136.6z"/>
	<path class="st4" d="M275.9,138.4c0.1,0.3,0.2,0.5,0.3,0.8c0.1-0.3,0.2-0.5,0.3-0.8s0.2-0.5,0.4-0.8l3.5-6.9
		c0.1-0.1,0.1-0.2,0.2-0.3s0.1-0.1,0.2-0.1s0.2,0,0.3,0s0.2,0,0.4,0h2.4V144h-2.8v-8c0-0.4,0-0.8,0.1-1.2l-3.6,7
		c-0.1,0.2-0.3,0.4-0.5,0.5s-0.4,0.2-0.7,0.2H276c-0.2,0-0.5-0.1-0.7-0.2c-0.2-0.1-0.3-0.3-0.5-0.5l-3.6-7c0,0.2,0,0.4,0.1,0.7
		c0,0.2,0,0.4,0,0.6v7.9h-2.8v-13.7h2.4c0.1,0,0.3,0,0.4,0s0.2,0,0.3,0c0.1,0,0.2,0.1,0.2,0.1c0.1,0.1,0.1,0.2,0.2,0.3l3.5,6.9
		C275.7,137.9,275.8,138.1,275.9,138.4z"/>
</g>
</svg>
