<?xml version="1.0" encoding="utf-8"?>
<!-- Generator: Adobe Illustrator 23.0.2, SVG Export Plug-In . SVG Version: 6.00 Build 0)  -->
<svg version="1.1" id="Layer_1" xmlns="http://www.w3.org/2000/svg" xmlns:xlink="http://www.w3.org/1999/xlink" x="0px" y="0px"
	 viewBox="0 0 1900 635" style="enable-background:new 0 0 1900 635;" xml:space="preserve">
<path style="fill:#1195B9;" d="M1523,635c-502.17,0-1017.33,0-1519.5,0.09c-3.75,0-4.6-0.84-4.59-4.59
	c0.11-208.67,0.11-417.33,0-626c0-3.75,0.84-4.6,4.59-4.59C226.67,0.01,462.83,0,686,0c1.14,1.65,3.01,2.02,4.72,2.62
	c47.65,16.69,95.32,33.35,142.97,50.03c117.33,41.09,234.65,82.19,351.97,123.27c46.08,16.14,92.18,32.23,138.26,48.37
	c53,18.56,105.63,38.23,159.06,55.46c77.87,25.1,122.31,105.78,98.95,184.7c-8.98,30.32-20.56,59.87-30.94,89.78
	C1541.64,581.15,1532.33,608.08,1523,635z"/>
<path style="fill:#0974A1;" d="M741,0c381.83,0,773.67,0.01,1155.5-0.09c3.75,0,4.6,0.84,4.59,4.59c-0.11,208.67-0.11,420.33,0,629
	c0,3.75-0.84,4.6-4.59,4.59c-119.5-0.11-249-0.09-368.5-0.09c0.47-1.6,0.88-3.21,1.43-4.78c9.5-27.21,19.02-54.41,28.54-81.61
	c7.21-20.6,14.17-41.29,21.73-61.75c11.02-29.82,15.15-60.39,9.89-91.78c-7.75-46.22-30.3-83.76-67.76-112.19
	c-17.09-12.97-36.52-21.1-56.62-28.01c-30.72-10.56-61.39-21.28-92.04-32.02c-68.38-23.97-136.74-48-205.12-71.99
	c-38.83-13.62-77.66-27.22-116.49-40.82c-67.61-23.66-135.22-47.32-202.84-70.97C814.28,30.03,779.84,18.01,745.4,5.97
	C743.68,5.37,741.84,1.92,741,0z"/>
<path style="fill:#03648E;" d="M751,0c0.84,1.92,2.68,3.37,4.4,3.97c34.44,12.04,68.88,24.07,103.32,36.11
	c67.61,23.65,135.23,47.3,202.84,70.97c38.84,13.59,77.67,27.19,116.49,40.82c68.38,23.99,136.74,48.03,205.12,71.99
	c30.66,10.74,61.32,21.46,92.04,32.02c20.1,6.91,39.53,15.04,56.62,28.01c37.46,28.43,60.02,65.96,67.76,112.19
	c5.26,31.39,1.13,61.96-9.89,91.78c-7.57,20.47-14.52,41.16-21.73,61.75c-9.53,27.2-19.04,54.4-28.54,81.61
	c-0.55,1.57-0.96,3.19-1.43,4.78c-8.67,0-17.33,0-26,0c9.33-26.92,18.64-53.85,27.98-80.77c10.38-29.91,21.97-59.46,30.94-89.78
	c23.37-78.92-21.08-159.6-98.95-184.7c-53.43-17.22-106.06-36.9-159.06-55.46c-46.08-16.14-92.18-32.23-138.26-48.37
	c-117.33-41.08-234.65-82.19-351.97-123.27C775.03,36.96,727.37,20.3,679.72,3.62c-1.71-0.6-3.57-1.97-4.72-3.62
	c24.33,0,48.67,0,73,0c0.33,0,0.67,0,1,0C749.67,0,750.33,0,751,0z"/>
</svg>
