<?xml version="1.0" encoding="utf-8"?>
<!-- Generator: Adobe Illustrator 23.0.2, SVG Export Plug-In . SVG Version: 6.00 Build 0)  -->
<svg version="1.1" id="Layer_1" xmlns="http://www.w3.org/2000/svg" xmlns:xlink="http://www.w3.org/1999/xlink" x="0px" y="0px"
	 viewBox="0 0 1902.19 786.19" style="enable-background:new 0 0 1902.19 786.19;" xml:space="preserve">
<path style="fill:#1D628E;" d="M1484.09,786.09c-502.17,0-977.33,0-1479.5,0.09c-3.75,0-4.6-0.84-4.59-4.59
	c0.11-208.67,0.11-568.33,0-777C0,0.84,0.84,0,4.59,0c223.17,0.1,459.33,0.09,682.5,0.09c1.14,1.65,3.01,2.02,4.72,2.62
	c47.65,16.69,95.32,33.35,142.97,50.03c117.33,41.09,234.65,82.19,351.97,123.27c46.08,16.14,92.18,32.23,138.26,48.37
	c53,18.56,105.63,38.23,159.06,55.46c77.87,25.1,162.31,105.78,138.95,184.7c-8.98,30.32-20.56,59.87-30.94,89.78
	C1582.73,581.24,1493.42,759.17,1484.09,786.09z"/>
<path style="fill:#1295B9;" d="M742.09,0.09c381.83,0,773.67,0.01,1155.5-0.09c3.75,0,4.6,0.84,4.59,4.59
	c-0.11,208.67-0.11,568.33,0,777c0,3.75-0.84,4.6-4.59,4.59c-119.5-0.11-269-0.09-388.5-0.09c0.47-1.6,0.88-3.21,1.43-4.78
	c9.5-27.21,69.02-202.41,78.54-229.61c7.21-20.6,14.17-41.29,21.73-61.75c11.02-29.82,15.15-60.39,9.89-91.78
	c-7.75-46.22-60.3-83.76-97.76-112.19c-17.09-12.97-36.52-21.1-56.62-28.01c-30.72-10.56-61.39-21.28-92.04-32.02
	c-68.38-23.97-136.74-48-205.12-71.99c-38.83-13.62-77.66-27.22-116.49-40.82c-67.61-23.66-135.22-47.32-202.84-70.97
	C815.38,30.13,780.93,18.1,746.49,6.06C744.77,5.46,742.93,2.02,742.09,0.09z"/>
<path style="fill:#027FAA;" d="M752.09,0.09c0.84,1.92,2.68,3.37,4.4,3.97c34.44,12.04,68.88,24.07,103.32,36.11
	c67.61,23.65,135.23,47.3,202.84,70.97c38.84,13.59,77.67,27.19,116.49,40.82c68.38,23.99,136.74,48.03,205.12,71.99
	c30.66,10.74,61.32,21.46,92.04,32.02c20.1,6.91,82.69,32.15,99.78,45.12c37.46,28.43,53.25,59.78,61,106
	c5.26,31.39-5.98,78.18-17,108c-7.57,20.47-16.79,45.4-24,66c-9.53,27.2-79.53,203.4-80,205c-8.67,0-27.33,0-36,0
	c9.33-26.92,76.66-179.08,86-206c10.38-29.91,30.02-83.68,39-114c17-82-16-150-132.02-185.25c-53.43-17.22-106.06-36.9-159.06-55.46
	c-46.08-16.14-92.18-32.23-138.26-48.37c-117.33-41.08-234.65-82.19-351.97-123.27C776.13,37.06,728.46,20.4,680.81,3.71
	c-1.71-0.6-3.57-1.97-4.72-3.62c24.33,0,48.67,0,73,0c0.33,0,0.67,0,1,0C750.76,0.09,751.43,0.09,752.09,0.09z"/>
</svg>
